<svg width="88" height="62" viewBox="0 0 88 62" fill="none" xmlns="http://www.w3.org/2000/svg">
<path d="M33.7847 0.46011C23.3572 0.364796 13.4819 2.47237 4.54103 8.07487C1.25988 10.1295 0.113072 13.402 0.00688602 17.0982C-0.109919 21.165 1.24926 24.5329 4.84897 26.7569C8.75662 29.161 12.6749 29.2881 16.848 27.2335C23.2616 24.0669 30.0151 22.2876 37.2676 23.3361C50.7638 25.2848 59.2056 33.2279 63.8353 45.6614C64.5468 47.5571 64.8123 49.5588 65.1733 51.5498C66.4475 58.6986 71.6825 61.9393 78.0537 61.3992C84.616 60.8485 88.8528 54.4305 87.8546 48.0867C85.9221 35.8438 80.7826 25.2425 71.9904 16.4521C64.2707 8.72091 55.1069 3.65852 44.329 1.56156C40.8461 0.883751 37.3632 0.343632 33.7847 0.481312V0.46011Z" fill="#ACE2FF"/>
<path d="M72.2205 47.3854C73.065 47.3854 73.7496 48.0682 73.7496 48.9105C73.7496 49.7527 73.065 50.4355 72.2205 50.4355C71.376 50.4355 70.6914 49.7527 70.6914 48.9105C70.6914 48.0682 71.376 47.3854 72.2205 47.3854Z" fill="black"/>
<path d="M83.8299 45.7448C84.6744 45.7448 85.3589 46.4276 85.3589 47.2699C85.3589 48.1121 84.6744 48.7949 83.8299 48.7949C82.9854 48.7949 82.3008 48.1121 82.3008 47.2699C82.3008 46.4276 82.9854 45.7448 83.8299 45.7448Z" fill="black"/>
</svg>
