<svg width="49" height="48" viewBox="0 0 49 48" fill="none" xmlns="http://www.w3.org/2000/svg">
<rect x="0.5625" y="0.918945" width="47.8777" height="46.1622" rx="23.0811" fill="#FF91B2"/>
<g filter="url(#filter0_g_1196_3779)">
<path d="M21.0505 30.9333C21.097 30.9801 21.1523 31.0173 21.2132 31.0427C21.2742 31.0681 21.3395 31.0812 21.4055 31.0812C21.4715 31.0812 21.5369 31.0681 21.5978 31.0427C21.6588 31.0173 21.7141 30.9801 21.7605 30.9333C25.4205 27.0933 29.0872 23.2499 32.7605 19.4033L34.3005 17.7833C34.7405 17.3133 34.0405 16.6033 33.5905 17.0733L22.5905 28.6033L21.3905 29.8633L15.3905 23.8633C15.2955 23.7806 15.1727 23.7369 15.0468 23.7409C14.9209 23.7448 14.8012 23.7961 14.7115 23.8846C14.6218 23.973 14.5688 24.092 14.563 24.2179C14.5573 24.3437 14.5993 24.467 14.6805 24.5633L21.0505 30.9333Z" fill="#FEFBFA"/>
<path d="M33.9854 16.4209C34.2476 16.4377 34.4736 16.5623 34.6338 16.7236C34.9515 17.0436 35.1129 17.6474 34.666 18.125L34.6631 18.1279L33.123 19.748L33.1221 19.749C29.4489 23.5955 25.7819 27.4385 22.1221 31.2783L22.1152 31.2852C22.0223 31.3788 21.9119 31.4531 21.79 31.5039C21.6682 31.5547 21.5373 31.5811 21.4053 31.5811C21.2733 31.581 21.1423 31.5546 21.0205 31.5039C20.8996 31.4535 20.7897 31.3799 20.6973 31.2871L14.3125 24.9023L14.2988 24.8857C14.1363 24.6934 14.0521 24.4469 14.0635 24.1953C14.0749 23.9437 14.181 23.7052 14.3604 23.5283L14.4307 23.4658C14.6001 23.3276 14.811 23.2481 15.0312 23.2412C15.2515 23.2343 15.4668 23.3005 15.6445 23.4277L15.7188 23.4863L15.7314 23.4971L21.3818 29.1475L22.2285 28.2588V28.2578L33.2285 16.7285L33.2295 16.7275L33.3105 16.6504C33.506 16.4842 33.7432 16.4054 33.9854 16.4209Z" stroke="#FEFBFA"/>
</g>
<defs>
<filter id="filter0_g_1196_3779" x="12.6625" y="15.0189" width="23.6789" height="17.9621" filterUnits="userSpaceOnUse" color-interpolation-filters="sRGB">
<feFlood flood-opacity="0" result="BackgroundImageFix"/>
<feBlend mode="normal" in="SourceGraphic" in2="BackgroundImageFix" result="shape"/>
<feTurbulence type="fractalNoise" baseFrequency="0.072463765740394592 0.072463765740394592" numOctaves="3" seed="7573" />
<feDisplacementMap in="shape" scale="1.7999999523162842" xChannelSelector="R" yChannelSelector="G" result="displacedImage" width="100%" height="100%" />
<feMerge result="effect1_texture_1196_3779">
<feMergeNode in="displacedImage"/>
</feMerge>
</filter>
</defs>
</svg>
