<svg aria-hidden="true" style="position: absolute; width: 0; height: 0; overflow: hidden;" version="1.1" xmlns="http://www.w3.org/2000/svg" xmlns:xlink="http://www.w3.org/1999/xlink">
<defs>
<symbol id="icon-1" viewBox="0 0 32 32">
<path fill="#fff9c1" style="fill: var(--color1, #fff9c1)" d="M16 0c8.837 0 16 7.163 16 16s-7.163 16-16 16c-8.837 0-16-7.163-16-16s7.163-16 16-16z"></path>
<path fill="#ff91b2" style="fill: var(--color2, #ff91b2)" d="M23.807 9.22c-0.019-0.067-0.055-0.114-0.096-0.151-0.068-0.136-0.228-0.239-0.392-0.21 0.007-0.19-0.158-0.383-0.392-0.328-2.404 0.563-4.872 1.143-7.227 1.884-1.711 0.538-3.416 1.132-5.11 1.721-0.729 0.254-1.757 0.474-2.378 0.97-0.125 0.1-0.132 0.249-0.078 0.378-0.12 0.058-0.188 0.226-0.073 0.364 0.792 0.955 1.966 2.741 3.362 3.008-0.162 2.109-0.322 4.405 0.503 6.386 0.097 0.234 0.349 0.322 0.552 0.146 0.077-0.067 0.144-0.14 0.217-0.21 0.555 0.050 1.229-0.472 1.659-0.74 0.599-0.374 1.174-0.787 1.739-1.211 0.256-0.192 0.632-0.406 0.874-0.667 0.636 0.415 1.307 0.761 2.046 0.927 1.244 0.278 1.413-0.197 1.944-1.225 0.965-1.867 1.602-3.977 2.276-5.966 0.544-1.604 1.061-3.395 0.575-5.073zM12.208 19.868c-0.030 0.408-0.115 0.977-0.11 1.523-0.248-1.474-0.158-3.013-0.224-4.506 0.212-0.010 0.422-0.052 0.632-0.114-0.107 1.032-0.221 2.064-0.298 3.098zM8.571 13.709c2.62-0.908 5.221-1.874 7.867-2.707 1.658-0.522 3.64-0.665 5.345-1.255-0.525 0.412-1.027 0.879-1.598 1.237-1.237 0.776-2.528 1.461-3.801 2.173-1.116 0.624-2.028 1.552-3.066 2.296-2.055 1.472-3.337-0.39-4.747-1.742zM19.937 12.59c-0.010-0.082-0.020-0.164-0.026-0.246-0.006-0.105-0.004-0.211-0.003-0.317 0.372-0.203 0.739-0.41 1.086-0.633 0.057-0.036 0.122-0.076 0.19-0.118-0.237 0.254-0.477 0.506-0.722 0.757-0.178 0.183-0.351 0.371-0.526 0.556zM19.597 12.95c-0.086 0.092-0.174 0.182-0.26 0.275-0.045-0.267-0.114-0.532-0.171-0.799 0.122-0.064 0.24-0.129 0.361-0.193-0.016 0.251-0.001 0.501 0.070 0.718zM18.138 14.554c-0.146 0.166-0.297 0.328-0.441 0.496-0.038-0.078-0.158-0.109-0.226-0.045-0.113-0.503-0.198-1.005-0.239-1.528 0.177-0.107 0.362-0.206 0.544-0.307-0.023 0.497-0.004 1.352 0.361 1.384zM18.106 13.741c-0.031-0.242-0.034-0.486-0.051-0.728 0.267-0.145 0.538-0.287 0.808-0.428 0.009 0.335 0.062 0.676 0.186 0.958-0.232 0.254-0.464 0.508-0.693 0.765-0.021-0.020-0.047-0.034-0.079-0.036-0.117-0.007-0.161-0.452-0.171-0.531zM17.231 15.596c-0.281 0.335-0.56 0.673-0.832 1.016-0.002-0-0.003-0.001-0.005-0.001-0.017-0.094-0.040-0.184-0.052-0.28-0.032-0.253-0.040-0.51-0.049-0.765-0.015-0.429-0.011-0.858-0.026-1.287-0.002-0.059-0.039-0.088-0.081-0.102 0.249-0.19 0.514-0.365 0.783-0.535 0.001 0.658 0.089 1.321 0.262 1.955zM15.962 16.331c0.005 0.138 0.077 0.436 0.193 0.592-0.165 0.212-0.336 0.42-0.498 0.635 0.001-0.386-0.060-0.787-0.092-1.15-0.045-0.512-0.091-1.039-0.215-1.543 0.222-0.193 0.435-0.379 0.634-0.539 0.014-0.011 0.029-0.021 0.042-0.031-0.030 0.679-0.088 1.356-0.064 2.036zM14.839 18.988c0.028 0.021 0.057 0.043 0.085 0.064-0.089 0.081-0.168 0.169-0.243 0.262-0.168-1.209-0.089-2.405-0.191-3.615-0.003-0.033-0.018-0.055-0.035-0.074 0.226-0.182 0.444-0.368 0.655-0.551 0.080 0.501 0.103 1.015 0.114 1.519 0.011 0.484-0.070 1.012 0.045 1.487-0.105 0.145-0.218 0.284-0.321 0.431-0.005 0.006-0.005 0.013-0.008 0.020-0.197 0.018-0.304 0.309-0.101 0.458zM12.779 22.101c-0.029-1.819 0.175-3.658 0.105-5.47 0.469-0.202 0.926-0.507 1.362-0.842-0.005 0.051-0.009 0.103-0.014 0.154-0.008 0.058-0.012 0.061-0.015 0.163-0.097 1.094-0.148 2.251 0.083 3.314 0.026 0.117 0.116 0.154 0.203 0.138-0.168 0.246-0.318 0.509-0.476 0.764-0.065 0.105-0.136 0.207-0.202 0.311 0.060-0.594-0.018-1.253-0.011-1.806 0.010-0.808-0.087-1.625-0.093-2.417-0.001-0.075-0.111-0.074-0.115 0-0.046 0.793-0.185 1.607-0.216 2.417-0.028 0.725-0.224 1.655-0.015 2.363 0.009 0.029 0.028 0.045 0.045 0.064-0.202 0.292-0.413 0.577-0.64 0.849zM15.949 20.493c-0.466 0.37-0.943 0.728-1.426 1.077-0.32 0.232-0.651 0.447-0.987 0.653 0.226-0.296 0.441-0.601 0.65-0.914 0.395-0.591 0.921-1.243 1.184-1.921 0.327 0.251 0.657 0.507 0.994 0.753-0.145 0.115-0.281 0.245-0.415 0.351zM21.325 17.391c-0.552 1.424-0.713 3.714-2.549 3.317-1.176-0.254-2.282-1.222-3.316-1.909 2.515-3.059 5.274-5.896 7.797-8.928 0.379 2.449-1.084 5.332-1.932 7.52z"></path>
</symbol>
<symbol id="icon-2" viewBox="0 0 30 32">
<path fill="#fff9c1" style="fill: var(--color1, #fff9c1)" d="M15.111 0c8.346 0 15.111 6.765 15.111 15.111v1.778c0 8.346-6.765 15.111-15.111 15.111s-15.111-6.765-15.111-15.111v-1.778c0-8.346 6.765-15.111 15.111-15.111z"></path>
<path fill="#ff91b2" style="fill: var(--color2, #ff91b2)" d="M23.107 15.424c-0.002 0.003-0.004 0.007-0.006 0.010 0.005 0.011 0 0.029-0 0.042 0.005 0.013 0.008 0.024 0.004 0.033-0.038 0.070-0.082 0.132-0.134 0.192-0.030 0.030-0.088 0.038-0.121 0.041-0.001-0.002-0.002-0.002-0.003-0-0.007 0.012-0.015 0.004-0.023 0.008-0.105 0.033-0.222 0.021-0.321 0.055-0.142 0.015-0.294 0.086-0.435 0.030-0.17 0.004-0.231-0.225-0.249-0.357 0.007-0.017 0.008-0.033 0.017-0.057 0.002-0.014 0.005-0.018 0.007-0.020 0.009 0.001 0.017-0.037 0.025-0.052 0.006-0.001 0.012-0.005 0.018-0.003 0.014 0.004 0.028-0.031 0.042-0.027 0.010-0 0.019-0.006 0.029-0.008 0.006-0.002 0.009-0.022 0.015-0.020 0.005 0.001 0.008-0.002 0.012-0.010 0.008 0.006 0.015-0.013 0.022-0.024 0.004-0.006 0.009-0.002 0.013-0.003 0.010-0.001 0.020-0.012 0.030-0.016 0.117-0.014 0.243-0.019 0.363-0.021 0.066-0.002 0.136-0.027 0.205 0.006 0.102 0.024 0.208 0.037 0.31 0.046 0.007-0.011 0.012 0.013 0.017 0.021 0.005 0.002 0.011 0.002 0.016 0.008 0.023 0.003 0.043 0.013 0.061 0.031 0.010 0.009 0.020-0.006 0.029-0.010 0.002-0.001 0.004-0 0.006 0.012 0.003 0.015 0.008 0.015 0.018 0.018 0.028-0.018 0.046 0.062 0.032 0.076zM22.037 19.56c-0.007-0.008-0.010-0.009-0.005-0.024 0.005-0.011 0.004-0.013 0.002-0.013-0.008-0-0.025 0.007-0.027-0.005-0.003-0.030-0.024-0.047-0.038-0.067-0.002-0.010 0.011-0.031-0.002-0.026-0.007 0.002-0.007-0.006-0.011-0.009-0.050-0.035-0.096-0.074-0.143-0.111-0.048-0.042-0.085-0.103-0.146-0.129-0.044-0.005-0.071-0.032-0.108-0.052-0.085-0.031-0.158-0.088-0.242-0.116-0.010-0.001-0.022 0.004-0.031 0-0.004-0.001-0.005-0.007-0.012-0.003-0.013 0.009-0.025 0.016-0.031 0.011-0.008 0.008-0.010 0.004-0.013 0.003-0.003-0.005-0.017 0.011-0.022 0.010-0.020-0.001-0.031-0.014-0.053-0.002-0.008 0.004-0.015 0.005-0.018 0.001-0.019-0.021-0.050 0.035-0.061 0.028-0.016 0.010-0.046 0.045-0.058 0.055-0.048 0.111-0.13 0.341 0.006 0.419 0.078 0.111 0.231 0.118 0.345 0.168 0.091 0.014 0.175 0.077 0.271 0.096 0.008 0 0.010 0.010 0.021 0.004 0.001-0.001 0.002-0.001 0.002 0.001 0.005 0.010 0.097 0.033 0.113 0.019 0.070-0.029 0.135-0.062 0.199-0.106 0.006-0.006 0.010-0.016 0.013-0.030 0.007-0.011 0.019-0.024 0.022-0.036 0.024-0.002 0.058-0.086 0.024-0.086zM14.311 7.747c0.021 0.115 0.008 0.243 0.023 0.363-0.007 0.039-0.006 0.082 0.020 0.115 0.003 0.006-0.004 0.013 0.004 0.020 0.014 0.008 0.026 0.016 0.025 0.024 0.011 0.004 0.008 0.007 0.009 0.011-0.003 0.006 0.018 0.010 0.020 0.016 0.009 0.021 0.003 0.039 0.025 0.055 0.007 0.006 0.012 0.012 0.010 0.018-0.011 0.029 0.054 0.030 0.054 0.045 0.016 0.011 0.062 0.019 0.077 0.026 0.137-0.017 0.367-0.081 0.363-0.252 0.058-0.145-0.012-0.301-0.026-0.447-0.033-0.103-0.020-0.222-0.052-0.33-0.003-0.008 0.004-0.016-0.007-0.024-0.001-0.001-0.002-0.002 0-0.003-0.002-0.035-0.009-0.093-0.040-0.125-0.060-0.053-0.121-0.1-0.192-0.139-0.008-0.003-0.019-0-0.033 0.004-0.013-0-0.031-0.005-0.042-0.001-0.016-0.024-0.104-0.006-0.087 0.026-0.003 0.010-0.003 0.017-0.018 0.019-0.013 0.001-0.013 0.003-0.012 0.006 0.024 0.024 0.001 0.036-0.010 0.056-0.015 0.018-0.008 0.045-0.027 0.056-0.019 0.004-0.019 0.009-0.015 0.013-0.001 0.045-0.014 0.097-0.018 0.144-0.001 0.104-0.057 0.201-0.050 0.306zM10.266 8.397c0.004 0.003 0.009 0.005 0.006 0.011-0.008 0.023-0.007 0.045 0.001 0.065-0.003 0.007 0 0.011 0.001 0.017-0.004 0.010-0.025 0.022-0.011 0.024 0.020 0.036 0.033 0.084 0.051 0.123 0.053 0.087 0.038 0.21 0.114 0.283 0.039 0.043 0.051 0.106 0.098 0.148 0.052 0.068 0.075 0.161 0.149 0.202 0.002 0.018 0.042 0.002 0.040 0.016 0.008-0.002 0.014 0.001 0.015 0.005 0 0.006 0.020-0 0.025 0.003 0.006 0.007 0.016 0.012 0.021 0.020 0.003 0.013 0.040 0.007 0.043 0.021 0.001 0.006 0.007 0.009 0.011 0.014 0.037-0.011 0.049-0 0.078-0.008 0.025-0.004 0.041-0.010 0.058-0.013 0.104-0.077 0.281-0.24 0.197-0.381-0.017-0.143-0.151-0.234-0.23-0.344-0.076-0.064-0.12-0.167-0.198-0.238-0.007-0.005-0.004-0.015-0.017-0.015-0.002-0-0.002-0.001-0.001-0.002-0.016-0.025-0.054-0.072-0.092-0.080-0.077-0.013-0.152-0.019-0.231-0.016-0.008 0.002-0.017 0.009-0.027 0.020-0.012 0.006-0.029 0.011-0.037 0.021-0.028-0.008-0.062 0.028-0.071 0.050-0.002 0.015 0.014 0.011 0.009 0.029-0.009 0.017-0.031 0.015-0 0.028zM7.237 12.136c0.007 0.008 0.011 0.009 0.005 0.024-0.005 0.011-0.004 0.013-0.002 0.013 0.009 0 0.025-0.007 0.028 0.005 0.004 0.031 0.025 0.047 0.039 0.068 0.002 0.010-0.011 0.031 0.002 0.026 0.007-0.002 0.007 0.006 0.011 0.009 0.051 0.036 0.098 0.075 0.146 0.113 0.049 0.043 0.087 0.104 0.149 0.131 0.044 0.005 0.072 0.033 0.111 0.054 0.087 0.032 0.161 0.090 0.247 0.119 0.010 0.001 0.023-0.004 0.031-0 0.004 0.001 0.005 0.007 0.012 0.003 0.013-0.009 0.025-0.016 0.031-0.011 0.008-0.008 0.010-0.004 0.013-0.003 0.003 0.005 0.017-0.011 0.022-0.010 0.021 0.002 0.031 0.014 0.054 0.002 0.008-0.004 0.015-0.005 0.019-0.001 0.019 0.021 0.050-0.034 0.062-0.027 0.016-0.010 0.046-0.045 0.058-0.054 0.049-0.114 0.129-0.342-0.010-0.421-0.080-0.112-0.235-0.121-0.352-0.172-0.093-0.015-0.179-0.079-0.277-0.099-0.008-0-0.010-0.010-0.021-0.004-0.001 0.001-0.002 0.001-0.002-0.001-0.014-0.012-0.091-0.033-0.115-0.020-0.071 0.029-0.137 0.061-0.202 0.104-0.006 0.006-0.010 0.016-0.013 0.030-0.007 0.011-0.019 0.024-0.022 0.036-0.024 0.002-0.058 0.086-0.024 0.086zM18.141 8.945c0.009 0.014 0.016 0.025 0.011 0.031 0.008 0.008 0.004 0.010 0.003 0.013-0.005 0.003 0.011 0.017 0.010 0.022-0.002 0.008-0.002 0.019-0.006 0.026-0.009 0.009 0.014 0.036 0.005 0.046-0.021 0.018 0.035 0.050 0.027 0.061 0.010 0.017 0.045 0.045 0.055 0.058 0.114 0.048 0.344 0.128 0.424-0.009 0.112-0.079 0.12-0.232 0.172-0.347 0.015-0.091 0.079-0.176 0.099-0.273 0-0.008 0.011-0.010 0.004-0.021-0.001-0.001-0.001-0.002 0.001-0.002 0.011-0.010 0.034-0.094 0.020-0.113-0.029-0.070-0.062-0.135-0.106-0.199-0.006-0.006-0.017-0.010-0.030-0.013-0.011-0.007-0.025-0.019-0.037-0.021-0.002-0.024-0.087-0.057-0.087-0.024-0.008 0.007-0.010 0.011-0.024 0.005-0.012-0.005-0.013-0.004-0.013-0.002-0 0.009 0.007 0.025-0.005 0.027-0.024 0.004-0.042 0.014-0.055 0.030-0.008 0.001-0.010 0.005-0.014 0.008-0.010 0.001-0.032-0.010-0.026 0.002-0.037 0.051-0.082 0.104-0.123 0.155-0.043 0.048-0.105 0.086-0.131 0.147-0.004 0.012-0.002 0.027-0.011 0.037-0.009 0.007 0.001 0.024-0.014 0.028-0.035 0.039-0.046 0.096-0.073 0.141-0.022 0.052-0.062 0.092-0.073 0.147-0.001 0.010 0.004 0.022 0 0.031-0.001 0.004-0.007 0.005-0.004 0.012zM20.984 11.995c0.081 0.058 0.188 0.139 0.285 0.076 0.15-0.018 0.242-0.163 0.358-0.238 0.057-0.075 0.16-0.11 0.224-0.185 0.005-0.007 0.015-0.004 0.015-0.017 0-0.002 0.001-0.002 0.002-0.001 0.026-0.016 0.072-0.053 0.081-0.091 0.013-0.076 0.019-0.15 0.016-0.229-0.002-0.008-0.009-0.017-0.020-0.027-0.006-0.012-0.011-0.029-0.021-0.037 0.011-0.024-0.046-0.091-0.064-0.063-0.011 0.002-0.014 0.005-0.024-0.007-0.007-0.010-0.010-0.010-0.011-0.008-0.005 0.007-0.007 0.026-0.019 0.022-0.023-0.008-0.046-0.007-0.066 0.001-0.007-0.003-0.012 0-0.017 0.001-0.010-0.004-0.023-0.024-0.024-0.011-0.089 0.040-0.184 0.078-0.28 0.104-0.073 0.003-0.119 0.057-0.173 0.090-0.086 0.040-0.161 0.112-0.247 0.152-0.023 0.015-0.047 0.028-0.055 0.059-0.003 0.006-0.013 0.003-0.014 0.012 0.001 0.016 0 0.030-0.007 0.033 0.002 0.011-0.002 0.011-0.005 0.013-0.005 0 0 0.020-0.003 0.024-0.012 0.017-0.030 0.021-0.031 0.047-0.001 0.009-0.004 0.016-0.009 0.017-0.029 0.006 0.003 0.061-0.009 0.068 0 0.019 0.015 0.063 0.017 0.078 0.029 0.028 0.065 0.088 0.102 0.119zM19.999 15.891c0.134 4.244-2.675 3.613-2.497 8.582 0.002 0.278-0.271 0.418-0.521 0.384-0.094 0.005-0.355-0.003-0.453 0.001-1.367 0.003-2.733 0.025-4.1 0.026-0.34 0.026-0.68-0.034-0.674-0.457-0.001-0.724-0.012-1.469-0.010-2.192-0.47 0.009-0.939 0.018-1.409 0.028-0.21 0.003-0.422 0.018-0.628-0.052-0.745-0.247-0.868-0.93-0.819-1.618 0.003-0.267-0.004-1.224-0.003-1.476-0.263-0.002-1.090 0.006-1.343 0.001-0.346-0.011-0.558-0.441-0.349-0.718 0.035-0.049 0.158-0.226 0.196-0.28 0.463-0.679 0.943-1.356 1.37-2.057 0.342-0.589 0.477-1.252 0.644-1.913 0.535-2.459 3.21-4.496 5.751-3.807-2.406-0.024-4.655 1.492-5.169 3.884-0.139 0.608-0.259 1.229-0.519 1.805-0.45 0.888-1.029 1.635-1.569 2.457 0.102 0.003 0.765-0.003 0.883-0.001 0.159 0.009 0.351-0.030 0.495 0.049 0.231 0.107 0.254 0.374 0.238 0.596 0 0.555 0.001 1.111 0.001 1.666-0.042 0.441 0.099 0.864 0.622 0.843 0.444-0.003 1.445-0.016 1.897-0.019 0.276-0.003 0.344 0.27 0.317 0.494-0.001 0.726-0.003 1.445 0 2.169 1.478-0.015 3.106-0.005 4.588 0.008-0.008-1.404 0.196-2.868 0.959-4.080 0.366-0.609 0.84-1.131 1.146-1.763 0.139-0.292 0.256-0.605 0.325-0.921 0.386-2.028 0.088-4.429-1.465-5.924-0.312-0.299-0.709-0.496-1.076-0.712-0.526-0.259-1.119-0.349-1.68-0.496 0.139-0.006 0.294 0.014 0.436 0.030-0.137-0.035-0.042-0.021 0.024-0.039-0.041-0.021-0.133-0.032-0.187-0.048 2.99 0.174 4.566 2.765 4.575 5.548zM7.574 18.491v0zM7.715 18.756l0-0.001-0.002 0.003 0.002-0.002zM12.353 24.469l-0-0.003c0 0.002 0 0.006 0 0.008l0-0.004zM16.94 24.471l0-0.004c-0 0.002-0 0.008-0 0.009v-0.006zM17.103 24.297l-0.001 0c0.002 0 0.003 0 0.001-0zM16.637 15.035c0.283 1.158-0.535 1.709-0.904 2.65 0.022 0.205 0.008 0.476 0.015 0.683 0.019 0.278 0.097 0.642-0.207 0.801-0.084 0.054-0.185 0.069-0.284 0.064-0.323 0.018-0.647 0.035-0.971 0.038-0.292 0.006-0.696 0.002-0.784-0.344-0.072-0.367 0.015-0.768 0.191-1.092-0.212-0.259-0.344-0.586-0.531-0.873-0.28-0.381-0.566-0.775-0.603-1.268-0.14-2.537 3.428-3.16 4.079-0.659zM14.081 18.755c-0-0.016-0.005-0.033-0.013-0.047 0.004 0.021 0.007 0.043 0.011 0.064 0.002-0.006 0.001-0.011 0.002-0.017zM15.318 18.636c-0.006-0.001-0.012-0-0.019-0 0.005 0 0.013 0 0.019 0zM16.186 15.494c-0.11-1.647-2.287-2.024-2.907-0.482-0.112 0.295-0.134 0.62-0.047 0.925 0.204 0.586 0.696 1.21 0.525 1.853 0.016 0.006 0.023-0.004 0.035-0.001 0.022 0.005 0.022 0.005 0.032-0.003 0.039 0.116 0.105 0.235 0.119 0.363 0.034 0.17 0.068 0.334 0.119 0.496 0.356-0.004 0.75-0.014 1.105-0.014-0.003-0.206 0.023-0.411 0.028-0.617-0.163-0.010-0.339-0.026-0.502-0.036-0.087-0.024-0.19-0.040-0.286-0.052-0.052-0.005-0.114-0.029-0.167-0.025-0.041 0.007-0.076 0.003-0.113-0.017-0.088-0.009-0.18-0.010-0.262-0.058 0.001-0.015 0.024-0.012 0.035-0.018-0.007-0.004-0.023-0.005-0.020-0.017-0.006-0.023-0.029-0.019-0.044-0.027-0.005-0.040 0.135-0.047 0.171-0.072 0.284-0.118 0.606-0.154 0.911-0.158 0.212-0.015 0.433-0.039 0.646-0.027 0.070-0.391 0.204-0.776 0.39-1.127 0.141-0.276 0.254-0.573 0.234-0.885zM10.729 15.649c0.003 0.016 0.006 0.073 0.027 0.059 0.014-0.003 0.012 0.030 0.017 0.030 0.006-0.004 0.015-0.019 0.021-0.009 0.012 0.018 0.026 0.029 0.043 0.032 0.004 0.006 0.008 0.006 0.011 0.008 0.001 0 0.002 0.002 0.002 0.007 0.003 0.018 0.006 0.019 0.009 0.015 0.072 0.010 0.149 0.025 0.22 0.049 0.033 0.014 0.071 0.031 0.105 0.012 0.005-0.002 0.010-0.004 0.015-0.002 0.008 0.004 0.017-0.013 0.025-0.002 0.070 0.008 0.147-0.017 0.217-0.009 0.021-0.001 0.043-0.002 0.058-0.023 0.005-0.003 0.009 0.004 0.014-0.003 0.006-0.015 0.011-0.025 0.017-0.025 0.006-0.018 0.010 0.001 0.015-0.021 0.004-0.011 0.015-0.013 0.024-0.015 0.010 0.004 0.020-0.030 0.030-0.027 0.004 0.002 0.009-0.002 0.013-0.002 0.015-0.049 0.030-0.085 0.037-0.128-0.010-0.052-0.009-0.137-0.033-0.191-0.038-0.095-0.052-0.161-0.16-0.178-0.092-0.038-0.184 0.018-0.273 0.032-0.011-0.004-0.021 0.012-0.031 0.005-0.006-0.001-0.013 0.011-0.020 0.012-0.067 0.018-0.149 0.010-0.211 0.045-0.005 0.001-0.003-0.011-0.010-0.001-0.028 0.012-0.060 0.009-0.078 0.040-0.046 0.083-0.11 0.166-0.094 0.265-0.005 0.012-0.007 0.008-0.009 0.027zM11.783 13.065c0.030 0.039 0.061 0.087 0.091 0.129 0.027 0.044 0.037 0.104 0.081 0.136 0.044 0.013 0.059 0.055 0.097 0.082 0.064 0.025 0.096 0.119 0.167 0.118 0.014 0.018 0.031-0.009 0.042 0.001 0.009-0.006 0.010-0.002 0.012-0.001 0.001 0.004 0.018-0.007 0.022-0.006 0.006 0.003 0.015 0.004 0.020 0.009 0.004 0.009 0.035-0.008 0.040 0.002 0.012 0.021 0.054-0.025 0.061-0.016 0 0.005 0.033-0.024 0.033-0.019 0.091-0.063 0.152-0.177 0.188-0.283 0.028-0.058-0.009-0.105-0.037-0.147-0.037-0.091-0.153-0.111-0.221-0.167-0.011 0.002-0.009-0.010-0.016-0.011-0.018 0.002-0.022-0.011-0.039-0.012-0.047-0.043-0.101-0.088-0.161-0.107-0.005-0.003 0.006-0.010-0.007-0.008-0.028-0.011-0.049-0.036-0.084-0.027-0.091 0.026-0.196 0.040-0.255 0.122-0.020-0.001-0.077 0.067-0.049 0.074 0.011 0.009-0.013 0.029-0.010 0.033 0.007 0.002 0.023-0.003 0.021 0.008-0.004 0.021-0.003 0.038 0.008 0.053-0.002 0.007 0.001 0.009 0.002 0.013 0 0.001-0.001 0.003-0.003 0.006-0.011 0.015-0.009 0.018-0.004 0.017zM14.351 11.941c-0.019 0.060-0.057 0.121-0.031 0.183 0.007 0.034-0.010 0.079 0.008 0.117 0.010 0.063-0.014 0.138 0.027 0.185-0.006 0.014 0.035 0.017 0.027 0.025 0.009 0.002 0.011 0.006 0.010 0.009-0.001 0.006 0.024 0.007 0.022 0.016 0.008 0.014 0.003 0.023 0.023 0.033 0.007 0.004 0.012 0.008 0.010 0.012-0.007 0.024 0.057 0.020 0.055 0.031 0.003 0.005 0.040 0.008 0.043 0.012 0.103 0.013 0.396-0.034 0.396-0.167 0.049-0.083 0.005-0.186-0.021-0.269 0.002-0.018-0.010-0.037-0.007-0.051 0.001-0.006-0.011-0.013-0.012-0.020-0.018-0.066-0.010-0.148-0.045-0.209-0.001-0.005 0.011-0.003 0.001-0.010-0.012-0.027-0.009-0.060-0.040-0.078-0.083-0.046-0.167-0.109-0.267-0.093-0.013-0.015-0.102-0.007-0.087 0.018-0.004 0.008-0.003 0.011-0.018 0.013-0.034 0.001 0.012 0.014-0.003 0.024-0.012 0.006-0.013 0.012-0.020 0.018-0.015 0.012-0.009 0.033-0.027 0.038-0.025 0.005-0.015 0.005-0.013 0.014-0.014 0.048-0.018 0.102-0.030 0.15zM16.643 13.28c0.024 0.045 0.040 0.081 0.065 0.116 0.061 0.047 0.144 0.119 0.224 0.139 0.079 0.034 0.108 0.030 0.176-0.013 0.092-0.038 0.117-0.142 0.171-0.214 0.010-0.005 0.006-0.024 0.018-0.025 0.005-0.004 0.002-0.017 0.006-0.022 0.015-0.032 0.045-0.060 0.070-0.088 0.031-0.057 0.054-0.096 0.082-0.151-0.001-0.080-0.039-0.157-0.068-0.233-0.005-0.007-0.013-0.014-0.025-0.021-0.009-0.009-0.019-0.024-0.030-0.030 0.002-0.020-0.068-0.076-0.074-0.048-0.009 0.011-0.029-0.013-0.034-0.010 0.004 0.032-0.016 0.016-0.034 0.020-0.019-0.002-0.030 0.017-0.046 0.008-0.015-0.011-0.018-0.009-0.017-0.004-0.022 0.021-0.057 0.037-0.083 0.057-0.053 0.050-0.137 0.056-0.185 0.113-0.005 0.008-0.005 0.023-0.015 0.027-0.009 0.003-0.003 0.021-0.016 0.019-0.036 0.021-0.054 0.065-0.084 0.094-0.027 0.037-0.068 0.058-0.085 0.099-0.002 0.008 0.001 0.019-0.004 0.026-0.001 0.003-0.007 0.002-0.005 0.009 0.006 0.014 0.011 0.026 0.006 0.029 0.006 0.009 0.002 0.010 0.001 0.012-0.005 0.003 0.012 0.021 0.004 0.027-0.004 0.016-0.014 0.018-0.007 0.039 0.006 0.016-0.006 0.015-0.009 0.027zM18.544 15.42c-0.003-0.016-0.006-0.073-0.027-0.059-0.014 0.003-0.012-0.030-0.017-0.030-0.006 0.004-0.015 0.019-0.021 0.010-0.012-0.018-0.026-0.029-0.043-0.032-0.004-0.006-0.008-0.006-0.011-0.008-0.001-0-0.002-0.002-0.002-0.007-0.003-0.018-0.006-0.019-0.009-0.015-0.072-0.010-0.149-0.025-0.22-0.049-0.033-0.014-0.071-0.031-0.105-0.012-0.005 0.002-0.010 0.004-0.015 0.002-0.008-0.004-0.017 0.013-0.025 0.002-0.070-0.008-0.147 0.017-0.217 0.009-0.021 0.001-0.043 0.002-0.058 0.023-0.005 0.003-0.010-0.004-0.014 0.003-0.006 0.015-0.011 0.025-0.017 0.025-0.006 0.018-0.010-0.001-0.015 0.021-0.004 0.011-0.015 0.013-0.024 0.015-0.010-0.004-0.020 0.030-0.030 0.027-0.004-0.002-0.009 0.002-0.013 0.002-0.015 0.049-0.030 0.085-0.037 0.128 0.010 0.052 0.009 0.137 0.033 0.191 0.038 0.095 0.052 0.161 0.16 0.178 0.092 0.038 0.184-0.018 0.273-0.031 0.011 0.004 0.021-0.012 0.031-0.005 0.006 0.001 0.013-0.011 0.020-0.012 0.067-0.018 0.149-0.010 0.211-0.045 0.005-0.001 0.003 0.011 0.010 0.001 0.028-0.012 0.060-0.009 0.078-0.040 0.046-0.083 0.11-0.166 0.094-0.265 0.005-0.012 0.007-0.008 0.009-0.027zM17.49 18.004c-0.030-0.039-0.061-0.087-0.091-0.13-0.026-0.044-0.037-0.103-0.081-0.136-0.044-0.013-0.059-0.055-0.097-0.082-0.064-0.025-0.096-0.119-0.167-0.118-0.014-0.018-0.031 0.009-0.042-0.001-0.009 0.006-0.010 0.002-0.012 0.001-0.003-0.005-0.021 0.012-0.027 0.004-0.016-0.004-0.019-0.014-0.040-0.007-0.008 0.002-0.015 0.003-0.016-0.002-0.012-0.021-0.054 0.026-0.061 0.016-0-0.005-0.033 0.024-0.033 0.019-0.091 0.063-0.152 0.177-0.188 0.283-0.028 0.058 0.009 0.105 0.037 0.147 0.037 0.091 0.153 0.111 0.221 0.167 0.011-0.002 0.009 0.010 0.016 0.011 0.018-0.002 0.021 0.011 0.039 0.012 0.047 0.043 0.101 0.088 0.161 0.107 0.005 0.003-0.006 0.010 0.007 0.008 0.028 0.011 0.049 0.036 0.084 0.027 0.091-0.026 0.196-0.040 0.255-0.122 0.019 0.001 0.077-0.067 0.049-0.074-0.011-0.009 0.013-0.029 0.010-0.033-0.007-0.002-0.023 0.003-0.021-0.008 0.004-0.021 0.003-0.038-0.008-0.053 0.002-0.007-0.001-0.009-0.002-0.013-0-0.001 0-0.003 0.003-0.006 0.011-0.015 0.009-0.018 0.004-0.017zM12.63 17.788c-0.024-0.045-0.040-0.081-0.065-0.116-0.061-0.047-0.144-0.119-0.224-0.139-0.079-0.034-0.108-0.030-0.176 0.013-0.092 0.038-0.117 0.142-0.171 0.214-0.010 0.005-0.006 0.024-0.018 0.025-0.005 0.004-0.002 0.017-0.006 0.022-0.015 0.032-0.045 0.060-0.070 0.088-0.031 0.057-0.054 0.096-0.082 0.151 0.001 0.080 0.039 0.157 0.068 0.233 0.013 0.013 0.040 0.037 0.055 0.051-0.002 0.020 0.068 0.076 0.074 0.048 0.009-0.011 0.029 0.013 0.034 0.010-0.004-0.032 0.016-0.016 0.034-0.020 0.019 0.002 0.030-0.017 0.046-0.008 0.015 0.011 0.018 0.009 0.017 0.004 0.022-0.021 0.057-0.037 0.083-0.057 0.053-0.050 0.137-0.056 0.185-0.113 0.005-0.008 0.005-0.023 0.015-0.027 0.009-0.003 0.003-0.020 0.016-0.019 0.036-0.021 0.054-0.065 0.084-0.094 0.027-0.037 0.068-0.058 0.085-0.099 0.002-0.008-0.001-0.019 0.004-0.026 0.001-0.003 0.007-0.002 0.005-0.009-0.006-0.014-0.011-0.026-0.006-0.029-0.006-0.009-0.002-0.010-0.001-0.012 0.005-0.003-0.012-0.021-0.004-0.026 0.004-0.016 0.014-0.018 0.007-0.039-0.006-0.016 0.006-0.015 0.009-0.026z"></path>
</symbol>
<symbol id="icon-3" viewBox="0 0 32 32">
<path fill="#fff9c1" style="fill: var(--color1, #fff9c1)" d="M16 0c8.837 0 16 7.163 16 16s-7.163 16-16 16c-8.837 0-16-7.163-16-16s7.163-16 16-16z"></path>
<path fill="#ff91b2" style="fill: var(--color2, #ff91b2)" d="M22.548 10.82c-0.293-0.098-0.652-0.098-0.912-0.098-0.13 0-1.89 0-1.792 0l0.033-1.075c0-0.065 0-0.098 0-0.195 0-0.065 0-0.163-0.033-0.228-0.098-0.358-0.391-0.684-0.847-0.749-0.033 0-0.098 0-0.13 0h-0.098c-1.205-0.033-4.268-0.033-5.538 0h-0.098c-0.033 0-0.065 0-0.13 0-0.554 0.065-0.88 0.521-0.88 0.977v0.195l0.033 1.075c-0.163 0-2.215 0-2.085 0-0.326 0-0.652 0.065-0.912 0.195-0.586 0.261-1.043 0.782-1.205 1.401-0.033 0.163-0.065 0.326-0.065 0.456v0.424c0 2.574-0.033 0 0.098 8.242 0 1.010 0.684 1.792 1.499 2.020 0.293 0.098 0.586 0.065 0.847 0.065 3.453-0.065 3.975-0.098 5.767-0.13-1.89-0.065-5.799-0.13-5.767-0.13-0.293 0-0.521 0-0.782-0.098-0.684-0.195-1.238-0.847-1.205-1.694 0-0.228 0.065-5.343 0.065-5.734 0.749 1.303 2.085 2.215 4.007 2.183h2.085c0 0.098 0 0.163 0.033 0.261 0 0.033 0.033 0.489 0.033 0.456v0.163c0.065 0.261 0.293 0.489 0.554 0.554h0.847c0.033 0 0.749 0 0.717 0 0.13 0 0.293-0.033 0.391-0.13 0.163-0.098 0.261-0.261 0.293-0.456v-0.065c0-0.033 0.065-0.619 0.065-0.586 0-0.098 0-0.163 0.033-0.261h2.085c0.358 0 0.814-0.033 1.205-0.098 0.391-0.098 0.782-0.228 1.14-0.456 0.684-0.391 1.238-0.945 1.629-1.629 0.033 1.792-0.033-1.531 0.065 5.473 0 0.293 0 0.521-0.065 0.782-0.163 0.717-0.88 1.271-1.662 1.303-2.215 0.033-4.268 0.098-5.767 0.13 1.564 0.065 3.453 0.098 5.767 0.13 0.293 0 0.586-0.065 0.88-0.163 0.554-0.228 0.977-0.717 1.14-1.303 0.098-0.293 0.098-0.619 0.098-0.88 0.13-8.438 0.065-5.473 0.098-8.243 0-0.293-0.065-0.619-0.195-0.912-0.228-0.554-0.717-1.010-1.336-1.173zM12.677 9.484c0-0.195 0.163-0.391 0.424-0.424h0.163c1.173 0.033 4.235 0.033 5.538 0h0.163c0.261 0.033 0.391 0.228 0.424 0.424v0.163l0.033 1.075c-3.030 0-3.649-0.033-6.744 0l0.033-1.075c-0.033-0.065-0.033-0.13-0.033-0.163zM16.814 18.704c-0.033 0.033-0.065 0.065-0.065 0.065h-0.033c-0.033 0-0.749 0-0.717 0-0.033 0-0.749 0-0.717 0h-0.065c-0.033 0-0.033-0.033-0.033-0.065s-0.228-1.922-0.228-1.759l-0.033-0.293c0-0.033 0-0.033 0.033-0.065s0.033-0.033 0.065-0.033 1.043 0 0.977 0c0.033 0 1.010 0 0.977 0 0.033 0 0.033 0 0.065 0.033s0.033 0.033 0.033 0.065l-0.033 0.293c-0.033 0.098 0.065-0.521-0.228 1.759zM23.493 14.371c-0.065 0.358-0.195 0.684-0.358 1.010-0.326 0.619-0.847 1.173-1.499 1.499-0.326 0.163-0.652 0.293-1.010 0.358-0.326 0.065-0.652 0.065-1.043 0.065h-1.955c0-0.033 0.065-0.489 0.065-0.456v-0.163c0-0.195-0.065-0.391-0.228-0.521-0.13-0.13-0.326-0.228-0.521-0.228-0.033 0-1.043 0-0.977 0-0.033 0-1.043 0-0.977 0-0.195 0-0.391 0.065-0.521 0.228-0.13 0.13-0.228 0.326-0.228 0.521v0.098c0 0.033 0.065 0.554 0.065 0.521h-1.955c-1.759 0.033-2.932-0.749-3.584-1.922-0.163-0.326-0.293-0.652-0.358-1.010 0-0.065-0.033-0.13-0.033-0.195 0-0.098 0 0.326 0-0.912 0-0.293 0-0.521 0.065-0.749 0.13-0.456 0.456-0.847 0.88-1.010 0.228-0.098 0.456-0.13 0.684-0.13h0.815c0.033 0 10.751 0 10.719 0 0.293 0 0.521 0 0.749 0.065 0.456 0.13 0.814 0.456 1.010 0.88 0.098 0.228 0.13 0.424 0.13 0.684v1.173c0.098 0.033 0.098 0.13 0.065 0.195z"></path>
</symbol>
<symbol id="icon-4" viewBox="0 0 32 32">
<path fill="#fff9c1" style="fill: var(--color1, #fff9c1)" d="M16 0c8.837 0 16 7.163 16 16s-7.163 16-16 16c-8.837 0-16-7.163-16-16s7.163-16 16-16z"></path>
<path fill="#ff91b2" style="fill: var(--color2, #ff91b2)" d="M18.723 16.325l-0.006-0.003-0.025 0.078c0.009-0.094-0.037-0.15-0.037-0.241l0.037-0.047c0 0 0.022 0.025 0.025 0 0.006-0.031 0-0.063-0.016-0.087h-0.009l-0.009-0.003-0.016-0.006c-0.006-0.056-0.016-0.109-0.025-0.166v-0.028l-0.056-0.069 0.012-0.056-0.025-0.031c0-0.078 0.003-0.153 0-0.234v-0.122c-0.006-0.075-0.022-0.15-0.041-0.225l-0.006-0.037c-0.053-0.097-0.091-0.203-0.103-0.312 0 0 0.113 0.128 0.009-0.097-0.066-0.131-0.162-0.244-0.281-0.331l-0.344-0.403c-0.094-0.119-0.219-0.212-0.362-0.269-0.197-0.113-0.406-0.203-0.622-0.266-0.053-0.009-0.109-0.016-0.162-0.016l0.009-0.037-0.009-0.006-0.087-0.034c-0.034-0.009-0.069-0.016-0.103-0.019l0.006-0.037c-0.053 0.016-0.116-0.003-0.119-0.031-0.003-0.025-0.103-0.044-0.131-0.047s-0.091-0.028-0.153-0.037l-0.053-0.003c-0.028 0-0.056 0.003-0.084 0.006-0.041 0.006-0.072 0-0.119 0.006-0.031 0.006-0.063 0.009-0.094 0.009-0.044-0.006-0.091 0-0.131 0.016-0.028 0.016 0.044 0.006 0.006 0.037s-0.037 0.031-0.066 0.028-0.006-0.031-0.006-0.031h-0.062l-0.059 0.028-0.119 0.050c-0.047 0.019-0.094 0.041-0.141 0.066-0.025 0.019-0.050 0.037-0.069 0.059-0.137 0.025-0.275 0.063-0.406 0.113l0.019 0.037c-0.109 0.044-0.216 0.094-0.319 0.15l-0.037 0.016c-0.066 0.094-0.137 0.178-0.222 0.256 0 0 0.037-0.059 0.012-0.059l-0.047 0.066c-0.019 0.034-0.028 0.047-0.037 0.037l-0.003-0.012-0.031 0.044c-0.006 0.025-0.016 0.050-0.028 0.072-0.019 0.022-0.034 0.044-0.050 0.066l-0.091 0.144c-0.016 0.009-0.031 0.019-0.047 0.031-0.016 0.009-0.019 0.028-0.009 0.044 0 0.003 0.003 0.003 0.003 0.006 0.019-0.016 0.037-0.031 0.059-0.047l-0.137 0.216-0.053 0.016c0 0-0.006-0.031-0.022-0.012-0.019 0.022-0.028 0.050-0.025 0.078l0.009 0.006 0.016 0.022-0.097 0.162-0.037 0.012-0.037 0.041-0.044 0.075c-0.013 0.012-0.028 0.022-0.047 0.028l-0.037 0.072-0.009 0.047-0.013 0.016-0.019 0.031c-0.013 0.013-0.009 0.034 0.006 0.047l0.003 0.003 0.037-0.066c-0.019 0.081 0.012 0.141-0.012 0.225l-0.031 0.022-0.016 0.013c0 0-0.016-0.028-0.025-0.006-0.009 0.025-0.009 0.056 0 0.081h0.012l0.009 0.006 0.012 0.009c-0.012 0.053 0.006 0.103-0.006 0.153l-0.006 0.028c0.012 0.025 0.025 0.050 0.037 0.075l-0.022 0.047 0.053 0.084c-0.009 0.016-0.019 0.028-0.034 0.037 0 0.012 0.003 0.025 0.013 0.037-0.016 0.103-0.025 0.206-0.031 0.312-0.006 0.044-0.013 0.087-0.013 0.134 0.006 0.084 0.003 0.169 0.016 0.253l0.006 0.044c0.037 0.066 0.056 0.141 0.059 0.216l0.022 0.15c0 0-0.113-0.156-0.016 0.106 0.059 0.153 0.156 0.291 0.281 0.4 0 0 0.194 0.253 0.369 0.469 0.103 0.134 0.241 0.241 0.397 0.309 0.216 0.128 0.444 0.225 0.684 0.294 0.059 0.009 0.119 0.016 0.178 0.019l-0.009 0.038 0.013 0.006 0.097 0.034c0.037 0.009 0.075 0.012 0.113 0.019l-0.006 0.038c0.059-0.016 0.125 0.006 0.128 0.031 0 0.025 0.113 0.041 0.147 0.044 0.031 0.003 0.103 0.028 0.172 0.038h0.059c0.034 0 0.059-0.009 0.091-0.012 0.047-0.006 0.078 0 0.128-0.006s0.063-0.012 0.103-0.016c0.047 0 0.097-0.006 0.144-0.019 0.031-0.016-0.047-0.006-0.006-0.038s0.041-0.031 0.072-0.028 0.006 0.031 0.006 0.031c0.022 0 0.041 0 0.063-0.006l0.059-0.034c0.041-0.022 0.084-0.041 0.128-0.056 0.053-0.019 0.103-0.047 0.15-0.078l0.075-0.059c0.153-0.031 0.3-0.081 0.444-0.147l-0.019-0.034c0.119-0.056 0.234-0.119 0.344-0.194l0.037-0.022c0.063-0.091 0.234-0.303 0.234-0.303s-0.041 0.069-0.013 0.066v-0.003l0.053-0.072c0.022-0.041 0.028-0.059 0.041-0.047l0.009 0.009 0.034-0.050c0.006-0.028 0.016-0.059 0.028-0.084l0.050-0.081c0.031-0.059 0.056-0.119 0.081-0.178 0.016-0.012 0.031-0.028 0.044-0.044 0.028-0.034 0.006-0.053 0.006-0.053l-0.056 0.063c0.044-0.087 0.084-0.175 0.119-0.266l0.050-0.031c0 0 0.009 0.034 0.022 0.009 0.016-0.028 0.022-0.059 0.019-0.094l-0.012-0.003-0.019-0.019 0.069-0.203 0.034-0.028 0.031-0.053c0.012-0.031 0.022-0.059 0.031-0.091 0.009-0.016 0.022-0.031 0.038-0.041l0.019-0.087v-0.063l0.009-0.022 0.013-0.038c0.006-0.028-0.006-0.041-0.016-0.047zM17.535 15.694v0.012c-0.016 0.103-0.003 0.234-0.022 0.341l0.012 0.066c0.012 0.081-0.097 0.094-0.097 0.094l0.013 0.047-0.013 0.041c0 0-0.022-0.025-0.031-0.003-0.009 0.019-0.009 0.019 0.013 0.053s0.031-0.019 0.037 0.006c0.003 0.031 0 0.066-0.016 0.094-0.009 0.022-0.012 0.044-0.012 0.066-0.003 0.031-0.019 0.050-0.019 0.078-0.003 0.019-0.006 0.041-0.012 0.059l-0.016 0.034c-0.019 0.031-0.044 0.059-0.069 0.084-0.012 0.016-0.047 0.075-0.072 0.063s-0.047 0.025-0.053 0.059l-0.031-0.022-0.041 0.053-0.044 0.041h-0.009l-0.028-0.025-0.050 0.019-0.006 0.022c-0.031 0.003-0.059 0.003-0.091 0l-0.031-0.025c-0.006 0.059-0.025 0.116-0.053 0.166-0.022 0.028-0.044 0.053-0.069 0.078-0.009 0.006-0.016 0.016-0.022 0.019-0.016 0.012-0.031 0.025-0.044 0.037l-0.028 0.034-0.037 0.009c0 0 0.003-0.019-0.006-0.025-0.003 0-0.006 0-0.006 0-0.009 0-0.016 0-0.019 0.006-0.006 0.009-0.013 0.019-0.019 0.028-0.019 0.031 0.028 0.019 0.012 0.034-0.028 0.016-0.056 0.028-0.087 0.031-0.022 0.006-0.044 0.012-0.063 0.025-0.031 0.012-0.053 0.006-0.078 0.019-0.019 0.009-0.037 0.019-0.059 0.022h-0.038c-0.031-0.003-0.066-0.006-0.097-0.009h-0.016c-0.031 0-0.059-0.003-0.087-0.016l-0.044 0.025c-0.034 0.012-0.072 0.019-0.109 0.025l-0.091 0.016-0.047 0.012-0.041-0.012c0 0 0.025-0.022 0.006-0.031s-0.019-0.006-0.053 0.009c-0.034 0.016 0.016 0.034-0.006 0.037h-0.009c-0.028-0.003-0.059-0.012-0.084-0.025-0.022-0.006-0.044-0.012-0.069-0.012-0.034-0.006-0.050-0.025-0.078-0.028-0.019-0.003-0.041-0.006-0.059-0.012h-0.016c-0.031-0.009-0.063-0.019-0.094-0.022h-0.050l-0.034-0.028c0 0 0.031-0.009 0.016-0.028-0.016-0.016-0.016-0.016-0.053-0.012-0.037 0.006 0.006 0.034-0.019 0.031-0.031-0.009-0.063-0.028-0.084-0.056-0.019-0.016-0.037-0.028-0.059-0.038-0.025-0.016-0.047-0.034-0.069-0.056-0.019-0.012-0.034-0.022-0.053-0.038l-0.028-0.028c-0.022-0.034-0.044-0.069-0.059-0.106-0.012-0.019-0.063-0.075-0.041-0.094s0-0.059-0.037-0.078l0.031-0.022c-0.016-0.019-0.028-0.041-0.041-0.063l-0.022-0.063v-0.009l0.037-0.019-0.006-0.059-0.019-0.019c0.006-0.031 0.016-0.059 0.028-0.087-0.019-0.022-0.028-0.003-0.059-0.022-0.037-0.016-0.081-0.025-0.122-0.028 0.003-0.038-0.003-0.075-0.016-0.113-0.012-0.081 0 0-0.041-0.087s-0.091-0.059-0.072-0.147c0.012-0.044 0.009-0.091-0.013-0.134 0.025-0.088 0.053-0.194 0.084-0.287-0.003-0.019-0.003-0.041 0-0.059 0.009-0.069 0.119-0.053 0.119-0.053l-0.006-0.044c0.003-0.012 0.009-0.022 0.016-0.034 0 0 0.019 0.025 0.031 0.009s0.012-0.016 0-0.047-0.034 0.009-0.034-0.012c0.003-0.028 0.016-0.056 0.031-0.081 0.009-0.019 0.016-0.037 0.022-0.059 0.009-0.028 0.028-0.041 0.037-0.066 0.003-0.019 0.009-0.034 0.016-0.053l0.022-0.028c0.028-0.028 0.069-0.053 0.081-0.066s0.056-0.063 0.078-0.050c0.022 0.016 0.053-0.009 0.059-0.050l0.028 0.025c0.013-0.016 0.028-0.031 0.047-0.047l0.050-0.031h0.009l0.025 0.028c0.016-0.006 0.031-0.012 0.047-0.016l0.009-0.022c0.031 0 0.059 0.003 0.088 0.009l0.028 0.025c0.009-0.056 0.028-0.109 0.059-0.156 0.019-0.025 0.041-0.050 0.066-0.069l0.019-0.016c0.012-0.012 0.028-0.025 0.037-0.037l0.028-0.031 0.034-0.006c0 0-0.003 0.019 0.003 0.025 0.003 0.003 0.003 0.003 0.006 0.003 0.009 0 0.013 0 0.019-0.003 0.006-0.009 0.012-0.019 0.016-0.028 0.016-0.031-0.025-0.019-0.012-0.037 0.016-0.016 0.053-0.022 0.078-0.025 0.019-0.003 0.037-0.009 0.056-0.019 0.022-0.006 0.047-0.012 0.069-0.016 0.016-0.006 0.031-0.012 0.050-0.016l0.034-0.003c0.028 0 0.056 0.006 0.084 0.019l0.016 0.003c0.016 0 0.059 0 0.075 0.012 0.012-0.009 0.025-0.016 0.037-0.022 0.031-0.009 0.066-0.019 0.097-0.025 0.063-0.009 0.081-0.012 0.081-0.012l0.041-0.012 0.034 0.012c0 0-0.022 0.022-0.006 0.031s0.016 0.009 0.047-0.009-0.012-0.031 0.009-0.037h0.006c0.025 0.003 0.050 0.009 0.075 0.022 0.019 0.006 0.038 0.009 0.059 0.012 0.028 0.006 0.044 0.022 0.069 0.025l0.056 0.009 0.006 0.003h0.009c0.028 0.009 0.056 0.016 0.084 0.016h0.047c0.012 0.006 0.022 0.016 0.031 0.025 0 0-0.028 0.012-0.016 0.028s0.013 0.016 0.050 0.009-0.003-0.034 0.019-0.031c0.028 0.009 0.056 0.025 0.075 0.047 0.016 0.016 0.034 0.028 0.056 0.034 0.028 0.016 0.038 0.034 0.063 0.047 0.016 0.009 0.031 0.019 0.047 0.031l0.025 0.025c0.022 0.028 0.041 0.063 0.056 0.094 0.009 0.016 0.059 0.069 0.041 0.087s0 0.059 0.037 0.069l-0.037 0.016 0.041 0.056c0.009 0.019 0.016 0.037 0.022 0.059v0.009l-0.034 0.022 0.009 0.053 0.022 0.012c-0.003 0.028-0.012 0.059-0.025 0.084 0.019 0.019 0.025 0 0.059 0.012 0.041 0.009 0.084 0.012 0.125 0.009 0 0.034 0.006 0.069 0.022 0.1 0.025 0.069 0.003 0 0.050 0.072s0.072 0.053 0.066 0.131z"></path>
<path fill="#ff91b2" style="fill: var(--color2, #ff91b2)" d="M20.188 21.059c0 0.003 0 0.003 0 0v0z"></path>
<path fill="#fff9c1" style="fill: var(--color1, #fff9c1)" d="M20.188 21.059h-0.133c0 0 0 0 0 0s0 0 0 0 0 0 0 0 0 0 0 0 0 0 0 0 0 0 0 0 0 0 0 0 0 0 0 0 0 0 0 0 0 0 0 0 0 0 0 0 0 0 0 0 0 0 0 0 0 0 0 0 0 0 0 0 0 0 0 0 0 0 0 0 0 0 0 0 0 0 0 0 0 0 0 0 0 0 0 0 0 0 0 0 0 0 0 0 0 0 0 0 0 0 0 0 0 0 0 0 0 0 0 0 0 0 0 0 0 0 0 0 0 0 0 0 0 0 0 0 0 0 0 0 0 0 0 0 0 0 0 0 0 0 0 0 0 0 0 0 0 0 0 0 0 0 0 0 0 0 0 0 0 0 0 0 0 0 0 0 0 0 0 0 0 0 0 0 0 0 0 0 0 0 0 0 0 0 0 0 0 0 0 0 0 0 0 0 0 0 0 0 0 0 0 0 0 0 0 0 0 0 0 0 0 0 0 0 0 0 0 0 0 0 0 0 0 0 0 0 0 0 0 0 0 0 0 0 0 0 0 0 0 0 0 0 0 0 0 0 0 0 0 0 0 0 0 0 0 0 0 0 0 0 0 0 0 0 0 0 0 0 0 0 0 0 0 0 0 0 0 0 0 0 0 0 0 0 0 0 0 0 0 0 0 0 0 0 0 0 0 0 0 0 0 0 0 0 0 0 0 0 0 0 0 0 0 0 0 0 0 0 0 0 0 0 0 0 0 0 0 0 0 0 0 0 0 0 0 0 0 0 0 0 0 0 0 0 0 0 0 0 0 0 0 0 0 0 0 0 0 0 0 0 0 0 0 0 0 0 0 0 0 0 0 0 0 0 0 0 0 0 0 0 0 0 0 0 0 0 0 0 0 0 0 0 0 0 0 0 0 0 0 0 0 0 0 0 0 0 0 0 0 0 0 0 0 0 0 0 0 0 0 0 0 0 0 0 0 0 0 0 0 0 0 0 0 0 0 0 0 0 0 0 0 0 0 0 0 0 0 0 0 0 0 0 0 0 0 0 0 0 0 0 0 0 0 0 0 0 0 0 0 0 0 0 0 0 0 0 0 0 0 0 0 0 0 0 0 0 0 0 0 0 0 0 0 0 0 0 0 0 0 0 0 0 0 0 0 0 0 0 0 0 0 0 0 0 0 0 0 0 0 0 0 0 0 0 0 0 0 0 0 0 0 0 0 0 0 0 0 0 0 0 0 0 0 0 0 0 0 0 0 0 0 0 0 0 0 0 0 0 0 0 0 0 0 0 0 0 0 0 0 0 0 0 0 0 0 0 0 0 0 0 0 0 0 0 0 0 0 0 0 0 0 0 0 0 0 0 0 0 0 0 0 0 0 0 0 0 0 0 0 0 0 0 0 0 0 0 0 0 0 0 0 0 0 0 0 0 0 0 0 0 0 0 0 0 0 0 0 0 0 0 0 0 0 0 0 0 0 0 0 0 0 0 0 0 0 0 0 0 0 0 0 0 0 0 0 0 0 0 0 0 0 0 0 0 0 0 0 0 0 0 0 0 0 0 0 0 0 0 0 0 0 0 0 0 0 0 0 0 0 0 0 0 0 0 0 0 0 0 0 0 0 0 0 0 0 0 0 0 0 0 0 0 0 0 0 0 0 0 0 0 0 0 0 0 0 0 0 0 0 0 0 0 0 0 0 0 0 0 0 0 0 0 0 0 0 0 0 0 0 0 0 0 0 0 0 0 0 0 0 0 0 0 0 0 0 0 0 0 0 0 0 0 0 0 0 0 0 0 0 0 0 0 0 0 0 0 0 0 0 0 0 0 0 0 0 0 0 0 0 0 0 0 0 0 0 0 0 0 0 0 0 0 0 0 0 0 0 0 0 0 0 0 0 0 0 0 0 0 0 0 0 0 0 0 0 0 0 0 0 0 0 0 0 0 0 0 0 0 0 0 0 0 0 0 0 0 0 0 0 0 0 0 0 0 0 0 0 0 0 0 0 0 0 0 0 0 0 0 0 0 0 0 0 0 0 0 0 0 0 0 0 0 0 0 0 0 0 0 0 0 0 0 0 0 0 0 0 0 0 0 0 0 0 0 0 0 0 0 0 0 0 0 0 0 0 0 0 0 0 0 0 0 0 0 0 0 0 0 0 0 0 0 0 0 0 0 0 0 0 0 0 0 0 0 0 0 0 0 0 0 0 0 0 0 0 0 0 0 0 0 0 0 0 0 0 0 0 0 0 0 0 0 0 0 0 0 0 0 0 0 0 0 0 0 0 0 0 0 0 0 0 0 0 0 0 0 0 0 0 0 0 0 0 0 0.133 0 0.133 0 0.133 0 0 0 0 0 0 0 0 0 0 0 0 0 0 0 0 0 0 0 0 0 0 0 0 0 0 0 0 0 0 0 0 0 0 0 0 0 0 0 0 0 0 0 0 0 0 0 0 0 0 0 0 0 0 0 0 0 0 0 0 0 0 0 0 0 0 0 0 0 0 0 0 0 0 0 0 0 0 0 0-0 0 0 0 0 0 0 0 0 0 0 0 0 0 0 0 0 0 0 0 0 0 0 0 0 0 0 0 0 0 0 0 0 0 0 0 0 0 0 0 0 0 0 0 0 0 0 0 0 0 0 0 0 0 0 0 0 0 0 0 0 0 0 0 0 0 0 0 0 0 0 0 0 0 0 0 0 0 0 0-0 0 0 0 0 0 0 0 0 0 0 0 0 0 0 0 0 0 0 0 0 0 0 0 0 0 0 0 0 0 0 0 0 0 0 0 0 0 0 0 0 0 0 0 0 0 0 0 0 0 0 0 0 0-0 0-0 0 0 0 0 0 0 0 0 0 0 0 0 0 0 0 0 0 0 0 0 0 0 0 0 0 0 0 0 0 0 0 0 0 0 0 0 0-0 0-0 0 0 0 0 0 0 0 0 0 0 0 0 0 0 0 0 0 0 0 0 0 0 0 0 0 0 0 0 0 0 0 0 0-0 0-0 0 0 0 0 0 0 0 0 0 0 0 0 0 0 0 0 0 0 0 0 0 0 0 0 0 0 0 0 0-0 0-0 0 0 0 0 0 0 0 0 0 0 0 0 0 0 0 0 0 0 0 0 0 0 0 0 0 0 0-0 0 0 0 0 0 0 0 0 0 0 0 0 0 0 0 0 0 0 0 0 0 0 0 0 0-0 0-0 0 0 0 0 0 0 0 0 0 0 0 0 0 0 0 0 0 0 0 0 0 0 0-0 0 0 0 0 0 0 0 0 0 0 0 0 0 0 0 0 0 0 0 0 0 0 0-0 0 0 0 0 0 0 0 0 0 0 0 0 0 0 0 0 0 0 0 0 0-0 0-0 0 0 0 0 0 0 0 0 0 0 0 0 0 0 0 0 0 0 0-0 0 0 0 0 0 0 0 0 0 0 0 0 0 0 0 0 0 0 0-0 0 0 0 0 0 0 0 0 0 0 0 0 0 0 0 0 0 0 0-0 0 0 0 0 0 0 0 0 0 0 0 0 0 0 0 0 0-0 0-0 0 0 0 0 0 0 0 0 0 0 0 0 0 0 0 0 0-0 0-0 0 0 0 0 0 0 0 0 0 0 0 0 0-0 0-0 0 0 0 0 0 0 0 0 0 0 0 0 0 0 0-0 0 0 0 0 0 0 0 0 0 0 0 0 0 0 0 0 0-0 0-0 0 0 0 0 0 0 0 0 0 0 0 0 0-0 0-0 0 0 0 0 0 0 0 0 0 0 0 0 0-0 0-0 0 0 0 0 0 0 0 0 0 0 0-0 0 0 0 0 0 0 0 0 0 0 0 0 0 0 0-0 0 0 0 0 0 0 0 0 0 0 0 0 0-0 0-0 0 0 0 0 0 0 0 0 0 0 0-0 0 0 0 0 0 0 0 0 0 0 0 0 0-0 0-0 0 0 0 0 0 0 0 0 0 0 0-0 0 0 0 0 0 0 0 0 0 0 0 0 0-0 0-0 0 0 0 0 0 0 0 0 0 0 0-0 0 0 0 0 0 0 0 0 0 0 0-0 0 0 0 0 0 0 0 0 0 0 0 0 0-0 0-0 0 0 0 0 0 0 0 0 0-0 0-0 0 0 0 0 0 0 0 0 0-0 0-0 0 0 0 0 0 0 0 0 0-0 0-0 0 0 0 0 0 0 0 0 0-0 0-0 0 0 0 0 0 0 0 0 0-0 0-0 0 0 0 0 0 0 0 0 0-0 0-0 0 0 0 0 0 0 0 0 0-0 0-0 0 0 0 0 0 0 0 0 0-0 0-0 0 0 0 0 0 0 0 0 0-0 0-0 0 0 0 0 0 0 0-0 0 0 0 0 0 0 0 0 0 0 0-0 0 0 0 0 0 0 0 0 0-0 0-0 0 0 0 0 0 0 0 0 0-0 0-0 0 0 0 0 0 0 0-0 0 0 0 0 0 0 0 0 0-0 0-0 0 0 0 0 0 0 0 0 0-0 0-0 0 0 0 0 0-0 0-0 0 0 0 0 0 0 0 0 0-0 0-0 0 0 0 0 0 0 0-0 0 0 0 0 0 0 0 0 0-0 0-0 0 0 0 0 0-0 0-0 0 0 0 0 0 0 0 0 0-0 0-0h-0.267c0 0 0 0 0 0s0 0 0 0 0 0 0 0 0 0 0 0 0 0 0 0 0 0 0 0 0 0 0 0 0 0 0 0 0 0 0 0 0 0 0 0 0 0 0 0 0 0 0 0 0 0 0 0 0 0 0 0 0 0 0 0 0 0 0 0 0 0 0 0 0 0 0 0 0 0 0 0 0 0 0 0 0 0 0 0 0 0 0 0 0 0 0 0 0 0 0 0 0 0 0 0 0 0 0 0 0 0 0 0 0 0 0 0 0 0 0 0 0 0 0 0 0 0 0 0 0 0 0 0 0 0 0 0 0 0 0 0 0 0 0 0 0 0 0 0 0 0 0 0 0 0 0 0 0 0 0 0 0 0 0 0 0 0 0 0 0 0 0 0 0 0 0 0 0 0 0 0 0 0 0 0 0 0 0 0 0 0 0 0 0 0 0 0 0 0 0 0 0 0 0 0 0 0 0 0 0 0 0 0 0 0 0 0 0 0 0 0 0 0 0 0 0 0 0 0 0 0 0 0 0 0 0 0 0 0 0 0 0 0 0 0 0 0 0 0 0 0 0 0 0 0 0 0 0 0 0 0 0 0 0 0 0 0 0 0 0 0 0 0 0 0 0 0 0 0 0 0 0 0 0 0 0 0 0 0 0 0 0 0 0 0 0 0 0 0 0 0 0 0 0 0 0 0 0 0 0 0 0 0 0 0 0 0 0 0 0 0 0 0 0 0 0 0 0 0 0 0 0 0 0 0 0 0 0 0 0 0 0 0 0 0 0 0 0 0 0 0 0 0 0 0 0 0 0 0 0 0 0 0 0 0 0 0 0 0 0 0 0 0 0 0 0 0 0 0 0 0 0 0 0 0 0 0 0 0 0 0 0 0 0 0 0 0 0 0 0 0 0 0 0 0 0 0 0 0 0 0 0 0 0 0 0 0 0 0 0 0 0 0 0 0 0 0 0 0 0 0 0 0 0 0 0 0 0 0 0 0 0 0 0 0 0 0 0 0 0 0 0 0 0 0 0 0 0 0 0 0 0 0 0 0 0 0 0 0 0 0 0 0 0 0 0 0 0 0 0 0 0 0 0 0 0 0 0 0 0 0 0 0 0 0 0 0 0 0 0 0 0 0 0 0 0 0 0 0 0 0 0 0 0 0 0 0 0 0 0 0 0 0 0 0 0 0 0 0 0 0 0 0 0 0 0 0 0 0 0 0 0 0 0 0 0 0 0 0 0 0 0 0 0 0 0 0 0 0 0 0 0 0 0 0 0 0 0 0 0 0 0 0 0 0 0 0 0 0 0 0 0 0 0 0 0 0 0 0 0 0 0 0 0 0 0 0 0 0 0 0 0 0 0 0 0 0 0 0 0 0 0 0 0 0 0 0 0 0 0 0 0 0 0 0 0 0 0 0 0 0 0 0 0 0 0 0 0 0 0 0 0 0 0 0 0 0 0 0 0 0 0 0 0 0 0 0 0 0 0 0 0 0 0 0 0 0 0 0 0 0 0 0 0 0 0 0 0 0 0 0 0 0 0 0 0 0 0 0 0 0 0 0 0 0 0 0 0 0 0 0 0 0 0 0 0 0 0 0 0 0 0 0 0 0 0 0 0 0 0 0 0 0 0 0 0 0 0 0 0 0 0 0 0 0 0 0 0 0 0 0 0 0 0 0 0 0 0 0 0 0 0 0 0 0 0 0 0 0 0 0 0 0 0 0 0 0 0 0 0 0 0 0 0 0 0 0 0 0 0 0 0 0 0 0 0 0 0 0 0 0 0 0 0 0 0 0 0 0 0 0 0 0 0 0 0 0 0 0 0 0 0 0 0 0 0 0 0 0 0 0 0 0 0 0 0 0 0 0 0 0 0 0 0 0 0 0 0 0 0 0 0 0 0 0 0 0 0 0 0 0 0 0 0 0 0 0 0 0 0 0 0 0 0 0 0 0 0 0 0 0 0 0 0 0 0 0 0 0 0 0 0 0 0 0 0 0 0 0 0 0 0 0 0 0 0 0 0 0 0 0 0 0 0 0 0 0 0 0 0 0 0 0 0 0 0 0 0 0 0 0 0 0 0 0 0 0 0 0 0 0 0 0 0 0 0 0 0 0 0 0 0 0 0 0 0 0 0 0 0 0 0 0 0 0 0 0 0 0 0 0 0 0 0 0 0 0 0 0 0 0 0 0 0 0 0 0 0 0 0 0 0 0 0 0 0 0 0 0 0 0 0 0 0 0 0 0 0 0 0 0 0 0 0 0 0 0 0 0 0 0 0 0 0 0 0 0 0 0 0 0 0 0 0 0 0 0 0.133 0 0.133 0 0.133 0 0 0 0 0 0 0 0 0 0 0 0 0 0 0 0 0 0 0 0 0 0 0 0 0 0 0 0 0 0 0 0 0 0 0 0 0 0 0 0 0 0 0 0 0 0 0 0 0 0 0 0 0 0 0 0 0 0 0 0 0 0 0 0 0 0 0 0 0 0 0 0 0 0 0 0 0 0 0 0-0 0 0 0 0 0 0 0 0 0 0 0 0 0 0 0 0 0 0 0 0 0 0 0 0 0 0 0 0 0 0 0 0 0 0 0 0 0 0 0 0 0 0 0 0 0 0 0 0 0 0 0 0 0 0 0 0 0 0 0 0 0 0 0 0 0 0 0 0 0 0 0 0 0 0 0 0 0 0 0-0 0 0 0 0 0 0 0 0 0 0 0 0 0 0 0 0 0 0 0 0 0 0 0 0 0 0 0 0 0 0 0 0 0 0 0 0 0 0 0 0 0 0 0 0 0 0 0 0 0 0 0 0 0-0 0-0 0 0 0 0 0 0 0 0 0 0 0 0 0 0 0 0 0 0 0 0 0 0 0 0 0 0 0 0 0 0 0 0 0 0 0 0 0-0 0-0 0 0 0 0 0 0 0 0 0 0 0 0 0 0 0 0 0 0 0 0 0 0 0 0 0 0 0 0 0 0 0 0 0-0 0-0 0 0 0 0 0 0 0 0 0 0 0 0 0 0 0 0 0 0 0 0 0 0 0 0 0 0 0 0 0-0 0-0 0 0 0 0 0 0 0 0 0 0 0 0 0 0 0 0 0 0 0 0 0 0 0 0 0 0 0-0 0 0 0 0 0 0 0 0 0 0 0 0 0 0 0 0 0 0 0 0 0 0 0 0 0-0 0-0 0 0 0 0 0 0 0 0 0 0 0 0 0 0 0 0 0 0 0 0 0 0 0-0 0 0 0 0 0 0 0 0 0 0 0 0 0 0 0 0 0 0 0 0 0 0 0-0 0 0 0 0 0 0 0 0 0 0 0 0 0 0 0 0 0 0 0 0 0-0 0-0 0 0 0 0 0 0 0 0 0 0 0 0 0 0 0 0 0 0 0-0 0 0 0 0 0 0 0 0 0 0 0 0 0 0 0 0 0 0 0-0 0 0 0 0 0 0 0 0 0 0 0 0 0 0 0 0 0 0 0-0 0 0 0 0 0 0 0 0 0 0 0 0 0 0 0 0 0-0 0-0 0 0 0 0 0 0 0 0 0 0 0 0 0 0 0 0 0-0 0-0 0 0 0 0 0 0 0 0 0 0 0 0 0-0 0-0 0 0 0 0 0 0 0 0 0 0 0 0 0 0 0-0 0 0 0 0 0 0 0 0 0 0 0 0 0 0 0 0 0-0 0-0 0 0 0 0 0 0 0 0 0 0 0 0 0-0 0-0 0 0 0 0 0 0 0 0 0 0 0 0 0-0 0-0 0 0 0 0 0 0 0 0 0 0 0-0 0 0 0 0 0 0 0 0 0 0 0 0 0 0 0-0 0 0 0 0 0 0 0 0 0 0 0 0 0-0 0-0 0 0 0 0 0 0 0 0 0 0 0-0 0 0 0 0 0 0 0 0 0 0 0 0 0-0 0-0 0 0 0 0 0 0 0 0 0 0 0-0 0 0 0 0 0 0 0 0 0 0 0 0 0-0 0-0 0 0 0 0 0 0 0 0 0 0 0-0 0 0 0 0 0 0 0 0 0 0 0-0 0 0 0 0 0 0 0 0 0 0 0 0 0-0 0-0 0 0 0 0 0 0 0 0 0-0 0-0 0 0 0 0 0 0 0 0 0-0 0-0 0 0 0 0 0 0 0 0 0-0 0-0 0 0 0 0 0 0 0 0 0-0 0-0 0 0 0 0 0 0 0 0 0-0 0-0 0 0 0 0 0 0 0 0 0-0 0-0 0 0 0 0 0 0 0 0 0-0 0-0 0 0 0 0 0 0 0 0 0-0 0-0 0 0 0 0 0 0 0 0 0-0 0-0 0 0 0 0 0 0 0-0 0 0 0 0 0 0 0 0 0 0 0-0 0 0 0 0 0 0 0 0 0-0 0-0 0 0 0 0 0 0 0 0 0-0 0-0 0 0 0 0 0 0 0-0 0 0 0 0 0 0 0 0 0-0 0-0 0 0 0 0 0 0 0 0 0-0 0-0 0 0 0 0 0-0 0-0 0 0 0 0 0 0 0 0 0-0 0-0 0 0 0 0 0 0 0-0 0 0 0 0 0 0 0 0 0-0 0-0 0 0 0 0 0-0 0-0 0 0 0 0 0 0 0 0 0-0 0-0h-0.133z"></path>
<path fill="#ff91b2" style="fill: var(--color2, #ff91b2); stroke: var(--color1, #fff9c1)" stroke="#fff9c1" stroke-linejoin="miter" stroke-linecap="butt" stroke-miterlimit="4" stroke-width="0.4444" d="M23.991 16.55c-0.006-0.016-0.016-0.028-0.025-0.041-0.022-0.041-0.028 0.025-0.038 0-0.006-0.041-0.003-0.084 0.006-0.125 0.003-0.031 0.003-0.063 0-0.094-0.003-0.044 0.006-0.075 0-0.119l-0.009-0.084v-0.056l0.019-0.141v-0.025c-0.003-0.047 0-0.094 0.006-0.141l-0.031-0.069-0.056-0.172c-0.012-0.047-0.028-0.094-0.050-0.137l-0.034-0.059-0.009-0.063c0 0 0.031 0.025 0.031-0.009-0.003-0.031 0-0.031-0.038-0.066s-0.019 0.037-0.037 0.013l-0.006-0.013c-0.016-0.037-0.028-0.078-0.034-0.119-0.012-0.044-0.031-0.087-0.053-0.131-0.028-0.059-0.034-0.106-0.059-0.162l-0.053-0.113-0.003-0.009-0.009-0.016c-0.025-0.053-0.059-0.103-0.103-0.144l-0.059-0.053-0.044-0.063c0 0 0.044 0.006 0.022-0.025s-0.025-0.034-0.084-0.047c-0.063-0.012 0.019 0.047-0.022 0.031l-0.156-0.069c-0.041-0.016-0.081-0.022-0.125-0.025-0.053-0.009-0.103-0.016-0.156-0.019l-0.116 0.003-0.069-0.006c-0.063-0.009-0.122-0.022-0.181-0.037-0.025-0.006-0.122-0.009-0.122-0.034-0.003-0.025-0.063-0.037-0.109-0.019v-0.037l-0.094-0.006h-0.009c-0.006-0.012-0.009-0.025-0.012-0.034l-0.044-0.050 0.037-0.009 0.003-0.006v-0.034l-0.009-0.037 0.037-0.009c-0.025-0.009-0.025-0.034 0-0.044s0.013-0.044 0.013-0.056c0.006-0.022 0.009-0.041 0.012-0.063l-0.003-0.019c-0.006-0.009-0.012-0.019-0.019-0.025-0.009-0.012-0.003-0.025-0.012-0.037s-0.016-0.016-0.016-0.028 0-0.037-0.016-0.044c-0.016-0.006-0.009 0.019-0.038 0.012s-0.028-0.006-0.025-0.016c0.003-0.013 0.031-0.013 0.031-0.013v-0.022l-0.025-0.012c-0.016-0.009-0.028-0.019-0.037-0.034-0.013-0.016-0.028-0.028-0.047-0.037l-0.041-0.016c0.003-0.053 0-0.103-0.006-0.156l-0.038 0.016-0.019-0.122v-0.016c-0.012-0.006-0.025-0.012-0.037-0.022 0.025 0 0.047 0.003 0.072 0.012l0.012-0.047 0.031-0.031c0 0 0.009 0.031 0.025 0.016 0.019-0.016 0.019-0.016 0.016-0.053s-0.038 0.003-0.031-0.019c0.012-0.031 0.034-0.059 0.059-0.081 0.016-0.019 0.028-0.037 0.038-0.059 0.016-0.031 0.037-0.044 0.050-0.072l0.028-0.059 0.025-0.037c0.047-0.063 0.106-0.128 0.125-0.159 0.019-0.028 0.075-0.15 0.1-0.15 0.025 0.003 0.066-0.078 0.059-0.144l0.037 0.006c0.013-0.047 0.019-0.094 0.025-0.141 0.009-0.041 0.016-0.084 0.019-0.125l0.006-0.016h0.041l0.009-0.063 0.006-0.050-0.016-0.050 0.028-0.166 0.034-0.028c-0.072-0.1-0.147-0.197-0.228-0.287l-0.141-0.172-0.038-0.044c-0.016-0.016-0.034-0.031-0.053-0.044l-0.044-0.028-0.022-0.037c0 0 0.022 0 0.025-0.009 0-0.003 0-0.006 0-0.009-0.003-0.012-0.006-0.016-0.012-0.022-0.009-0.006-0.022-0.013-0.034-0.016-0.041-0.012-0.009 0.037-0.031 0.022-0.025-0.025-0.047-0.053-0.063-0.087-0.012-0.022-0.031-0.041-0.050-0.059-0.028-0.028-0.034-0.053-0.059-0.078-0.019-0.016-0.034-0.034-0.053-0.050l-0.028-0.037c-0.022-0.037-0.044-0.078-0.059-0.106l-0.009-0.022c-0.025-0.031-0.047-0.063-0.066-0.097l-0.059-0.028-0.128-0.084c-0.031-0.025-0.069-0.047-0.106-0.066l-0.059-0.022-0.038-0.037c0 0 0.038-0.003 0.019-0.025-0.016-0.022-0.019-0.022-0.063-0.025s0.006 0.037-0.022 0.031l-0.006-0.006c-0.031-0.019-0.059-0.041-0.084-0.066-0.022-0.019-0.047-0.031-0.072-0.044-0.031-0.016-0.059-0.047-0.106-0.069l-0.094-0.050h-0.009l-0.016-0.006c-0.047-0.025-0.094-0.044-0.144-0.059l-0.072-0.019-0.059-0.041c0 0 0.037-0.012 0.006-0.031s-0.031-0.025-0.078-0.016c-0.047 0.009 0.028 0.041-0.006 0.041-0.047-0.012-0.094-0.028-0.137-0.047-0.031-0.012-0.066-0.016-0.1-0.012-0.044-0.003-0.087 0-0.128 0.006-0.031 0.009-0.053 0.022-0.084 0.034l-0.050 0.019c-0.056 0.016-0.109 0.031-0.163 0.053-0.031 0.012-0.128 0.091-0.147 0.072-0.016-0.019-0.087 0.025-0.125 0.084l-0.022-0.034-0.113 0.088c-0.041 0.028-0.047 0.028-0.075 0.044h-0.009l-0.025-0.031-0.063 0.022-0.016 0.025c-0.034 0.003-0.069 0.006-0.1 0.003h-0.059l0.019-0.031v-0.006l-0.019-0.025-0.028-0.016 0.019-0.034c-0.025 0.012-0.037-0.006-0.028-0.028s-0.019-0.041-0.025-0.047c-0.009-0.019-0.019-0.034-0.031-0.050l-0.016-0.009c-0.009-0.003-0.019-0.003-0.028-0.003-0.016 0-0.019-0.016-0.034-0.019s-0.022 0-0.028-0.009c-0.009-0.009-0.025-0.025-0.038-0.019s0.006 0.019-0.016 0.034c-0.022 0.016-0.022 0.016-0.028 0.006s0.012-0.028 0.012-0.028l-0.012-0.012-0.025 0.009c-0.016 0.003-0.031 0.006-0.047 0.003-0.019 0-0.037 0-0.056 0.006l-0.038 0.019c-0.031-0.037-0.066-0.072-0.103-0.103l-0.016 0.037-0.094-0.072-0.009-0.009c-0.037 0.019-0.078 0.025-0.119 0.022 0 0 0.028-0.012 0.025-0.028l-0.028 0.006c-0.016 0.006-0.022 0.006-0.016-0.006v-0.012l-0.019 0.003c-0.009 0.009-0.019 0.016-0.031 0.022h-0.006c-0.019-0.081-0.050-0.159-0.094-0.228-0.013-0.041-0.022-0.081-0.028-0.125-0.025-0.141-0.044-0.284-0.053-0.425-0.009-0.175-0.1-0.337-0.244-0.437-0.216-0.153-0.469-0.247-0.731-0.272-0.050-0.016-0.109-0.019-0.172-0.016l0.006-0.037-0.006-0.006-0.069-0.025-0.087-0.012 0.006-0.037c-0.044 0.016-0.097 0-0.097-0.025s-0.087-0.034-0.113-0.041c-0.044-0.016-0.091-0.028-0.134-0.037h-0.047c-0.025 0-0.050 0.003-0.072 0.009-0.034 0.006-0.059-0.003-0.097 0-0.025 0.006-0.050 0.009-0.078 0.009-0.034-0.006-0.072-0.003-0.106 0.006-0.022 0.012 0.034 0.012 0.003 0.037-0.031 0.028-0.031 0.028-0.053 0.022s-0.003-0.031-0.003-0.031h-0.044l-0.044 0.025c-0.028 0.016-0.059 0.025-0.091 0.034-0.037 0.012-0.072 0.028-0.106 0.044l-0.053 0.041c-0.125-0.012-0.247-0.009-0.372 0.009l0.012 0.041c-0.141 0.019-0.281 0.056-0.412 0.109l-0.044 0.019-0.172 0.184-0.091 0.109c0 0 0.041-0.075 0.013-0.066v0.003l-0.050 0.078c-0.019 0.044-0.028 0.059-0.037 0.050l-0.009-0.009-0.028 0.059c-0.003 0.031-0.009 0.063-0.019 0.091l-0.037 0.091c-0.022 0.066-0.037 0.131-0.050 0.197-0.012 0.016-0.025 0.034-0.031 0.056-0.022 0.041 0.006 0.059 0.006 0.059l0.037-0.075-0.053 0.256-0.041 0.022c0 0-0.019-0.022-0.025-0.006-0.006 0.019-0.006 0.041 0.006 0.059h0.012l0.022 0.012-0.034 0.125-0.031 0.016-0.025 0.031-0.022 0.053c-0.009 0.009-0.022 0.019-0.037 0.022v0.009c-0.037 0.009-0.072 0.028-0.103 0.053l-0.209 0.125-0.037 0.050-0.016-0.034h-0.050l-0.031 0.016-0.019-0.034c-0.006 0.028-0.028 0.031-0.044 0.006-0.012-0.022-0.044-0.006-0.053-0.003-0.019 0-0.041 0-0.059 0l-0.016 0.006c-0.009 0.006-0.016 0.013-0.022 0.022-0.009 0.013-0.025 0.006-0.034 0.019s-0.012 0.016-0.025 0.022c-0.012 0.003-0.034 0.006-0.037 0.022s0.019 0.006 0.019 0.034c0 0.028 0 0.028-0.012 0.028s-0.016-0.028-0.016-0.028l-0.022 0.003-0.009 0.028c-0.006 0.016-0.016 0.028-0.025 0.041-0.012 0.016-0.022 0.031-0.031 0.050l-0.009 0.041c-0.047 0.006-0.091 0.012-0.137 0.022l-0.031-0.047-0.131-0.131c-0.078 0-0.153-0.153-0.184-0.172 0 0 0.178 0.072-0.050-0.1-0.094-0.072-0.194-0.131-0.303-0.178-0.041-0.016-0.084-0.025-0.128-0.028-0.056-0.019-0.113-0.034-0.172-0.047-0.125-0.022-0.25-0.022-0.372 0-0.172 0.041-0.328 0.122-0.459 0.241l-0.166 0.113-0.103 0.078c-0.069 0.053-0.137 0.113-0.209 0.178-0.031 0.037-0.059 0.075-0.081 0.113l-0.025-0.025h-0.009l-0.063 0.047-0.059 0.059-0.028-0.022c-0.009 0.044-0.050 0.075-0.072 0.059s-0.075 0.047-0.091 0.059c-0.016 0.012-0.063 0.041-0.097 0.072l-0.025 0.028c-0.012 0.016-0.022 0.034-0.031 0.053-0.016 0.025-0.034 0.037-0.050 0.066-0.009 0.022-0.019 0.041-0.034 0.056-0.022 0.019-0.041 0.044-0.053 0.072-0.003 0.022 0.028-0.016 0.031 0.022s0.003 0.037-0.012 0.047-0.025-0.019-0.025-0.019l-0.022 0.022-0.006 0.047c-0.009 0.012 0.016-0.006-0.047 0.106-0.028 0.053-0.053 0.109-0.072 0.166-0.009 0.031-0.012 0.066-0.019 0.1-0.097 0.131-0.162 0.284-0.197 0.444l0.041 0.003-0.012 0.066c-0.016 0.113-0.012 0.225 0.003 0.334l0.006 0.047 0.206 0.334c0 0-0.056-0.063-0.059-0.037v0.003l0.059 0.075c0.034 0.034 0.044 0.047 0.031 0.053l-0.012 0.006 0.041 0.047c0.019 0.012 0.037 0.025 0.059 0.034l0.037 0.041 0.081 0.078c0 0.013 0.003 0.025 0.006 0.037 0.006 0.025 0.034 0.012 0.034 0.012l-0.012-0.047c0.034 0.044 0.069 0.087 0.1 0.134l-0.012 0.041c0 0-0.028 0-0.022 0.013 0.006 0.019 0.025 0.031 0.044 0.034l0.009-0.006 0.025-0.006-0.009 0.016-0.025 0.022h-0.006l-0.034-0.019-0.031 0.016 0.003 0.016c-0.025 0.003-0.047 0.006-0.072 0.006l-0.037-0.012c0.022 0.037 0.041 0.075 0.053 0.119 0.003 0.019 0.003 0.041 0 0.059v0.016c-0.003 0.009-0.003 0.022 0 0.031l0.009 0.028-0.016 0.016c-0.006-0.006-0.012-0.009-0.022-0.013h-0.003c-0.006 0-0.006 0.006-0.006 0.009 0.003 0.006 0.006 0.016 0.012 0.022 0.016 0.022 0.028 0 0.034 0.016s-0.009 0.031-0.019 0.041-0.006 0.016-0.006 0.031c-0.003 0.016-0.016 0.022-0.016 0.034v0.028l-0.013 0.019c-0.012 0.013-0.025 0.022-0.041 0.031l-0.006 0.006c-0.006 0.006-0.016 0.028-0.031 0.031l0.012 0.028c0.006 0.019 0.006 0.037 0.006 0.059 0 0.016 0 0.031 0.006 0.047l0.009 0.025-0.012 0.016c0 0-0.022-0.019-0.028-0.009-0.009 0.006-0.009 0.006 0.009 0.028s0.031 0 0.037 0.012v0.003c0 0.012-0.006 0.025-0.016 0.037-0.006 0.009-0.006 0.016-0.006 0.031s-0.012 0.022-0.012 0.034v0.050c-0.069 0.019-0.144 0.022-0.216 0.009 0 0 0.103-0.072-0.072-0.037-0.103 0.019-0.203 0.063-0.287 0.125-0.156 0.050-0.319 0.084-0.481 0.097-0.131 0.006-0.259 0.041-0.372 0.109-0.044 0.025-0.084 0.056-0.119 0.094-0.2 0.169-0.316 0.428-0.309 0.703 0 0.075 0.006 0.144 0.012 0.212l-0.037-0.006-0.006 0.016-0.016 0.119v0.134h-0.031c0.022 0.066 0.016 0.097-0.009 0.106s-0.025 0.081-0.025 0.103c-0.003 0.022-0.019 0.072-0.025 0.119v0.044c0.003 0.022 0.006 0.041 0.012 0.062 0.006 0.031 0 0.056 0.006 0.091 0.009 0.025 0.012 0.050 0.012 0.078-0.003 0.037 0 0.075 0.012 0.109 0.012 0.025 0.009-0.037 0.037-0.006s0.028 0.031 0.025 0.059-0.031 0.006-0.031 0.006v0.050l0.028 0.050c0.016 0.034 0.031 0.069 0.044 0.103 0.016 0.044 0.034 0.084 0.056 0.122l0.047 0.063c0.006 0.137 0.028 0.272 0.066 0.403l0.037-0.016c0.037 0.144 0.097 0.284 0.178 0.412l0.025 0.044 0.2 0.141c0.078 0.050 0.15 0.087 0.15 0.087s-0.084-0.031-0.072-0.006h0.003l0.091 0.041c0.050 0.012 0.066 0.019 0.059 0.031l-0.006 0.012 0.066 0.019c0.034 0 0.066 0 0.1 0.003l0.103 0.022c0.072 0.009 0.144 0.016 0.216 0.019 0.022 0.009 0.041 0.019 0.066 0.025 0.047 0.016 0.059-0.016 0.059-0.016l-0.087-0.025c0.122 0.009 0.181 0.009 0.241 0.009l0.028 0.038c0 0-0.019 0.022 0 0.025 0.022 0.003 0.044 0 0.059-0.016v-0.012l0.009-0.025 0.063 0.009v0.003c-0.025 0.009-0.028 0.031 0 0.041l-0.037 0.013 0.009 0.034v0.041l-0.037 0.012-0.013 0.034 0.016 0.009-0.047 0.059-0.034 0.016c0.044 0.012 0.084 0.028 0.125 0.047 0.016 0.012 0.031 0.025 0.044 0.041l0.013 0.012c0.006 0.009 0.016 0.016 0.025 0.022l0.025 0.012v0.022c-0.009 0-0.019 0.003-0.025 0.006l-0.003 0.006v0.013c0.006 0.003 0.016 0.006 0.025 0.006 0.028 0.006 0.022-0.019 0.034-0.016 0.012 0.006 0.016 0.028 0.016 0.044 0.003 0.012 0.006 0.016 0.019 0.028s0.006 0.025 0.016 0.037c0.006 0.006 0.016 0.016 0.019 0.025l0.006 0.019c0 0.019 0 0.034-0.003 0.053v0.009c0 0.009 0.012 0.034 0.003 0.047l0.031 0.009c0.019 0.009 0.034 0.022 0.050 0.037 0.012 0.012 0.025 0.022 0.041 0.031l0.025 0.009-0.084 0.119-0.016 0.019c0.016 0.072-0.119 0.178-0.119 0.178s0-0.109-0.069 0.025c-0.041 0.078-0.059 0.166-0.053 0.253-0.009 0.031-0.022 0.063-0.034 0.094-0.028 0.066-0.066 0.125-0.109 0.178-0.072 0.094-0.134 0.197-0.178 0.309-0.016 0.044-0.025 0.087-0.028 0.134-0.050 0.228-0.003 0.466 0.131 0.656l0.116 0.141-0.034 0.016v0.012l0.044 0.091 0.059 0.097-0.031 0.022c0.037 0.016 0.053 0.059 0.034 0.075s0.019 0.078 0.028 0.097c0.012 0.037 0.025 0.075 0.044 0.109l0.022 0.034c0.016 0.016 0.031 0.031 0.047 0.044 0.022 0.022 0.031 0.044 0.059 0.069 0.019 0.016 0.037 0.031 0.053 0.053 0.019 0.031 0.041 0.056 0.072 0.075 0.025 0.009-0.012-0.031 0.028-0.025s0.041 0.006 0.050 0.025-0.022 0.022-0.022 0.022l0.025 0.034 0.047 0.019c0.028 0.012 0.056 0.028 0.084 0.047 0.031 0.019 0.066 0.038 0.103 0.050l0.066 0.016c0.059 0.075 0.122 0.147 0.191 0.216l0.025-0.031 0.159 0.153 0.016 0.019c0.109 0.034 0.212 0.078 0.316 0.131 0 0-0.072-0.019-0.059 0.006h0.003l0.078 0.028c0.041 0.006 0.059 0.012 0.053 0.025l-0.006 0.012 0.056 0.016c0.028-0.003 0.053-0.003 0.081 0l0.084 0.019c0.059 0.009 0.119 0.012 0.178 0.009 0.016 0.009 0.034 0.016 0.053 0.022 0.006 0.003 0.012 0.003 0.022 0 0.012 0 0.022-0.009 0.025-0.022l-0.025-0.006-0.050-0.016h0.050c0.072 0 0.144-0.006 0.212-0.019l0.047 0.025c0 0-0.022 0.028 0.003 0.025 0.031 0 0.059-0.016 0.081-0.038v-0.012l0.006-0.028c0.066-0.016 0.128-0.037 0.191-0.059l0.037 0.012 0.059-0.009 0.087-0.034c0.019-0.003 0.037 0 0.056 0.003l0.078-0.041 0.037-0.031 0.022-0.003c0.019-0.003 0.016-0.019 0.012-0.028v-0.006l-0.047 0.009c0.041-0.031 0.041-0.087 0.084-0.116l0.028 0.009 0.012 0.006c0 0 0 0.025 0.013 0.019 0.019-0.006 0.028-0.022 0.031-0.041l-0.006-0.009-0.003-0.009-0.006-0.016c0.028-0.016 0.041-0.053 0.069-0.069l0.016-0.009 0.009-0.063h0.037l0.012-0.075c0.012 0 0.028 0.006 0.037 0.012 0.006 0 0.009-0.016 0.013-0.025h0.003l0.025 0.025v0.006l-0.016 0.034 0.016 0.031 0.016-0.003c0.003 0.025 0.006 0.050 0.006 0.075l-0.012 0.037c0.037-0.022 0.078-0.041 0.119-0.053 0.019-0.003 0.041-0.003 0.059 0h0.016c0.012 0.003 0.022 0.003 0.034 0l0.028-0.009 0.016 0.016c-0.006 0.006-0.012 0.012-0.016 0.022v0.006c0.003 0.006 0.006 0.006 0.009 0.006 0.006-0.003 0.016-0.009 0.022-0.012 0.022-0.016 0-0.028 0.016-0.034s0.031 0.012 0.041 0.019c0.009 0.006 0.016 0.006 0.031 0.009s0.022 0.016 0.037 0.016c0.009 0 0.019 0 0.031 0.003l0.016 0.009c0.012 0.012 0.022 0.028 0.031 0.041l0.006 0.006c0.006 0.006 0.028 0.016 0.031 0.034l0.028-0.012c0.019-0.003 0.041-0.006 0.059-0.006 0.016 0.003 0.034 0 0.050-0.003l0.028-0.009 0.016 0.012c0 0-0.019 0.019-0.012 0.028s0.006 0.009 0.028-0.006 0-0.031 0.012-0.037h0.006c0.016 0 0.028 0.006 0.037 0.016 0.009 0.006 0.016 0.006 0.031 0.006s0.022 0.016 0.037 0.016h0.037c0.016 0 0.034 0 0.050-0.006l0.025-0.009 0.016 0.012c0 0-0.019 0.022-0.009 0.031 0.006 0.009 0.006 0.009 0.028-0.009v0.003c0.025 0.069-0.078 0.113-0.078 0.113l0.028 0.041v0.044c0 0-0.028-0.016-0.031 0.006s0 0.022 0.028 0.047c0.028 0.025 0.022-0.028 0.037-0.009 0.012 0.031 0.019 0.063 0.019 0.094 0.003 0.025 0.009 0.047 0.019 0.069 0.012 0.031 0.006 0.053 0.016 0.084 0.009 0.019 0.016 0.038 0.022 0.059l0.006 0.037c0 0.053 0 0.106 0.006 0.159 0.006 0.038 0.044 0.159 0.022 0.175s0 0.1 0.047 0.147l-0.034 0.019c0.019 0.041 0.041 0.084 0.066 0.122 0.019 0.037 0.037 0.072 0.059 0.109l0.006 0.016-0.028 0.025c0.019 0.034 0.037 0.066 0.059 0.097l0.041 0.028 0.022 0.047 0.056 0.103-0.009 0.044c0.112 0.031 0.228 0.056 0.347 0.075l0.209 0.037 0.059 0.009c0.037 0.006 0.078 0.009 0.119 0.006 0.025 0 0.047-0.003 0.072-0.006l0.041 0.016c0 0-0.016 0.016-0.012 0.025 0 0.003 0.003 0.006 0.006 0.006 0.006 0.003 0.016 0.006 0.022 0.006 0.016-0.003 0.031-0.006 0.044-0.012 0.034-0.019-0.019-0.031 0.006-0.038 0.034 0 0.069 0.003 0.1 0.016 0.025 0.006 0.050 0.009 0.075 0.006 0.037 0 0.059 0.012 0.091 0.012h0.069l0.044 0.006c0.037 0.009 0.081 0.028 0.109 0.038l0.019 0.006c0.037 0.003 0.072 0.012 0.106 0.028l0.059-0.019c0.031-0.006 0.081-0.016 0.141-0.025 0.041-0.003 0.078-0.009 0.119-0.022l0.059-0.022 0.053 0.003c0 0-0.025 0.028 0 0.031s0.028 0.006 0.063-0.022c0.034-0.028-0.031-0.025-0.003-0.038h0.009c0.034-0.006 0.072-0.009 0.106-0.009 0.028 0 0.056-0.006 0.081-0.016 0.038-0.009 0.066-0.006 0.097-0.016 0.025-0.009 0.041-0.016 0.069-0.022h0.006l0.009-0.003c0.044-0.012 0.084-0.031 0.128-0.050l0.066-0.034 0.069-0.009c0 0-0.025 0.031 0.012 0.031 0.037-0.003 0.037 0 0.075-0.037s-0.047-0.016-0.016-0.034c0.047-0.019 0.097-0.031 0.147-0.041 0.034-0.009 0.066-0.022 0.097-0.041 0.041-0.025 0.075-0.031 0.109-0.053l0.066-0.056c0.016-0.012 0.031-0.025 0.044-0.037 0.044-0.034 0.084-0.075 0.119-0.119 0.016-0.025 0.059-0.128 0.081-0.122 0.022 0.009 0.059-0.059 0.047-0.131l0.034 0.016 0.022-0.128 0.031-0.109 0.006-0.012 0.038 0.009 0.038-0.097c0-0.012-0.003-0.022-0.006-0.034 0.022-0.025 0.047-0.050 0.072-0.072 0-0.034-0.022-0.019-0.038-0.059-0.025-0.037-0.056-0.066-0.094-0.091 0.019-0.038 0.031-0.078 0.034-0.119v-0.016l0.012 0.025c0.016-0.044 0.037-0.087 0.063-0.128 0.016-0.019 0.031-0.034 0.053-0.047l0.016-0.012c0.009-0.006 0.019-0.016 0.028-0.028l0.019-0.025h0.025c0 0.009 0 0.019 0.006 0.025l0.006 0.003h0.013c0.003-0.009 0.006-0.016 0.009-0.025 0.006-0.028-0.022-0.022-0.012-0.038s0.038-0.016 0.050-0.019c0.016-0.003 0.019-0.006 0.034-0.019s0.031-0.006 0.044-0.016c0.009-0.009 0.019-0.016 0.028-0.022l0.022-0.006c0.019-0.003 0.041-0.003 0.059 0h0.009c0.009 0 0.037-0.012 0.056 0l0.016-0.031c0.012-0.019 0.031-0.037 0.047-0.050s0.028-0.025 0.041-0.041l0.016-0.028 0.025-0.003c0 0 0 0.028 0.012 0.028s0.012 0 0.019-0.028-0.022-0.022-0.016-0.034l0.003-0.003c0.012-0.009 0.028-0.016 0.047-0.019 0.016-0.003 0.019-0.009 0.034-0.022s0.028-0.009 0.044-0.019c0.009-0.009 0.016-0.016 0.025-0.025h0.003l0.003-0.003c0.016-0.013 0.028-0.028 0.037-0.044l0.009-0.019 0.012 0.016c0.069 0.072 0.141 0.141 0.222 0.2l0.053 0.019c0.063 0.025 0.019 0.128 0.019 0.128l0.047 0.006 0.028 0.028c0 0-0.031 0.012-0.016 0.028 0.012 0.016 0.012 0.016 0.050 0.009s0-0.034 0.022-0.031c0.038 0.016 0.069 0.034 0.1 0.063 0.028 0.022 0.063 0.038 0.097 0.050 0.047 0.019 0.072 0.044 0.119 0.059l0.091 0.028 0.056 0.022c0.063 0.028 0.134 0.063 0.166 0.072 0.028 0.009 0.147 0.019 0.153 0.044s0.037 0.025 0.075 0.025c0.022-0.003 0.044-0.009 0.063-0.019l0.003 0.038c0.044-0.003 0.084-0.013 0.125-0.022 0.038-0.003 0.075-0.013 0.113-0.019h0.016l0.009 0.037 0.103-0.016 0.038-0.028 0.156-0.009 0.034 0.025c0.056-0.072 0.156-0.184 0.187-0.244 0.022-0.031 0.047-0.059 0.072-0.084l0.022-0.022c0.016-0.016 0.028-0.031 0.041-0.050l0.025-0.041 0.038-0.019c0 0 0 0.022 0.009 0.025h0.009c0.009 0 0.016-0.006 0.019-0.012 0.006-0.009 0.009-0.022 0.012-0.034 0.009-0.038-0.034-0.009-0.022-0.031 0.022-0.025 0.050-0.044 0.078-0.059 0.022-0.012 0.041-0.031 0.053-0.050 0.025-0.025 0.047-0.031 0.072-0.059 0.016-0.019 0.028-0.034 0.047-0.050l0.034-0.025c0.034-0.022 0.072-0.041 0.097-0.056l0.019-0.009c0.028-0.022 0.056-0.044 0.087-0.059l0.022-0.056 0.072-0.119c0.022-0.031 0.041-0.063 0.053-0.097l0.016-0.053 0.034-0.034c0 0 0.006 0.034 0.025 0.019s0.019-0.016 0.019-0.059-0.038 0.003-0.031-0.022l0.003-0.009c0.016-0.028 0.034-0.053 0.059-0.078 0.016-0.019 0.028-0.041 0.037-0.066 0.013-0.028 0.041-0.053 0.059-0.094 0.016-0.031 0.025-0.053 0.041-0.084l0.006-0.006 0.006-0.016c0.022-0.041 0.041-0.084 0.053-0.131l0.016-0.066 0.037-0.053c0 0 0.013 0.034 0.031 0.009s0.022-0.028 0.016-0.072c-0.006-0.047-0.041 0.025-0.038-0.006 0.012-0.044 0.028-0.084 0.047-0.125 0.012-0.028 0.019-0.059 0.019-0.087 0.009-0.037 0.009-0.078 0.006-0.119-0.006-0.028-0.012-0.053-0.022-0.081l-0.012-0.050c-0.012-0.059-0.022-0.122-0.031-0.15-0.009-0.025-0.066-0.122-0.044-0.134s-0.012-0.078-0.063-0.112l0.034-0.016-0.069-0.1-0.053-0.094v-0.013l0.034-0.022-0.016-0.059-0.025-0.016c0-0.031 0-0.066 0.003-0.097-0.025-0.022-0.028 0-0.066-0.009-0.044-0.006-0.087-0.003-0.128 0.009-0.009-0.038-0.028-0.072-0.053-0.1-0.009-0.016-0.016-0.022-0.019-0.025 0.019 0 0.037-0.006 0.056-0.006l0.038 0.013c-0.025-0.034-0.044-0.072-0.059-0.113-0.003-0.019-0.006-0.041-0.006-0.059v-0.016c0-0.009 0-0.022-0.003-0.031l-0.009-0.025 0.012-0.012c0.006 0.006 0.013 0.012 0.022 0.016h0.006c0.006 0 0.006-0.003 0.006-0.006-0.003-0.006-0.006-0.012-0.013-0.019-0.016-0.022-0.028-0.003-0.034-0.016s0.009-0.025 0.016-0.034c0.006-0.009 0.006-0.012 0.006-0.028 0.003-0.016 0.016-0.016 0.016-0.028 0-0.009 0-0.019 0-0.025l0.009-0.016c0.016-0.016 0.031-0.031 0.050-0.044l0.009-0.006c0.006-0.009 0.022-0.041 0.041-0.047l-0.009-0.038c-0.003-0.025-0.003-0.050 0-0.075 0.003-0.019 0-0.041-0.003-0.059l-0.009-0.031 0.016-0.022c0 0 0.022 0.019 0.031 0.009s0.009-0.009-0.009-0.034-0.031 0.003-0.038-0.012v-0.006c0-0.016 0.006-0.034 0.016-0.047 0.009-0.016 0.006-0.019 0.006-0.041 0-0.019 0.012-0.028 0.012-0.047 0-0.012 0-0.025 0-0.034v-0.009c0-0.006-0.003-0.016-0.003-0.022 0.016 0.012 0.028 0.028 0.038 0.044l0.047-0.031 0.053-0.006c0 0-0.016 0.031 0.009 0.031s0.028 0 0.056-0.034c0.028-0.034-0.034-0.019-0.013-0.037 0.038-0.019 0.078-0.028 0.119-0.031 0.028-0.006 0.056-0.016 0.081-0.025 0.038-0.016 0.066-0.012 0.1-0.025 0.022-0.009 0.047-0.019 0.069-0.028l0.047-0.009c0.059-0.006 0.122-0.006 0.147-0.006 0.025-0.003 0.119-0.025 0.128-0.006 0 0.028 0.1 0 0.166-0.050l0.016 0.034c0.053-0.022 0.106-0.047 0.156-0.072s0.094-0.044 0.137-0.069l0.019-0.006 0.025 0.028c0.041-0.019 0.081-0.044 0.122-0.066l0.037-0.047c0.063-0.031 0.122-0.069 0.178-0.1l0.047 0.006 0.012-0.031c0.041-0.122 0.072-0.25 0.087-0.378 0.009-0.056 0.025-0.15 0.034-0.256l0.003-0.072c0.003-0.047 0-0.094-0.003-0.141-0.003-0.028-0.006-0.053-0.016-0.081l0.009-0.053c0 0 0.016 0.016 0.025 0.009 0.003-0.003 0.006-0.006 0.006-0.009-0.009-0.028-0.006-0.038-0.009-0.047zM22.572 16.575c-0.009 0.012-0.019 0.012-0.025 0.019l0.041 0.009c-0.012 0.009-0.025 0.016-0.041 0.019h-0.006l0.009 0.009c0.016 0.016 0.022 0.038 0.016 0.056-0.003-0.012-0.009-0.022-0.019-0.031v0.016c0.003 0.012 0 0.016-0.006 0.003l-0.009-0.012v0.012c0.003 0.009 0.006 0.019 0.006 0.031l-0.006 0.012-0.006 0.016c-0.016 0.012-0.034 0.022-0.053 0.028-0.016-0.003-0.028-0.003-0.044-0.003-0.013-0.003-0.025 0.006-0.025 0.019v0.009h0.059c-0.059 0.022-0.125 0.044-0.191 0.059l-0.044-0.025c0 0 0.009-0.025-0.006-0.022-0.022 0.003-0.044 0.012-0.056 0.031l0.003 0.012v0.025l-0.147 0.028-0.031-0.019-0.047-0.006-0.069 0.006c-0.016-0.003-0.031-0.012-0.044-0.022l-0.059 0.009-0.031 0.016h-0.044c-0.025 0-0.025 0.016-0.025 0.025v0.006h0.059c-0.059 0.022-0.081 0.075-0.15 0.091l-0.028-0.016-0.016-0.009c0 0 0.009-0.025-0.006-0.022-0.022 0-0.044 0.012-0.056 0.031l0.003 0.012v0.025c-0.041 0.009-0.069 0.044-0.113 0.050l-0.022 0.006-0.038 0.059-0.044-0.006-0.022 0.034h-0.019c-0.031-0.006-0.066-0.003-0.097 0.012-0.016 0.012-0.034 0.025-0.053 0.034-0.038 0.006 0.012 0.022-0.038 0.019-0.016 0.028-0.028 0.053-0.041 0.084l-0.006 0.006-0.028 0.028-0.028 0.056-0.006 0.009c0.006 0.003 0.009 0.009 0.009 0.019v0.012c-0.012 0.019-0.028 0.034-0.044 0.047 0 0-0.044-0.038-0.056 0.016s0.047 0.094 0.047 0.094c0.009 0.038-0.003 0.078-0.034 0.106-0.025 0.016-0.034 0.050-0.016 0.075 0.003 0.003 0.003 0.006 0.006 0.009v0.119l0.022 0.031-0.038-0.009h-0.006l-0.016 0.009-0.003 0.016-0.038-0.012c0.019 0.012 0.009 0.019-0.016 0.009-0.025-0.006-0.028 0.003-0.034 0.006l-0.034 0.006-0.006 0.003c0 0.003 0 0.006 0.006 0.012s-0.006 0.006-0.006 0.012c0 0.009 0.006 0.009 0 0.009-0.006 0.003-0.012 0.006-0.006 0.012 0.009 0.006 0.016 0 0.034 0.016s0.019 0.019 0.009 0.022c-0.009 0.003-0.028-0.016-0.028-0.016l-0.009 0.009 0.009 0.025c0.003 0.013 0.006 0.028 0.003 0.041 0 0.019 0.003 0.034 0.006 0.050l0.019 0.034c-0.034 0.025-0.069 0.050-0.1 0.078l0.037 0.019-0.069 0.069-0.009 0.006c0.019 0.031 0.025 0.066 0.019 0.103 0 0-0.009-0.025-0.025-0.025l0.003 0.025c0.006 0.016 0.006 0.019-0.006 0.012l-0.012-0.006 0.003 0.016c0.009 0.009 0.016 0.019 0.019 0.031v0.022l0.003 0.047c-0.006 0-0.012 0.003-0.019 0.003-0.012 0.003 0.016 0.019 0.016 0.019l0.022-0.009c-0.003 0.022-0.009 0.041-0.019 0.059l-0.034-0.006c0 0-0.019-0.016-0.022-0.013s0.006 0.025 0.006 0.025l0.009 0.006 0.022 0.016c-0.009 0.012-0.019 0.025-0.028 0.034l-0.025-0.006h-0.022l-0.019 0.009c-0.009 0-0.022-0.003-0.031-0.006l-0.016 0.009v0.012h-0.022c-0.009 0 0.003 0.012 0.009 0.016h0.003l0.022-0.003c-0.006 0.019 0.028 0.050 0.019 0.066l-0.022-0.006-0.013-0.003c0 0-0.016-0.016-0.022-0.013-0.003 0.003 0.006 0.025 0.006 0.025l0.009 0.006 0.009 0.006 0.012 0.009c-0.006 0.009 0.009 0.031 0 0.041l-0.006 0.003 0.031 0.041h-0.016l0.037 0.047c-0.009-0.003-0.022-0.006-0.031-0.009-0.009 0.003 0.028 0.038 0.025 0.041l-0.012 0.006c0.041 0.034-0.034-0.016 0.006 0.016 0 0-0.019-0.003 0.028 0.059 0.019 0.025 0.037 0.050 0.059 0.072 0.012 0.016 0.022 0.028 0.037 0.041 0.031 0.031 0.072 0.053 0.084 0.044s0.066 0.044 0.066 0.044c0 0 0.028 0.019 0.041 0s0.019 0.009 0.034 0.031c0 0.012 0 0.028-0.003 0.041-0.025 0.031 0.034 0.031-0.009 0.059 0.022 0.059 0.047 0.122 0.075 0.184l0.016 0.075 0.050 0.122 0.006 0.022c0.066 0.016 0.075 0.169 0.075 0.169s-0.087-0.047-0.019 0.066c0.016 0.025 0.031 0.047 0.053 0.066h0.059c0 0 0.044 0.025 0 0.047s-0.009 0.028-0.009 0.031c-0.006 0.028 0.012 0.016-0.025 0.084l-0.019 0.078-0.031-0.022h-0.006l-0.034 0.028-0.028 0.037-0.031-0.022c0.006 0.031-0.019 0.044-0.038 0.028-0.022-0.016-0.047 0.016-0.056 0.022s-0.038 0.009-0.059 0.022l-0.016 0.012c-0.006 0.009-0.012 0.019-0.016 0.028-0.006 0.016-0.022 0.016-0.031 0.031s-0.009 0.022-0.025 0.028c-0.012 0.006-0.038 0.019-0.041 0.037s0.022 0 0.025 0.028c0.003 0.028 0 0.031-0.009 0.034s-0.022-0.025-0.022-0.025l-0.025 0.009-0.009 0.031c-0.006 0.019-0.019 0.037-0.031 0.053-0.016 0.022-0.028 0.044-0.041 0.069l-0.016 0.050c-0.066 0.025-0.137 0.050-0.212 0.087l0.025 0.034c-0.059 0.028-0.134 0.069-0.125 0.050l-0.006-0.003c0.009 0.022 0.009 0.047 0 0.069 0-0.012-0.003-0.025-0.006-0.038v0.016c0 0.012 0 0.016-0.003 0v0.031l-0.006 0.009-0.006 0.006-0.016 0.019-0.006-0.016c-0.003-0.009-0.006 0.022-0.006 0.022l0.009 0.019c-0.012 0.003-0.025 0.003-0.037 0v-0.037c0 0 0.009-0.022 0.006-0.025s-0.012 0.013-0.012 0.013l-0.003 0.012-0.009 0.025c-0.009-0.006-0.016-0.012-0.022-0.022l0.006-0.016v-0.019c0-0.006 0.003-0.006-0.013-0.022-0.003-0.013-0.003-0.025 0-0.038l-0.034-0.031-0.025-0.009-0.006-0.012-0.012-0.019c-0.009-0.016-0.025-0.006-0.028 0l-0.003 0.003 0.025 0.037c-0.044-0.022-0.094 0-0.137-0.025v-0.044c0 0 0.025-0.013 0.012-0.022-0.012-0.012-0.031-0.016-0.050-0.009l-0.006 0.009-0.006 0.006-0.009 0.009c-0.013-0.006-0.025-0.012-0.041-0.012-0.006-0.006-0.009-0.012-0.016-0.019-0.059-0.044 0.034-0.012 0-0.034-0.075-0.081-0.166-0.147-0.262-0.2-0.072-0.047-0.059-0.019-0.125-0.084-0.037-0.034 0.038 0.016-0.097-0.097-0.022-0.022-0.050-0.041-0.081-0.053-0.019-0.003-0.038-0.009-0.056-0.019-0.031-0.022 0 0.016-0.038-0.016l-0.069 0.006-0.034-0.009-0.050 0.003h-0.009c0.012 0.044-0.075 0.006-0.075 0.006s0-0.056-0.044-0.037c-0.044 0.019-0.059 0.094-0.059 0.094-0.038 0.034-0.091 0.053-0.144 0.050-0.047-0.006-0.094 0.016-0.119 0.059l-0.166 0.109-0.031 0.047-0.016-0.034h-0.034l-0.028 0.012-0.016-0.034c-0.003 0.025-0.025 0.025-0.034 0-0.012-0.025-0.037-0.012-0.047-0.012s-0.034-0.009-0.050-0.009l-0.016 0.003c-0.006 0.003-0.013 0.009-0.019 0.016-0.009 0.009-0.019 0-0.028 0.012s-0.012 0.016-0.022 0.016c-0.012 0-0.028 0-0.034 0.016-0.003 0.016 0.016 0.009 0.016 0.034-0.003 0.028 0 0.025-0.012 0.025-0.012-0.003-0.012-0.028-0.012-0.028h-0.019l-0.009 0.025c-0.006 0.012-0.016 0.025-0.025 0.034-0.012 0.013-0.022 0.028-0.031 0.044l-0.012 0.037c-0.044-0.006-0.087-0.009-0.131-0.009l0.012 0.038h-0.119c-0.012 0.037-0.041 0.066-0.072 0.087 0 0 0.012-0.025 0-0.037l-0.019 0.019c-0.006 0.016-0.009 0.019-0.016 0.006l-0.003-0.012-0.012 0.016c-0.003 0.013-0.006 0.025-0.012 0.038l-0.022 0.016-0.041 0.038c-0.006-0.003-0.012-0.006-0.019-0.009-0.012-0.006-0.006 0.025-0.006 0.025l0.025 0.009c-0.022 0.013-0.047 0.022-0.072 0.031l-0.022-0.028c0 0 0-0.025-0.006-0.025-0.016 0-0.019 0.022-0.019 0.022l0.003 0.013 0.003 0.025c-0.019 0.003-0.041 0.006-0.059 0.006l-0.016-0.025-0.019-0.012-0.028-0.006c-0.009-0.006-0.019-0.016-0.025-0.025h-0.025l-0.012 0.009-0.006-0.006-0.012-0.006c-0.009-0.006-0.009 0.012-0.006 0.019v0.006l0.025 0.012c-0.022 0.009-0.025 0.059-0.053 0.066l-0.013-0.022-0.006-0.009c0 0 0-0.025-0.006-0.025-0.019 0-0.019 0.022-0.019 0.022v0.038c-0.016 0-0.025 0.031-0.041 0.031l-0.013 0.050-0.019-0.013-0.013 0.063c-0.009-0.009-0.016-0.019-0.019-0.028-0.013 0-0.013 0.050-0.019 0.047h-0.016c0.003 0.053-0.019-0.034-0.009 0.016 0 0-0.016-0.016-0.028 0.063-0.006 0.031-0.009 0.063-0.009 0.094-0.003 0.019-0.003 0.034 0 0.053 0 0.047 0.019 0.087 0.037 0.087s0.019 0.078 0.019 0.078 0.012 0.031 0.034 0.028c0.022-0.003 0 0.059-0.012 0.091s0.016 0.119 0.019 0.141c0 0.012 0 0.053 0.006 0.097l-0.006 0.006-0.053 0.131-0.009 0.022c0.031 0.059-0.069 0.187-0.069 0.187s-0.028-0.103-0.063 0.037c-0.019 0.056 0.037 0.078 0.037 0.087 0-0.006 0.019 0.050-0.037 0.028-0.050-0.034-0.034 0.009-0.038 0.009-0.009 0.006-0.019 0.016-0.028 0.019-0.037 0.012-0.106 0.028-0.156 0.041l-0.072 0.038-0.003-0.038-0.050-0.025-0.044 0.003v-0.038c-0.019 0.025-0.047 0.016-0.047-0.009s-0.044-0.025-0.056-0.028c-0.012-0.003-0.037-0.022-0.066-0.031h-0.022c-0.012 0-0.025 0.003-0.038 0.006-0.019 0.003-0.031-0.006-0.053-0.003-0.016 0.003-0.031 0.003-0.047 0-0.019-0.006-0.047-0.016-0.066-0.006-0.016 0.009 0.019 0.016-0.006 0.038s-0.025 0.022-0.037 0.012 0.003-0.031 0.003-0.031l-0.028-0.009-0.041 0.016c-0.022 0.009-0.047 0.012-0.072 0.012-0.031 0.003-0.059 0.006-0.091 0.016l-0.053 0.025-0.112-0.050c-0.003-0.009-0.006-0.019-0.009-0.028l-0.012 0.038c-0.006-0.012-0.009-0.025-0.009-0.038v-0.006c-0.009 0.012-0.022 0.022-0.037 0.025-0.009 0.003-0.016 0.003-0.025 0 0.012-0.006 0.022-0.012 0.031-0.022l-0.016 0.003c-0.012 0.006-0.016 0.003 0-0.003l0.012-0.009h-0.012c-0.009 0.006-0.019 0.009-0.031 0.012l-0.012-0.003c-0.009-0.003-0.019-0.006-0.028-0.009l0.013-0.012c0.006-0.006-0.022 0-0.022 0l-0.012 0.016c-0.009-0.016-0.012-0.006-0.028-0.075l0.028-0.034c0 0 0.025 0.009 0.025-0.006 0-0.019-0.009-0.037-0.028-0.047h-0.037l-0.016-0.122 0.022-0.025 0.009-0.038v-0.059c0.006-0.013 0.016-0.025 0.025-0.034v-0.050l-0.012-0.028 0.006-0.012 0.003-0.022c0-0.019-0.012-0.022-0.022-0.022h-0.006l-0.006 0.047c-0.016-0.050-0.066-0.072-0.078-0.125l0.019-0.022 0.009-0.012c0 0 0.025 0.009 0.025-0.006 0-0.019-0.009-0.037-0.025-0.047h-0.041c-0.006-0.034-0.037-0.059-0.041-0.094v-0.019l-0.056-0.034 0.009-0.038-0.063-0.038v-0.009c0.006-0.009 0.012-0.019 0.019-0.025 0-0.003-0.006-0.006-0.009-0.009 0.003-0.012 0.006-0.019 0.009-0.037 0.013-0.031 0.016-0.066 0.009-0.097-0.009-0.019-0.016-0.037-0.019-0.059 0.003-0.038-0.022 0.006-0.009-0.041-0.022-0.022-0.044-0.041-0.069-0.059l-0.022-0.037-0.047-0.041-0.006-0.009c-0.031 0.037-0.066-0.056-0.066-0.056s0.047-0.034-0.003-0.059c-0.037-0.012-0.078-0.003-0.109 0.019-0.044-0.003-0.087-0.025-0.113-0.063-0.022-0.034-0.063-0.050-0.103-0.034l-0.162-0.034-0.047 0.012 0.012-0.034v-0.006l-0.016-0.019-0.022-0.009 0.012-0.034c-0.019 0.016-0.031 0-0.022-0.022s-0.012-0.034-0.019-0.041c-0.006-0.006-0.012-0.028-0.022-0.041l-0.009-0.006c-0.006 0-0.016 0-0.022 0-0.009 0-0.012-0.009-0.025-0.009s-0.016 0.003-0.022-0.003c-0.006-0.006-0.016-0.019-0.028-0.012s0.003 0.016-0.016 0.034c-0.019 0.019-0.019 0.019-0.022 0.009s0.013-0.028 0.013-0.028l-0.009-0.012-0.022 0.012c-0.013 0.006-0.025 0.009-0.037 0.009-0.016 0-0.031 0.006-0.044 0.012l-0.031 0.022c-0.019-0.034-0.044-0.063-0.069-0.094l-0.019 0.038-0.059-0.066-0.006-0.009c-0.028 0.019-0.066 0.025-0.097 0.019 0 0 0.025-0.009 0.025-0.025l-0.022 0.003c-0.012 0.006-0.019 0.006-0.012-0.006l0.006-0.012-0.016 0.003c-0.009 0.009-0.019 0.016-0.028 0.019h-0.063c0-0.006-0.003-0.013-0.003-0.019-0.003-0.012-0.019 0.016-0.019 0.016l0.009 0.022c-0.022-0.003-0.041-0.012-0.059-0.022l0.006-0.034c0 0 0.016-0.016 0.012-0.022s-0.025 0.006-0.025 0.006l-0.006 0.009-0.016 0.022c-0.012-0.009-0.025-0.019-0.037-0.031l0.006-0.028v-0.022l-0.012-0.022c0-0.012 0.003-0.022 0.006-0.031l-0.012-0.016h-0.012v-0.009c0-0.009-0.012 0.003-0.019 0.009l-0.003 0.003 0.006 0.022c-0.019-0.006-0.053 0.028-0.072 0.016l0.006-0.022 0.003-0.012c0 0 0.016-0.016 0.013-0.022s-0.025 0.006-0.025 0.006l-0.006 0.009-0.006 0.009-0.009 0.012c-0.009-0.009-0.034 0.009-0.044 0l-0.006-0.006-0.041 0.031v-0.022l-0.050 0.037c0.003-0.012 0.006-0.022 0.009-0.031-0.006-0.009-0.037 0.028-0.044 0.025l-0.006-0.013c-0.034 0.041 0.012-0.037-0.016 0.006 0 0 0-0.019-0.059 0.028-0.025 0.019-0.047 0.037-0.069 0.059-0.012 0.013-0.025 0.025-0.037 0.038-0.031 0.034-0.050 0.075-0.041 0.087s-0.041 0.066-0.041 0.066-0.016 0.031 0 0.041c0.016 0.013-0.037 0.044-0.069 0.059s-0.075 0.094-0.087 0.113c-0.006 0.009-0.016 0.019-0.025 0.028-0.009-0.022-0.037-0.087-0.097-0.072l-0.066 0.016c-0.097 0.031-0.191 0.072-0.281 0.119l-0.041 0.041c-0.053 0.047-0.128-0.037-0.128-0.037l-0.025 0.041c-0.028 0.012-0.031 0.012-0.031 0.012s-0.009-0.025-0.016-0.028c-0.006-0.003-0.006 0 0 0.022s0.019 0.022 0.019 0.034c0 0.012-0.016 0.016-0.025 0.016s-0.009 0.006-0.016 0.016-0.016 0-0.025 0.009c-0.006 0.009-0.009 0.012-0.016 0.016h-0.012c-0.016-0.006-0.031-0.025-0.034-0.028h-0.006c-0.012-0.003-0.022-0.019-0.019-0.031 0-0.028-0.006-0.037-0.019-0.019l0.009-0.038-0.012-0.006-0.006-0.016v-0.059c0.006-0.022 0.016-0.041 0.025-0.059l0.022-0.031c-0.059 0.009-0.122 0.006-0.181-0.006-0.034-0.009-0.066-0.022-0.097-0.034l-0.025-0.013c-0.016-0.006-0.034-0.012-0.050-0.019l-0.041-0.006-0.022-0.025c0 0 0.019-0.006 0.022-0.016 0-0.003 0-0.006 0-0.006-0.003-0.009-0.009-0.009-0.016-0.009-0.009-0.003-0.022-0.003-0.031 0-0.034 0.003-0.003 0.034-0.025 0.028-0.022-0.003-0.044-0.031-0.059-0.047-0.012-0.012-0.025-0.022-0.044-0.031-0.022-0.012-0.025-0.031-0.044-0.041-0.012-0.006-0.025-0.016-0.037-0.025l-0.016-0.022c-0.009-0.022-0.019-0.044-0.025-0.066l-0.003-0.012c-0.006-0.009-0.028-0.038-0.025-0.059l-0.034-0.012c-0.025-0.012-0.050-0.031-0.072-0.050-0.019-0.019-0.037-0.034-0.059-0.047l-0.037-0.019c-0.012-0.025-0.009-0.028-0.009-0.028s0.025-0.009 0.028-0.016c0.003-0.009 0-0.006-0.022 0s-0.022 0.019-0.034 0.019c-0.009-0.003-0.012-0.016-0.012-0.025 0-0.006-0.006-0.009-0.016-0.016s-0.003-0.016-0.013-0.022c-0.006-0.003-0.016-0.009-0.019-0.016h-0.003l-0.037-0.025c-0.006-0.003-0.016-0.009-0.022-0.016 0.003-0.006 0.006-0.009 0.012-0.016 0 0 0.025 0.006 0.034 0s0.009-0.006-0.012-0.016c-0.022-0.012-0.034 0.006-0.041-0.003s0.009-0.025 0.019-0.034c0.009-0.009 0.006-0.012 0.006-0.025s0.016-0.019 0.016-0.031v-0.025l0.019-0.034c0.025-0.041 0.063-0.078 0.075-0.094s0.041-0.087 0.066-0.078 0.053-0.034 0.044-0.075l0.034 0.016 0.028-0.069 0.037-0.059 0.006-0.006 0.037 0.016 0.041-0.044v-0.028c0.028-0.016 0.053-0.031 0.084-0.044 0.003-0.028-0.016-0.022-0.028-0.059-0.019-0.038-0.044-0.072-0.075-0.1 0.025-0.025 0.044-0.053 0.056-0.087l0.009-0.022c0.047-0.056 0.088-0.106 0.125-0.163 0.050-0.069 0.025-0.059 0.091-0.122 0.034-0.034-0.019 0.034 0.1-0.094 0.025-0.022 0.047-0.050 0.059-0.078 0.003-0.019 0.009-0.041 0.016-0.059 0.022-0.031-0.019-0.003 0.016-0.037-0.006-0.028-0.012-0.053-0.022-0.078l0.003-0.037-0.012-0.050v-0.009c-0.044 0.019-0.016-0.069-0.016-0.069s0.053-0.009 0.031-0.047c-0.022-0.038-0.088-0.025-0.088-0.025-0.031-0.016-0.053-0.050-0.050-0.087 0.009-0.028-0.006-0.056-0.034-0.063-0.003 0-0.009-0.003-0.012-0.003l-0.087-0.091-0.041-0.012 0.034-0.019v-0.022l-0.009-0.016 0.034-0.019c-0.025 0.003-0.022-0.009 0-0.025 0.022-0.012 0.016-0.028 0.016-0.034 0.006-0.012 0.009-0.025 0.016-0.037v-0.009c-0.003-0.003-0.009-0.006-0.016-0.009s0-0.012-0.009-0.019-0.012-0.006-0.012-0.012c0-0.006 0-0.022-0.009-0.022s-0.009 0.012-0.034 0.016c-0.025 0.003-0.025 0.003-0.022-0.003s0.028-0.012 0.028-0.012v-0.012h-0.022c-0.009 0-0.022-0.006-0.031-0.013-0.012-0.006-0.025-0.012-0.037-0.016l-0.034-0.003c0.009-0.031 0.016-0.063 0.022-0.094l-0.037 0.016 0.009-0.075v-0.009c-0.031-0.003-0.059-0.019-0.078-0.044 0.013 0.003 0.025 0.003 0.037 0l-0.019-0.012c-0.012-0.003-0.016-0.006 0-0.009l0.012-0.003-0.009-0.016c-0.009 0-0.022-0.003-0.031-0.006-0.003-0.006-0.009-0.006-0.012-0.009l-0.006-0.006-0.019-0.016c-0.006 0-0.006-0.012-0.006-0.019 0.003 0 0.003-0.003 0.006-0.006 0.003-0.006-0.003-0.006-0.012-0.006 0.003-0.016 0.006-0.031 0.009-0.047l-0.006-0.009h-0.016c-0.006-0.009-0.019-0.025-0.053-0.025 0-0.006 0-0.013 0-0.022l0.025-0.012 0.016-0.016 0.006-0.016 0.028-0.019c0.047-0.028 0.028-0.119 0.031-0.141 0.003-0.025 0.081-0.156 0.022-0.178-0.041-0.016-0.084-0.019-0.128-0.012 0 0 0.041-0.1-0.041-0.125l-0.081-0.025c-0.116-0.031-0.234-0.053-0.353-0.069l-0.069 0.009c-0.081 0.006-0.094-0.103-0.094-0.103l-0.053 0.016-0.047-0.009c0 0 0.025-0.025 0-0.031s-0.025-0.006-0.059 0.016 0.022 0.028-0.003 0.038c-0.037 0.006-0.072 0.003-0.109-0.006-0.025-0.003-0.053-0.003-0.078 0-0.037 0.003-0.059-0.009-0.097-0.006-0.022 0.003-0.047 0.006-0.069 0.006l-0.044-0.006c-0.041-0.006-0.081-0.019-0.119-0.037-0.006-0.003-0.031-0.006-0.025-0.031s-0.003-0.034-0.022-0.016l0.012-0.037-0.016-0.006-0.003-0.019v-0.003l0.022-0.034 0.006-0.022-0.009 0.006 0.003-0.006c0.009-0.016 0.022-0.031 0.034-0.047l0.028-0.028c-0.025 0.025-0.056 0.044-0.088 0.053-0.009 0.003-0.022 0-0.031-0.003h-0.006c-0.009 0-0.028-0.034-0.025-0.028l-0.031-0.038-0.006-0.041c0 0 0.019 0.006 0.028 0 0.003-0.003 0.003-0.006 0.003-0.006 0.003-0.006 0.003-0.016 0-0.022-0.009-0.006-0.016-0.016-0.025-0.019-0.031-0.022-0.022 0.028-0.037 0.009-0.013-0.025-0.022-0.056-0.022-0.084-0.003-0.022-0.009-0.041-0.019-0.059-0.012-0.034-0.006-0.053-0.012-0.078-0.006-0.016-0.013-0.034-0.016-0.053v-0.034c0.003-0.031 0.009-0.063 0.016-0.091v-0.016c-0.003-0.031 0.003-0.063 0.012-0.091l-0.025-0.047c-0.016-0.037-0.025-0.078-0.034-0.119-0.006-0.031-0.012-0.066-0.025-0.094l-0.019-0.047c0.003-0.025 0.006-0.019 0.006-0.022s0.025 0.006 0.031 0c0.006-0.006 0.006-0.006-0.019-0.016s-0.028 0.006-0.037-0.003v-0.003c-0.006-0.009-0.006-0.022 0-0.031 0.003-0.009 0-0.012-0.006-0.028s0.006-0.019 0-0.031c-0.003-0.009-0.006-0.019-0.006-0.028v-0.006c-0.003-0.019-0.009-0.034-0.016-0.050-0.006-0.009-0.009-0.022-0.012-0.031 0.006-0.003 0.012-0.006 0.019-0.009 0 0 0.016 0.025 0.028 0.025s0.012 0 0-0.025-0.034-0.019-0.031-0.031c0.003-0.012 0.028-0.012 0.044-0.012s0.016-0.006 0.028-0.012c0.012-0.006 0.031-0.003 0.047-0.012 0.009-0.006 0.022-0.013 0.031-0.019l0.025-0.003c0.034 0 0.056 0.013 0.088 0.009 0.031-0.006 0.103-0.022 0.119 0 0.012 0.022 0.066 0.019 0.097-0.012l0.013 0.037 0.084-0.022 0.078-0.009h0.009l0.012 0.037 0.069 0.003 0.025-0.016c0.034 0.009 0.069 0.022 0.1 0.034 0.031-0.016 0.009-0.025 0.034-0.059 0.022-0.037 0.037-0.078 0.041-0.122 0.044 0.003 0.084-0.003 0.125-0.016 0.087-0.022 0 0 0.094-0.053s0.059-0.088 0.137-0.094l0.012 0.003c0.031 0.012 0.063 0.016 0.097 0.012 0.019-0.009 0.037-0.012 0.059-0.016 0.037 0.003-0.006-0.022 0.041-0.009 0.022-0.022 0.041-0.047 0.059-0.072l0.037-0.022 0.041-0.044 0.009-0.006c-0.037-0.031 0.053-0.066 0.053-0.066s0.034 0.047 0.059-0.003c0.025-0.050-0.025-0.106-0.025-0.106 0-0.044 0.022-0.081 0.056-0.106 0.031-0.019 0.044-0.059 0.028-0.094l0.022-0.144-0.016-0.041 0.034 0.013h0.006l0.016-0.016 0.006-0.022 0.037 0.012c-0.019-0.016-0.006-0.025 0.019-0.019 0.025 0.009 0.031-0.012 0.037-0.016 0.012-0.006 0.025-0.012 0.037-0.019l0.006-0.009c0-0.006 0-0.012 0-0.019 0-0.009 0.009-0.012 0.009-0.022s-0.003-0.012 0-0.019c0.003-0.006 0.016-0.016 0.009-0.025s-0.016 0-0.034-0.016c-0.019-0.016-0.019-0.016-0.012-0.019s0.028 0.012 0.028 0.012l0.009-0.006-0.012-0.016c-0.006-0.009-0.009-0.022-0.009-0.031-0.003-0.012-0.006-0.028-0.012-0.041l-0.022-0.028c0.031-0.016 0.059-0.034 0.087-0.053l-0.037-0.019 0.059-0.050 0.009-0.003c-0.019-0.025-0.025-0.059-0.022-0.091 0 0 0.009 0.022 0.025 0.025l-0.003-0.022c-0.006-0.012-0.006-0.016 0.006-0.009l0.012 0.006-0.003-0.016c-0.006-0.009-0.013-0.019-0.016-0.028v-0.047c0.028-0.016 0.053-0.031 0.081-0.050 0.019-0.009 0.169-0.034 0.156-0.091-0.006-0.034-0.025-0.063-0.047-0.088 0.003-0.006 0.003-0.012 0-0.016 0.022-0.009 0.088-0.037 0.069-0.1l-0.025-0.078c-0.037-0.1-0.084-0.2-0.134-0.294l-0.044-0.044c-0.050-0.056 0.031-0.131 0.031-0.131l-0.041-0.028-0.019-0.041c0 0 0.034 0.006 0.025-0.016-0.006-0.022-0.006-0.022-0.044-0.034s-0.009 0.034-0.031 0.019c-0.025-0.022-0.044-0.050-0.056-0.081-0.013-0.022-0.025-0.041-0.044-0.059-0.022-0.025-0.025-0.050-0.047-0.072-0.016-0.016-0.028-0.031-0.044-0.047l-0.019-0.034c-0.019-0.044-0.031-0.094-0.041-0.112s-0.053-0.084-0.031-0.1c0.022-0.016 0-0.063-0.041-0.081l0.031-0.022-0.037-0.059v-0.022l0.034-0.016 0.016-0.016h-0.031c0.019-0.009 0.037-0.019 0.059-0.025l0.037-0.009c-0.034 0.009-0.072 0.009-0.106 0.003-0.006-0.003-0.013-0.006-0.019-0.009s-0.009-0.006-0.012-0.009l-0.006-0.006-0.006-0.009-0.016-0.012 0.009-0.006c0.009 0.003 0.016 0.006 0.025 0.009h0.009l-0.016-0.012c-0.019-0.016-0.028-0.006-0.037-0.016-0.006-0.009 0.006-0.016 0.012-0.019s0.006-0.006 0.006-0.016 0.025-0.028 0.037-0.050c0.006-0.019 0.016-0.037 0.025-0.056l0.025-0.028c0.022-0.022 0.047-0.041 0.075-0.059l0.013-0.009c0.012-0.012 0.041-0.050 0.066-0.056l0.006-0.047c0.009-0.031 0.025-0.063 0.041-0.094 0.012-0.022 0.025-0.047 0.034-0.072l0.009-0.041 0.028-0.019c0 0 0.006 0.031 0.022 0.022s0.016-0.006 0.016-0.041c0-0.034-0.031-0.006-0.025-0.025l0.003-0.006c0.012-0.019 0.031-0.034 0.050-0.044 0.016-0.009 0.025-0.025 0.034-0.037 0.016-0.019 0.034-0.022 0.050-0.041 0.009-0.012 0.019-0.025 0.031-0.037h0.003l0.006-0.006c0.019-0.019 0.034-0.041 0.047-0.066l0.022-0.037c0.022-0.012 0.019-0.006 0.022-0.006 0.003-0.003 0.006 0.025 0.016 0.028 0.009 0 0.009 0 0.006-0.025s-0.022-0.019-0.019-0.034c0.003-0.016 0.025-0.019 0.034-0.022 0.012-0.003 0.012-0.009 0.022-0.022s0.022-0.006 0.031-0.019c0.006-0.009 0.012-0.016 0.022-0.025l0.016-0.006c0.016 0 0.031 0.006 0.044 0.019 0.022 0.006 0.034 0.025 0.031 0.047 0 0.028 0.009 0.047 0.025 0.031l-0.009 0.041 0.019 0.012 0.016 0.025v0.006l-0.016 0.037 0.006 0.028 0.009-0.006c-0.003 0.022-0.009 0.041-0.016 0.063 0.019 0.006 0.022-0.013 0.059-0.019 0.044-0.009 0.081-0.028 0.119-0.053 0.022 0.031 0.050 0.056 0.081 0.075 0.050 0.034 0.025 0.019 0.047 0.019 0.003 0.025 0.012 0.053 0.022 0.075 0.003 0.019 0.009 0.034 0.019 0.050 0.019 0.041 0.053 0.075 0.072 0.066s0.050 0.063 0.050 0.063c0 0 0.022 0.025 0.044 0.012 0.019-0.012 0.025 0.053 0.025 0.087 0 0.037 0.059 0.103 0.072 0.122 0.016 0.019 0.066 0.15 0.1 0.15 0.022 0.003 0.041-0.009 0.053-0.028 0 0 0.044 0.094 0.087 0.091h0.044c0.056-0.009 0.109-0.025 0.162-0.047l0.016-0.031c0.025-0.031 0.094 0.056 0.094 0.056l0.009-0.028 0.022-0.006c0 0 0.006 0.028 0.019 0.025s0.012 0 0.012-0.028c0-0.028-0.025-0.016-0.022-0.031s0.028-0.022 0.041-0.025c0.012-0.006 0.016-0.009 0.025-0.025s0.025-0.009 0.034-0.022c0.006-0.009 0.012-0.016 0.022-0.025l0.016-0.009c0.022-0.003 0.044-0.006 0.066-0.006 0.009 0 0.044-0.022 0.059 0s0.041 0.016 0.044-0.012l0.019 0.031 0.034-0.022 0.034-0.009h0.006l0.019 0.031h0.037l0.006-0.016c0.022 0.009 0.047 0.019 0.066 0.031l0.025 0.031c0-0.044 0.006-0.087 0.019-0.131 0.009-0.019 0.019-0.037 0.031-0.053l0.009-0.013c0.006-0.009 0.012-0.019 0.016-0.028l0.009-0.028 0.022-0.006c0 0.009 0.006 0.019 0.009 0.025l0.006 0.003c0.006 0 0.009 0 0.009-0.003 0-0.009 0-0.016 0-0.025 0-0.028-0.022-0.019-0.019-0.031 0.003-0.016 0.028-0.019 0.041-0.025 0.012-0.003 0.016-0.009 0.025-0.022 0.012-0.012 0.025-0.009 0.034-0.019 0.006-0.009 0.012-0.016 0.022-0.022l0.016-0.006c0.019-0.003 0.034-0.003 0.053 0h0.009c0.009 0 0.031-0.012 0.047-0.003l0.009-0.031c0.009-0.019 0.022-0.034 0.034-0.050 0.013-0.012 0.022-0.025 0.028-0.041l0.009-0.025h0.022c0 0 0 0.028 0.016 0.028s0.012 0 0.012-0.028-0.022-0.019-0.016-0.034v-0.003c0.009-0.009 0.025-0.016 0.037-0.016s0.016-0.009 0.028-0.019c0.012-0.009 0.025-0.006 0.037-0.016 0.006-0.009 0.016-0.016 0.025-0.019l0.003-0.003c0.012-0.009 0.022-0.025 0.031-0.037l0.012-0.025h0.022c0 0 0 0.028 0.012 0.028 0.013 0.003 0.013 0 0.016-0.025s-0.022-0.022-0.016-0.034c0.006-0.013 0.028-0.016 0.041-0.019s0.016-0.006 0.028-0.019c0.012-0.012 0.025-0.006 0.037-0.016 0.006-0.006 0.016-0.016 0.022-0.019l0.019-0.006c0.019 0 0.041 0.003 0.059 0.006 0.009 0 0.044-0.012 0.053 0.009s0.034 0.025 0.041 0l0.012 0.034 0.034-0.012h0.041l0.013 0.037 0.031 0.013 0.006-0.016c0.019 0.012 0.037 0.028 0.053 0.044 0.009-0.012 0-0.025 0.003-0.053 0.003-0.037 0-0.075-0.006-0.113 0.019 0.006 0.037 0.006 0.053 0 0.028-0.009 0.019-0.009 0.028-0.025 0.016-0.006 0.028-0.019 0.037-0.034l0.025-0.053c0.019 0.003 0.031 0.003 0.047-0.019 0.003-0.019 0.006-0.034 0.012-0.053 0.006-0.016 0.009-0.031 0.013-0.050 0.003-0.016 0.003-0.031 0-0.047 0.019-0.056 0.037-0.116 0.053-0.169v-0.069c0-0.078 0.112-0.075 0.112-0.075l-0.009-0.050 0.016-0.044c0 0 0.022 0.028 0.031 0.006s0.009-0.022-0.006-0.059-0.031 0.016-0.037-0.009c0-0.034 0.006-0.069 0.019-0.1 0.006-0.025 0.009-0.050 0.009-0.075 0-0.037 0.016-0.056 0.016-0.087 0-0.022 0-0.044 0.003-0.066l0.009-0.041c0.019-0.059 0.041-0.066 0.044-0.069s0.013-0.028 0.034-0.019c0.025 0.009 0.034 0.003 0.019-0.016l0.034 0.019 0.006-0.016 0.016-0.006h0.006l0.031 0.025 0.022 0.009-0.006-0.013c0.019 0.013 0.034 0.028 0.047 0.047l0.025 0.034c-0.022-0.028-0.037-0.059-0.041-0.094 0-0.009 0.003-0.022 0.006-0.031l0.003-0.006c0-0.009 0.025-0.022 0.025-0.022l0.044-0.025h0.047c0 0-0.009 0.019 0 0.028 0.003 0.003 0.003 0.003 0.006 0.003h0.022c0.009-0.006 0.019-0.016 0.025-0.025 0.025-0.028-0.025-0.025-0.006-0.037 0.031-0.012 0.063-0.016 0.094-0.016 0.022 0 0.044-0.006 0.066-0.016 0.031-0.009 0.050 0 0.078-0.009 0.019-0.006 0.034-0.012 0.053-0.016h0.034c0.028 0.003 0.056 0.009 0.084 0.019l0.016 0.003c0.016 0 0.059 0 0.072 0.016l0.034-0.022c0.028-0.012 0.056-0.019 0.087-0.025 0.025-0.003 0.050-0.009 0.075-0.016l0.041-0.016 0.034 0.012c0 0-0.022 0.022-0.006 0.031s0.016 0.009 0.047-0.009c0.028-0.019-0.016-0.031 0.006-0.037h0.006c0.025 0 0.050 0.006 0.072 0.016 0.009 0.006 0.012 0 0.025 0s0.016 0.009 0.028 0.006c0.009-0.003 0.016-0.003 0.025-0.003h0.006c0.016-0.003 0.031-0.006 0.047-0.012l0.031-0.012c0.003 0.003 0.009 0.006 0.013 0.009 0 0-0.025 0.019-0.022 0.028 0.003 0.006 0 0.006 0.031-0.009s0.013-0.028 0.031-0.031c0.019-0.003 0.028 0.016 0.028 0.031s0.006 0.016 0.012 0.025c0.006 0.012 0 0.025 0.006 0.037 0.006 0.006 0.009 0.016 0.012 0.022v0.019c-0.003 0.022-0.009 0.044-0.019 0.063 0 0.006 0.006 0.047-0.019 0.066-0.025 0.009-0.025 0.059 0.006 0.091l-0.037 0.006 0.016 0.078v0.094l-0.038 0.013-0.009 0.063 0.016 0.025c-0.012 0.031-0.025 0.063-0.044 0.091 0.012 0.028 0.025 0.009 0.059 0.037 0.034 0.025 0.075 0.041 0.119 0.050-0.006 0.041-0.003 0.078 0.006 0.119 0.016 0.084 0 0 0.047 0.091s0.087 0.059 0.084 0.144c-0.006 0.044 0.006 0.087 0.031 0.125 0.022 0.012 0.041 0.028 0.059 0.047 0.016 0.019 0.034 0.031 0.053 0.044 0 0 0.016 0.034 0.087 0.019 0.072-0.012-0.009 0.047 0.028 0.034 0.047 0.006 0.094 0.006 0.141 0 0 0.016-0.003 0.031-0.003 0.031l0.022-0.016 0.012 0.009c0 0-0.012 0.022-0.006 0.031s0.006 0.006 0.022-0.012c0.016-0.019 0-0.028 0.009-0.037 0.009-0.006 0.025 0 0.034 0.009s0.012 0 0.025 0c0.012 0 0.019 0.009 0.031 0.009h0.025l0.012 0.006c0.012 0.012 0.022 0.025 0.031 0.041 0.006 0.006 0.034 0.013 0.025 0.037-0.006 0.025 0.006 0.037 0.028 0.022l-0.012 0.037 0.025 0.009 0.022 0.019v0.006l-0.012 0.037 0.012 0.025 0.012-0.006c0.003 0.022 0.006 0.047 0.006 0.069l-0.009 0.037c0.028-0.028 0.059-0.053 0.094-0.072 0.016-0.006 0.031-0.009 0.047-0.013h0.012c0.009 0 0.019-0.003 0.025-0.006l0.022-0.012 0.012 0.012c-0.006 0.006-0.009 0.016-0.012 0.022v0.006c0 0.006 0.003 0.006 0.006 0.006 0.006-0.003 0.012-0.009 0.019-0.016 0.019-0.019 0.003-0.028 0.016-0.034s0.025 0.006 0.031 0.013c0.006 0.006 0.012 0.006 0.025 0.006s0.016 0.012 0.028 0.012h0.025l0.012 0.009c0.009 0.012 0.016 0.025 0.019 0.037l0.003 0.006c0.003 0.006 0.022 0.016 0.019 0.031l0.025-0.012c0.016-0.003 0.034-0.006 0.050-0.006 0.012 0 0.028 0 0.041-0.003l0.019-0.009 0.009 0.013c0 0-0.019 0.019-0.016 0.028s0.003 0.009 0.025-0.006 0.006-0.028 0.019-0.031h0.003c0.009 0 0.022 0.012 0.025 0.019s0.012 0.006 0.025 0.006c0.012 0.003 0.016 0.016 0.025 0.016s0.016 0 0.025 0.003h0.003c0.012 0.003 0.028 0.003 0.041 0l0.025-0.006 0.009 0.016c0 0-0.022 0.016-0.019 0.025s0 0.009 0.025-0.006c0.025-0.013 0.009-0.028 0.022-0.031s0.022 0.012 0.028 0.022c0.006 0.009 0.012 0.006 0.025 0.009s0.012 0.016 0.025 0.019c0.009 0 0.016 0.003 0.025 0.006l0.009 0.009c0.006 0.016 0.009 0.031 0.016 0.050 0.003 0.006 0.025 0.025 0.009 0.044-0.016 0.022-0.006 0.037 0.016 0.028l-0.025 0.028 0.022 0.016 0.016 0.025v0.006l-0.025 0.031v0.028h0.012c-0.006 0.019-0.012 0.041-0.022 0.059 0.012 0 0.019-0.016 0.044-0.025 0.031-0.019 0.063-0.041 0.091-0.063 0 0.016 0.006 0.028 0.016 0.037 0.019 0.019 0 0 0.044 0.003s0.072-0.037 0.078 0c0 0.019 0.006 0.028 0.034 0.028 0 0 0.041-0.016 0.047-0.019 0.016-0.003 0.031-0.009 0.047-0.016 0.019-0.006 0.034-0.019 0.050-0.031h0.006c0.031-0.006 0.063-0.009 0.097-0.006 0.034 0.022 0.034-0.041 0.059 0 0.069-0.031 0.137-0.066 0.206-0.103l0.081-0.025 0.137-0.072 0.025-0.009c0.019-0.069 0.194-0.106 0.194-0.106s-0.056 0.1 0.075 0.009c0.169-0.119 0.097-0.141 0.103-0.147-0.003 0.003 0.016-0.037 0.047-0.003 0.028 0.034 0.034 0.006 0.038 0.006 0.031 0 0.059 0.009 0.084 0.025l0.084 0.025-0.022 0.031v0.006l0.028 0.037 0.037 0.031-0.025 0.028c0.031-0.003 0.047 0.022 0.031 0.041s0.016 0.047 0.022 0.059c0.006 0.012 0.012 0.044 0.025 0.066l0.016 0.016c0.009 0.006 0.019 0.016 0.031 0.019 0.016 0.009 0.019 0.025 0.034 0.037s0.025 0.016 0.034 0.028c0.009 0.016 0.025 0.044 0.041 0.047 0.019 0.006 0-0.025 0.028-0.025s0.031 0 0.037 0.016c0.003 0.016-0.025 0.019-0.025 0.019l0.012 0.028 0.034 0.013c0.022 0.009 0.041 0.025 0.059 0.041 0.022 0.019 0.047 0.037 0.075 0.053l0.056 0.022 0.047 0.119c0.012 0.031 0.038 0.078 0.038 0.091l0.031-0.019c-0.003 0.012-0.006 0.025-0.016 0.037l-0.006 0.003c0.025-0.006 0.047 0 0.066 0.016v0.003l-0.012-0.003c-0.006 0-0.016 0-0.025 0l0.013 0.006c0.012 0.003 0.016 0.006 0 0.006h-0.016l0.009 0.006c0.012 0.003 0.028 0.006 0.041 0.016l0.006 0.012 0.016 0.028h-0.016c-0.009 0 0.019 0.013 0.019 0.013l0.022-0.003c0 0.016-0.006 0.028-0.012 0.041-0.009-0.006-0.025 0-0.041 0 0 0-0.012-0.025-0.022-0.012-0.012 0.016-0.016 0.034-0.016 0.050l0.009 0.006 0.016 0.019-0.081 0.097h-0.034l-0.034 0.019-0.044 0.041c-0.013 0.006-0.028 0.006-0.044 0.006l-0.037 0.041-0.012 0.028-0.013 0.006-0.019 0.012c-0.016 0.012-0.006 0.025 0 0.031l0.003 0.003 0.041-0.028c-0.028 0.047-0.006 0.097-0.041 0.144h-0.047c0 0-0.009-0.025-0.022-0.012s-0.019 0.034-0.016 0.053l0.009 0.006 0.006 0.006 0.009 0.012c-0.006 0.009-0.009 0.019-0.012 0.031-0.034 0.016-0.069 0.037-0.081 0.044s-0.156 0.050-0.159 0.084c-0.003 0.019 0.003 0.041 0.022 0.053 0 0-0.097 0.034-0.097 0.078v0.044c0.003 0.053 0.012 0.109 0.028 0.159l0.025 0.019c0.028 0.025-0.066 0.084-0.066 0.084l0.025 0.009 0.003 0.022c0 0-0.028 0.003-0.028 0.016s0 0.012 0.028 0.012c0.028 0.003 0.019-0.022 0.034-0.019 0.016 0.006 0.019 0.028 0.022 0.041s0.009 0.016 0.019 0.028c0.009 0.012 0.006 0.025 0.019 0.037 0.009 0.006 0.016 0.012 0.022 0.022l0.006 0.019v0.059c0 0.009 0.016 0.041-0.006 0.056-0.022 0.012-0.022 0.037 0.006 0.041l-0.034 0.016 0.016 0.031 0.003 0.034v0.006l-0.034 0.016-0.006 0.034 0.016 0.006c-0.012 0.022-0.025 0.041-0.041 0.059l-0.034 0.019c0.044 0.003 0.084 0.012 0.125 0.028 0.016 0.009 0.031 0.022 0.047 0.034l0.009 0.009c0.006 0.006 0.016 0.016 0.025 0.019l0.025 0.012v0.019c-0.009 0-0.019 0.003-0.025 0.006l-0.003 0.006v0.009c0.006 0.003 0.016 0.003 0.025 0.003 0.028 0.003 0.022-0.019 0.034-0.016s0.016 0.028 0.016 0.041 0.006 0.016 0.016 0.025c0.009 0.012 0.003 0.025 0.012 0.034 0.006 0.006 0.012 0.012 0.019 0.022l0.003 0.016c0 0.016-0.003 0.031-0.009 0.047v0.009c0 0.009 0.006 0.031-0.003 0.044l0.028 0.012c0.016 0.009 0.031 0.022 0.041 0.037 0.009 0.012 0.022 0.022 0.034 0.031l0.025 0.012v0.019c0 0-0.028 0-0.031 0.009s-0.003 0.009 0.025 0.016 0.025-0.016 0.037-0.009v0.003c0.006 0.006 0.006 0.016 0.006 0.025-0.009 0.025-0.050-0.034-0.041 0-0.037 0.106-0.037 0.225 0 0.331 0.019 0.087 0.059 0.063 0.028 0.153-0.016 0.047-0.022-0.041-0.059 0.131-0.012 0.053-0.022 0.037 0.025 0.097 0.031 0.016 0.063 0.034 0.091 0.059 0.012 0.037 0.059-0.009 0.053 0.041l0.097 0.022c0.012 0.006 0.025 0.012 0.034 0.019 0.012 0.009 0.028 0.019 0.044 0.025 0 0 0.009 0.016 0.081 0.019 0.072 0.006-0.022 0.016 0.022 0.019 0.087 0.022 0.178 0.031 0.269 0.034h0.106c0.047 0.012 0.094 0.028 0.137 0.047 0 0-0.122 0.037 0.059 0.059 0.106 0.012 0.216 0 0.316-0.034h0.128c0.038 0 0.084 0.006 0.122 0.012 0.012 0.006 0.025 0.012 0.037 0.025 0.031 0.047 0.047 0 0.059 0.003 0.025 0.006 0.034 0.028 0.053 0.050 0.012 0.006 0.019 0 0.041 0.037l-0.034 0.012v0.009l0.006 0.059 0.016 0.059-0.038 0.009c0.028 0.022 0.028 0.059 0.003 0.066s-0.012 0.059-0.016 0.072c-0.003 0.013-0.016 0.047-0.016 0.078v0.025c0.003 0.013 0.009 0.028 0.013 0.041 0.006 0.019 0 0.037 0.006 0.059 0.006 0.016 0.009 0.034 0.009 0.050-0.006 0.025-0.006 0.050 0 0.075 0.009 0.016 0.012-0.025 0.038 0s0.025 0.025 0.019 0.041-0.031 0-0.031 0l-0.006 0.034 0.019 0.038c0.012 0.025 0.019 0.053 0.022 0.081 0.006 0.034 0.012 0.072 0.025 0.106l0.028 0.063-0.056 0.159z"></path>
</symbol>
</defs>
</svg>
