<svg width="96" height="43" viewBox="0 0 96 43" fill="none" xmlns="http://www.w3.org/2000/svg">
<path d="M9.92941 20.4208C8.45181 20.2385 6.9742 19.7743 5.66709 19.0669C4.29605 18.3195 3.20347 17.0871 2.64653 15.6724C2.30412 14.7634 2.15352 13.7134 2.41068 12.7836C2.5826 12.1979 2.94631 11.6328 3.43932 11.228C3.91102 10.8439 4.5319 10.6022 5.15277 10.4806C4.81037 9.71245 4.27473 9.04654 3.88971 8.29913C3.56861 7.69263 3.41801 7.006 3.41801 6.31937C3.43932 5.30946 3.82435 4.27883 4.42392 3.45128C4.91692 2.80472 5.60174 2.23966 6.3519 1.85559C7.82951 1.10818 9.54296 0.643977 11.2351 0.684042C12.1558 0.704765 13.0764 0.906471 13.9559 1.20903C15.1763 1.61244 16.3755 2.23966 17.2549 3.14872C17.7692 3.65437 18.1969 4.28021 18.454 4.94611C18.7751 5.69353 18.9257 6.50173 18.9257 7.30994C18.9257 7.91644 18.7538 8.54228 18.4981 9.10733C18.3049 9.55219 18.0051 10.0164 17.5561 10.2996C18.2622 10.9669 18.7766 11.7944 19.1417 12.6634C19.4202 13.3501 19.6347 14.1182 19.548 14.8656C19.4202 15.9156 18.9485 16.9863 18.2196 17.7752C17.3629 18.6842 16.249 19.4316 15.0499 19.8765C13.4643 20.483 11.6443 20.6446 9.93083 20.4222L9.92941 20.4208ZM12.3504 17.7337C13.2924 17.4919 14.2343 17.0471 14.9845 16.4406C15.3909 16.1173 15.7773 15.7332 16.0345 15.2898C16.4408 14.5824 16.6767 13.654 16.3769 12.9066C16.0984 12.1992 15.6267 11.5527 15.0484 11.0484C14.2343 10.3217 13.1844 9.91692 12.2424 9.35187C11.7068 9.00786 11.1712 8.60445 10.8074 8.07946C10.4224 7.49368 10.2292 6.76699 10.1866 6.05964C10.1866 6.03892 10.4224 6.08036 10.4224 6.12043C10.7861 6.78771 11.1072 7.53513 11.6855 8.0394C12.0705 8.3834 12.6275 8.58511 13.1418 8.58511C13.5922 8.58511 14.0411 8.42347 14.4262 8.1817C15.047 7.79763 15.5187 7.17178 15.7119 6.46443C16.205 4.7071 14.6194 2.64584 12.842 1.91914C11.7494 1.47429 10.4437 1.47429 9.28722 1.69672C8.08809 1.93849 6.91027 2.4842 5.98819 3.25234C5.51649 3.65575 5.11015 4.16139 4.85299 4.7071C4.40261 5.71701 4.51058 7.01014 5.00217 8.02005C5.55911 9.17088 6.56502 10.1214 7.78688 10.6256C8.23727 10.808 8.72886 10.9489 9.13662 11.2321C10.3357 12.0404 11.3218 13.3128 11.6642 14.6667C11.6855 14.6874 11.4496 14.7468 11.4283 14.7275C10.7861 13.98 10.3357 13.0917 9.62962 12.3844C9.39378 12.1426 9.11531 11.9202 8.79421 11.7585C7.93749 11.3137 6.8236 11.1727 5.839 11.3744C5.19682 11.5154 4.53189 11.8193 4.08293 12.2835C3.74052 12.6469 3.52599 13.1525 3.48337 13.6568C3.39812 14.6266 4.34009 16.2624 5.23944 16.7473C5.96829 17.1507 6.78098 17.4339 7.57377 17.6771C9.11531 18.1413 10.7861 18.162 12.3504 17.7379V17.7337Z" fill="#FFF4F1"/>
<path d="M22.3725 20.9661C21.7516 20.7837 21.1947 20.4203 20.723 19.9962C19.9302 19.2695 19.3093 18.3798 18.8604 17.4307C18.2608 16.1182 17.9823 14.6828 17.8758 13.2487C17.7479 11.3906 17.9184 9.53238 18.1542 7.69354C18.3475 6.23878 18.7751 4.76466 19.5892 3.5116C20.0396 2.84431 20.5951 2.21847 21.2601 1.75427C22.6524 0.80515 24.6443 0.461145 26.3365 0.824492C26.936 0.946068 27.5143 1.1685 28.0286 1.49178C28.864 2.01677 29.3357 2.94655 30.1484 3.5116C30.2976 3.61245 30.4695 3.69396 30.6414 3.7133C30.7693 3.7133 30.8986 3.69258 31.0051 3.63318C31.1543 3.53232 31.8405 2.88576 31.9897 2.7849C32.7186 2.19913 33.4886 1.63408 34.324 1.22929C35.3527 0.72364 36.5518 0.481869 37.687 0.64351C38.8648 0.805151 39.9361 1.35086 40.7076 2.19913C41.4137 2.96727 41.8215 3.93712 41.8854 4.98709C42.1212 9.18837 41.6495 13.4919 40.5783 17.573C40.3851 18.3204 39.9787 19.0277 39.4005 19.532C38.8009 20.0777 37.9655 20.4411 37.1514 20.5419C36.3586 20.6428 35.5232 20.5212 34.7744 20.2587C34.1536 20.0363 33.5753 19.6522 33.0397 19.2488C32.9118 19.1479 32.7825 19.0264 32.5893 19.007C32.1176 18.9462 31.0691 19.9161 30.6613 20.1786C30.4255 20.3195 30.147 20.4411 29.8685 20.4411C28.5614 20.4203 27.277 19.6937 26.3137 18.8454C26.1646 19.2488 25.8847 19.5928 25.5849 19.8954C25.0492 20.401 24.4071 20.8652 23.6782 21.0268C23.2491 21.1277 22.8002 21.0876 22.3711 20.9661H22.3725ZM35.6511 17.9764C36.0801 17.9557 36.5291 17.794 36.8502 17.5122C37.4711 17.0273 37.8135 16.2591 38.0493 15.5324C38.4343 14.3208 38.5636 13.047 38.7341 11.7954C38.9913 9.95651 39.1192 8.07899 39.1405 6.21943C39.1405 5.3311 39.1618 4.44138 38.9913 3.59311C38.8847 3.06812 38.6063 2.52241 38.1772 2.17841C37.8135 1.89519 37.2991 1.75427 36.8274 1.77499C35.8429 1.77499 34.8781 2.15907 34.064 2.68405C32.8436 3.49226 31.8576 4.62374 31.0222 5.7953C29.9296 7.31085 29.0729 8.96733 28.4094 10.6846C28.3241 10.9264 28.1309 10.5022 28.1948 10.2605C28.3014 9.71474 28.4307 9.16903 28.5799 8.6247C28.7518 8.11906 28.6651 7.55401 28.5586 7.04836C28.4094 6.22081 28.1522 5.39189 27.8084 4.62375C27.5086 3.95646 27.0795 3.37068 26.5013 2.88576C25.987 2.48235 25.3874 2.13834 24.7239 1.9767C23.8672 1.79434 23.0531 1.93664 22.3469 2.40084C21.79 2.76418 21.3623 3.28917 20.9972 3.81554C20.3337 4.76466 19.8833 5.83536 19.5622 6.94613C18.984 9.04746 18.9627 11.2897 19.2411 13.4504C19.3477 14.1771 19.5409 14.9246 19.8407 15.6126C20.0765 16.1182 20.355 16.6432 20.7614 17.0466C21.0825 17.3699 21.5328 17.6324 21.9818 17.6932C23.0318 17.8148 23.9311 16.5617 24.2948 15.6333C24.3588 15.4716 24.4014 15.2893 24.4227 15.1276C24.5079 14.2794 24.4653 13.4311 24.3588 12.6022C24.2948 12.2181 23.9297 10.8448 24.0803 10.4815C24.0803 10.4207 24.2522 10.3806 24.2735 10.4014C24.7665 12.2596 25.2581 14.1785 26.4146 15.7549C26.821 16.3199 27.4205 16.7855 28.0854 17.0673C28.4492 17.2083 28.8569 17.3091 29.2633 17.269C29.627 17.229 29.9481 17.0065 30.2052 16.7841C30.6556 16.4208 31.0193 15.9552 31.3191 15.491C31.7255 14.8845 32.048 14.2186 32.2185 13.532C32.3463 13.007 32.3037 12.4613 32.4543 11.9363C32.4756 11.9155 32.6475 12.0578 32.6475 12.0772C32.6902 12.9655 32.7328 13.8552 32.8408 14.7242C32.926 15.3307 33.034 15.9359 33.2471 16.5216C33.3977 16.8656 33.5895 17.2483 33.9106 17.4707C34.4036 17.8148 35.0458 17.9957 35.6454 17.9764H35.6511Z" fill="#FFF4F1"/>
<path d="M40.6222 17.2888C40.3863 16.0771 40.6861 14.8241 40.858 13.5917C41.351 9.9555 43.1923 6.34 45.7625 3.57138C46.3834 2.92481 46.983 2.23818 47.7331 1.77398C48.3114 1.41064 48.9962 1.22827 49.6611 1.14815C50.7537 1.04729 51.9528 1.22827 52.9374 1.69386C53.7515 2.07793 54.4363 2.6637 55.0359 3.31027C55.9779 4.29945 56.728 5.47238 57.3702 6.684C58.2269 8.30041 58.8905 10.0177 59.3621 11.775C59.7259 13.169 59.9617 14.603 59.8978 16.0371C59.8765 16.6836 59.8338 17.3495 59.6193 17.956C59.4914 18.3401 59.2556 18.7242 58.9558 19.006C58.4202 19.4702 57.6487 19.7134 56.9426 19.8336C55.7861 20.0159 54.5869 19.9745 53.473 19.712C52.8095 19.5711 52.1659 19.187 51.6743 18.7421C50.6898 17.8538 50.0035 16.7223 49.2107 15.671C48.8896 16.8826 48.3966 18.1564 47.4973 19.0848C45.2482 21.3671 41.243 20.3378 40.6222 17.2874V17.2888ZM43.8345 18.3595C44.3275 18.3194 44.8191 18.0569 45.2056 17.753C45.8051 17.3081 46.2981 16.743 46.6619 16.1172C47.1549 15.3297 47.4547 14.4207 47.7331 13.5517C47.7758 13.4301 47.9477 12.9051 47.9477 12.7642C47.9477 12.7034 47.8411 12.6426 47.7758 12.6025C47.5825 12.5418 47.3907 12.5224 47.1762 12.5017C47.6266 12.4409 50.1967 12.0776 50.6244 11.996C50.6883 11.996 50.7736 12.0969 50.8176 12.1176C50.4752 12.3193 50.1115 12.481 49.7464 12.6025C49.9609 13.7133 50.1314 14.8655 50.5605 15.9155C50.8389 16.6228 51.2893 17.3302 51.9528 17.7737C52.4245 18.097 53.0028 18.3594 53.581 18.3194C54.1593 18.2586 54.7375 17.9353 55.1439 17.5319C55.5729 17.087 55.894 16.5013 56.0219 15.8962C56.1711 15.2496 56.1711 14.5422 56.1498 13.8763C56.0858 12.8264 55.9139 11.775 55.6141 10.7651C55.3144 9.73446 53.5157 5.37153 52.9161 4.48182C52.4018 3.71368 51.6743 3.02705 50.8176 2.60291C50.3246 2.36114 49.7251 2.1995 49.1894 2.3197C48.3753 2.50206 47.6905 3.04639 47.1123 3.61282C45.0351 5.71415 43.4495 8.35982 42.5928 11.1271C42.1864 12.4202 41.908 13.7534 41.8213 15.1073C41.8 15.6931 41.7787 16.3189 41.9065 16.9047C41.9705 17.1879 42.0785 17.4905 42.2916 17.7322C42.4848 17.9146 42.6979 18.0956 42.9551 18.2172C43.2122 18.3387 43.5333 18.3995 43.8331 18.3581L43.8345 18.3595ZM48.6751 9.71373C47.0043 9.71373 46.3195 7.83483 47.1336 6.42151C47.6692 5.51245 48.8044 4.82582 49.789 5.29002C50.2181 5.49173 50.5818 5.85507 50.7963 6.25986C51.717 7.79476 50.5392 9.71373 48.6765 9.71373H48.6751ZM48.847 8.66376C49.4679 8.66376 50.0888 8.13877 50.1541 7.55299C50.1967 7.33057 50.1115 7.04735 49.9183 6.8857C49.7464 6.76413 49.5119 6.72407 49.2974 6.74479C48.5685 6.76551 47.9903 7.51293 48.2048 8.17883C48.2901 8.48139 48.5472 8.66376 48.847 8.66376Z" fill="#FFF4F1"/>
<path d="M72.1507 20.1778C70.737 19.8338 69.4299 18.9662 68.4453 17.9563C68.3387 17.8347 68.1881 17.8555 68.0816 17.9563C67.867 18.158 67.7605 18.4205 67.6312 18.6637C67.4166 19.0878 66.3681 19.896 65.8751 20.0369C65.1903 20.2386 64.4188 20.2994 63.734 20.1378C63.1984 20.0369 62.7281 19.7136 62.3203 19.3696C61.7208 18.864 61.1851 18.2782 60.7788 17.6316C60.6069 17.3484 60.0499 15.9351 59.9647 15.6118C59.2586 13.1071 58.7869 10.42 59.1932 7.85444C59.493 5.91475 60.2858 3.93499 61.5915 2.42082C61.9339 2.03675 62.3203 1.65268 62.7906 1.41091C63.4754 1.0669 64.2682 0.905258 65.061 0.825129C66.2388 0.703552 67.4806 0.745 68.6598 0.925983C69.5592 1.0669 70.4585 1.26999 71.2513 1.69412C71.4658 1.8157 72.4504 2.2799 72.6437 2.44154C73.8854 3.51224 74.9354 4.98635 75.2351 6.56269C75.5136 8.05752 74.9993 9.75407 74.0786 10.9864C75.1499 12.0364 76.1345 13.2687 76.6062 14.6434C77.0125 15.8757 77.0125 18.4012 76.0706 19.3102C75.6202 19.7136 75.086 20.0576 74.485 20.1986C73.7348 20.421 72.8994 20.3809 72.1507 20.1778ZM64.8905 17.9964C65.2116 17.814 65.4688 17.5322 65.6407 17.2282C65.9191 16.764 66.0044 16.1976 65.9831 15.6726C65.9831 15.1476 65.9405 14.6019 65.8325 14.0963C65.7259 13.5105 65.5114 12.9247 65.4901 12.3182C66.5187 13.773 67.5672 15.2678 68.8744 16.5195C69.3247 16.9436 69.8163 17.347 70.3733 17.6303C70.673 17.7712 70.9941 17.872 71.3152 17.8928C71.8935 17.9135 72.4504 17.7712 72.9221 17.4686C74.1213 16.7212 74.6143 15.1449 74.0573 13.8725C73.8215 13.3267 73.4364 12.8225 73.0074 12.3983C72.4078 11.7725 71.679 11.2268 70.8435 10.9035C70.5651 10.8027 69.751 10.5194 69.6231 10.2569C70.2227 9.87288 70.8222 9.46947 71.3579 9.00389C71.7216 8.65988 72.0427 8.27719 72.2359 7.85306C72.9861 6.23665 71.9574 3.87282 70.4159 2.88363C69.302 2.15694 67.9096 1.79221 66.5826 1.61123C66.0257 1.55044 65.4261 1.59051 64.8905 1.73281C63.5621 2.11688 62.3416 3.066 61.6142 4.19748C61.0146 5.08582 60.7575 6.17724 60.6296 7.22721C60.4364 8.72205 60.5017 10.2169 60.523 11.7117C60.523 12.3983 60.6083 13.085 60.7163 13.7523C60.8441 14.5204 61.0161 15.2678 61.2945 15.9945C61.4224 16.3979 61.5943 16.8027 61.8515 17.1453C62.4937 18.0751 63.8647 18.56 64.8933 17.9936L64.8905 17.9964ZM63.8406 7.00755C63.7553 6.70499 63.7553 6.38171 63.8406 6.09849C64.0977 5.41186 64.6547 4.80536 65.3395 4.48208C65.6606 4.34116 66.0243 4.25965 66.3894 4.28038C66.8611 4.3011 67.3527 4.46274 67.6965 4.7653C68.0176 5.0278 68.2109 5.45193 68.2535 5.836C68.4041 7.10841 67.3541 8.32002 66.0044 8.52311C65.0411 8.66402 64.0977 7.87654 63.8406 7.00755ZM66.1749 7.55326C66.5812 7.43169 66.9037 7.14985 67.1382 6.82657C67.3101 6.60414 67.4593 6.30158 67.374 6.03909C67.2888 5.75587 66.8597 5.59423 66.5386 5.61495C66.3241 5.63568 66.1109 5.73653 65.939 5.85672C65.7671 5.99764 65.3182 6.50328 65.2542 6.70499C65.0823 7.21064 65.6606 7.73563 66.1749 7.55326Z" fill="#FFF4F1"/>
<path d="M81.6788 20.2388C80.7794 19.7332 80.0932 18.8656 79.6442 17.9565C79.0873 16.8057 78.7662 15.5319 78.7662 14.2595C78.7662 12.3198 79.3871 10.3815 80.0946 8.56339C80.2225 8.28018 79.6442 8.46254 79.3231 8.54267C78.3172 8.74438 77.2033 8.64352 76.2812 8.24011C75.6817 7.99834 75.1247 7.61427 74.7823 7.08928C74.5465 6.766 74.3973 6.38193 74.3533 5.97852C74.2893 5.37202 74.4598 4.72546 74.7383 4.16041C75.1446 3.3522 75.8522 2.64485 76.6663 2.22071C78.1439 1.45257 79.9 1.29093 81.5708 1.12929C83.3056 0.967651 85.0616 0.906863 86.7964 1.12929C88.0595 1.29093 89.3453 1.61422 90.4591 2.19999C91.7009 2.82583 92.9014 3.79568 93.457 5.02802C93.8207 5.83622 93.842 6.94698 93.285 7.65433C92.8361 8.26083 92.1285 8.68497 91.4011 8.9668C90.3725 9.41166 89.26 9.63409 88.1461 9.77501C88.1461 10.0983 88.1674 10.4216 88.2527 10.7449C88.5098 11.6539 88.5738 12.603 88.5738 13.5328C88.5951 14.8259 88.4885 16.1191 88.1461 17.3708C87.9103 18.219 87.5679 19.1087 86.9044 19.7139C85.512 20.9462 83.3496 21.1479 81.6788 20.2388ZM82.814 18.5009C83.1777 18.5009 83.5428 18.3793 83.8639 18.1983C84.4209 17.875 84.8698 17.3694 85.1497 16.825C85.4921 16.1785 85.6214 15.4311 85.7067 14.7237C85.8786 13.3505 85.8999 11.9758 85.8132 10.6026C85.7493 9.63271 85.664 8.66286 85.3415 7.73447C85.1057 7.65295 84.5487 7.35039 84.4848 7.12796C84.4422 7.00639 84.634 7.06718 84.7633 7.10724C85.3415 7.26888 85.9837 7.22882 86.6046 7.16803C87.1402 7.10724 87.6758 6.96632 88.1674 6.78396C88.767 6.58225 89.3453 6.3391 89.8809 6.01582C90.1807 5.85418 90.4591 5.65247 90.6737 5.38998C90.8669 5.12749 90.9948 4.82493 91.0161 4.50165C91.0161 4.19909 90.8882 3.85508 90.695 3.59259C90.3313 3.14773 89.7743 2.84517 89.2387 2.62274C88.5965 2.36025 87.889 2.21933 87.2041 2.15854C84.5913 1.91677 81.8933 1.81454 79.3444 2.38097C78.4664 2.56334 77.5884 2.90596 76.8382 3.37154C76.3665 3.65476 75.8962 4.0181 75.6178 4.4823C75.1887 5.22972 75.4032 6.17885 76.1108 6.70383C76.689 7.12797 77.4818 7.31033 78.2092 7.37112C79.2379 7.49269 80.3077 7.41118 81.315 7.24954C81.3577 7.24954 81.3577 7.27026 81.379 7.27026C81.379 7.39184 81.1858 7.8961 81.1431 8.01768C80.822 9.2293 80.329 10.4216 80.0932 11.6539C79.9 12.6431 79.8573 13.6544 79.944 14.6436C80.0293 15.5526 80.2438 16.4617 80.7368 17.2298C81.0153 17.6747 81.4216 18.0781 81.9146 18.3213C82.1931 18.4428 82.5142 18.523 82.814 18.5036V18.5009Z" fill="#FFF4F1"/>
<path d="M19.1573 12.7018C19.424 13.3682 19.6268 14.1089 19.5517 14.8317C19.6342 15.0974 19.7302 15.359 19.8407 15.6126C20.0766 16.1182 20.355 16.6432 20.7614 17.0466C21.0825 17.3699 21.5329 17.6324 21.9818 17.6932C23.0318 17.8148 23.9311 16.5617 24.2948 15.6333C24.3588 15.4716 24.4014 15.2893 24.4227 15.1276C24.508 14.2794 24.4653 13.4311 24.3588 12.6022C24.3444 12.5155 24.3146 12.3785 24.2789 12.2141C24.1563 11.6498 23.9637 10.7629 24.0803 10.4815C24.0803 10.4207 24.2522 10.3806 24.2735 10.4014C24.2847 10.4435 24.2959 10.4857 24.3071 10.5279C24.7892 12.3464 25.2844 14.2143 26.4146 15.7549C26.821 16.3199 27.4205 16.7855 28.0855 17.0673C28.4492 17.2083 28.8569 17.3091 29.2633 17.269C29.627 17.229 29.9481 17.0065 30.2053 16.7841C30.6556 16.4208 31.0194 15.9552 31.3191 15.491C31.7255 14.8845 32.048 14.2186 32.2185 13.532C32.2785 13.2857 32.3009 13.0348 32.3234 12.7838C32.3489 12.4996 32.3744 12.215 32.4543 11.9363C32.4756 11.9155 32.6476 12.0578 32.6476 12.0772L32.6477 12.0797C32.6903 12.9672 32.7329 13.8561 32.8408 14.7242C32.926 15.3307 33.034 15.9359 33.2471 16.5216C33.3977 16.8656 33.5895 17.2483 33.9106 17.4707C34.4036 17.8148 35.0458 17.9957 35.6454 17.9764H35.6511C36.0801 17.9557 36.5291 17.794 36.8502 17.5122C37.4711 17.0273 37.8135 16.2591 38.0493 15.5324C38.3792 14.4943 38.5214 13.4106 38.6626 12.3342C38.6862 12.1543 38.7097 11.9746 38.7341 11.7954C38.9913 9.95651 39.1192 8.07899 39.1405 6.21943C39.1405 6.13057 39.1407 6.0417 39.1409 5.95285C39.1428 5.15352 39.1447 4.35653 38.9913 3.59311C38.8847 3.06812 38.6063 2.52241 38.1772 2.17841C37.8135 1.89519 37.2992 1.75427 36.8275 1.77499C35.8429 1.77499 34.8782 2.15907 34.0641 2.68405C32.8436 3.49226 31.8576 4.62374 31.0222 5.7953C29.9296 7.31085 29.0729 8.96733 28.4094 10.6846C28.3242 10.9264 28.1309 10.5022 28.1949 10.2605C28.3014 9.71474 28.4307 9.16903 28.5799 8.6247C28.7518 8.11906 28.6651 7.55401 28.5586 7.04836C28.4094 6.22081 28.1522 5.39189 27.8084 4.62375C27.5086 3.95646 27.0796 3.37068 26.5013 2.88576C25.987 2.48235 25.3874 2.13834 24.7239 1.9767C23.8672 1.79434 23.0531 1.93664 22.347 2.40084C21.79 2.76418 21.3624 3.28917 20.9972 3.81554C20.3337 4.76466 19.8833 5.83536 19.5623 6.94613C19.0505 8.80571 18.975 10.7757 19.1573 12.7018Z" fill="#FF91B2"/>
<path d="M12.3504 17.7332C13.2924 17.4915 14.2343 17.0466 14.9845 16.4401C15.3909 16.1168 15.7773 15.7328 16.0345 15.2893C16.4408 14.5819 16.6767 13.6535 16.3769 12.9061C16.0984 12.1988 15.6267 11.5522 15.0484 11.0479C14.2343 10.3212 13.1844 9.91645 12.2424 9.3514C11.7068 9.00739 11.1712 8.60398 10.8074 8.07899C10.4224 7.49322 10.2292 6.76652 10.1866 6.05917C10.1866 6.03845 10.4224 6.07989 10.4224 6.11996C10.7861 6.78725 11.1072 7.53466 11.6855 8.03893C12.0705 8.38293 12.6275 8.58464 13.1418 8.58464C13.5922 8.58464 14.0411 8.423 14.4261 8.18123C15.047 7.79716 15.5187 7.17131 15.7119 6.46396C16.205 4.70664 14.6194 2.64537 12.842 1.91868C11.7494 1.47382 10.4437 1.47382 9.28722 1.69625C8.08809 1.93802 6.91027 2.48373 5.98819 3.25187C5.51649 3.65528 5.11015 4.16092 4.85299 4.70663C4.4026 5.71655 4.51058 7.00968 5.00217 8.01959C5.55911 9.17041 6.56502 10.1209 7.78688 10.6252C8.23727 10.8075 8.72885 10.9485 9.13662 11.2317C10.3357 12.0399 11.3218 13.3123 11.6642 14.6662C11.6855 14.6869 11.4496 14.7463 11.4283 14.727C10.7861 13.9796 10.3357 13.0912 9.62962 12.3839C9.39378 12.1421 9.1153 11.9197 8.79421 11.758C7.93749 11.3132 6.8236 11.1723 5.839 11.374C5.19682 11.5149 4.53189 11.8188 4.08293 12.283C3.74052 12.6464 3.52599 13.152 3.48337 13.6563C3.39812 14.6261 4.34009 16.2619 5.23944 16.7468C5.96829 17.1502 6.78098 17.4334 7.57377 17.6766C9.1153 18.1408 10.7861 18.1615 12.3504 17.7374V17.7332Z" fill="#FF91B2"/>
<path fill-rule="evenodd" clip-rule="evenodd" d="M43.8333 18.3605C44.3263 18.3204 44.8179 18.0579 45.2043 17.754C45.8039 17.3091 46.2969 16.7441 46.6606 16.1182C47.1536 15.3307 47.4534 14.4217 47.7319 13.5527C47.7745 13.4311 47.9464 12.9061 47.9464 12.7652C47.9464 12.7044 47.8399 12.6436 47.7745 12.6036C47.5813 12.5428 47.3895 12.5234 47.1749 12.5027C47.6253 12.4419 50.1955 12.0786 50.6232 11.9971C50.6871 11.9971 50.7723 12.0979 50.8164 12.1186C50.474 12.3203 50.1102 12.482 49.7451 12.6036C49.9596 13.7143 50.1301 14.8665 50.5592 15.9165C50.8377 16.6239 51.2881 17.3312 51.9516 17.7747C52.4233 18.098 53.0015 18.3605 53.5798 18.3204C54.158 18.2596 54.7363 17.9363 55.1426 17.5329C55.5717 17.0881 55.8928 16.5023 56.0207 15.8972C56.1698 15.2506 56.1698 14.5432 56.1485 13.8773C56.0846 12.8274 55.9127 11.776 55.6129 10.7661C55.3131 9.73547 53.5144 5.37254 52.9149 4.48283C52.4005 3.71469 51.6731 3.02806 50.8164 2.60392C50.3234 2.36215 49.7238 2.20051 49.1882 2.32071C48.3741 2.50307 47.6893 3.0474 47.111 3.61383C45.0338 5.71516 43.4483 8.36083 42.5915 11.1281C42.1852 12.4212 41.9067 13.7544 41.82 15.1083C41.7987 15.6941 41.7774 16.3199 41.9053 16.9057C41.9692 17.1889 42.0772 17.4915 42.2903 17.7332C42.4835 17.9156 42.6967 18.0966 42.9538 18.2182C43.211 18.3397 43.5321 18.4005 43.8319 18.3591L43.8333 18.3605ZM47.1323 6.42252C46.3182 7.83584 47.003 9.71474 48.6739 9.71474H48.6753C50.5379 9.71474 51.7157 7.79577 50.7951 6.26088C50.5805 5.85608 50.2168 5.49274 49.7877 5.29103C48.8031 4.82683 47.6679 5.51346 47.1323 6.42252Z" fill="#FF91B2"/>
<path fill-rule="evenodd" clip-rule="evenodd" d="M64.8891 17.9971C65.2102 17.8148 65.4674 17.5329 65.6393 17.229C65.9178 16.7648 66.003 16.1983 65.9817 15.6734C65.9817 15.1484 65.9391 14.6027 65.8311 14.097C65.7246 13.5112 65.51 12.9255 65.4887 12.319L65.548 12.4028C66.5577 13.831 67.591 15.2926 68.873 16.5202C69.3234 16.9444 69.815 17.3478 70.3719 17.631C70.6717 17.7719 70.9928 17.8728 71.3139 17.8935C71.8921 17.9142 72.4491 17.7719 72.9208 17.4694C74.1199 16.7219 74.6129 15.1456 74.056 13.8732C73.8201 13.3275 73.4351 12.8232 73.006 12.3991C72.4064 11.7732 71.6776 11.2275 70.8422 10.9043C70.5637 10.8034 69.7496 10.5202 69.6217 10.2577C70.2213 9.87362 70.8209 9.47021 71.3565 9.00463C71.7202 8.66062 72.0413 8.27793 72.2345 7.8538C72.9847 6.23739 71.9561 3.87356 70.4145 2.88438C69.3006 2.15768 67.9083 1.79296 66.5813 1.61197C66.0243 1.55118 65.4248 1.59125 64.8891 1.73355C63.5607 2.11762 62.3403 3.06674 61.6128 4.19823C61.0133 5.08656 60.7561 6.17798 60.6282 7.22796C60.435 8.72279 60.5004 10.2176 60.5217 11.7125C60.5217 12.3991 60.6069 13.0857 60.7149 13.753C60.8428 14.5211 61.0147 15.2686 61.2932 15.9953C61.421 16.3987 61.5929 16.8035 61.8501 17.1461C62.4923 18.0759 63.8633 18.5608 64.892 17.9944L64.8891 17.9971ZM63.8392 6.09924C63.7539 6.38245 63.7539 6.70573 63.8392 7.00829C64.0964 7.87729 65.0397 8.66477 66.003 8.52385C67.3528 8.32076 68.4027 7.10915 68.2521 5.83674C68.2095 5.45267 68.0163 5.02854 67.6952 4.76605C67.3513 4.46349 66.8597 4.30184 66.388 4.28112C66.0229 4.2604 65.6592 4.34191 65.3381 4.48283C64.6533 4.80611 64.0964 5.41261 63.8392 6.09924Z" fill="#FF91B2"/>
<path d="M82.815 18.5014C83.1787 18.5014 83.5439 18.3798 83.865 18.1988C84.4219 17.8755 84.8709 17.3699 85.1508 16.8256C85.4932 16.179 85.6225 15.4316 85.7077 14.7242C85.8796 13.351 85.9009 11.9763 85.8143 10.6031C85.7503 9.63323 85.6651 8.66339 85.3426 7.73499C85.1067 7.65348 84.5498 7.35091 84.4858 7.12849C84.4437 7.00838 84.6304 7.06626 84.7596 7.1063L84.7643 7.10776C85.3426 7.2694 85.9848 7.22934 86.6056 7.16855C87.1413 7.10776 87.6769 6.96685 88.1685 6.78448C88.7681 6.58278 89.3463 6.33962 89.8819 6.01634C90.1817 5.8547 90.4602 5.653 90.6747 5.3905C90.868 5.12801 90.9958 4.82545 91.0171 4.50217C91.0171 4.19961 90.8893 3.8556 90.696 3.59311C90.3323 3.14825 89.7754 2.84569 89.2397 2.62327C88.5976 2.36077 87.89 2.21985 87.2052 2.15906C84.5924 1.91729 81.8944 1.81506 79.3455 2.38149C78.4675 2.56386 77.5894 2.90648 76.8392 3.37206C76.3676 3.65528 75.8973 4.01863 75.6188 4.48283C75.1897 5.23024 75.4043 6.17937 76.1118 6.70435C76.6901 7.12849 77.4829 7.31085 78.2103 7.37164C79.2389 7.49322 80.3088 7.4117 81.3161 7.25006C81.3587 7.25006 81.3587 7.27079 81.38 7.27079C81.38 7.39236 81.1868 7.89663 81.1442 8.0182C80.8231 9.22982 80.3301 10.4221 80.0942 11.6544C79.901 12.6436 79.8584 13.6549 79.9451 14.6441C80.0303 15.5532 80.2448 16.4622 80.7378 17.2304C81.0163 17.6752 81.4227 18.0786 81.9157 18.3218C82.1941 18.4434 82.5152 18.5235 82.815 18.5041V18.5014Z" fill="#FF91B2"/>
<path fill-rule="evenodd" clip-rule="evenodd" d="M19.5517 14.8317C19.6268 14.1089 19.424 13.3682 19.1573 12.7018C19.1811 12.9522 19.2091 13.2019 19.2412 13.4504C19.3084 13.9093 19.4103 14.3765 19.5517 14.8317Z" fill="#FF91B2"/>
<path d="M11.526 41.419C10.5201 40.5915 9.94041 39.3992 9.23429 38.3285C9.04106 39.3992 8.52816 40.4699 7.75669 41.2781C7.32761 41.7423 6.74936 42.1664 6.12848 42.3488C5.63547 42.4897 5.09984 42.4704 4.60825 42.3488C3.81546 42.1664 3.08803 41.6815 2.50977 41.1565C1.54649 40.2875 0.796323 39.1367 0.453917 37.9237C0.196758 36.9746 0.111512 35.984 0.0475771 35.0142C-0.0589808 33.0552 0.00495324 31.0754 0.326048 29.1357C0.497961 28.0042 0.732388 26.8534 1.31064 25.8435C1.5678 25.4401 1.91021 25.0753 2.27393 24.7327C2.70158 24.3086 3.17328 23.9052 3.70891 23.5612C4.26585 23.2172 4.99328 23.097 5.65821 23.097C7.09319 23.097 8.57079 23.622 9.76992 24.3694C10.199 24.6526 10.7559 24.4702 11.033 24.0461C11.5899 23.2987 12.5319 22.6922 13.4966 22.5305C14.6744 22.3689 15.9602 22.7322 16.9448 23.3581C17.8655 23.9439 18.6156 24.7921 19.0646 25.7412C19.5576 26.7719 19.8574 27.9034 20.0066 29.0141C20.2424 30.8115 20.1345 32.6296 19.9853 34.4284C19.8361 36.2672 19.6855 38.1655 18.8927 39.862C18.5716 40.6094 18.0786 41.3361 17.3725 41.8211C16.9661 42.1236 15.2953 42.4276 14.8023 42.4676C13.6458 42.5478 12.3813 42.1236 11.5246 41.4176L11.526 41.419ZM15.4033 39.5401C15.7244 39.2376 15.9602 38.8328 16.1321 38.4294C16.6251 37.3379 16.861 36.1471 17.0741 34.9948C17.3526 33.3591 17.5245 31.7026 17.5245 30.0461C17.5458 28.5513 17.3753 26.9957 16.8184 25.6017C16.1762 24.0668 14.3988 23.0569 12.8985 23.9245C12.2776 24.2879 11.8272 24.9137 11.5487 25.5409C11.077 26.5716 10.9492 27.7431 10.9705 28.8539C10.9705 30.712 11.2916 32.5702 11.9124 34.3082C11.9977 34.55 11.5913 34.1466 11.4848 33.9241C10.9278 32.7927 10.6494 31.541 10.5002 30.2879C10.3936 29.5198 8.87199 26.631 8.48696 25.925C7.82346 24.7534 6.11001 23.6827 4.76028 24.0267C4.28858 24.1483 3.86093 24.4108 3.49721 24.7134C2.83371 25.2384 2.36201 25.9664 1.9983 26.7139C1.18419 28.4919 0.969658 30.5324 1.0137 32.4708C1.05632 34.0664 1.20693 35.6829 1.69851 37.2178C1.93436 37.9251 2.23414 38.6325 2.74846 39.2182C3.11218 39.6216 3.66912 39.9864 4.24738 40.0057C4.80432 40.0264 5.38258 39.8233 5.81023 39.5001C6.28192 39.1367 6.60302 38.6117 6.81613 38.0854C7.35177 36.7522 7.45832 35.1965 7.13723 33.8026C7.05198 33.3577 6.92269 32.9142 6.7522 32.5094C6.68827 32.3879 6.45242 31.8836 6.45242 31.762C6.45242 31.7012 6.51635 31.6211 6.58029 31.5797C7.47964 32.6296 7.84335 34.0236 8.50827 35.2159C9.08653 36.2465 9.77134 37.2357 10.4789 38.1848C10.8426 38.6698 11.2291 39.134 11.6567 39.5581C11.8073 39.699 11.9778 39.8413 12.1497 39.9422C13.0491 40.4478 14.656 40.2254 15.4047 39.5387L15.4033 39.5401Z" fill="#FFF4F1"/>
<path d="M18.8292 39.0153C18.5933 37.8037 18.8931 36.5506 19.065 35.3183C19.5581 31.6821 21.3994 28.0666 23.9695 25.2979C24.5904 24.6514 25.19 23.9647 25.9402 23.5005C26.5184 23.1372 27.2032 22.9548 27.8681 22.8747C28.9607 22.7739 30.1599 22.9548 31.1444 23.4204C31.9585 23.8045 32.6434 24.3903 33.2429 25.0368C34.1849 26.026 34.9351 27.1989 35.5773 28.4106C36.434 30.027 37.0975 31.7442 37.5692 33.5016C37.9329 34.8955 38.1687 36.3296 38.1048 37.7636C38.0835 38.4102 38.0409 39.0761 37.8263 39.6826C37.6985 40.0667 37.4626 40.4507 37.1628 40.7326C36.6272 41.1968 35.8557 41.4399 35.1496 41.5601C33.9931 41.7425 32.794 41.701 31.6801 41.4385C31.0166 41.2976 30.373 40.9136 29.8814 40.4687C28.8968 39.5804 28.2106 38.4489 27.4178 37.3975C27.0967 38.6091 26.6037 39.8829 25.7043 40.8113C23.4552 43.0936 19.4501 42.0644 18.8292 39.0139V39.0153ZM22.0416 40.086C22.5346 40.0459 23.0262 39.7835 23.4126 39.4795C24.0122 39.0347 24.5052 38.4696 24.8689 37.8438C25.3619 37.0563 25.6617 36.1472 25.9402 35.2782C25.9828 35.1567 26.1547 34.6317 26.1547 34.4908C26.1547 34.43 26.0481 34.3692 25.9828 34.3291C25.7896 34.2683 25.5978 34.249 25.3832 34.2283C25.8336 34.1675 28.4038 33.8041 28.8314 33.7226C28.8954 33.7226 28.9806 33.8235 29.0247 33.8442C28.6823 34.0459 28.3185 34.2075 27.9534 34.3291C28.1679 35.4399 28.3384 36.5921 28.7675 37.6421C29.046 38.3494 29.4964 39.0568 30.1599 39.5002C30.6315 39.8235 31.2098 40.086 31.7881 40.0459C32.3663 39.9852 32.9446 39.6619 33.3509 39.2585C33.7786 38.8136 34.1011 38.2278 34.2289 37.6227C34.3795 36.9762 34.3795 36.2688 34.3568 35.6029C34.2929 34.5529 34.121 33.5016 33.8212 32.4917C33.5214 31.461 31.7227 27.0981 31.1231 26.2084C30.6088 25.4402 29.8814 24.7536 29.0247 24.3295C28.5316 24.0877 27.9321 23.9261 27.3965 24.0463C26.5823 24.2286 25.8975 24.773 25.3193 25.3394C23.2421 27.4407 21.6565 30.0864 20.7998 32.8536C20.3935 34.1467 20.115 35.4799 20.0283 36.8339C20.007 37.4196 19.9857 38.0455 20.1136 38.6312C20.1775 38.9145 20.2855 39.217 20.4986 39.4588C20.6918 39.6412 20.9049 39.8221 21.1621 39.9437C21.4193 40.0653 21.7404 40.1261 22.0401 40.0846L22.0416 40.086ZM26.8821 31.4403C25.2113 31.4403 24.5265 29.5614 25.3406 28.1481C25.8762 27.239 27.0114 26.5524 27.996 27.0166C28.4237 27.2183 28.7888 27.5816 29.0019 27.9864C29.9226 29.5213 28.7448 31.4403 26.8821 31.4403ZM27.054 30.3903C27.6749 30.3903 28.2958 29.8653 28.3612 29.2796C28.4038 29.0571 28.3185 28.7739 28.1253 28.6123C27.9534 28.4907 27.719 28.4506 27.5044 28.4714C26.7756 28.4921 26.1973 29.2395 26.4119 29.9054C26.4971 30.208 26.7543 30.3903 27.054 30.3903Z" fill="#FFF4F1"/>
<path d="M48.8385 41.419C47.8312 40.5915 47.2529 39.3992 46.5468 38.3285C46.3536 39.3992 45.8407 40.4699 45.0692 41.2781C44.6415 41.7423 44.0633 42.1664 43.441 42.3488C42.948 42.4897 42.4123 42.4704 41.9208 42.3488C41.128 42.1664 40.4005 41.6815 39.8223 41.1565C38.859 40.2875 38.1088 39.1367 37.7664 37.9237C37.5093 36.9746 37.424 35.984 37.3601 35.0142C37.2535 33.0552 37.3175 31.0754 37.6385 29.1357C37.8105 28.0042 38.0449 26.8534 38.6231 25.8435C38.8803 25.4401 39.2227 25.0753 39.5864 24.7327C40.0155 24.3086 40.4858 23.9052 41.0214 23.5612C41.5783 23.2172 42.3072 23.097 42.9707 23.097C44.4057 23.097 45.8833 23.622 47.0824 24.3694C47.5101 24.6526 48.067 24.4702 48.3455 24.0461C48.9024 23.2987 49.8444 22.6922 50.8091 22.5305C51.9869 22.3689 53.2727 22.7322 54.2573 23.3581C55.178 23.9439 55.9281 24.7921 56.3771 25.7412C56.8701 26.7719 57.1699 27.9034 57.3191 29.0141C57.5549 30.8115 57.4469 32.6296 57.2978 34.4284C57.1486 36.2672 56.998 38.1655 56.2052 39.862C55.8841 40.6094 55.3911 41.3361 54.685 41.8211C54.2786 42.1236 52.6078 42.4276 52.1148 42.4676C50.9583 42.5478 49.6952 42.1236 48.8385 41.4176V41.419ZM52.7144 39.5401C53.0355 39.2376 53.2713 38.8328 53.4432 38.4294C53.9362 37.3379 54.1721 36.1471 54.3852 34.9948C54.6637 33.3591 54.8356 31.7026 54.8356 30.0461C54.8569 28.5513 54.685 26.9957 54.1294 25.6017C53.4873 24.0668 51.7099 23.0569 50.2095 23.9245C49.5887 24.2879 49.1383 24.9137 48.8598 25.5409C48.3881 26.5716 48.2602 27.7431 48.2815 28.8539C48.2815 30.712 48.6026 32.5702 49.2235 34.3082C49.3088 34.55 48.9024 34.1466 48.7944 33.9241C48.2375 32.7927 47.959 31.541 47.8099 30.2879C47.7033 29.5198 46.1817 26.631 45.7966 25.925C45.1331 24.7534 43.4197 23.6827 42.0699 24.0267C41.5982 24.1483 41.1706 24.4108 40.8069 24.7134C40.1434 25.2384 39.6717 25.9664 39.308 26.7139C38.4939 28.4919 38.2793 30.5324 38.3234 32.4708C38.366 34.0664 38.5166 35.6829 39.0082 37.2178C39.244 37.9251 39.5438 38.6325 40.0581 39.2182C40.4218 39.6216 40.9788 39.9864 41.557 40.0057C42.114 40.0264 42.6922 39.8233 43.1199 39.5001C43.5916 39.1367 43.9127 38.6117 44.1272 38.0854C44.6628 36.7522 44.7694 35.1965 44.4483 33.8026C44.3631 33.3577 44.2338 32.9142 44.0633 32.5094C43.9993 32.3879 43.7635 31.8836 43.7635 31.762C43.7635 31.7012 43.8274 31.6211 43.8914 31.5797C44.7907 32.6296 45.1544 34.0236 45.8194 35.2159C46.3976 36.2465 47.0824 37.2357 47.79 38.1848C48.1537 38.6698 48.5401 39.134 48.9678 39.5581C49.117 39.699 49.2889 39.8413 49.4608 39.9422C50.3601 40.4478 51.967 40.2254 52.7158 39.5387L52.7144 39.5401Z" fill="#FFF4F1"/>
<path d="M68.3697 41.419C67.3638 40.5915 66.7842 39.3992 66.078 38.3285C65.8848 39.3992 65.3719 40.4699 64.6004 41.2781C64.1714 41.7423 63.5931 42.1664 62.9722 42.3488C62.4792 42.4897 61.9436 42.4704 61.452 42.3488C60.6592 42.1664 59.9318 41.6815 59.3535 41.1565C58.3902 40.2875 57.6401 39.1367 57.2977 37.9237C57.0405 36.9746 56.9553 35.984 56.8913 35.0142C56.7848 33.0552 56.8487 31.0754 57.1698 29.1357C57.3417 28.0042 57.5761 26.8534 58.1544 25.8435C58.4116 25.4401 58.754 25.0753 59.1177 24.7327C59.5453 24.3086 60.017 23.9052 60.5527 23.5612C61.1096 23.2172 61.837 23.097 62.502 23.097C63.9369 23.097 65.4145 23.622 66.6137 24.3694C67.0427 24.6526 67.5997 24.4702 67.8767 24.0461C68.4337 23.2987 69.3756 22.6922 70.3404 22.5305C71.5182 22.3689 72.804 22.7322 73.7886 23.3581C74.7092 23.9439 75.4594 24.7921 75.9084 25.7412C76.4014 26.7719 76.7012 27.9034 76.8503 29.0141C77.0862 30.8115 76.9782 32.6296 76.829 34.4284C76.6798 36.2672 76.5292 38.1655 75.7364 39.862C75.4153 40.6094 74.9223 41.3361 74.2162 41.8211C73.8099 42.1236 72.1391 42.4276 71.646 42.4676C70.4895 42.5478 69.225 42.1236 68.3683 41.4176L68.3697 41.419ZM72.247 39.5401C72.5681 39.2376 72.804 38.8328 72.9759 38.4294C73.4689 37.3379 73.7047 36.1471 73.9179 34.9948C74.1963 33.3591 74.3682 31.7026 74.3682 30.0461C74.3896 28.5513 74.2191 26.9957 73.6621 25.6017C73.0199 24.0668 71.2425 23.0569 69.7422 23.9245C69.1213 24.2879 68.671 24.9137 68.3925 25.5409C67.9208 26.5716 67.7929 27.7431 67.8142 28.8539C67.8142 30.712 68.1353 32.5702 68.7562 34.3082C68.8414 34.55 68.4351 34.1466 68.3285 33.9241C67.7716 32.7927 67.4931 31.541 67.344 30.2879C67.2374 29.5198 65.7157 26.631 65.3307 25.925C64.6672 24.7534 62.9538 23.6827 61.604 24.0267C61.1323 24.1483 60.7047 24.4108 60.341 24.7134C59.6775 25.2384 59.2058 25.9664 58.842 26.7139C58.0279 28.4919 57.8134 30.5324 57.8575 32.4708C57.9001 34.0664 58.0507 35.6829 58.5423 37.2178C58.7781 37.9251 59.0779 38.6325 59.5922 39.2182C59.9559 39.6216 60.5129 39.9864 61.0911 40.0057C61.6481 40.0264 62.2263 39.8233 62.654 39.5001C63.1257 39.1367 63.4468 38.6117 63.6599 38.0854C64.1955 36.7522 64.3021 35.1965 63.981 33.8026C63.8957 33.3577 63.7664 32.9142 63.5959 32.5094C63.532 32.3879 63.2962 31.8836 63.2962 31.762C63.2962 31.7012 63.3601 31.6211 63.424 31.5797C64.3234 32.6296 64.6871 34.0236 65.352 35.2159C65.9303 36.2465 66.6151 37.2357 67.3226 38.1848C67.6864 38.6698 68.0728 39.134 68.5005 39.5581C68.6511 39.699 68.8216 39.8413 68.9935 39.9422C69.8928 40.4478 71.4997 40.2254 72.2484 39.5387L72.247 39.5401Z" fill="#FFF4F1"/>
<path d="M85.6969 42.5489C85.2465 42.4688 84.7975 42.2463 84.4111 41.9839C83.7476 41.539 83.1907 40.9739 82.719 40.3481C82.3339 39.8425 81.9901 39.2567 81.8409 38.6516C81.3905 36.9744 81.5198 35.217 81.6264 33.4804C80.1488 32.0464 78.4566 30.7933 77.2362 29.1576C76.8085 28.5925 76.3582 27.986 76.1649 27.2994C75.9291 26.5727 75.9717 25.7838 76.2502 25.0779C76.55 24.3097 77.1495 23.6038 77.8571 23.1382C78.799 22.4916 80.0422 22.1683 81.1987 22.2084C81.8409 22.2291 82.5058 22.3908 83.1054 22.6533C84.2193 23.0981 85.2252 23.8248 86.0606 24.6731C86.1459 24.7739 86.2751 24.8748 86.403 24.9148C86.5749 24.9549 86.7667 24.9148 86.9386 24.8347C87.1958 24.7131 87.4103 24.5515 87.6235 24.3705C88.3736 23.7032 89.209 23.0981 90.1297 22.6933C90.7932 22.4101 91.5647 22.2291 92.2935 22.3092C93.0863 22.4101 93.8564 22.7942 94.4346 23.3192C95.3766 24.2075 95.9975 25.5213 95.9975 26.773C96.0188 27.3187 95.8696 27.8838 95.5911 28.3687C94.6065 30.1053 93.1275 31.5601 91.7139 33.0149C91.4993 33.2166 90.7293 33.9239 90.6639 34.2071C90.6 34.5304 90.6213 36.267 90.6 36.611C90.5787 37.5809 90.4934 38.5701 90.1936 39.5206C89.9791 40.1878 89.6154 40.8537 89.1437 41.3995C88.8652 41.7227 88.4802 41.9645 88.0937 42.1469C87.3649 42.4702 86.4868 42.6926 85.6955 42.5503L85.6969 42.5489ZM84.8615 40.0635C85.5676 40.0234 86.2538 39.5178 86.6602 38.9527C87.1106 38.3062 87.345 37.5187 87.4743 36.7506C87.6462 35.6799 87.6021 34.5691 87.5169 33.4777C87.453 32.2053 90.151 30.2255 91.137 29.3358C91.6727 28.8716 92.1444 28.3466 92.5507 27.7595C92.9144 27.2538 93.2142 26.7095 93.3435 26.1237C93.622 24.8706 92.8718 23.5582 91.5235 23.4366C90.9026 23.3758 90.2604 23.619 89.7035 23.9008C88.2898 24.6883 87.1759 25.9413 86.2553 27.2345C85.6983 27.9819 85.184 28.7901 84.799 29.6384C84.799 29.6591 84.6057 29.7185 84.5844 29.6991C84.5631 29.6591 84.4566 29.5776 84.4779 29.5375C84.6285 29.0125 84.9709 28.5276 85.1414 27.9819C85.2479 27.6586 85.2479 27.2552 85.0774 26.9512C84.5844 25.9607 83.7277 25.1124 82.7857 24.4866C81.9716 23.9616 81.0083 23.5374 80.0436 23.5568C78.3089 23.5968 76.9805 25.0723 77.3456 26.668C77.4948 27.3146 77.9025 27.9004 78.3302 28.4254C78.9084 29.1728 79.616 29.8193 80.3434 30.4452C80.943 30.9301 81.5639 31.415 82.2501 31.7784C82.378 31.8585 82.486 31.9607 82.5286 32.1017C82.6792 32.4249 82.6564 32.809 82.6351 33.1516C82.486 34.4848 82.378 35.8581 82.5712 37.1719C82.7431 38.5051 83.4279 40.1616 84.8629 40.0607L84.8615 40.0635Z" fill="#FFF4F1"/>
<path d="M72.2469 39.5399C72.568 39.2373 72.8039 38.8325 72.9758 38.4291C73.4688 37.3377 73.7046 36.1468 73.9178 34.9946C74.1962 33.3589 74.3682 31.7024 74.3682 30.0459C74.3895 28.5511 74.219 26.9955 73.662 25.6015C73.0198 24.0666 71.2425 23.0567 69.7421 23.9243C69.1212 24.2876 68.6709 24.9135 68.3924 25.5407C67.9207 26.5713 67.7928 27.7429 67.8141 28.8536C67.8141 30.7118 68.1352 32.57 68.7561 34.308C68.8414 34.5497 68.435 34.1463 68.3285 33.9239C67.7715 32.7924 67.493 31.5407 67.3439 30.2877C67.2373 29.5195 65.7156 26.6307 65.3306 25.9248C64.6671 24.7532 62.9537 23.6825 61.6039 24.0265C61.1322 24.1481 60.7046 24.4106 60.3409 24.7131C59.6774 25.2381 59.2057 25.9662 58.842 26.7136C58.0279 28.4917 57.8133 30.5322 57.8574 32.4705C57.9 34.0662 58.0506 35.6826 58.5422 37.2175C58.778 37.9249 59.0778 38.6322 59.5921 39.218C59.9558 39.6214 60.5128 39.9861 61.091 40.0055C61.648 40.0262 62.2262 39.8231 62.6539 39.4998C63.1256 39.1365 63.4467 38.6115 63.6598 38.0851C64.1954 36.7519 64.302 35.1963 63.9809 33.8023C63.8956 33.3575 63.7663 32.914 63.5959 32.5092C63.5319 32.3876 63.2961 31.8834 63.2961 31.7618C63.2961 31.701 63.36 31.6209 63.4239 31.5794C64.3233 32.6294 64.687 34.0234 65.3519 35.2157C65.9302 36.2463 66.615 37.2355 67.3225 38.1846C67.6863 38.6695 68.0727 39.1337 68.5004 39.5579C68.651 39.6988 68.8215 39.8411 68.9934 39.9419C69.8927 40.4476 71.4996 40.2251 72.2484 39.5385L72.2469 39.5399Z" fill="#FF91B2"/>
<path d="M84.862 40.0635C85.5681 40.0234 86.2543 39.5178 86.6607 38.9527C87.1111 38.3062 87.3455 37.5187 87.4748 36.7506C87.6467 35.6799 87.6027 34.5691 87.5174 33.4777C87.4535 32.2053 90.1515 30.2255 91.1375 29.3358C91.6732 28.8716 92.1449 28.3466 92.5512 27.7595C92.9149 27.2538 93.2147 26.7095 93.344 26.1237C93.6225 24.8706 92.8723 23.5582 91.524 23.4366C90.9031 23.3758 90.2609 23.619 89.704 23.9008C88.2903 24.6883 87.1764 25.9413 86.2558 27.2345C85.6988 27.9819 85.1845 28.7901 84.7995 29.6384C84.7995 29.6591 84.6062 29.7185 84.5849 29.6991C84.5636 29.6591 84.4571 29.5776 84.4784 29.5375C84.629 29.0125 84.9714 28.5276 85.1419 27.9819C85.2484 27.6586 85.2484 27.2552 85.0779 26.9512C84.5849 25.9607 83.7282 25.1124 82.7862 24.4866C81.9721 23.9616 81.0088 23.5374 80.0441 23.5568C78.3094 23.5968 76.981 25.0723 77.3461 26.668C77.4953 27.3146 77.903 27.9004 78.3307 28.4254C78.9089 29.1728 79.6165 29.8193 80.3439 30.4452C80.9435 30.9301 81.5644 31.415 82.2506 31.7784C82.3785 31.8585 82.4865 31.9607 82.5291 32.1017C82.6797 32.4249 82.6569 32.809 82.6356 33.1516C82.4865 34.4848 82.3785 35.8581 82.5717 37.1719C82.7436 38.5051 83.4284 40.1616 84.8634 40.0607L84.862 40.0635Z" fill="#FF91B2"/>
<path d="M52.7127 39.5399C53.0338 39.2373 53.2697 38.8325 53.4416 38.4291C53.9346 37.3377 54.1705 36.1468 54.3836 34.9946C54.662 33.3589 54.834 31.7024 54.834 30.0459C54.8553 28.5511 54.6834 26.9955 54.1278 25.6015C53.4856 24.0666 51.7083 23.0567 50.2079 23.9243C49.5871 24.2876 49.1367 24.9135 48.8582 25.5407C48.3865 26.5713 48.2586 27.7429 48.2799 28.8536C48.2799 30.7118 48.601 32.57 49.2219 34.308C49.3072 34.5497 48.9008 34.1463 48.7928 33.9239C48.2359 32.7924 47.9574 31.5407 47.8082 30.2877C47.7017 29.5195 46.18 26.6307 45.795 25.9248C45.1315 24.7532 43.4181 23.6825 42.0683 24.0265C41.5966 24.1481 41.169 24.4106 40.8053 24.7131C40.1418 25.2381 39.6701 25.9662 39.3063 26.7136C38.4922 28.4917 38.2777 30.5322 38.3218 32.4705C38.3644 34.0662 38.515 35.6826 39.0066 37.2175C39.2424 37.9249 39.5422 38.6322 40.0565 39.218C40.4202 39.6214 40.9772 39.9861 41.5554 40.0055C42.1124 40.0262 42.6906 39.8231 43.1183 39.4998C43.59 39.1365 43.9111 38.6115 44.1256 38.0851C44.6612 36.7519 44.7678 35.1963 44.4467 33.8023C44.3615 33.3575 44.2322 32.914 44.0617 32.5092C43.9977 32.3876 43.7619 31.8834 43.7619 31.7618C43.7619 31.701 43.8258 31.6209 43.8898 31.5794C44.7891 32.6294 45.1528 34.0234 45.8177 35.2157C46.396 36.2463 47.0808 37.2355 47.7884 38.1846C48.1521 38.6695 48.5385 39.1337 48.9662 39.5579C49.1154 39.6988 49.2873 39.8411 49.4592 39.9419C50.3585 40.4476 51.9654 40.2251 52.7142 39.5385L52.7127 39.5399Z" fill="#FF91B2"/>
<path fill-rule="evenodd" clip-rule="evenodd" d="M22.0426 40.0856C22.5356 40.0455 23.0272 39.7831 23.4136 39.4791C24.0132 39.0343 24.5062 38.4692 24.8699 37.8434C25.3629 37.0559 25.6627 36.1468 25.9412 35.2778C25.9838 35.1562 26.1557 34.6313 26.1557 34.4903C26.1557 34.4296 26.0491 34.3688 25.9838 34.3287C25.7906 34.2679 25.5988 34.2486 25.3842 34.2278C25.8346 34.1671 28.4048 33.8037 28.8324 33.7222C28.8964 33.7222 28.9816 33.8231 29.0257 33.8438C28.6832 34.0455 28.3195 34.2071 27.9544 34.3287C28.1689 35.4395 28.3394 36.5917 28.7685 37.6416C29.047 38.349 29.4973 39.0564 30.1608 39.4998C30.6325 39.8231 31.2108 40.0856 31.7891 40.0455C32.3673 39.9848 32.9456 39.6615 33.3519 39.2581C33.7796 38.8132 34.1021 38.2274 34.2299 37.6223C34.3805 36.9757 34.3805 36.2684 34.3578 35.6025C34.2939 34.5525 34.122 33.5012 33.8222 32.4912C33.5224 31.4606 31.7237 27.0977 31.1241 26.208C30.6098 25.4398 29.8824 24.7532 29.0257 24.3291C28.5326 24.0873 27.9331 23.9257 27.3974 24.0459C26.5833 24.2282 25.8985 24.7725 25.3203 25.339C23.2431 27.4403 21.6575 30.086 20.8008 32.8532C20.3945 34.1463 20.116 35.4795 20.0293 36.8334C20.008 37.4192 19.9867 38.0451 20.1146 38.6308C20.1785 38.9141 20.2865 39.2166 20.4996 39.4584C20.6928 39.6407 20.9059 39.8217 21.1631 39.9433C21.4203 40.0649 21.7414 40.1257 22.0411 40.0842L22.0426 40.0856ZM25.3416 28.1477C24.5275 29.561 25.2123 31.4399 26.8831 31.4399C28.7458 31.4399 29.9236 29.5209 29.0029 27.986C28.7898 27.5812 28.4247 27.2179 27.997 27.0162C27.0124 26.552 25.8772 27.2386 25.3416 28.1477Z" fill="#FF91B2"/>
<path d="M15.4033 39.5399C15.7244 39.2373 15.9602 38.8325 16.1321 38.4291C16.6251 37.3377 16.861 36.1468 17.0741 34.9946C17.3526 33.3589 17.5245 31.7024 17.5245 30.0459C17.5458 28.5511 17.3753 26.9955 16.8184 25.6015C16.1762 24.0666 14.3988 23.0567 12.8985 23.9243C12.2776 24.2876 11.8272 24.9135 11.5487 25.5407C11.077 26.5713 10.9492 27.7429 10.9705 28.8536C10.9705 30.7118 11.2916 32.57 11.9124 34.308C11.9977 34.5497 11.5913 34.1463 11.4848 33.9239C10.9278 32.7924 10.6494 31.5407 10.5002 30.2877C10.3936 29.5195 8.87199 26.6307 8.48696 25.9248C7.82346 24.7532 6.11001 23.6825 4.76028 24.0265C4.28858 24.1481 3.86093 24.4106 3.49721 24.7131C2.83371 25.2381 2.36201 25.9662 1.9983 26.7136C1.18419 28.4917 0.969658 30.5322 1.0137 32.4705C1.05632 34.0662 1.20693 35.6826 1.69851 37.2175C1.93436 37.9249 2.23414 38.6322 2.74846 39.218C3.11218 39.6214 3.66912 39.9861 4.24738 40.0055C4.80432 40.0262 5.38258 39.8231 5.81023 39.4998C6.28192 39.1365 6.60302 38.6115 6.81613 38.0851C7.35176 36.7519 7.45832 35.1963 7.13723 33.8023C7.05198 33.3575 6.92269 32.914 6.7522 32.5092C6.68826 32.3876 6.45242 31.8834 6.45242 31.7618C6.45242 31.701 6.51635 31.6209 6.58029 31.5794C7.47963 32.6294 7.84335 34.0234 8.50827 35.2157C9.08653 36.2463 9.77134 37.2355 10.4789 38.1846C10.8426 38.6695 11.2291 39.1337 11.6567 39.5579C11.8073 39.6988 11.9778 39.8411 12.1497 39.9419C13.0491 40.4476 14.656 40.2251 15.4047 39.5385L15.4033 39.5399Z" fill="#FF91B2"/>
</svg>
