<svg width="96" height="42" viewBox="0 0 96 42" fill="none" xmlns="http://www.w3.org/2000/svg">
<path d="M9.92941 19.8261C8.45181 19.6437 6.9742 19.1795 5.66709 18.4722C4.29605 17.7248 3.20347 16.4924 2.64653 15.0777C2.30412 14.1687 2.15352 13.1187 2.41068 12.1889C2.5826 11.6031 2.94631 11.0381 3.43932 10.6333C3.91102 10.2492 4.5319 10.0074 5.15277 9.88586C4.81037 9.11772 4.27473 8.45182 3.88971 7.7044C3.56861 7.0979 3.41801 6.41127 3.41801 5.72464C3.43932 4.71473 3.82435 3.6841 4.42392 2.85655C4.91692 2.20999 5.60174 1.64494 6.3519 1.26087C7.82951 0.513452 9.54296 0.0492507 11.2351 0.0893155C12.1558 0.110039 13.0764 0.311745 13.9559 0.614304C15.1763 1.01772 16.3755 1.64494 17.2549 2.55399C17.7692 3.05964 18.1969 3.68548 18.454 4.35139C18.7751 5.0988 18.9257 5.90701 18.9257 6.71521C18.9257 7.32171 18.7538 7.94755 18.4981 8.5126C18.3049 8.95746 18.0051 9.42166 17.5561 9.70488C18.2622 10.3722 18.7766 11.1997 19.1417 12.0687C19.4202 12.7553 19.6347 13.5235 19.548 14.2709C19.4202 15.3209 18.9485 16.3916 18.2196 17.1804C17.3629 18.0895 16.249 18.8369 15.0499 19.2818C13.4643 19.8883 11.6443 20.0499 9.93083 19.8275L9.92941 19.8261ZM12.3504 17.139C13.2924 16.8972 14.2343 16.4524 14.9845 15.8459C15.3909 15.5226 15.7773 15.1385 16.0345 14.695C16.4408 13.9877 16.6767 13.0593 16.3769 12.3119C16.0984 11.6045 15.6267 10.9579 15.0484 10.4537C14.2343 9.72699 13.1844 9.32219 12.2424 8.75714C11.7068 8.41314 11.1712 8.00972 10.8074 7.48473C10.4224 6.89896 10.2292 6.17227 10.1866 5.46491C10.1866 5.44419 10.4224 5.48564 10.4224 5.5257C10.7861 6.19299 11.1072 6.94041 11.6855 7.44467C12.0705 7.78868 12.6275 7.99038 13.1418 7.99038C13.5922 7.99038 14.0411 7.82874 14.4262 7.58697C15.047 7.2029 15.5187 6.57706 15.7119 5.86971C16.205 4.11238 14.6194 2.05111 12.842 1.32442C11.7494 0.87956 10.4437 0.87956 9.28722 1.10199C8.08809 1.34376 6.91027 1.88947 5.98819 2.65761C5.51649 3.06102 5.11015 3.56667 4.85299 4.11238C4.40261 5.12229 4.51058 6.41542 5.00217 7.42533C5.55911 8.57616 6.56502 9.52666 7.78688 10.0309C8.23727 10.2133 8.72886 10.3542 9.13662 10.6374C10.3357 11.4456 11.3218 12.718 11.6642 14.0719C11.6855 14.0927 11.4496 14.1521 11.4283 14.1327C10.7861 13.3853 10.3357 12.497 9.62962 11.7896C9.39378 11.5479 9.11531 11.3254 8.79421 11.1638C7.93749 10.7189 6.8236 10.578 5.839 10.7797C5.19682 10.9206 4.53189 11.2246 4.08293 11.6888C3.74052 12.0521 3.52599 12.5578 3.48337 13.062C3.39812 14.0319 4.34009 15.6676 5.23944 16.1526C5.96829 16.556 6.78098 16.8392 7.57377 17.0823C9.11531 17.5465 10.7861 17.5673 12.3504 17.1431V17.139Z" fill="#FF91B2"/>
<path d="M22.3725 20.3723C21.7516 20.1899 21.1947 19.8266 20.723 19.4025C19.9302 18.6758 19.3093 17.7861 18.8604 16.8369C18.2608 15.5245 17.9823 14.089 17.8758 12.655C17.7479 10.7968 17.9184 8.93863 18.1542 7.09979C18.3475 5.64503 18.7751 4.17091 19.5892 2.91785C20.0396 2.25056 20.5951 1.62472 21.2601 1.16052C22.6524 0.2114 24.6443 -0.132605 26.3365 0.230742C26.936 0.352318 27.5143 0.574748 28.0286 0.898029C28.864 1.42302 29.3357 2.3528 30.1484 2.91785C30.2976 3.0187 30.4695 3.10021 30.6414 3.11955C30.7693 3.11955 30.8986 3.09883 31.0051 3.03943C31.1543 2.93857 31.8405 2.29201 31.9897 2.19115C32.7186 1.60538 33.4886 1.04033 34.324 0.635536C35.3527 0.12989 36.5518 -0.111881 37.687 0.04976C38.8648 0.211401 39.9361 0.757111 40.7076 1.60538C41.4137 2.37352 41.8215 3.34337 41.8854 4.39334C42.1212 8.59462 41.6495 12.8981 40.5783 16.9792C40.3851 17.7266 39.9787 18.434 39.4005 18.9383C38.8009 19.484 37.9655 19.8473 37.1514 19.9482C36.3586 20.049 35.5232 19.9275 34.7744 19.665C34.1536 19.4425 33.5753 19.0585 33.0397 18.655C32.9118 18.5542 32.7825 18.4326 32.5893 18.4133C32.1176 18.3525 31.0691 19.3223 30.6613 19.5848C30.4255 19.7257 30.147 19.8473 29.8685 19.8473C28.5614 19.8266 27.277 19.0999 26.3137 18.2516C26.1646 18.655 25.8847 18.9991 25.5849 19.3016C25.0492 19.8073 24.4071 20.2715 23.6782 20.4331C23.2491 20.5339 22.8002 20.4939 22.3711 20.3723H22.3725ZM35.6511 17.3826C36.0801 17.3619 36.5291 17.2003 36.8502 16.9184C37.4711 16.4335 37.8135 15.6654 38.0493 14.9387C38.4343 13.7271 38.5636 12.4533 38.7341 11.2016C38.9913 9.36276 39.1192 7.48524 39.1405 5.62568C39.1405 4.73735 39.1618 3.84763 38.9913 2.99936C38.8847 2.47437 38.6063 1.92866 38.1772 1.58466C37.8135 1.30144 37.2991 1.16052 36.8274 1.18124C35.8429 1.18124 34.8781 1.56532 34.064 2.0903C32.8436 2.89851 31.8576 4.02999 31.0222 5.20155C29.9296 6.7171 29.0729 8.37358 28.4094 10.0908C28.3241 10.3326 28.1309 9.90848 28.1948 9.66671C28.3014 9.12099 28.4307 8.57528 28.5799 8.03095C28.7518 7.52531 28.6651 6.96026 28.5586 6.45461C28.4094 5.62706 28.1522 4.79814 27.8084 4.03C27.5086 3.36271 27.0795 2.77693 26.5013 2.29201C25.987 1.8886 25.3874 1.54459 24.7239 1.38295C23.8672 1.20059 23.0531 1.34289 22.3469 1.80709C21.79 2.17043 21.3623 2.69542 20.9972 3.22179C20.3337 4.17091 19.8833 5.24161 19.5622 6.35238C18.984 8.45371 18.9627 10.696 19.2411 12.8567C19.3477 13.5834 19.5409 14.3308 19.8407 15.0188C20.0765 15.5245 20.355 16.0494 20.7614 16.4529C21.0825 16.7761 21.5328 17.0386 21.9818 17.0994C23.0318 17.221 23.9311 15.9679 24.2948 15.0395C24.3588 14.8779 24.4014 14.6955 24.4227 14.5339C24.5079 13.6856 24.4653 12.8374 24.3588 12.0084C24.2948 11.6244 23.9297 10.2511 24.0803 9.88775C24.0803 9.82697 24.2522 9.7869 24.2735 9.80762C24.7665 11.6658 25.2581 13.5848 26.4146 15.1611C26.821 15.7262 27.4205 16.1917 28.0854 16.4736C28.4492 16.6145 28.8569 16.7154 29.2633 16.6753C29.627 16.6352 29.9481 16.4128 30.2052 16.1904C30.6556 15.827 31.0193 15.3614 31.3191 14.8972C31.7255 14.2907 32.048 13.6248 32.2185 12.9382C32.3463 12.4132 32.3037 11.8675 32.4543 11.3425C32.4756 11.3218 32.6475 11.4641 32.6475 11.4834C32.6902 12.3718 32.7328 13.2615 32.8408 14.1305C32.926 14.737 33.034 15.3421 33.2471 15.9279C33.3977 16.2719 33.5895 16.6546 33.9106 16.877C34.4036 17.221 35.0458 17.402 35.6454 17.3826H35.6511Z" fill="#FF91B2"/>
<path d="M40.6222 16.696C40.3863 15.4844 40.6861 14.2313 40.858 12.999C41.351 9.36273 43.1923 5.74722 45.7625 2.9786C46.3834 2.33204 46.983 1.64541 47.7331 1.18121C48.3114 0.817863 48.9962 0.635501 49.6611 0.555372C50.7537 0.454519 51.9528 0.635501 52.9374 1.10108C53.7515 1.48515 54.4363 2.07093 55.0359 2.71749C55.9779 3.70668 56.728 4.87961 57.3702 6.09123C58.2269 7.70764 58.8905 9.4249 59.3621 11.1822C59.7259 12.5762 59.9617 14.0103 59.8978 15.4443C59.8765 16.0909 59.8338 16.7568 59.6193 17.3633C59.4914 17.7473 59.2556 18.1314 58.9558 18.4132C58.4202 18.8774 57.6487 19.1206 56.9426 19.2408C55.7861 19.4231 54.5869 19.3817 53.473 19.1192C52.8095 18.9783 52.1659 18.5942 51.6743 18.1494C50.6898 17.261 50.0035 16.1295 49.2107 15.0782C48.8896 16.2898 48.3966 17.5636 47.4973 18.492C45.2482 20.7743 41.243 19.7451 40.6222 16.6946V16.696ZM43.8345 17.7667C44.3275 17.7266 44.8191 17.4641 45.2056 17.1602C45.8051 16.7153 46.2981 16.1503 46.6619 15.5244C47.1549 14.7369 47.4547 13.8279 47.7331 12.9589C47.7758 12.8373 47.9477 12.3123 47.9477 12.1714C47.9477 12.1106 47.8411 12.0498 47.7758 12.0098C47.5825 11.949 47.3907 11.9296 47.1762 11.9089C47.6266 11.8481 50.1967 11.4848 50.6244 11.4033C50.6883 11.4033 50.7736 11.5041 50.8176 11.5249C50.4752 11.7266 50.1115 11.8882 49.7464 12.0098C49.9609 13.1205 50.1314 14.2727 50.5605 15.3227C50.8389 16.0301 51.2893 16.7374 51.9528 17.1809C52.4245 17.5042 53.0028 17.7667 53.581 17.7266C54.1593 17.6658 54.7375 17.3425 55.1439 16.9391C55.5729 16.4943 55.894 15.9085 56.0219 15.3034C56.1711 14.6568 56.1711 13.9495 56.1498 13.2836C56.0858 12.2336 55.9139 11.1822 55.6141 10.1723C55.3144 9.14168 53.5157 4.77876 52.9161 3.88904C52.4018 3.1209 51.6743 2.43427 50.8176 2.01014C50.3246 1.76837 49.7251 1.60673 49.1894 1.72692C48.3753 1.90929 47.6905 2.45361 47.1123 3.02005C45.0351 5.12138 43.4495 7.76704 42.5928 10.5343C42.1864 11.8274 41.908 13.1606 41.8213 14.5145C41.8 15.1003 41.7787 15.7261 41.9065 16.3119C41.9705 16.5951 42.0785 16.8977 42.2916 17.1395C42.4848 17.3218 42.6979 17.5028 42.9551 17.6244C43.2122 17.746 43.5333 17.8067 43.8331 17.7653L43.8345 17.7667ZM48.6751 9.12096C47.0043 9.12096 46.3195 7.24206 47.1336 5.82873C47.6692 4.91968 48.8044 4.23305 49.789 4.69725C50.2181 4.89895 50.5818 5.2623 50.7963 5.66709C51.717 7.20199 50.5392 9.12096 48.6765 9.12096H48.6751ZM48.847 8.07099C49.4679 8.07099 50.0888 7.546 50.1541 6.96022C50.1967 6.73779 50.1115 6.45457 49.9183 6.29293C49.7464 6.17136 49.5119 6.13129 49.2974 6.15202C48.5685 6.17274 47.9903 6.92016 48.2048 7.58606C48.2901 7.88862 48.5472 8.07099 48.847 8.07099Z" fill="#FF91B2"/>
<path d="M72.1507 19.5851C70.737 19.2411 69.4299 18.3734 68.4453 17.3635C68.3387 17.242 68.1881 17.2627 68.0816 17.3635C67.867 17.5652 67.7605 17.8277 67.6312 18.0709C67.4166 18.495 66.3681 19.3032 65.8751 19.4441C65.1903 19.6458 64.4188 19.7066 63.734 19.545C63.1984 19.4441 62.7281 19.1209 62.3203 18.7769C61.7208 18.2712 61.1851 17.6854 60.7788 17.0389C60.6069 16.7557 60.0499 15.3423 59.9647 15.019C59.2586 12.5143 58.7869 9.8272 59.1932 7.26166C59.493 5.32197 60.2858 3.34222 61.5915 1.82804C61.9339 1.44397 62.3203 1.0599 62.7906 0.818132C63.4754 0.474127 64.2682 0.312485 65.061 0.232355C66.2388 0.110779 67.4806 0.152227 68.6598 0.33321C69.5592 0.474127 70.4585 0.677214 71.2513 1.10135C71.4658 1.22293 72.4504 1.68713 72.6437 1.84877C73.8854 2.91946 74.9354 4.39357 75.2351 5.96992C75.5136 7.46475 74.9993 9.16129 74.0786 10.3936C75.1499 11.4436 76.1345 12.6759 76.6062 14.0506C77.0125 15.2829 77.0125 17.8084 76.0706 18.7175C75.6202 19.1209 75.086 19.4649 74.485 19.6058C73.7348 19.8282 72.8994 19.7881 72.1507 19.5851ZM64.8905 17.4036C65.2116 17.2212 65.4688 16.9394 65.6407 16.6355C65.9191 16.1713 66.0044 15.6048 65.9831 15.0798C65.9831 14.5548 65.9405 14.0091 65.8325 13.5035C65.7259 12.9177 65.5114 12.3319 65.4901 11.7254C66.5187 13.1802 67.5672 14.675 68.8744 15.9267C69.3247 16.3509 69.8163 16.7543 70.3733 17.0375C70.673 17.1784 70.9941 17.2793 71.3152 17.3C71.8935 17.3207 72.4504 17.1784 72.9221 16.8758C74.1213 16.1284 74.6143 14.5521 74.0573 13.2797C73.8215 12.734 73.4364 12.2297 73.0074 11.8056C72.4078 11.1797 71.679 10.634 70.8435 10.3107C70.5651 10.2099 69.751 9.92667 69.6231 9.66418C70.2227 9.28011 70.8222 8.87669 71.3579 8.41111C71.7216 8.06711 72.0427 7.68442 72.2359 7.26028C72.9861 5.64387 71.9574 3.28005 70.4159 2.29086C69.302 1.56417 67.9096 1.19944 66.5826 1.01846C66.0257 0.957667 65.4261 0.997733 64.8905 1.14003C63.5621 1.5241 62.3416 2.47322 61.6142 3.60471C61.0146 4.49305 60.7575 5.58447 60.6296 6.63444C60.4364 8.12927 60.5017 9.62411 60.523 11.1189C60.523 11.8056 60.6083 12.4922 60.7163 13.1595C60.8441 13.9276 61.0161 14.675 61.2945 15.4017C61.4224 15.8052 61.5943 16.2099 61.8515 16.5526C62.4937 17.4823 63.8647 17.9673 64.8933 17.4008L64.8905 17.4036ZM63.8406 6.41478C63.7553 6.11222 63.7553 5.78894 63.8406 5.50572C64.0977 4.81909 64.6547 4.21259 65.3395 3.88931C65.6606 3.74839 66.0243 3.66688 66.3894 3.6876C66.8611 3.70833 67.3527 3.86997 67.6965 4.17253C68.0176 4.43502 68.2109 4.85916 68.2535 5.24323C68.4041 6.51563 67.3541 7.72725 66.0044 7.93033C65.0411 8.07125 64.0977 7.28377 63.8406 6.41478ZM66.1749 6.96049C66.5812 6.83891 66.9037 6.55708 67.1382 6.23379C67.3101 6.01136 67.4593 5.70881 67.374 5.44631C67.2888 5.1631 66.8597 5.00146 66.5386 5.02218C66.3241 5.0429 66.1109 5.14375 65.939 5.26395C65.7671 5.40487 65.3182 5.91051 65.2542 6.11222C65.0823 6.61786 65.6606 7.14285 66.1749 6.96049Z" fill="#FF91B2"/>
<path d="M81.6788 19.6451C80.7794 19.1394 80.0932 18.2718 79.6442 17.3628C79.0873 16.2119 78.7662 14.9382 78.7662 13.6658C78.7662 11.7261 79.3871 9.78776 80.0946 7.96964C80.2225 7.68643 79.6442 7.86879 79.3231 7.94892C78.3172 8.15063 77.2033 8.04977 76.2812 7.64636C75.6817 7.40459 75.1247 7.02052 74.7823 6.49553C74.5465 6.17225 74.3973 5.78818 74.3533 5.38477C74.2893 4.77827 74.4598 4.13171 74.7383 3.56666C75.1446 2.75845 75.8522 2.0511 76.6663 1.62696C78.1439 0.858823 79.9 0.697183 81.5708 0.535542C83.3056 0.373901 85.0616 0.313113 86.7964 0.535542C88.0595 0.697183 89.3453 1.02047 90.4591 1.60624C91.7009 2.23208 92.9014 3.20193 93.457 4.43427C93.8207 5.24247 93.842 6.35323 93.285 7.06058C92.8361 7.66708 92.1285 8.09122 91.4011 8.37305C90.3725 8.81791 89.26 9.04034 88.1461 9.18126C88.1461 9.50454 88.1674 9.82782 88.2527 10.1511C88.5098 11.0602 88.5738 12.0093 88.5738 12.9391C88.5951 14.2322 88.4885 15.5253 88.1461 16.777C87.9103 17.6253 87.5679 18.515 86.9044 19.1201C85.512 20.3524 83.3496 20.5542 81.6788 19.6451ZM82.814 17.9071C83.1777 17.9071 83.5428 17.7855 83.8639 17.6045C84.4209 17.2813 84.8698 16.7756 85.1497 16.2313C85.4921 15.5847 85.6214 14.8373 85.7067 14.13C85.8786 12.7567 85.8999 11.3821 85.8132 10.0088C85.7493 9.03896 85.664 8.06911 85.3415 7.14072C85.1057 7.0592 84.5487 6.75664 84.4848 6.53421C84.4422 6.41264 84.634 6.47343 84.7633 6.51349C85.3415 6.67513 85.9837 6.63507 86.6046 6.57428C87.1402 6.51349 87.6758 6.37257 88.1674 6.19021C88.767 5.9885 89.3453 5.74535 89.8809 5.42207C90.1807 5.26043 90.4591 5.05872 90.6737 4.79623C90.8669 4.53374 90.9948 4.23118 91.0161 3.9079C91.0161 3.60534 90.8882 3.26133 90.695 2.99884C90.3313 2.55398 89.7743 2.25142 89.2387 2.02899C88.5965 1.7665 87.889 1.62558 87.2041 1.56479C84.5913 1.32302 81.8933 1.22079 79.3444 1.78722C78.4664 1.96959 77.5884 2.31221 76.8382 2.77779C76.3665 3.06101 75.8962 3.42435 75.6178 3.88855C75.1887 4.63597 75.4032 5.5851 76.1108 6.11008C76.689 6.53422 77.4818 6.71658 78.2092 6.77737C79.2379 6.89894 80.3077 6.81743 81.315 6.65579C81.3577 6.65579 81.3577 6.67651 81.379 6.67651C81.379 6.79809 81.1858 7.30235 81.1431 7.42393C80.822 8.63555 80.329 9.82782 80.0932 11.0602C79.9 12.0493 79.8573 13.0606 79.944 14.0498C80.0293 14.9589 80.2438 15.8679 80.7368 16.6361C81.0153 17.0809 81.4216 17.4844 81.9146 17.7275C82.1931 17.8491 82.5142 17.9292 82.814 17.9099V17.9071Z" fill="#FF91B2"/>
<path d="M19.1573 12.1081C19.424 12.7745 19.6268 13.5152 19.5517 14.238C19.6342 14.5036 19.7302 14.7653 19.8407 15.0188C20.0766 15.5245 20.355 16.0494 20.7614 16.4529C21.0825 16.7761 21.5329 17.0386 21.9818 17.0994C23.0318 17.221 23.9311 15.9679 24.2948 15.0395C24.3588 14.8779 24.4014 14.6955 24.4227 14.5339C24.508 13.6856 24.4653 12.8374 24.3588 12.0084C24.3444 11.9218 24.3146 11.7848 24.2789 11.6204C24.1563 11.0561 23.9637 10.1691 24.0803 9.88775C24.0803 9.82697 24.2522 9.7869 24.2735 9.80762C24.2847 9.84976 24.2959 9.89193 24.3071 9.93413C24.7892 11.7527 25.2844 13.6205 26.4146 15.1611C26.821 15.7262 27.4205 16.1917 28.0855 16.4736C28.4492 16.6145 28.8569 16.7154 29.2633 16.6753C29.627 16.6352 29.9481 16.4128 30.2053 16.1904C30.6556 15.827 31.0194 15.3614 31.3191 14.8972C31.7255 14.2907 32.048 13.6248 32.2185 12.9382C32.2785 12.692 32.3009 12.4411 32.3234 12.19C32.3489 11.9058 32.3744 11.6212 32.4543 11.3425C32.4756 11.3218 32.6476 11.4641 32.6476 11.4834L32.6477 11.486C32.6903 12.3735 32.7329 13.2623 32.8408 14.1305C32.926 14.737 33.034 15.3421 33.2471 15.9279C33.3977 16.2719 33.5895 16.6546 33.9106 16.877C34.4036 17.221 35.0458 17.402 35.6454 17.3826H35.6511C36.0801 17.3619 36.5291 17.2003 36.8502 16.9184C37.4711 16.4335 37.8135 15.6654 38.0493 14.9387C38.3792 13.9006 38.5214 12.8168 38.6626 11.7405C38.6862 11.5605 38.7097 11.3808 38.7341 11.2016C38.9913 9.36276 39.1192 7.48524 39.1405 5.62568C39.1405 5.53682 39.1407 5.44795 39.1409 5.3591C39.1428 4.55977 39.1447 3.76278 38.9913 2.99936C38.8847 2.47437 38.6063 1.92866 38.1772 1.58466C37.8135 1.30144 37.2992 1.16052 36.8275 1.18124C35.8429 1.18124 34.8782 1.56532 34.0641 2.0903C32.8436 2.89851 31.8576 4.02999 31.0222 5.20155C29.9296 6.7171 29.0729 8.37358 28.4094 10.0908C28.3242 10.3326 28.1309 9.90848 28.1949 9.66671C28.3014 9.12099 28.4307 8.57528 28.5799 8.03095C28.7518 7.52531 28.6651 6.96026 28.5586 6.45461C28.4094 5.62706 28.1522 4.79814 27.8084 4.03C27.5086 3.36271 27.0796 2.77693 26.5013 2.29201C25.987 1.8886 25.3874 1.54459 24.7239 1.38295C23.8672 1.20059 23.0531 1.34289 22.347 1.80709C21.79 2.17043 21.3624 2.69542 20.9972 3.22179C20.3337 4.17091 19.8833 5.24161 19.5623 6.35238C19.0505 8.21196 18.975 10.1819 19.1573 12.1081Z" fill="#FDF8F5"/>
<path d="M12.3504 17.1395C13.2924 16.8977 14.2343 16.4529 14.9845 15.8464C15.3909 15.5231 15.7773 15.139 16.0345 14.6955C16.4408 13.9882 16.6767 13.0598 16.3769 12.3124C16.0984 11.605 15.6267 10.9585 15.0484 10.4542C14.2343 9.72749 13.1844 9.3227 12.2424 8.75765C11.7068 8.41364 11.1712 8.01023 10.8074 7.48524C10.4224 6.89947 10.2292 6.17277 10.1866 5.46542C10.1866 5.4447 10.4224 5.48614 10.4224 5.52621C10.7861 6.1935 11.1072 6.94091 11.6855 7.44518C12.0705 7.78918 12.6275 7.99089 13.1418 7.99089C13.5922 7.99089 14.0411 7.82925 14.4261 7.58748C15.047 7.20341 15.5187 6.57756 15.7119 5.87021C16.205 4.11289 14.6194 2.05162 12.842 1.32493C11.7494 0.880068 10.4437 0.880068 9.28722 1.1025C8.08809 1.34427 6.91027 1.88998 5.98819 2.65812C5.51649 3.06153 5.11015 3.56717 4.85299 4.11288C4.4026 5.1228 4.51058 6.41593 5.00217 7.42584C5.55911 8.57666 6.56502 9.52716 7.78688 10.0314C8.23727 10.2138 8.72885 10.3547 9.13662 10.6379C10.3357 11.4461 11.3218 12.7185 11.6642 14.0725C11.6855 14.0932 11.4496 14.1526 11.4283 14.1332C10.7861 13.3858 10.3357 12.4975 9.62962 11.7901C9.39378 11.5484 9.1153 11.3259 8.79421 11.1643C7.93749 10.7194 6.8236 10.5785 5.839 10.7802C5.19682 10.9211 4.53189 11.2251 4.08293 11.6893C3.74052 12.0526 3.52599 12.5583 3.48337 13.0625C3.39812 14.0324 4.34009 15.6681 5.23944 16.1531C5.96829 16.5565 6.78098 16.8397 7.57377 17.0828C9.1153 17.547 10.7861 17.5678 12.3504 17.1436V17.1395Z" fill="#FDF8F5"/>
<path fill-rule="evenodd" clip-rule="evenodd" d="M43.8333 17.7667C44.3263 17.7266 44.8179 17.4642 45.2043 17.1602C45.8039 16.7154 46.2969 16.1503 46.6606 15.5245C47.1536 14.737 47.4534 13.8279 47.7319 12.9589C47.7745 12.8374 47.9464 12.3124 47.9464 12.1714C47.9464 12.1107 47.8399 12.0499 47.7745 12.0098C47.5813 11.949 47.3895 11.9297 47.1749 11.909C47.6253 11.8482 50.1955 11.4848 50.6232 11.4033C50.6871 11.4033 50.7723 11.5042 50.8164 11.5249C50.474 11.7266 50.1102 11.8882 49.7451 12.0098C49.9596 13.1206 50.1301 14.2728 50.5592 15.3228C50.8377 16.0301 51.2881 16.7375 51.9516 17.1809C52.4233 17.5042 53.0015 17.7667 53.5798 17.7266C54.158 17.6659 54.7363 17.3426 55.1426 16.9392C55.5717 16.4943 55.8928 15.9085 56.0207 15.3034C56.1698 14.6568 56.1698 13.9495 56.1485 13.2836C56.0846 12.2336 55.9127 11.1823 55.6129 10.1724C55.3131 9.14172 53.5144 4.77879 52.9149 3.88908C52.4005 3.12094 51.6731 2.43431 50.8164 2.01017C50.3234 1.7684 49.7238 1.60676 49.1882 1.72696C48.3741 1.90932 47.6893 2.45365 47.111 3.02008C45.0338 5.12141 43.4483 7.76708 42.5915 10.5343C42.1852 11.8274 41.9067 13.1606 41.82 14.5146C41.7987 15.1003 41.7774 15.7262 41.9053 16.3119C41.9692 16.5952 42.0772 16.8977 42.2903 17.1395C42.4835 17.3219 42.6967 17.5028 42.9538 17.6244C43.211 17.746 43.5321 17.8068 43.8319 17.7653L43.8333 17.7667ZM47.1323 5.82877C46.3182 7.24209 47.003 9.12099 48.6739 9.12099H48.6753C50.5379 9.12099 51.7157 7.20202 50.7951 5.66713C50.5805 5.26233 50.2168 4.89899 49.7877 4.69728C48.8031 4.23308 47.6679 4.91971 47.1323 5.82877Z" fill="#FDF8F5"/>
<path fill-rule="evenodd" clip-rule="evenodd" d="M64.8891 17.4034C65.2102 17.221 65.4674 16.9392 65.6393 16.6352C65.9178 16.171 66.003 15.6046 65.9817 15.0796C65.9817 14.5546 65.9391 14.0089 65.8311 13.5033C65.7246 12.9175 65.51 12.3317 65.4887 11.7252L65.548 11.8091C66.5577 13.2373 67.591 14.6988 68.873 15.9265C69.3234 16.3506 69.815 16.754 70.3719 17.0373C70.6717 17.1782 70.9928 17.279 71.3139 17.2997C71.8921 17.3205 72.4491 17.1782 72.9208 16.8756C74.1199 16.1282 74.6129 14.5519 74.056 13.2794C73.8201 12.7337 73.4351 12.2295 73.006 11.8053C72.4064 11.1795 71.6776 10.6338 70.8422 10.3105C70.5637 10.2097 69.7496 9.92644 69.6217 9.66394C70.2213 9.27987 70.8209 8.87646 71.3565 8.41088C71.7202 8.06687 72.0413 7.68418 72.2345 7.26005C72.9847 5.64364 71.9561 3.27981 70.4145 2.29063C69.3006 1.56393 67.9083 1.19921 66.5813 1.01822C66.0243 0.957435 65.4248 0.9975 64.8891 1.1398C63.5607 1.52387 62.3403 2.47299 61.6128 3.60448C61.0133 4.49281 60.7561 5.58423 60.6282 6.63421C60.435 8.12904 60.5004 9.62388 60.5217 11.1187C60.5217 11.8053 60.6069 12.492 60.7149 13.1593C60.8428 13.9274 61.0147 14.6748 61.2932 15.4015C61.421 15.8049 61.5929 16.2097 61.8501 16.5523C62.4923 17.4821 63.8633 17.967 64.892 17.4006L64.8891 17.4034ZM63.8392 5.50549C63.7539 5.7887 63.7539 6.11198 63.8392 6.41454C64.0964 7.28354 65.0397 8.07102 66.003 7.9301C67.3528 7.72701 68.4027 6.5154 68.2521 5.24299C68.2095 4.85892 68.0163 4.43479 67.6952 4.1723C67.3513 3.86974 66.8597 3.70809 66.388 3.68737C66.0229 3.66665 65.6592 3.74816 65.3381 3.88908C64.6533 4.21236 64.0964 4.81886 63.8392 5.50549Z" fill="#FDF8F5"/>
<path d="M82.815 17.9076C83.1787 17.9076 83.5439 17.7861 83.865 17.6051C84.4219 17.2818 84.8709 16.7761 85.1508 16.2318C85.4932 15.5852 85.6225 14.8378 85.7077 14.1305C85.8796 12.7572 85.9009 11.3826 85.8143 10.0093C85.7503 9.03948 85.6651 8.06964 85.3426 7.14124C85.1067 7.05973 84.5498 6.75716 84.4858 6.53474C84.4437 6.41463 84.6304 6.47251 84.7596 6.51255L84.7643 6.51401C85.3426 6.67565 85.9848 6.63559 86.6056 6.5748C87.1413 6.51401 87.6769 6.3731 88.1685 6.19073C88.7681 5.98903 89.3463 5.74587 89.8819 5.42259C90.1817 5.26095 90.4602 5.05925 90.6747 4.79675C90.868 4.53426 90.9958 4.2317 91.0171 3.90842C91.0171 3.60586 90.8893 3.26185 90.696 2.99936C90.3323 2.5545 89.7754 2.25194 89.2397 2.02952C88.5976 1.76702 87.89 1.6261 87.2052 1.56531C84.5924 1.32354 81.8944 1.22131 79.3455 1.78774C78.4675 1.97011 77.5894 2.31273 76.8392 2.77831C76.3676 3.06153 75.8973 3.42488 75.6188 3.88908C75.1897 4.63649 75.4043 5.58562 76.1118 6.1106C76.6901 6.53474 77.4829 6.7171 78.2103 6.77789C79.2389 6.89947 80.3088 6.81795 81.3161 6.65631C81.3587 6.65631 81.3587 6.67704 81.38 6.67704C81.38 6.79861 81.1868 7.30288 81.1442 7.42445C80.8231 8.63607 80.3301 9.82834 80.0942 11.0607C79.901 12.0499 79.8584 13.0612 79.9451 14.0504C80.0303 14.9594 80.2448 15.8685 80.7378 16.6366C81.0163 17.0815 81.4227 17.4849 81.9157 17.728C82.1941 17.8496 82.5152 17.9297 82.815 17.9104V17.9076Z" fill="#FDF8F5"/>
<path fill-rule="evenodd" clip-rule="evenodd" d="M19.5517 14.238C19.6268 13.5152 19.424 12.7745 19.1573 12.1081C19.1811 12.3585 19.2091 12.6081 19.2412 12.8567C19.3084 13.3156 19.4103 13.7827 19.5517 14.238Z" fill="#FDF8F5"/>
<path d="M11.526 40.8253C10.5201 39.9977 9.94041 38.8055 9.23429 37.7348C9.04106 38.8055 8.52816 39.8762 7.75669 40.6844C7.32761 41.1486 6.74936 41.5727 6.12848 41.7551C5.63547 41.896 5.09984 41.8766 4.60825 41.7551C3.81546 41.5727 3.08803 41.0878 2.50977 40.5628C1.54649 39.6938 0.796323 38.543 0.453917 37.33C0.196758 36.3808 0.111512 35.3903 0.0475771 34.4204C-0.0589808 32.4614 0.00495324 30.4816 0.326048 28.542C0.497961 27.4105 0.732388 26.2596 1.31064 25.2497C1.5678 24.8463 1.91021 24.4816 2.27393 24.139C2.70158 23.7148 3.17328 23.3114 3.70891 22.9674C4.26585 22.6234 4.99328 22.5032 5.65821 22.5032C7.09319 22.5032 8.57079 23.0282 9.76992 23.7756C10.199 24.0588 10.7559 23.8765 11.033 23.4523C11.5899 22.7049 12.5319 22.0984 13.4966 21.9368C14.6744 21.7751 15.9602 22.1385 16.9448 22.7643C17.8655 23.3501 18.6156 24.1984 19.0646 25.1475C19.5576 26.1781 19.8574 27.3096 20.0066 28.4204C20.2424 30.2178 20.1345 32.0359 19.9853 33.8347C19.8361 35.6735 19.6855 37.5717 18.8927 39.2683C18.5716 40.0157 18.0786 40.7424 17.3725 41.2273C16.9661 41.5299 15.2953 41.8338 14.8023 41.8739C13.6458 41.954 12.3813 41.5299 11.5246 40.8239L11.526 40.8253ZM15.4033 38.9464C15.7244 38.6438 15.9602 38.239 16.1321 37.8356C16.6251 36.7442 16.861 35.5533 17.0741 34.4011C17.3526 32.7653 17.5245 31.1089 17.5245 29.4524C17.5458 27.9576 17.3753 26.4019 16.8184 25.008C16.1762 23.4731 14.3988 22.4632 12.8985 23.3308C12.2776 23.6941 11.8272 24.3199 11.5487 24.9472C11.077 25.9778 10.9492 27.1494 10.9705 28.2601C10.9705 30.1183 11.2916 31.9765 11.9124 33.7145C11.9977 33.9562 11.5913 33.5528 11.4848 33.3304C10.9278 32.1989 10.6494 30.9472 10.5002 29.6942C10.3936 28.926 8.87199 26.0372 8.48696 25.3312C7.82346 24.1597 6.11001 23.089 4.76028 23.433C4.28858 23.5546 3.86093 23.8171 3.49721 24.1196C2.83371 24.6446 2.36201 25.3727 1.9983 26.1201C1.18419 27.8982 0.969658 29.9387 1.0137 31.877C1.05632 33.4727 1.20693 35.0891 1.69851 36.624C1.93436 37.3314 2.23414 38.0387 2.74846 38.6245C3.11218 39.0279 3.66912 39.3926 4.24738 39.412C4.80432 39.4327 5.38258 39.2296 5.81023 38.9063C6.28192 38.543 6.60302 38.018 6.81613 37.4916C7.35177 36.1584 7.45832 34.6028 7.13723 33.2088C7.05198 32.764 6.92269 32.3205 6.7522 31.9157C6.68827 31.7941 6.45242 31.2899 6.45242 31.1683C6.45242 31.1075 6.51635 31.0274 6.58029 30.9859C7.47964 32.0359 7.84335 33.4299 8.50827 34.6221C9.08653 35.6528 9.77134 36.642 10.4789 37.5911C10.8426 38.076 11.2291 38.5402 11.6567 38.9643C11.8073 39.1053 11.9778 39.2476 12.1497 39.3484C13.0491 39.8541 14.656 39.6316 15.4047 38.945L15.4033 38.9464Z" fill="#FF91B2"/>
<path d="M18.8292 38.4206C18.5933 37.209 18.8931 35.9559 19.065 34.7236C19.5581 31.0873 21.3994 27.4718 23.9695 24.7032C24.5904 24.0567 25.19 23.37 25.9402 22.9058C26.5184 22.5425 27.2032 22.3601 27.8681 22.28C28.9607 22.1791 30.1599 22.3601 31.1444 22.8257C31.9585 23.2098 32.6434 23.7955 33.2429 24.4421C34.1849 25.4313 34.9351 26.6042 35.5773 27.8158C36.434 29.4322 37.0975 31.1495 37.5692 32.9068C37.9329 34.3008 38.1687 35.7349 38.1048 37.1689C38.0835 37.8155 38.0409 38.4814 37.8263 39.0879C37.6985 39.4719 37.4626 39.856 37.1628 40.1379C36.6272 40.6021 35.8557 40.8452 35.1496 40.9654C33.9931 41.1478 32.794 41.1063 31.6801 40.8438C31.0166 40.7029 30.373 40.3188 29.8814 39.874C28.8968 38.9856 28.2106 37.8542 27.4178 36.8028C27.0967 38.0144 26.6037 39.2882 25.7043 40.2166C23.4552 42.4989 19.4501 41.4697 18.8292 38.4192V38.4206ZM22.0416 39.4913C22.5346 39.4512 23.0262 39.1887 23.4126 38.8848C24.0122 38.4399 24.5052 37.8749 24.8689 37.249C25.3619 36.4616 25.6617 35.5525 25.9402 34.6835C25.9828 34.5619 26.1547 34.0369 26.1547 33.896C26.1547 33.8352 26.0481 33.7744 25.9828 33.7344C25.7896 33.6736 25.5978 33.6543 25.3832 33.6335C25.8336 33.5727 28.4038 33.2094 28.8314 33.1279C28.8954 33.1279 28.9806 33.2287 29.0247 33.2495C28.6823 33.4512 28.3185 33.6128 27.9534 33.7344C28.1679 34.8451 28.3384 35.9974 28.7675 37.0473C29.046 37.7547 29.4964 38.462 30.1599 38.9055C30.6315 39.2288 31.2098 39.4913 31.7881 39.4512C32.3663 39.3904 32.9446 39.0672 33.3509 38.6637C33.7786 38.2189 34.1011 37.6331 34.2289 37.028C34.3795 36.3814 34.3795 35.6741 34.3568 35.0082C34.2929 33.9582 34.121 32.9068 33.8212 31.8969C33.5214 30.8663 31.7227 26.5034 31.1231 25.6137C30.6088 24.8455 29.8814 24.1589 29.0247 23.7347C28.5316 23.493 27.9321 23.3313 27.3965 23.4515C26.5823 23.6339 25.8975 24.1782 25.3193 24.7447C23.2421 26.846 21.6565 29.4917 20.7998 32.2589C20.3935 33.552 20.115 34.8852 20.0283 36.2391C20.007 36.8249 19.9857 37.4507 20.1136 38.0365C20.1775 38.3197 20.2855 38.6223 20.4986 38.8641C20.6918 39.0464 20.9049 39.2274 21.1621 39.349C21.4193 39.4706 21.7404 39.5314 22.0401 39.4899L22.0416 39.4913ZM26.8821 30.8456C25.2113 30.8456 24.5265 28.9667 25.3406 27.5533C25.8762 26.6443 27.0114 25.9577 27.996 26.4219C28.4237 26.6236 28.7888 26.9869 29.0019 27.3917C29.9226 28.9266 28.7448 30.8456 26.8821 30.8456ZM27.054 29.7956C27.6749 29.7956 28.2958 29.2706 28.3612 28.6848C28.4038 28.4624 28.3185 28.1792 28.1253 28.0175C27.9534 27.896 27.719 27.8559 27.5044 27.8766C26.7756 27.8973 26.1973 28.6448 26.4119 29.3107C26.4971 29.6132 26.7543 29.7956 27.054 29.7956Z" fill="#FF91B2"/>
<path d="M48.8385 40.8253C47.8312 39.9977 47.2529 38.8055 46.5468 37.7348C46.3536 38.8055 45.8407 39.8762 45.0692 40.6844C44.6415 41.1486 44.0633 41.5727 43.441 41.7551C42.948 41.896 42.4123 41.8766 41.9208 41.7551C41.128 41.5727 40.4005 41.0878 39.8223 40.5628C38.859 39.6938 38.1088 38.543 37.7664 37.33C37.5093 36.3808 37.424 35.3903 37.3601 34.4204C37.2535 32.4614 37.3175 30.4816 37.6385 28.542C37.8105 27.4105 38.0449 26.2596 38.6231 25.2497C38.8803 24.8463 39.2227 24.4816 39.5864 24.139C40.0155 23.7148 40.4858 23.3114 41.0214 22.9674C41.5783 22.6234 42.3072 22.5032 42.9707 22.5032C44.4057 22.5032 45.8833 23.0282 47.0824 23.7756C47.5101 24.0588 48.067 23.8765 48.3455 23.4523C48.9024 22.7049 49.8444 22.0984 50.8091 21.9368C51.9869 21.7751 53.2727 22.1385 54.2573 22.7643C55.178 23.3501 55.9281 24.1984 56.3771 25.1475C56.8701 26.1781 57.1699 27.3096 57.3191 28.4204C57.5549 30.2178 57.4469 32.0359 57.2978 33.8347C57.1486 35.6735 56.998 37.5717 56.2052 39.2683C55.8841 40.0157 55.3911 40.7424 54.685 41.2273C54.2786 41.5299 52.6078 41.8338 52.1148 41.8739C50.9583 41.954 49.6952 41.5299 48.8385 40.8239V40.8253ZM52.7144 38.9464C53.0355 38.6438 53.2713 38.239 53.4432 37.8356C53.9362 36.7442 54.1721 35.5533 54.3852 34.4011C54.6637 32.7653 54.8356 31.1089 54.8356 29.4524C54.8569 27.9576 54.685 26.4019 54.1294 25.008C53.4873 23.4731 51.7099 22.4632 50.2095 23.3308C49.5887 23.6941 49.1383 24.3199 48.8598 24.9472C48.3881 25.9778 48.2602 27.1494 48.2815 28.2601C48.2815 30.1183 48.6026 31.9765 49.2235 33.7145C49.3088 33.9562 48.9024 33.5528 48.7944 33.3304C48.2375 32.1989 47.959 30.9472 47.8099 29.6942C47.7033 28.926 46.1817 26.0372 45.7966 25.3312C45.1331 24.1597 43.4197 23.089 42.0699 23.433C41.5982 23.5546 41.1706 23.8171 40.8069 24.1196C40.1434 24.6446 39.6717 25.3727 39.308 26.1201C38.4939 27.8982 38.2793 29.9387 38.3234 31.877C38.366 33.4727 38.5166 35.0891 39.0082 36.624C39.244 37.3314 39.5438 38.0387 40.0581 38.6245C40.4218 39.0279 40.9788 39.3926 41.557 39.412C42.114 39.4327 42.6922 39.2296 43.1199 38.9063C43.5916 38.543 43.9127 38.018 44.1272 37.4916C44.6628 36.1584 44.7694 34.6028 44.4483 33.2088C44.3631 32.764 44.2338 32.3205 44.0633 31.9157C43.9993 31.7941 43.7635 31.2899 43.7635 31.1683C43.7635 31.1075 43.8274 31.0274 43.8914 30.9859C44.7907 32.0359 45.1544 33.4299 45.8194 34.6221C46.3976 35.6528 47.0824 36.642 47.79 37.5911C48.1537 38.076 48.5401 38.5402 48.9678 38.9643C49.117 39.1053 49.2889 39.2476 49.4608 39.3484C50.3601 39.8541 51.967 39.6316 52.7158 38.945L52.7144 38.9464Z" fill="#FF91B2"/>
<path d="M68.3697 40.8253C67.3638 39.9977 66.7842 38.8055 66.078 37.7348C65.8848 38.8055 65.3719 39.8762 64.6004 40.6844C64.1714 41.1486 63.5931 41.5727 62.9722 41.7551C62.4792 41.896 61.9436 41.8766 61.452 41.7551C60.6592 41.5727 59.9318 41.0878 59.3535 40.5628C58.3902 39.6938 57.6401 38.543 57.2977 37.33C57.0405 36.3808 56.9553 35.3903 56.8913 34.4204C56.7848 32.4614 56.8487 30.4816 57.1698 28.542C57.3417 27.4105 57.5761 26.2596 58.1544 25.2497C58.4116 24.8463 58.754 24.4816 59.1177 24.139C59.5453 23.7148 60.017 23.3114 60.5527 22.9674C61.1096 22.6234 61.837 22.5032 62.502 22.5032C63.9369 22.5032 65.4145 23.0282 66.6137 23.7756C67.0427 24.0588 67.5997 23.8765 67.8767 23.4523C68.4337 22.7049 69.3756 22.0984 70.3404 21.9368C71.5182 21.7751 72.804 22.1385 73.7886 22.7643C74.7092 23.3501 75.4594 24.1984 75.9084 25.1475C76.4014 26.1781 76.7012 27.3096 76.8503 28.4204C77.0862 30.2178 76.9782 32.0359 76.829 33.8347C76.6798 35.6735 76.5292 37.5717 75.7364 39.2683C75.4153 40.0157 74.9223 40.7424 74.2162 41.2273C73.8099 41.5299 72.1391 41.8338 71.646 41.8739C70.4895 41.954 69.225 41.5299 68.3683 40.8239L68.3697 40.8253ZM72.247 38.9464C72.5681 38.6438 72.804 38.239 72.9759 37.8356C73.4689 36.7442 73.7047 35.5533 73.9179 34.4011C74.1963 32.7653 74.3682 31.1089 74.3682 29.4524C74.3896 27.9576 74.2191 26.4019 73.6621 25.008C73.0199 23.4731 71.2425 22.4632 69.7422 23.3308C69.1213 23.6941 68.671 24.3199 68.3925 24.9472C67.9208 25.9778 67.7929 27.1494 67.8142 28.2601C67.8142 30.1183 68.1353 31.9765 68.7562 33.7145C68.8414 33.9562 68.4351 33.5528 68.3285 33.3304C67.7716 32.1989 67.4931 30.9472 67.344 29.6942C67.2374 28.926 65.7157 26.0372 65.3307 25.3312C64.6672 24.1597 62.9538 23.089 61.604 23.433C61.1323 23.5546 60.7047 23.8171 60.341 24.1196C59.6775 24.6446 59.2058 25.3727 58.842 26.1201C58.0279 27.8982 57.8134 29.9387 57.8575 31.877C57.9001 33.4727 58.0507 35.0891 58.5423 36.624C58.7781 37.3314 59.0779 38.0387 59.5922 38.6245C59.9559 39.0279 60.5129 39.3926 61.0911 39.412C61.6481 39.4327 62.2263 39.2296 62.654 38.9063C63.1257 38.543 63.4468 38.018 63.6599 37.4916C64.1955 36.1584 64.3021 34.6028 63.981 33.2088C63.8957 32.764 63.7664 32.3205 63.5959 31.9157C63.532 31.7941 63.2962 31.2899 63.2962 31.1683C63.2962 31.1075 63.3601 31.0274 63.424 30.9859C64.3234 32.0359 64.6871 33.4299 65.352 34.6221C65.9303 35.6528 66.6151 36.642 67.3226 37.5911C67.6864 38.076 68.0728 38.5402 68.5005 38.9643C68.6511 39.1053 68.8216 39.2476 68.9935 39.3484C69.8928 39.8541 71.4997 39.6316 72.2484 38.945L72.247 38.9464Z" fill="#FF91B2"/>
<path d="M85.6969 41.9552C85.2465 41.875 84.7975 41.6526 84.4111 41.3901C83.7476 40.9452 83.1907 40.3802 82.719 39.7544C82.3339 39.2487 81.9901 38.6629 81.8409 38.0578C81.3905 36.3806 81.5198 34.6233 81.6264 32.8867C80.1488 31.4526 78.4566 30.1996 77.2362 28.5638C76.8085 27.9988 76.3582 27.3923 76.1649 26.7056C75.9291 25.979 75.9717 25.1901 76.2502 24.4841C76.55 23.716 77.1495 23.01 77.8571 22.5444C78.799 21.8979 80.0422 21.5746 81.1987 21.6146C81.8409 21.6354 82.5058 21.797 83.1054 22.0595C84.2193 22.5044 85.2252 23.2311 86.0606 24.0793C86.1459 24.1802 86.2751 24.281 86.403 24.3211C86.5749 24.3612 86.7667 24.3211 86.9386 24.241C87.1958 24.1194 87.4103 23.9578 87.6235 23.7768C88.3736 23.1095 89.209 22.5044 90.1297 22.0996C90.7932 21.8164 91.5647 21.6354 92.2935 21.7155C93.0863 21.8164 93.8564 22.2004 94.4346 22.7254C95.3766 23.6137 95.9975 24.9276 95.9975 26.1793C96.0188 26.725 95.8696 27.29 95.5911 27.775C94.6065 29.5116 93.1275 30.9663 91.7139 32.4211C91.4993 32.6228 90.7293 33.3302 90.6639 33.6134C90.6 33.9367 90.6213 35.6733 90.6 36.0173C90.5787 36.9871 90.4934 37.9763 90.1936 38.9268C89.9791 39.5941 89.6154 40.26 89.1437 40.8057C88.8652 41.129 88.4802 41.3708 88.0937 41.5531C87.3649 41.8764 86.4868 42.0988 85.6955 41.9565L85.6969 41.9552ZM84.8615 39.4698C85.5676 39.4297 86.2538 38.924 86.6602 38.359C87.1106 37.7124 87.345 36.9249 87.4743 36.1568C87.6462 35.0861 87.6021 33.9753 87.5169 32.8839C87.453 31.6115 90.151 29.6318 91.137 28.742C91.6727 28.2778 92.1444 27.7529 92.5507 27.1657C92.9144 26.6601 93.2142 26.1157 93.3435 25.53C93.622 24.2769 92.8718 22.9644 91.5235 22.8428C90.9026 22.7821 90.2604 23.0252 89.7035 23.307C88.2898 24.0945 87.1759 25.3476 86.2553 26.6407C85.6983 27.3881 85.184 28.1963 84.799 29.0446C84.799 29.0653 84.6057 29.1247 84.5844 29.1054C84.5631 29.0653 84.4566 28.9838 84.4779 28.9438C84.6285 28.4188 84.9709 27.9338 85.1414 27.3881C85.2479 27.0648 85.2479 26.6614 85.0774 26.3575C84.5844 25.3669 83.7277 24.5187 82.7857 23.8928C81.9716 23.3678 81.0083 22.9437 80.0436 22.963C78.3089 23.0031 76.9805 24.4786 77.3456 26.0743C77.4948 26.7208 77.9025 27.3066 78.3302 27.8316C78.9084 28.579 79.616 29.2256 80.3434 29.8514C80.943 30.3364 81.5639 30.8213 82.2501 31.1846C82.378 31.2647 82.486 31.367 82.5286 31.5079C82.6792 31.8312 82.6564 32.2153 82.6351 32.5579C82.486 33.8911 82.378 35.2643 82.5712 36.5782C82.7431 37.9114 83.4279 39.5678 84.8629 39.467L84.8615 39.4698Z" fill="#FF91B2"/>
<path d="M72.2469 38.9461C72.568 38.6436 72.8039 38.2388 72.9758 37.8354C73.4688 36.744 73.7046 35.5531 73.9178 34.4009C74.1962 32.7651 74.3682 31.1086 74.3682 29.4522C74.3895 27.9573 74.219 26.4017 73.662 25.0077C73.0198 23.4728 71.2425 22.4629 69.7421 23.3305C69.1212 23.6939 68.6709 24.3197 68.3924 24.9469C67.9207 25.9776 67.7928 27.1491 67.8141 28.2599C67.8141 30.1181 68.1352 31.9762 68.7561 33.7142C68.8414 33.956 68.435 33.5526 68.3285 33.3302C67.7715 32.1987 67.493 30.947 67.3439 29.6939C67.2373 28.9258 65.7156 26.037 65.3306 25.331C64.6671 24.1595 62.9537 23.0888 61.6039 23.4328C61.1322 23.5543 60.7046 23.8168 60.3409 24.1194C59.6774 24.6444 59.2057 25.3724 58.842 26.1199C58.0279 27.8979 57.8133 29.9385 57.8574 31.8768C57.9 33.4725 58.0506 35.0889 58.5422 36.6238C58.778 37.3311 59.0778 38.0385 59.5921 38.6242C59.9558 39.0277 60.5128 39.3924 61.091 39.4117C61.648 39.4324 62.2262 39.2294 62.6539 38.9061C63.1256 38.5427 63.4467 38.0177 63.6598 37.4914C64.1954 36.1582 64.302 34.6026 63.9809 33.2086C63.8956 32.7637 63.7663 32.3202 63.5959 31.9155C63.5319 31.7939 63.2961 31.2896 63.2961 31.168C63.2961 31.1072 63.36 31.0271 63.4239 30.9857C64.3233 32.0356 64.687 33.4296 65.3519 34.6219C65.9302 35.6525 66.615 36.6417 67.3225 37.5908C67.6863 38.0758 68.0727 38.54 68.5004 38.9641C68.651 39.105 68.8215 39.2473 68.9934 39.3482C69.8927 39.8538 71.4996 39.6314 72.2484 38.9448L72.2469 38.9461Z" fill="#FDF8F5"/>
<path d="M84.862 39.4698C85.5681 39.4297 86.2543 38.924 86.6607 38.359C87.1111 37.7124 87.3455 36.9249 87.4748 36.1568C87.6467 35.0861 87.6027 33.9753 87.5174 32.8839C87.4535 31.6115 90.1515 29.6318 91.1375 28.742C91.6732 28.2778 92.1449 27.7529 92.5512 27.1657C92.9149 26.6601 93.2147 26.1157 93.344 25.53C93.6225 24.2769 92.8723 22.9644 91.524 22.8428C90.9031 22.7821 90.2609 23.0252 89.704 23.307C88.2903 24.0945 87.1764 25.3476 86.2558 26.6407C85.6988 27.3881 85.1845 28.1963 84.7995 29.0446C84.7995 29.0653 84.6062 29.1247 84.5849 29.1054C84.5636 29.0653 84.4571 28.9838 84.4784 28.9438C84.629 28.4188 84.9714 27.9338 85.1419 27.3881C85.2484 27.0648 85.2484 26.6614 85.0779 26.3575C84.5849 25.3669 83.7282 24.5187 82.7862 23.8928C81.9721 23.3678 81.0088 22.9437 80.0441 22.963C78.3094 23.0031 76.981 24.4786 77.3461 26.0743C77.4953 26.7208 77.903 27.3066 78.3307 27.8316C78.9089 28.579 79.6165 29.2256 80.3439 29.8514C80.9435 30.3364 81.5644 30.8213 82.2506 31.1846C82.3785 31.2647 82.4865 31.367 82.5291 31.5079C82.6797 31.8312 82.6569 32.2153 82.6356 32.5579C82.4865 33.8911 82.3785 35.2643 82.5717 36.5782C82.7436 37.9114 83.4284 39.5678 84.8634 39.467L84.862 39.4698Z" fill="#FDF8F5"/>
<path d="M52.7127 38.9461C53.0338 38.6436 53.2697 38.2388 53.4416 37.8354C53.9346 36.744 54.1705 35.5531 54.3836 34.4009C54.662 32.7651 54.834 31.1086 54.834 29.4522C54.8553 27.9573 54.6834 26.4017 54.1278 25.0077C53.4856 23.4728 51.7083 22.4629 50.2079 23.3305C49.5871 23.6939 49.1367 24.3197 48.8582 24.9469C48.3865 25.9776 48.2586 27.1491 48.2799 28.2599C48.2799 30.1181 48.601 31.9762 49.2219 33.7142C49.3072 33.956 48.9008 33.5526 48.7928 33.3302C48.2359 32.1987 47.9574 30.947 47.8082 29.6939C47.7017 28.9258 46.18 26.037 45.795 25.331C45.1315 24.1595 43.4181 23.0888 42.0683 23.4328C41.5966 23.5543 41.169 23.8168 40.8053 24.1194C40.1418 24.6444 39.6701 25.3724 39.3063 26.1199C38.4922 27.8979 38.2777 29.9385 38.3218 31.8768C38.3644 33.4725 38.515 35.0889 39.0066 36.6238C39.2424 37.3311 39.5422 38.0385 40.0565 38.6242C40.4202 39.0277 40.9772 39.3924 41.5554 39.4117C42.1124 39.4324 42.6906 39.2294 43.1183 38.9061C43.59 38.5427 43.9111 38.0177 44.1256 37.4914C44.6612 36.1582 44.7678 34.6026 44.4467 33.2086C44.3615 32.7637 44.2322 32.3202 44.0617 31.9155C43.9977 31.7939 43.7619 31.2896 43.7619 31.168C43.7619 31.1072 43.8258 31.0271 43.8898 30.9857C44.7891 32.0356 45.1528 33.4296 45.8177 34.6219C46.396 35.6525 47.0808 36.6417 47.7884 37.5908C48.1521 38.0758 48.5385 38.54 48.9662 38.9641C49.1154 39.105 49.2873 39.2473 49.4592 39.3482C50.3585 39.8538 51.9654 39.6314 52.7142 38.9448L52.7127 38.9461Z" fill="#FDF8F5"/>
<path fill-rule="evenodd" clip-rule="evenodd" d="M22.0426 39.4919C22.5356 39.4518 23.0272 39.1893 23.4136 38.8854C24.0132 38.4405 24.5062 37.8754 24.8699 37.2496C25.3629 36.4621 25.6627 35.5531 25.9412 34.6841C25.9838 34.5625 26.1557 34.0375 26.1557 33.8966C26.1557 33.8358 26.0491 33.775 25.9838 33.735C25.7906 33.6742 25.5988 33.6548 25.3842 33.6341C25.8346 33.5733 28.4048 33.21 28.8324 33.1285C28.8964 33.1285 28.9816 33.2293 29.0257 33.25C28.6832 33.4517 28.3195 33.6134 27.9544 33.735C28.1689 34.8457 28.3394 35.9979 28.7685 37.0479C29.047 37.7552 29.4973 38.4626 30.1608 38.9061C30.6325 39.2294 31.2108 39.4919 31.7891 39.4518C32.3673 39.391 32.9456 39.0677 33.3519 38.6643C33.7796 38.2194 34.1021 37.6337 34.2299 37.0286C34.3805 36.382 34.3805 35.6746 34.3578 35.0087C34.2939 33.9588 34.122 32.9074 33.8222 31.8975C33.5224 30.8669 31.7237 26.5039 31.1241 25.6142C30.6098 24.8461 29.8824 24.1595 29.0257 23.7353C28.5326 23.4935 27.9331 23.3319 27.3974 23.4521C26.5833 23.6345 25.8985 24.1788 25.3203 24.7452C23.2431 26.8466 21.6575 29.4922 20.8008 32.2595C20.3945 33.5526 20.116 34.8858 20.0293 36.2397C20.008 36.8255 19.9867 37.4513 20.1146 38.0371C20.1785 38.3203 20.2865 38.6229 20.4996 38.8646C20.6928 39.047 20.9059 39.228 21.1631 39.3496C21.4203 39.4711 21.7414 39.5319 22.0411 39.4905L22.0426 39.4919ZM25.3416 27.5539C24.5275 28.9672 25.2123 30.8461 26.8831 30.8461C28.7458 30.8461 29.9236 28.9272 29.0029 27.3923C28.7898 26.9875 28.4247 26.6241 27.997 26.4224C27.0124 25.9582 25.8772 26.6449 25.3416 27.5539Z" fill="#FDF8F5"/>
<path d="M15.4033 38.9461C15.7244 38.6436 15.9602 38.2388 16.1321 37.8354C16.6251 36.744 16.861 35.5531 17.0741 34.4009C17.3526 32.7651 17.5245 31.1086 17.5245 29.4522C17.5458 27.9573 17.3753 26.4017 16.8184 25.0077C16.1762 23.4728 14.3988 22.4629 12.8985 23.3305C12.2776 23.6939 11.8272 24.3197 11.5487 24.9469C11.077 25.9776 10.9492 27.1491 10.9705 28.2599C10.9705 30.1181 11.2916 31.9762 11.9124 33.7142C11.9977 33.956 11.5913 33.5526 11.4848 33.3302C10.9278 32.1987 10.6494 30.947 10.5002 29.6939C10.3936 28.9258 8.87199 26.037 8.48696 25.331C7.82346 24.1595 6.11001 23.0888 4.76028 23.4328C4.28858 23.5543 3.86093 23.8168 3.49721 24.1194C2.83371 24.6444 2.36201 25.3724 1.9983 26.1199C1.18419 27.8979 0.969658 29.9385 1.0137 31.8768C1.05632 33.4725 1.20693 35.0889 1.69851 36.6238C1.93436 37.3311 2.23414 38.0385 2.74846 38.6242C3.11218 39.0277 3.66912 39.3924 4.24738 39.4117C4.80432 39.4324 5.38258 39.2294 5.81023 38.9061C6.28192 38.5427 6.60302 38.0177 6.81613 37.4914C7.35176 36.1582 7.45832 34.6026 7.13723 33.2086C7.05198 32.7637 6.92269 32.3202 6.7522 31.9155C6.68826 31.7939 6.45242 31.2896 6.45242 31.168C6.45242 31.1072 6.51635 31.0271 6.58029 30.9857C7.47963 32.0356 7.84335 33.4296 8.50827 34.6219C9.08653 35.6525 9.77134 36.6417 10.4789 37.5908C10.8426 38.0758 11.2291 38.54 11.6567 38.9641C11.8073 39.105 11.9778 39.2473 12.1497 39.3482C13.0491 39.8538 14.656 39.6314 15.4047 38.9448L15.4033 38.9461Z" fill="#FDF8F5"/>
</svg>
