<svg width="15" height="18" viewBox="0 0 15 18" fill="none" xmlns="http://www.w3.org/2000/svg">
<path d="M13.8889 1.1565C13.7156 0.927115 13.3146 0.969634 13.1006 1.1565L13.1873 1.07705C12.3219 1.84072 9.60869 5.21933 6.91009 8.64606C6.51078 7.9126 6.1454 7.19705 5.82335 6.52401C4.42133 3.59297 3.76051 1.43063 3.75581 1.42672C3.6676 1.14475 3.38678 0.993132 3.12579 1.08544C2.86324 1.17776 2.72179 1.48155 2.80791 1.76072C2.81783 1.78478 3.91032 5.34466 6.22788 9.51435C4.11806 12.202 2.11369 14.7856 1.12194 16.0153C0.941339 16.2391 0.963784 16.577 1.17309 16.7706C1.26809 16.8579 1.38397 16.9004 1.50037 16.9004C1.63922 16.9004 1.77806 16.8378 1.87724 16.7147C2.82305 15.5353 4.74234 13.0681 6.77856 10.4755C8.04904 12.6283 9.63375 14.8807 11.5619 16.8523C11.659 16.9508 11.7832 17 11.9064 17C12.039 17 12.1695 16.9441 12.2687 16.8344C12.4576 16.6218 12.4503 16.2828 12.252 16.0802C10.3123 14.0997 8.72134 11.7992 7.45608 9.61282C10.234 6.08483 13.0558 2.55796 13.8168 1.90618C14.0288 1.72212 14.0622 1.38532 13.8889 1.1565Z" fill="#333333" fill-opacity="0.4"/>
<path d="M13.4922 0.500977C13.7443 0.491977 14.0712 0.56926 14.2871 0.854492L14.3447 0.938477C14.6073 1.36665 14.5337 1.94504 14.1445 2.2832L14.1416 2.28613C13.9836 2.42154 13.6875 2.73591 13.2695 3.2168C12.8594 3.68864 12.3527 4.29678 11.7803 4.99707C10.6938 6.32622 9.37869 7.97973 8.06055 9.65234C9.28321 11.7263 10.7928 13.8757 12.6094 15.7305L12.6768 15.8066C12.9928 16.2009 12.9821 16.785 12.6426 17.167L12.5645 17.2451C12.3818 17.4096 12.1489 17.5 11.9062 17.5C11.6482 17.5 11.3963 17.3961 11.2061 17.2031L11.2041 17.2021C9.42719 15.3852 7.94361 13.3384 6.72559 11.3535C4.86149 13.7298 3.14578 15.9323 2.26758 17.0273L2.2666 17.0283C2.07372 17.2677 1.79204 17.4004 1.5 17.4004C1.28897 17.4003 1.08148 17.3318 0.907227 17.1992L0.834961 17.1387L0.833984 17.1377C0.427896 16.7621 0.38985 16.1258 0.732422 15.7012L1.65039 14.5479C2.68289 13.238 4.12021 11.3908 5.63184 9.46387C3.40778 5.39084 2.33735 1.93281 2.3457 1.95117L2.33691 1.92969L2.33008 1.9082C2.17254 1.39754 2.4199 0.803163 2.95996 0.613281V0.614258C3.49952 0.42387 4.03469 0.735489 4.21582 1.23047C4.21821 1.23605 4.21991 1.2402 4.2207 1.24219C4.22416 1.25087 4.22659 1.25809 4.22754 1.26074C4.22966 1.2667 4.23151 1.27265 4.23242 1.27539C4.23455 1.28177 4.2376 1.28972 4.24023 1.29785C4.24596 1.3155 4.25316 1.33982 4.26367 1.37207C4.28444 1.43579 4.31599 1.53026 4.35742 1.65234C4.44041 1.89689 4.56508 2.25427 4.7334 2.70215C5.07033 3.59865 5.58079 4.85851 6.27441 6.30859L6.52051 6.81445C6.66977 7.1158 6.82787 7.4238 6.99219 7.7373C8.18237 6.22974 9.35433 4.75785 10.3496 3.5459C11.3932 2.2751 12.271 1.25481 12.7637 0.790039L12.7627 0.788086L12.8496 0.708008V0.708984C12.852 0.706835 12.854 0.704264 12.8564 0.702148L12.8623 0.709961C13.0492 0.579538 13.2755 0.508723 13.4922 0.500977Z" stroke="#333333" stroke-opacity="0.4"/>
</svg>
