<svg width="18" height="18" viewBox="0 0 18 18" fill="none" xmlns="http://www.w3.org/2000/svg">
<path d="M4.32422 0.8125C4.43519 0.822021 4.5436 0.84971 4.64551 0.893555L4.74902 0.944336C4.84923 1.00138 4.93884 1.07495 5.01465 1.16113L5.08594 1.25195L5.0918 1.25977L5.09863 1.26855C5.10376 1.27614 5.13571 1.32059 5.19727 1.4082C5.26462 1.50408 5.35986 1.6415 5.47266 1.80762C5.69835 2.14002 5.99492 2.5889 6.28516 3.06445C6.57623 3.54139 6.8575 4.03998 7.05566 4.47168C7.15485 4.68775 7.23043 4.88156 7.27637 5.04395C7.31209 5.17027 7.32596 5.26257 7.32617 5.3252L7.32227 5.37793C7.27836 5.62674 7.14932 5.79617 6.82617 6.08496L6.43359 6.4209V6.42188C6.3355 6.50436 6.09966 6.70231 5.92969 6.8584L5.81152 6.9668L5.86133 7.12012C5.96867 7.44956 6.0987 7.77127 6.25195 8.08203V8.08105C7.03075 9.68053 8.32333 10.9732 9.92285 11.752V11.751C10.2334 11.9039 10.5547 12.0352 10.8838 12.1426L11.0361 12.1924L11.1455 12.0742L11.5791 11.5723C12.0371 11.0272 12.2406 10.7987 12.5059 10.7109L12.624 10.6816H12.627C12.6851 10.6707 12.7937 10.6763 12.9619 10.7227C13.1239 10.7673 13.3169 10.8422 13.5322 10.9404C13.9627 11.1368 14.4591 11.4179 14.9346 11.709C15.4088 11.9993 15.8569 12.2962 16.1895 12.5234C16.3556 12.637 16.4931 12.7323 16.5898 12.8008C16.686 12.8688 16.7357 12.9057 16.7393 12.9082L16.7451 12.9131L16.751 12.917C16.8763 13.005 16.981 13.1198 17.0566 13.2529C17.13 13.3822 17.1736 13.5259 17.1865 13.6738C17.1848 13.7293 17.1559 13.831 17.0654 13.9844C16.976 14.136 16.8427 14.3126 16.6738 14.5059C16.3366 14.8916 15.8755 15.3224 15.3906 15.7275C14.9063 16.1322 14.4048 16.5057 13.9893 16.7764C13.7812 16.9118 13.5986 17.0195 13.4531 17.0918C13.3803 17.128 13.3199 17.1539 13.2734 17.1699C13.2301 17.1848 13.2099 17.1871 13.207 17.1875C13.2155 17.1874 9.90208 17.1511 5.64648 13.1699L5.23145 12.7715C0.851311 8.31456 0.812635 4.78401 0.8125 4.79297C0.812909 4.79007 0.815179 4.76983 0.830078 4.72656C0.846061 4.68018 0.872064 4.62057 0.908203 4.54785C0.980514 4.4024 1.08811 4.21981 1.22363 4.01172C1.49431 3.59614 1.86771 3.09381 2.27246 2.60938C2.6776 2.12449 3.10845 1.66343 3.49414 1.32617C3.68735 1.15725 3.864 1.024 4.01562 0.93457C4.16726 0.845135 4.26831 0.814854 4.32422 0.8125Z" fill="#FFF4F1" stroke="#FF91B2" stroke-width="0.5"/>
</svg>
