<svg width="19" height="18" viewBox="0 0 19 18" fill="none" xmlns="http://www.w3.org/2000/svg">
<path d="M7.92567 17C7.75865 17 7.59848 16.9339 7.48038 16.8162C7.36228 16.6986 7.29594 16.539 7.29594 16.3726V10.3396L1.45831 3.94274C1.22852 3.69043 1.07716 3.37709 1.02262 3.04073C0.968073 2.70438 1.01268 2.35948 1.15104 2.0479C1.28939 1.73632 1.51554 1.47145 1.80204 1.28544C2.08853 1.09943 2.42306 1.00027 2.76501 1H16.235C16.5769 1.00027 16.9115 1.09943 17.198 1.28544C17.4845 1.47145 17.7106 1.73632 17.849 2.0479C17.9873 2.35948 18.0319 2.70438 17.9774 3.04073C17.9228 3.37709 17.7715 3.69043 17.5417 3.94274L11.7041 10.3396V13.8627C11.704 13.9567 11.6828 14.0495 11.6419 14.1342C11.601 14.2189 11.5416 14.2934 11.4679 14.3522L8.31925 16.862C8.20761 16.9512 8.06879 16.9999 7.92567 17ZM2.76501 2.2549C2.66702 2.25515 2.5712 2.28368 2.48914 2.33706C2.40709 2.39044 2.34232 2.46637 2.30268 2.55566C2.26304 2.64495 2.25021 2.74377 2.26577 2.84017C2.28132 2.93657 2.32458 3.02641 2.39032 3.09882L8.39167 9.68706C8.49449 9.79972 8.55268 9.94579 8.5554 10.098V15.0675L10.4446 13.549V10.098C10.4442 9.94145 10.5026 9.79039 10.6083 9.67451L16.6097 3.08627C16.6715 3.01354 16.7114 2.92486 16.7248 2.83049C16.7382 2.73611 16.7245 2.63989 16.6853 2.55294C16.6461 2.46599 16.583 2.39187 16.5033 2.33913C16.4237 2.28639 16.3306 2.25719 16.235 2.2549H2.76501Z" fill="#333333"/>
<path d="M16.2354 0.950195L16.3662 0.955078C16.6717 0.977362 16.9678 1.07576 17.2256 1.24316L17.333 1.31934C17.5766 1.5039 17.7701 1.74721 17.8945 2.02734L17.9434 2.14941C18.032 2.39574 18.066 2.65828 18.043 2.91895L18.0264 3.04883C17.9773 3.35148 17.8519 3.63577 17.6631 3.87598L17.5791 3.97656L11.7539 10.3584V13.8623L11.75 13.9385C11.7443 13.9888 11.7326 14.0382 11.7158 14.0859L11.6865 14.1562C11.6534 14.2248 11.6093 14.2872 11.5557 14.3408L11.499 14.3916L8.35059 16.9014C8.26017 16.9736 8.15301 17.0207 8.04004 17.04L7.92578 17.0498C7.79073 17.0498 7.65962 17.0101 7.54883 16.9365L7.44531 16.8516C7.31782 16.7245 7.24609 16.5518 7.24609 16.3721V10.3584L1.4209 3.97656C1.21429 3.74967 1.06966 3.47448 0.999023 3.17773L0.973633 3.04883C0.917533 2.70288 0.963175 2.3478 1.10547 2.02734L1.16309 1.91016C1.30693 1.64068 1.51662 1.41057 1.77441 1.24316L1.8877 1.17578C2.15555 1.02826 2.4572 0.950491 2.76465 0.950195H16.2354ZM8.60547 14.9629L10.3945 13.5244V10.0977C10.3943 9.92872 10.4573 9.7656 10.5713 9.64062L16.5723 3.05273C16.6275 2.98738 16.6628 2.9078 16.6748 2.82324L16.6797 2.75977C16.6797 2.71717 16.674 2.67472 16.6621 2.63379L16.6396 2.57324C16.6043 2.49501 16.5473 2.42835 16.4756 2.38086C16.4217 2.34522 16.3612 2.32104 16.2979 2.31055L16.2334 2.30469H2.76465C2.67652 2.305 2.59039 2.33095 2.5166 2.37891C2.46117 2.41496 2.41384 2.4622 2.37891 2.51758L2.34863 2.57617C2.31297 2.65654 2.30146 2.74528 2.31543 2.83203L2.33008 2.89648C2.34974 2.95881 2.38339 3.01658 2.42773 3.06543L8.42871 9.65332L8.50293 9.75098C8.56742 9.85418 8.60319 9.9736 8.60547 10.0967V14.9629Z" stroke="#333333" stroke-opacity="0.4" stroke-width="0.1"/>
</svg>
