<svg width="16" height="16" viewBox="0 0 16 16" fill="none" xmlns="http://www.w3.org/2000/svg">
<g clip-path="url(#clip0_750_2161)">
<path d="M15.975 4.39071C15.975 4.39071 15.9906 4.41883 15.9969 4.39071C16.0031 4.36258 16.0031 4.33133 15.9937 4.30321H15.9844L15.975 4.29696L15.9625 4.29071C15.9719 4.23133 15.9531 4.17821 15.9625 4.12196L15.9688 4.09383L15.9375 4.01258L15.9594 3.95946L15.9187 3.86571C15.9281 3.85008 15.9375 3.83446 15.9531 3.82196C15.9625 3.78133 15.9219 3.74383 15.9281 3.71883L15.9406 3.66258C15.8969 3.63133 15.9781 3.62508 15.9344 3.61258C15.9344 3.61258 15.9563 3.57508 15.9031 3.46883C15.85 3.36571 15.8344 3.36883 15.8344 3.36883C15.8344 3.36883 15.8313 3.35321 15.7937 3.32508C15.7562 3.29696 15.7125 3.32508 15.7031 3.38758C15.6938 3.45008 15.6344 3.40008 15.6313 3.40008C15.6219 3.38446 15.6156 3.37196 15.6031 3.35946C15.5656 3.33758 15.5312 3.31571 15.5 3.28758C15.4906 3.25008 15.4219 3.28133 15.4406 3.24071C15.3375 3.20321 15.2281 3.17508 15.1156 3.14383L15.0031 3.10321L14.8656 3.07196C14.8969 3.03758 14.9062 2.98758 14.8906 2.94383L14.9094 2.74383L14.8969 2.69071L14.9281 2.69696H14.9312L14.9469 2.67196L14.9531 2.64071L14.9844 2.64696C14.9688 2.62821 14.9812 2.61258 15.0031 2.61571C15.025 2.61883 15.0312 2.59071 15.0375 2.58446C15.05 2.57196 15.0625 2.55946 15.0719 2.54696L15.0781 2.52821C15.0781 2.51883 15.0781 2.51258 15.0781 2.50321C15.0781 2.49071 15.0875 2.48446 15.0844 2.47196C15.0844 2.45946 15.0813 2.45321 15.0844 2.44383C15.0875 2.43446 15.1 2.41883 15.0906 2.40633C15.0844 2.39696 15.0781 2.41571 15.0594 2.40008C15.0406 2.38446 15.0406 2.38446 15.0469 2.37821C15.0531 2.37196 15.075 2.38446 15.075 2.38446L15.0844 2.36883L15.0719 2.34696C15.0656 2.33446 15.0625 2.32196 15.0594 2.30633C15.0562 2.29071 15.05 2.27196 15.0437 2.25633L15.0219 2.22508C15.05 2.19071 15.075 2.15321 15.0938 2.11571L15.0594 2.10946L15.1094 2.01571L15.1156 2.00633C15.0938 1.97508 15.0844 1.93758 15.0844 1.90008C15.0844 1.90008 15.0969 1.92508 15.1125 1.92196L15.1062 1.89696C15.1 1.88446 15.0969 1.87821 15.1094 1.88133L15.1219 1.88446L15.1156 1.86571C15.1063 1.85946 15.1 1.85008 15.0938 1.84071V1.81258L15.0844 1.75946C15.0906 1.75633 15.0969 1.75321 15.1 1.74696C15.1094 1.73758 15.0844 1.73133 15.0844 1.73133L15.0656 1.75008C15.0656 1.72508 15.0687 1.69696 15.0719 1.67196L15.1031 1.66571C15.1031 1.66571 15.1219 1.67508 15.125 1.66883C15.1281 1.65946 15.125 1.64696 15.1156 1.64071H15.1062L15.0844 1.63446C15.0906 1.61571 15.0969 1.59696 15.1031 1.57821L15.1281 1.57508L15.1469 1.56258L15.1625 1.54071C15.1719 1.53758 15.1813 1.53446 15.1938 1.53446L15.2031 1.51258L15.1938 1.49383L15.2 1.49071L15.2094 1.48133C15.2156 1.47508 15.2031 1.46883 15.1969 1.46571H15.1938L15.175 1.48446C15.175 1.45946 15.1375 1.43758 15.1438 1.40946L15.1656 1.40633H15.175C15.175 1.40633 15.1937 1.41571 15.1969 1.40946C15.2 1.40008 15.1969 1.38758 15.1875 1.38133H15.1781L15.1687 1.37821L15.1562 1.37508C15.1625 1.35946 15.1406 1.34071 15.15 1.32196L15.1531 1.31258L15.1156 1.28446L15.1344 1.27196L15.0906 1.23446C15.1 1.23133 15.1094 1.22821 15.1187 1.22821C15.125 1.21883 15.0844 1.20008 15.0875 1.19383L15.0969 1.17821C15.0531 1.16258 15.1312 1.17508 15.0875 1.16258C15.0875 1.16258 15.1062 1.15321 15.0469 1.11258C15.025 1.09383 15 1.08133 14.975 1.07196C14.9625 1.06258 14.9469 1.05633 14.9312 1.05321C14.9156 1.04696 14.8969 1.04383 14.8781 1.04383C14.8344 1.03446 14.7938 1.01883 14.7563 1.00008C14.7344 0.968831 14.6688 1.01258 14.6781 0.968831C14.5563 0.953206 14.4313 0.953206 14.3 0.946956L14.1656 0.931331H13.8719C13.7531 0.962581 13.6281 0.968831 13.5063 0.953206C13.5063 0.953206 13.675 0.881331 13.4094 0.921956C13.2531 0.943831 13.1031 0.990706 12.9625 1.06258C12.7781 1.11571 12.5906 1.16258 12.4 1.19696C12.2375 1.22196 12.0813 1.27821 11.9375 1.35633C11.7125 1.45321 11.4875 1.55633 11.2719 1.67196L11.1219 1.77196L11.1062 1.74383H11.0938L11 1.78133L10.9 1.83446L10.8844 1.81258C10.8469 1.85633 10.7844 1.88133 10.7688 1.86571C10.7531 1.84696 10.6594 1.90321 10.6313 1.91883C10.6031 1.93446 10.5344 1.95321 10.475 1.98446L10.4219 2.01258C10.3969 2.02821 10.3719 2.04696 10.35 2.06883C10.3156 2.09696 10.2844 2.10633 10.2469 2.13758C10.2219 2.15946 10.1937 2.18133 10.1656 2.19696C10.1219 2.21883 10.0844 2.24383 10.05 2.27821C10.0281 2.30321 10.0938 2.26258 10.0688 2.30633C10.0469 2.35008 10.0469 2.35008 10.0156 2.36258C9.9875 2.37508 10 2.34071 10 2.34071L9.94687 2.37196L9.90312 2.42508C9.90312 2.42508 9.88437 2.45008 9.80625 2.52508C9.76562 2.56571 9.72813 2.60633 9.69063 2.65008L9.6375 2.73133C9.50937 2.81571 9.38437 2.90633 9.26562 3.00321L9.29062 3.02821C9.19375 3.10946 9.09688 3.19383 9.00313 3.28133L8.96875 3.30946C8.90938 3.41571 8.84375 3.51883 8.77188 3.61571C8.77188 3.61571 8.80937 3.54696 8.78125 3.55321V3.55633L8.73438 3.62821C8.71562 3.66883 8.70625 3.68133 8.69687 3.67196L8.6875 3.66571L8.65625 3.71883C8.65 3.74696 8.64062 3.77196 8.62813 3.79696L8.57812 3.87196L8.48438 4.03446C8.46875 4.04696 8.45312 4.05946 8.4375 4.07196C8.40625 4.10321 8.425 4.12508 8.425 4.12508L8.48438 4.06883L8.325 4.31883L8.27188 4.34383C8.27188 4.34383 8.26875 4.30946 8.25313 4.33133C8.23125 4.35633 8.21875 4.38758 8.21562 4.41883L8.225 4.42508L8.2375 4.44696L8.18437 4.53133C8.13437 4.39071 8.06563 4.25633 7.975 4.13758C7.975 4.13758 7.83437 3.86258 7.73125 3.60946C7.66875 3.45633 7.57812 3.31258 7.4625 3.19383C7.3125 2.99383 7.14688 2.80633 6.97188 2.62821L6.82812 2.51883L6.85 2.49383L6.84375 2.48133L6.77812 2.40321C6.75312 2.37508 6.72187 2.35008 6.69375 2.32508L6.71562 2.30008C6.6625 2.28133 6.61563 2.22821 6.62813 2.20633C6.64062 2.18446 6.55938 2.11258 6.53438 2.09071C6.5125 2.07196 6.46875 2.00633 6.42188 1.96258L6.37813 1.92508C6.35313 1.90633 6.32812 1.89071 6.30312 1.87821C6.26562 1.85633 6.24688 1.83133 6.20625 1.80633C6.17813 1.79071 6.15 1.77508 6.12187 1.75321C6.0875 1.72196 6.05 1.69383 6.00938 1.67508C5.97813 1.66571 6.0375 1.70946 5.99062 1.70321C5.94375 1.69696 5.94375 1.69696 5.92188 1.67821C5.9 1.65946 5.9375 1.65633 5.9375 1.65633L5.89062 1.61883L5.82812 1.59696C5.78438 1.58133 5.74375 1.56258 5.70312 1.54071C5.63438 1.50946 5.56875 1.48446 5.53125 1.47196C5.49687 1.46258 5.46563 1.45633 5.43125 1.45008C5.29688 1.36258 5.15938 1.28446 5.01562 1.21571L5.00313 1.25008C4.88438 1.19696 4.76562 1.14696 4.64687 1.10321L4.60313 1.08446C4.48125 1.08133 4.3625 1.06883 4.24375 1.05008C4.24375 1.05008 4.32188 1.05008 4.30312 1.03133H4.3L4.21562 1.02508C4.17188 1.02508 4.15625 1.02508 4.15938 1.01258V1.00008H4.10313C4.075 1.00633 4.05 1.01258 4.02187 1.01258L3.9375 1.00008C3.87812 0.996956 3.81562 0.993831 3.75625 0.993831C3.74062 0.984456 3.72187 0.978206 3.70312 0.971956C3.6625 0.959456 3.65625 0.984456 3.65625 0.984456L3.73125 1.00946L3.45625 0.984456L3.4125 0.950081C3.4125 0.950081 3.44062 0.931331 3.4125 0.928206C3.38437 0.921956 3.35313 0.921956 3.325 0.934456V0.943831L3.30938 0.965706L3.10625 0.943831L3.075 0.918831L3.01875 0.900081L2.925 0.884456C2.90937 0.878206 2.89375 0.868831 2.87812 0.856331L2.79375 0.846956L2.74062 0.850081L2.71875 0.843831L2.68438 0.834456C2.65313 0.828206 2.64375 0.843831 2.64062 0.850081V0.853206L2.71875 0.868831C2.62812 0.871956 2.575 0.915706 2.47813 0.915706L2.44688 0.896956L2.43125 0.887581C2.43125 0.887581 2.45625 0.868831 2.43125 0.865706C2.4 0.862581 2.36875 0.868831 2.34375 0.884456V0.893831L2.34063 0.903206L2.33437 0.915706C2.275 0.915706 2.22187 0.943831 2.1625 0.943831H2.13125L2.05625 0.996956L1.99688 0.987581L1.96875 1.00321C1.95938 1.00008 1.95 0.996956 1.94375 0.993831C1.91875 0.984456 1.89062 0.978206 1.8625 0.978206C1.84687 0.975081 1.83125 0.971956 1.81562 0.971956C1.775 0.971956 1.7375 0.981331 1.73438 0.996956C1.73438 1.01258 1.66562 1.00946 1.66562 1.00946C1.66562 1.00946 1.6375 1.01571 1.6375 1.03758C1.6375 1.05946 1.58438 1.03446 1.55938 1.01883C1.53438 1.00321 1.45312 1.02196 1.43438 1.02508C1.41563 1.02508 1.29062 1.01258 1.275 1.03758C1.26562 1.05321 1.26562 1.07508 1.275 1.09071C1.275 1.09071 1.18438 1.08758 1.16875 1.12196L1.15313 1.15633C1.1375 1.20321 1.12812 1.25321 1.125 1.30633L1.1375 1.33133C1.15 1.36258 1.05625 1.38446 1.05625 1.38446L1.075 1.40321L1.07187 1.42196C1.07187 1.42196 1.05 1.41571 1.04375 1.42508C1.0375 1.43446 1.04062 1.43446 1.0625 1.44696C1.08438 1.45946 1.08437 1.43446 1.09687 1.44383C1.10625 1.45321 1.10312 1.47508 1.10312 1.48758C1.10312 1.50008 1.10312 1.50321 1.1125 1.51883C1.12187 1.53446 1.1125 1.54383 1.11563 1.55633C1.12188 1.56571 1.125 1.57508 1.12812 1.58446V1.59383C1.12187 1.61258 1.11563 1.63133 1.10938 1.65008C1.10938 1.65946 1.10938 1.69383 1.09063 1.70008C1.07188 1.70633 1.0625 1.72821 1.08438 1.74071L1.05 1.74383L1.0625 1.78133L1.05625 1.81571L1.05313 1.81883L1.02188 1.82196L1.00312 1.85321L1.0125 1.86258C0.996875 1.87821 0.98125 1.89383 0.9625 1.90946L0.928125 1.91883C0.9625 1.93758 0.996875 1.95946 1.02813 1.98758C1.04063 2.00321 1.05313 2.01883 1.05938 2.03758L1.06562 2.05008C1.07187 2.05946 1.07812 2.06883 1.08438 2.07508L1.10312 2.09383L1.1 2.11258C1.09375 2.10946 1.08438 2.10946 1.07812 2.11258L1.075 2.11571V2.12508C1.08125 2.12821 1.0875 2.13446 1.09375 2.13446C1.11563 2.14383 1.11562 2.12196 1.12812 2.12821C1.1375 2.13758 1.13437 2.15946 1.13437 2.17196C1.13437 2.18446 1.1375 2.18758 1.14375 2.20321C1.15 2.21883 1.14375 2.22821 1.15 2.24071C1.15625 2.25008 1.15938 2.25946 1.1625 2.26571V2.28446C1.15938 2.30008 1.15313 2.31571 1.14688 2.33133V2.34071C1.14688 2.35008 1.14688 2.37196 1.1375 2.38446L1.1625 2.40321C1.175 2.41883 1.1875 2.43446 1.19687 2.45008C1.20312 2.46571 1.2125 2.47821 1.22187 2.49071L1.24063 2.50946L1.2375 2.52821C1.2375 2.52821 1.2125 2.52196 1.20938 2.53133C1.20625 2.54071 1.20625 2.54071 1.22812 2.55321C1.25 2.56571 1.25 2.53758 1.25937 2.54696L1.2625 2.55008C1.26875 2.56258 1.26875 2.57821 1.26875 2.59071C1.26875 2.60321 1.27188 2.60633 1.27813 2.62196C1.28438 2.63758 1.27812 2.64696 1.28437 2.65946C1.29062 2.66883 1.29375 2.67508 1.29688 2.68446V2.68758L1.3 2.69071C1.30625 2.70633 1.31562 2.71883 1.32812 2.72821L1.34687 2.74696L1.34375 2.76571C1.34375 2.76571 1.31875 2.75946 1.31562 2.77196C1.3125 2.78133 1.3125 2.78133 1.33438 2.79071C1.35625 2.80008 1.35625 2.77508 1.36563 2.78446C1.375 2.79383 1.375 2.81571 1.375 2.82821C1.375 2.84071 1.37812 2.84383 1.38437 2.85946C1.39062 2.87508 1.38437 2.88446 1.39062 2.89696C1.39688 2.90633 1.4 2.91258 1.40313 2.92196V2.94071C1.4 2.95946 1.39375 2.97508 1.3875 2.99383H1.375C1.34687 2.99383 1.3375 3.00633 1.33438 3.01258V3.03133L1.3875 3.03758C1.3875 3.04071 1.38437 3.04383 1.38125 3.04696C1.31875 3.07196 1.25312 3.09071 1.1875 3.10321L1.15625 3.08758L1.14062 3.07821C1.14062 3.07821 1.1625 3.05633 1.1375 3.05633C1.10938 3.05633 1.08125 3.06258 1.05625 3.08133V3.09071L1.05313 3.10321L1.05 3.11571C0.99375 3.12196 0.946875 3.15008 0.890625 3.15633H0.8625L0.79375 3.20946L0.7375 3.20633L0.659375 3.27196C0.640625 3.26883 0.625 3.26258 0.609375 3.25321C0.56875 3.25633 0.54375 3.30633 0.521875 3.30946L0.465625 3.31571C0.45 3.36883 0.41875 3.29383 0.421875 3.33758C0.421875 3.33758 0.378125 3.33133 0.296875 3.41883C0.278125 3.44071 0.259375 3.46258 0.24375 3.48446H0.259375C0.240625 3.48446 0.103125 3.40321 0.1 3.49383C0.096875 3.55633 0.103125 3.61883 0.11875 3.68133C0.11875 3.68133 0.025 3.65008 0.021875 3.77196C0.021875 3.81258 0.01875 3.85321 0.01875 3.89696C0.015625 4.04696 0.028125 4.24696 0.040625 4.42196C0.046875 4.45008 0.05625 4.48133 0.065625 4.51883C0.084375 4.58133 0.05625 4.65008 0 4.68133L0.025 4.75321C0.028125 4.79696 0.028125 4.82196 0.028125 4.82196C0.028125 4.82196 0 4.79071 0 4.82508C0 4.85946 0 4.85946 0.028125 4.90633C0.05625 4.95321 0.046875 4.86571 0.0625 4.90321C0.075 4.95633 0.08125 5.00946 0.084375 5.06258C0.0875 5.10008 0.09375 5.13758 0.103125 5.17508C0.115625 5.22821 0.109375 5.26571 0.121875 5.31258C0.128125 5.35008 0.1375 5.37196 0.14375 5.41258C0.14375 5.43446 0.146875 5.45633 0.15 5.47508C0.153125 5.55008 0.146875 5.63446 0.15 5.66571C0.153125 5.69696 0.16875 5.82508 0.146875 5.83446C0.125 5.84383 0.128125 5.92196 0.15625 5.97821L0.121875 5.98133L0.1375 6.10946L0.14375 6.22508V6.24071L0.1125 6.24383L0.10625 6.34383L0.121875 6.38446C0.1125 6.43446 0.1 6.48133 0.084375 6.52821L0.053125 6.55008C0.103125 6.63758 0.14375 6.73133 0.178125 6.82821C0.190625 6.86571 0.209375 6.93133 0.23125 7.01258C0.234375 7.03446 0.240625 7.04696 0.24375 7.06571C0.25 7.10008 0.259375 7.13446 0.271875 7.16571L0.296875 7.23758C0.296875 7.28133 0.3 7.30633 0.3 7.30633C0.3 7.30633 0.284375 7.28758 0.275 7.30008C0.271875 7.30321 0.271875 7.30633 0.271875 7.31258C0.271875 7.32508 0.271875 7.33758 0.275 7.35008C0.28125 7.36571 0.290625 7.38133 0.3 7.39383C0.328125 7.44071 0.31875 7.35321 0.334375 7.39071C0.346875 7.44071 0.353125 7.49383 0.35625 7.54696C0.359375 7.58446 0.365625 7.62196 0.375 7.65946C0.3875 7.71258 0.38125 7.75008 0.39375 7.79696C0.403125 7.83446 0.409375 7.85633 0.415625 7.89696C0.415625 7.91883 0.41875 7.94071 0.421875 7.96258V8.12508V8.15321C0.428125 8.20321 0.428125 8.25633 0.425 8.30633C0.434375 8.33133 0.446875 8.35321 0.45625 8.38133C0.46875 8.41883 0.4875 8.48446 0.509375 8.56571C0.51875 8.61571 0.53125 8.66571 0.55 8.71571L0.575 8.78758C0.578125 8.83133 0.578125 8.85633 0.578125 8.85633C0.578125 8.85633 0.55 8.82508 0.55 8.85946C0.55 8.89383 0.55 8.89383 0.575 8.94071C0.6 8.98758 0.59375 8.90008 0.609375 8.93758C0.6125 8.94071 0.6125 8.94696 0.6125 8.95008C0.621875 8.99696 0.628125 9.04696 0.63125 9.09383C0.634375 9.13133 0.640625 9.16883 0.65 9.20633C0.6625 9.25946 0.65625 9.29696 0.66875 9.34383C0.678125 9.38133 0.684375 9.40321 0.690625 9.44383V9.45321L0.69375 9.46883C0.703125 9.51883 0.715625 9.56883 0.734375 9.61883L0.759375 9.69071C0.7625 9.73446 0.7625 9.75946 0.7625 9.75946C0.7625 9.75946 0.734375 9.72821 0.734375 9.76258C0.734375 9.79696 0.734375 9.79696 0.7625 9.84383C0.790625 9.89071 0.78125 9.80321 0.796875 9.84071C0.809375 9.89071 0.815625 9.94383 0.81875 9.99696C0.821875 10.0345 0.828125 10.072 0.8375 10.1095C0.85 10.1626 0.84375 10.2001 0.85625 10.247C0.8625 10.2845 0.871875 10.3063 0.878125 10.347C0.878125 10.3688 0.88125 10.3907 0.884375 10.4095C0.8875 10.4845 0.88125 10.5657 0.884375 10.6001C0.8875 10.6345 0.903125 10.7595 0.88125 10.7657C0.859375 10.772 0.8625 10.8532 0.890625 10.9095L0.85625 10.9126L0.871875 11.0407L0.878125 11.1563V11.172L0.84375 11.1751L0.840625 11.2782L0.85625 11.3188C0.846875 11.3657 0.834375 11.4095 0.821875 11.4563C0.834375 11.5095 0.846875 11.4782 0.875 11.5251C0.903125 11.5657 0.940625 11.6001 0.984375 11.6251C0.978125 11.6876 0.978125 11.7532 0.984375 11.8188C1.00312 11.9532 0.984375 11.8188 1.02813 11.972C1.07188 12.1251 1.10938 12.0751 1.10938 12.2126C1.10625 12.2813 1.11875 12.3532 1.14062 12.4188C1.15937 12.4438 1.17813 12.4688 1.19375 12.497C1.20625 12.5251 1.225 12.5501 1.24688 12.572C1.25625 12.6032 1.29375 12.622 1.325 12.6095C1.39062 12.5938 1.31875 12.6845 1.35312 12.6657C1.37187 12.672 1.39062 12.6751 1.40937 12.6782C1.40625 12.7157 1.39688 12.7095 1.45312 12.7532C1.4875 12.7595 1.525 12.772 1.55625 12.7845C1.575 12.8157 1.61563 12.7657 1.61563 12.8095C1.70312 12.8126 1.7875 12.8063 1.88125 12.8095L1.97812 12.8282L2.15313 12.8407L2.18125 12.8438C2.24688 12.7938 2.43438 12.872 2.43438 12.872C2.43438 12.872 2.3125 12.9095 2.49375 12.922C2.60313 12.9251 2.7125 12.9157 2.81875 12.8938C2.95312 12.8938 3.0875 12.9157 3.21563 12.9595C3.325 13.0001 3.44063 13.0188 3.55625 13.0157C3.72813 13.0501 3.90313 13.0751 4.07188 13.1157L4.2 13.1282L4.19063 13.1595L4.2 13.1688L4.26562 13.197L4.34375 13.2188L4.33437 13.2501C4.375 13.2407 4.42188 13.2626 4.41875 13.2845C4.41562 13.3063 4.4875 13.3313 4.50625 13.3438C4.525 13.3532 4.56563 13.3876 4.60938 13.4063L4.64687 13.422C4.66875 13.4282 4.6875 13.4313 4.70937 13.4345C4.74062 13.4407 4.75625 13.4563 4.79063 13.4626C4.81563 13.4657 4.8375 13.472 4.85938 13.4813C4.8875 13.5001 4.91875 13.5126 4.95 13.5188C4.975 13.5188 4.925 13.497 4.9625 13.4876C5 13.4782 5 13.4813 5.01562 13.4938C5.03125 13.5063 5.00625 13.5188 5.00625 13.5188L5.04375 13.5407H5.09375C5.12813 13.5438 5.15938 13.5501 5.19063 13.5595C5.22813 13.5688 5.26875 13.5782 5.30937 13.5813L5.38125 13.5845C5.46562 13.647 5.55625 13.7095 5.65312 13.7688L5.66875 13.7376C5.74687 13.7845 5.82188 13.8407 5.89687 13.8907L5.91875 13.9095C6.00625 13.9251 6.09062 13.9501 6.17188 13.9876C6.17188 13.9876 6.11562 13.9751 6.12187 13.9938L6.18125 14.0157C6.2125 14.022 6.22187 14.0282 6.21562 14.0376L6.20937 14.047L6.25 14.0626C6.27187 14.0626 6.29063 14.0657 6.3125 14.0688L6.37187 14.097L6.49687 14.1501C6.50625 14.1626 6.51562 14.1751 6.525 14.1845C6.53438 14.197 6.55 14.197 6.5625 14.1876L6.56563 14.1845L6.525 14.1407C6.5875 14.172 6.64375 14.2095 6.7 14.2501L6.70937 14.2938C6.70937 14.2938 6.68125 14.3001 6.69688 14.3126C6.7125 14.3282 6.73438 14.3376 6.75938 14.3376L6.76562 14.3282L6.78438 14.3157L6.90625 14.4126L6.9125 14.447L6.93437 14.4845L6.98125 14.5376C6.9875 14.5501 6.99062 14.5657 6.99062 14.5813L7.03438 14.6251L7.06563 14.6438L7.07188 14.6563L7.0875 14.6782C7.09375 14.6907 7.10938 14.6938 7.11875 14.6876H7.12187H7.125L7.09062 14.6407C7.14375 14.6782 7.2 14.672 7.25625 14.7157L7.25938 14.747V14.7626C7.25938 14.7626 7.23438 14.7626 7.24687 14.7782C7.25937 14.797 7.28125 14.8063 7.30312 14.8095L7.30937 14.8001L7.31875 14.797L7.33125 14.7907C7.3625 14.822 7.40625 14.8282 7.43437 14.8595L7.45 14.8751L7.52187 14.8813L7.54063 14.9188L7.625 14.9282C7.62813 14.9438 7.63125 14.9563 7.62813 14.972C7.64375 14.997 7.69375 14.9845 7.70625 14.997L7.73438 15.0313C7.78125 15.0126 7.73125 15.0751 7.76875 15.047C7.76875 15.047 7.77813 15.0782 7.87813 15.0876C7.97813 15.097 7.98438 15.0876 7.98438 15.0876H8C8.02188 15.1282 8.05313 15.1845 8.09375 15.1595C8.13437 15.1345 8.16563 15.1032 8.19063 15.0626C8.20625 15.1032 8.25313 15.122 8.29375 15.1063C8.3 15.1032 8.30312 15.1032 8.30625 15.1001L8.38125 15.047C8.46563 14.9813 8.58437 14.9001 8.68125 14.8188L8.725 14.7626C8.78125 14.697 8.8625 14.7563 8.8625 14.7563L8.89062 14.7095L8.93125 14.6813C8.93125 14.6813 8.92812 14.7126 8.95 14.7032C8.97188 14.6938 8.97188 14.6907 8.98438 14.6501C8.99687 14.6095 8.95 14.6501 8.9625 14.6251C8.9875 14.597 9.01562 14.572 9.05 14.5532C9.07188 14.5376 9.09062 14.5188 9.10938 14.497C9.1375 14.4688 9.1625 14.4626 9.19063 14.4376C9.20625 14.4188 9.225 14.4032 9.24375 14.3845L9.28125 14.3595C9.32812 14.3313 9.38437 14.3126 9.40312 14.3001C9.42188 14.2876 9.5 14.2376 9.51562 14.2532C9.53125 14.2688 9.58437 14.2438 9.60625 14.2063L9.625 14.2345L9.7 14.1813L9.77188 14.1438H9.78125L9.8 14.172L9.86875 14.1501L9.89062 14.1251C9.92813 14.122 9.96562 14.122 10.0031 14.1251L10.0312 14.1501C10.0688 14.0845 10.1125 14.0251 10.1625 13.9688C10.1938 13.9376 10.2281 13.9095 10.2656 13.8813L10.2969 13.8595C10.3156 13.8438 10.3375 13.8282 10.3531 13.8126L10.3938 13.772L10.4406 13.7532C10.4406 13.7532 10.4344 13.772 10.4438 13.7782H10.4531C10.4625 13.7782 10.4688 13.772 10.4781 13.7688C10.4875 13.7595 10.4937 13.7501 10.5 13.7376C10.5219 13.7032 10.4656 13.7282 10.4844 13.7063C10.5156 13.6813 10.55 13.6657 10.5875 13.6532C10.6125 13.6438 10.6375 13.6313 10.6594 13.6126C10.6938 13.5938 10.7188 13.5907 10.75 13.572C10.7719 13.5595 10.7875 13.547 10.8125 13.5345L10.8562 13.5157C10.8938 13.5032 10.9312 13.4938 10.9688 13.4907L10.9906 13.4876C11.025 13.4751 11.0594 13.4657 11.0938 13.4626L11.1375 13.422C11.175 13.3938 11.2125 13.3688 11.2531 13.347C11.3281 13.3032 11.35 13.2876 11.35 13.2876L11.3938 13.2532L11.4438 13.2438C11.4438 13.2438 11.4281 13.272 11.4531 13.2688C11.4781 13.2657 11.4781 13.2657 11.5063 13.2345C11.5344 13.2032 11.4719 13.222 11.4969 13.2032L11.5063 13.197C11.5375 13.1813 11.5719 13.172 11.6062 13.1626C11.6344 13.1563 11.6594 13.1438 11.6844 13.1313C11.7219 13.1157 11.7469 13.1157 11.7812 13.1032C11.8031 13.0938 11.825 13.0813 11.85 13.0751H11.8562L11.8656 13.072C11.9031 13.0563 11.9375 13.0407 11.9688 13.0188L12.0156 12.9876L12.0688 12.9782C12.0688 12.9782 12.05 13.0063 12.075 13.0063C12.1 13.0063 12.1 13.0063 12.1313 12.9751C12.1594 12.9438 12.1 12.9595 12.1219 12.9438C12.1594 12.9282 12.1969 12.9188 12.2344 12.9157C12.2625 12.9095 12.2875 12.9032 12.3156 12.8907C12.3531 12.8782 12.3812 12.8782 12.4156 12.8657C12.4406 12.8563 12.4563 12.847 12.4844 12.8407L12.5312 12.8313C12.5875 12.8282 12.6469 12.8313 12.6719 12.8313C12.6938 12.8313 12.7875 12.8126 12.7937 12.8313C12.8 12.8501 12.8594 12.8501 12.8969 12.822L12.9031 12.8532L12.9969 12.8376L13.0813 12.8345H13.0906L13.0969 12.8688L13.1687 12.8751L13.1969 12.8626C13.2312 12.872 13.2656 12.8845 13.2969 12.9001C13.3313 12.8876 13.3094 12.8782 13.3438 12.847C13.375 12.8188 13.3969 12.7813 13.4125 12.7438C13.4594 12.7501 13.5031 12.7501 13.55 12.7438C13.6469 12.7345 13.55 12.7438 13.6594 12.7095C13.7688 12.6751 13.7344 12.6313 13.8344 12.6438C13.8844 12.6532 13.9375 12.6501 13.9844 12.6313C14.0031 12.6157 14.0219 12.6001 14.0437 12.5845C14.0656 12.5751 14.0844 12.5595 14.1 12.5407C14.1344 12.5532 14.0688 12.6063 14.1 12.6001C14.1813 12.6657 14.2906 12.6813 14.3906 12.6438C14.4688 12.6313 14.4531 12.572 14.5281 12.6251C14.5687 12.6532 14.4906 12.6501 14.6375 12.7251C14.6812 12.747 14.6656 12.7595 14.725 12.7032C14.7438 12.6626 14.7625 12.622 14.7875 12.5845C14.8219 12.5688 14.7875 12.497 14.8313 12.5157L14.9156 12.1563L14.9563 12.0313L15.0125 11.7938L15.0219 11.7532C15.0219 11.6345 15.0469 11.5188 15.0969 11.4095C15.0969 11.4095 15.1156 11.5845 15.1562 11.3313C15.1812 11.1813 15.1844 11.0313 15.1656 10.8813C15.1781 10.697 15.2094 10.5126 15.2563 10.3345C15.3 10.1813 15.3188 10.0251 15.3125 9.86571L15.3781 9.15946L15.375 8.98758L15.4094 8.99071L15.4156 8.97821L15.4375 8.88446L15.45 8.77821L15.4844 8.78133C15.4719 8.72821 15.4844 8.66258 15.5094 8.66258C15.5344 8.66258 15.5438 8.55946 15.5531 8.52821C15.5594 8.50008 15.5844 8.43758 15.5969 8.37196L15.6062 8.31883C15.6094 8.28758 15.6062 8.26571 15.6062 8.23446C15.6062 8.19383 15.6187 8.16571 15.6219 8.11883C15.6219 8.08758 15.6219 8.05321 15.6281 8.02196C15.6406 7.97821 15.6469 7.93446 15.6438 7.89071C15.6375 7.85946 15.6281 7.93133 15.6094 7.88758C15.5906 7.84383 15.5938 7.84383 15.6031 7.81571C15.6125 7.78758 15.6313 7.81883 15.6313 7.81883L15.6438 7.76258L15.6344 7.69696C15.6281 7.65321 15.6281 7.60946 15.6313 7.56571C15.6313 7.50008 15.6281 7.44071 15.625 7.40633L15.6094 7.31571C15.6438 7.18133 15.6781 7.04071 15.7125 6.89071L15.6781 6.88758L15.75 6.53133L15.7594 6.49071C15.7437 6.37508 15.7406 6.25946 15.7469 6.14383C15.7469 6.14383 15.7531 6.21883 15.7719 6.19696V6.19383V6.11258C15.7656 6.07196 15.7656 6.05633 15.7781 6.05633H15.7906V6.00008C15.7812 5.97508 15.775 5.94696 15.7719 5.92196L15.775 5.83446V5.65633C15.7844 5.64071 15.7906 5.62196 15.7969 5.60321C15.8094 5.56258 15.7812 5.55633 15.7812 5.55633L15.7594 5.63133C15.7656 5.54071 15.775 5.45008 15.7844 5.35633L15.8188 5.31571C15.8188 5.31571 15.8344 5.34383 15.8406 5.31571C15.85 5.28758 15.8469 5.25633 15.8375 5.22821H15.8281L15.8094 5.21571L15.8438 5.01258L15.8719 4.98133L15.8938 4.92821L15.9156 4.83758C15.925 4.82196 15.9344 4.80633 15.95 4.79383L15.9656 4.71258V4.66258L15.975 4.64383L15.9875 4.60946C15.9969 4.58133 15.9875 4.56883 15.9781 4.56571H15.975L15.95 4.64071C15.9563 4.55008 15.9219 4.49696 15.9344 4.40321L15.9594 4.37508L15.975 4.39071ZM10.675 3.37821L10.7437 3.31883L10.7906 3.28758C10.8344 3.26258 10.8781 3.24071 10.9219 3.22196L10.9438 3.20946C10.9813 3.18446 11.0219 3.16258 11.0656 3.14696C11.0813 3.12821 11.0938 3.10946 11.1125 3.09071C11.1406 3.06571 11.1875 3.02508 11.2437 2.98133L11.3562 2.89383L11.4094 2.84696L11.4688 2.82196C11.4688 2.82196 11.4531 2.85633 11.4812 2.84696C11.5125 2.83758 11.5125 2.83758 11.5406 2.79383C11.5687 2.75321 11.5 2.78758 11.525 2.76571L11.5344 2.75633C11.5719 2.73133 11.6125 2.71258 11.6531 2.69696C11.6844 2.68133 11.7156 2.66571 11.7437 2.64383C11.7875 2.61571 11.8188 2.60946 11.8594 2.58758L11.9406 2.54383L11.9469 2.54071L11.9688 2.53133C12.0094 2.50946 12.05 2.48133 12.0906 2.45633L12.1469 2.41571L12.2094 2.39696C12.2094 2.39696 12.1875 2.42821 12.2188 2.42196C12.25 2.41571 12.25 2.41571 12.2844 2.37821C12.3188 2.34071 12.2438 2.36883 12.2719 2.34696C12.3156 2.32196 12.3625 2.30633 12.4094 2.29383C12.4438 2.28446 12.4781 2.27196 12.5094 2.25321C12.5562 2.23133 12.5875 2.22821 12.6313 2.20946L12.7188 2.17508L12.775 2.15946C12.8344 2.14696 12.8906 2.14071 12.95 2.13446C12.9812 2.12821 13.0938 2.10008 13.1062 2.12196C13.1187 2.14383 13.1875 2.13133 13.2375 2.10008L13.2437 2.13133L13.3594 2.10633L13.4625 2.09383H13.475L13.4812 2.12821H13.575L13.6125 2.11258C13.6562 2.11883 13.6969 2.13133 13.7375 2.14383C13.7812 2.12821 13.7563 2.11883 13.7969 2.09071C13.8219 2.07508 13.8406 2.05321 13.8562 2.02821V2.05321C13.8562 2.06883 13.8469 2.07821 13.8469 2.09071V2.12196L13.8406 2.13758C13.8313 2.15321 13.8219 2.16571 13.8094 2.17821L13.8031 2.18446C13.8 2.19071 13.7937 2.21571 13.7781 2.22196L13.7937 2.24696C13.8 2.26571 13.8062 2.28446 13.8062 2.30321C13.8062 2.31883 13.8094 2.33446 13.8156 2.35008L13.8281 2.37508L13.8188 2.39383C13.8188 2.39383 13.8 2.37821 13.7906 2.38758C13.7844 2.39696 13.7844 2.39696 13.8 2.41571C13.8156 2.43446 13.825 2.40946 13.8313 2.42196V2.42508C13.8313 2.44071 13.8281 2.45321 13.8219 2.46571C13.8156 2.47821 13.8187 2.48133 13.8219 2.49696C13.825 2.51258 13.8125 2.52196 13.8125 2.53446V2.56571V2.57821C13.8125 2.59383 13.8156 2.60946 13.8219 2.62508L13.8344 2.65008L13.825 2.66883C13.825 2.66883 13.8062 2.65321 13.7969 2.66258C13.7875 2.67196 13.7906 2.67196 13.8062 2.69071C13.825 2.70946 13.8312 2.68446 13.8375 2.69696C13.8438 2.70946 13.8344 2.72821 13.8281 2.74071C13.8219 2.75321 13.825 2.75633 13.8281 2.77196C13.8313 2.78758 13.8188 2.79696 13.8188 2.80946V2.84071L13.8125 2.85946C13.8031 2.87821 13.7812 2.89696 13.775 2.90633C13.7719 2.91571 13.7625 2.95008 13.7406 2.94696C13.7188 2.94383 13.7094 2.96258 13.7219 2.98133H13.7063L13.6875 2.97821V2.98133C13.5906 2.98446 13.4938 2.98133 13.3969 2.97196C13.2531 2.95633 13.1094 2.96883 12.9719 3.00946C12.7625 3.04071 12.5531 3.07508 12.3469 3.11258L12.2031 3.16571L12.1969 3.13446H12.1844L12.1 3.13758L12.0063 3.15633L12 3.12508C11.9594 3.15321 11.9 3.15633 11.8938 3.13446C11.8875 3.11258 11.7937 3.12821 11.7688 3.13446C11.7438 3.14071 11.6813 3.13446 11.6281 3.13446L11.5813 3.14071C11.5563 3.14696 11.5344 3.15633 11.5094 3.16258C11.475 3.17508 11.4469 3.17196 11.4094 3.18446C11.3844 3.19696 11.3562 3.20321 11.3281 3.20633C11.2875 3.20946 11.25 3.21883 11.2125 3.23133C11.1875 3.24696 11.25 3.23446 11.2188 3.26258C11.1875 3.29071 11.1875 3.29071 11.1625 3.29071C11.1375 3.29071 11.1562 3.26258 11.1562 3.26258L11.125 3.28133L11.0719 3.30946C11.0375 3.32821 11.0031 3.34383 10.9688 3.35633C10.925 3.37196 10.8812 3.39383 10.8406 3.41258L10.7719 3.45946C10.7 3.46571 10.6156 3.48133 10.5375 3.49383L10.575 3.45633C10.6094 3.42196 10.6406 3.40946 10.675 3.37821ZM2.41563 1.92196C2.44375 1.91571 2.47187 1.90946 2.5 1.90946C2.55938 1.90008 2.61563 1.93758 2.63438 1.99383L2.7 1.97508L2.7625 1.98133C2.7625 1.98133 2.73125 2.00321 2.7625 2.00946C2.79375 2.01571 2.79375 2.01571 2.8375 1.99696C2.88125 1.97821 2.80625 1.97196 2.8375 1.96258C2.88438 1.95633 2.93125 1.95946 2.97813 1.96571C3.0125 1.96883 3.04688 1.96883 3.08125 1.96571C3.13125 1.96571 3.15937 1.97508 3.20312 1.97508H3.29375L3.35 1.98133C3.40625 1.99383 3.45938 2.00946 3.5125 2.02821C3.54375 2.03446 3.65 2.05008 3.65313 2.07508C3.65313 2.09696 3.72188 2.11571 3.775 2.10633L3.76875 2.13758L3.87812 2.15633L3.97187 2.18446L3.98438 2.19071L3.97813 2.22196L4.05625 2.25946H4.09375C4.12813 2.28446 4.1625 2.30946 4.19063 2.34071L4.19375 2.37821C4.27812 2.36258 4.3625 2.35633 4.45 2.36258C4.50312 2.36571 4.55625 2.37508 4.60625 2.39071L4.64687 2.40008C4.675 2.40633 4.70312 2.41258 4.72813 2.41571L4.79063 2.42196L4.8375 2.45008C4.8375 2.45008 4.81562 2.45633 4.81875 2.46571C4.81875 2.46883 4.82187 2.47196 4.825 2.47508C4.83125 2.48133 4.84062 2.48758 4.85 2.48758H4.89062C4.93437 2.48758 4.875 2.45321 4.90625 2.45633C4.94688 2.46883 4.98125 2.48758 5.01562 2.51258C5.04063 2.52821 5.06563 2.54071 5.09375 2.55008C5.13438 2.56883 5.15625 2.59696 5.19688 2.61571C5.225 2.63133 5.25 2.64071 5.275 2.65633L5.32188 2.68758C5.35938 2.71883 5.39375 2.75008 5.425 2.78758L5.44375 2.80321C5.47813 2.82821 5.5125 2.85946 5.54063 2.89383L5.60625 2.91883C5.6375 2.93446 5.69063 2.96258 5.75 3.00008C5.8375 3.05633 5.8625 3.07196 5.8625 3.07196L5.92188 3.10008L5.9625 3.14383C5.9625 3.14383 5.925 3.14071 5.94375 3.16258C5.9625 3.18758 5.9625 3.18446 6.00625 3.20008C6.05 3.21571 6 3.15946 6.02812 3.17508L6.0375 3.18133C6.06875 3.20946 6.09688 3.23758 6.125 3.26883C6.14687 3.29383 6.17188 3.31571 6.19688 3.33446C6.23125 3.36571 6.24375 3.39383 6.275 3.42196C6.29688 3.44383 6.31563 3.45633 6.3375 3.48133L6.34375 3.48758L6.35313 3.49696C6.425 3.56883 6.45 3.58758 6.45 3.58758L6.50313 3.62821L6.53438 3.68133C6.53438 3.68133 6.49687 3.67196 6.5125 3.69696C6.525 3.72508 6.525 3.72508 6.56563 3.74696C6.60625 3.76883 6.56563 3.70633 6.59375 3.72821C6.625 3.76258 6.65 3.80008 6.67188 3.84071C6.69063 3.86883 6.70937 3.89383 6.73125 3.92196C6.7375 3.93133 6.74375 3.94071 6.75 3.95008C6.63125 3.85946 6.49687 3.79071 6.35625 3.74696C6.15312 3.65633 5.94688 3.56883 5.73438 3.48758L5.575 3.45008L5.5875 3.41883L5.57812 3.41258L5.49375 3.36883L5.39375 3.33133L5.40625 3.30008C5.35313 3.30008 5.29375 3.27196 5.3 3.24696C5.30313 3.22196 5.20625 3.19071 5.17812 3.17821C5.15312 3.16571 5.09375 3.12821 5.0375 3.10633L4.98438 3.08758C4.95625 3.08133 4.92812 3.07508 4.9 3.07196C4.85938 3.06571 4.83125 3.05008 4.7875 3.04071C4.75625 3.03758 4.725 3.03133 4.69375 3.02196C4.65 3.00633 4.60625 2.99383 4.5625 2.99071C4.53125 2.99071 4.6 3.01258 4.55625 3.02196C4.50938 3.03133 4.50938 3.03446 4.48438 3.02196C4.45625 3.00946 4.49062 2.99383 4.49062 2.99383L4.4375 3.00008L4.37187 3.00321C4.32812 3.00321 4.28437 3.00321 4.24062 3.00008C4.1875 2.99696 4.13438 2.99696 4.07812 3.00008L3.9875 3.01571C3.84375 2.97821 3.7 2.95008 3.55312 2.92821V2.96258L3.19688 2.92821L3.15937 2.92196C3.05625 2.95008 2.95312 2.96883 2.84687 2.97821C2.84687 2.97821 2.9125 2.95946 2.89375 2.94696H2.89062L2.81562 2.95946C2.77813 2.96883 2.7625 2.97196 2.7625 2.95946V2.95008L2.70937 2.95946C2.6875 2.97196 2.6625 2.98133 2.64062 2.98758L2.55312 3.00008L2.50938 3.00633C2.5125 2.99696 2.5125 2.99071 2.5125 2.98133C2.50625 2.93758 2.48125 2.90008 2.44688 2.87821C2.42813 2.83133 2.425 2.78133 2.44062 2.73446C2.45625 2.69383 2.44688 2.64696 2.41875 2.61571L2.36562 2.43758L2.33125 2.40008L2.3625 2.39383L2.36562 2.39071L2.37188 2.36571L2.36562 2.33758L2.4 2.33133C2.37813 2.32196 2.38438 2.30321 2.40625 2.30008C2.42812 2.29696 2.425 2.26883 2.425 2.25946C2.43125 2.24383 2.4375 2.23133 2.44375 2.21571V2.20321C2.44062 2.19696 2.4375 2.19071 2.43125 2.18446C2.425 2.17508 2.43125 2.16571 2.425 2.15633C2.41875 2.14696 2.41563 2.14383 2.41563 2.13133C2.41563 2.11883 2.41875 2.10321 2.40937 2.09696C2.4 2.09071 2.4 2.10946 2.375 2.10321C2.35 2.09696 2.35313 2.09696 2.35625 2.08758C2.35938 2.07821 2.38438 2.08446 2.38438 2.08446L2.3875 2.06883L2.36875 2.05633C2.35938 2.04696 2.35 2.03758 2.34375 2.02821C2.33437 2.01571 2.325 2.00321 2.3125 1.99071L2.28125 1.97196C2.2875 1.95633 2.2875 1.94071 2.29375 1.92508L2.41563 1.92196ZM7.33125 13.4876L7.2875 13.4532C7.23438 13.4095 7.19062 13.3563 7.16875 13.3376C7.14687 13.3188 7.05312 13.2626 7.0625 13.2407C7.07188 13.2188 7.01562 13.1751 6.9625 13.1657L6.98125 13.1376L6.88438 13.0782L6.80312 13.0157L6.79375 13.0063L6.80937 12.9782L6.74375 12.9188L6.70625 12.9095C6.67813 12.8751 6.65 12.8407 6.62813 12.8063L6.63125 12.7688C6.54063 12.7595 6.45312 12.747 6.36562 12.7251L6.20937 12.672L6.16563 12.6563C6.1375 12.647 6.10938 12.6376 6.07812 12.6313L6.0125 12.6188L5.95937 12.5876C5.95937 12.5876 5.98125 12.5813 5.97813 12.572C5.97813 12.5688 5.975 12.5657 5.97188 12.5626C5.9625 12.5563 5.95312 12.5501 5.94375 12.547C5.92812 12.5438 5.9125 12.5438 5.9 12.547C5.85313 12.547 5.91875 12.5813 5.8875 12.5782C5.84375 12.5626 5.80312 12.5438 5.7625 12.522C5.73125 12.5063 5.7 12.497 5.66875 12.4876C5.62187 12.472 5.6 12.4532 5.55625 12.4407C5.525 12.4313 5.50313 12.4282 5.47188 12.4157L5.41875 12.3938L5.29688 12.322L5.275 12.3095C5.23438 12.2938 5.19375 12.2751 5.15625 12.2501L5.08437 12.247C5.05 12.2407 4.9875 12.2313 4.92188 12.2157C4.87813 12.2032 4.83437 12.1938 4.7875 12.1907L4.72188 12.1876L4.66563 12.1657C4.66563 12.1657 4.7 12.1532 4.675 12.1407C4.64688 12.1282 4.64687 12.1282 4.6 12.1345C4.55312 12.1438 4.625 12.1657 4.59062 12.1657H4.57812C4.5375 12.1563 4.49687 12.1438 4.45937 12.1282C4.42812 12.1157 4.39688 12.1063 4.3625 12.1001C4.31563 12.0907 4.29062 12.072 4.24687 12.0688C4.21562 12.0657 4.19375 12.0626 4.15938 12.0563H4.15312H4.14062C4.09688 12.0501 4.05 12.047 4.00625 12.047H3.94062L3.88438 12.0282C3.88438 12.0282 3.91875 12.0126 3.89062 12.0001C3.8625 11.9876 3.8625 11.9876 3.81562 12.0001C3.76875 12.0126 3.84063 12.0313 3.80938 12.0345C3.7625 12.0313 3.71875 12.022 3.675 12.0095C3.64375 12.0032 3.60938 11.997 3.575 11.997C3.52813 11.9938 3.5 11.9813 3.45625 11.9782C3.425 11.9782 3.40313 11.9782 3.36875 11.972L3.3125 11.9626L3.15313 11.9188C3.12188 11.9126 3.01562 11.9032 3.0125 11.8813C3.00938 11.8595 2.94062 11.8438 2.8875 11.8595V11.8251L2.775 11.8157C2.74063 11.8095 2.70625 11.8063 2.67188 11.8032L2.65937 11.8001V11.7657L2.57188 11.747L2.53125 11.7563C2.49062 11.7407 2.45312 11.7251 2.4125 11.7032C2.36562 11.7095 2.39062 11.7251 2.34687 11.7438C2.30625 11.7657 2.27187 11.8001 2.25 11.8376C2.19375 11.8313 2.1375 11.8313 2.08125 11.8376H2.04375L2.04063 11.6938V11.6532C2.0125 11.5407 2.00625 11.422 2.02813 11.3063C2.02813 11.3063 2.0875 11.4688 2.06562 11.2157C2.05 11.0688 2.01562 10.922 1.9625 10.7845C1.92813 10.6063 1.9125 10.422 1.90937 10.2407C1.9125 10.0845 1.89375 9.93133 1.85 9.78133L1.74688 9.08758C1.73125 9.03133 1.71563 8.97821 1.7 8.92508L1.73125 8.92196V8.90946V8.81571L1.71875 8.71258L1.75312 8.70946C1.72812 8.66258 1.725 8.59696 1.74688 8.59071C1.76875 8.58446 1.75625 8.48133 1.75312 8.45321C1.75312 8.42508 1.75937 8.35633 1.75937 8.29696C1.75937 8.28133 1.75625 8.26258 1.75312 8.24383C1.74687 8.21571 1.74063 8.19071 1.73438 8.16258C1.725 8.12196 1.73125 8.09383 1.71875 8.05008C1.70938 8.01883 1.70312 7.98758 1.70312 7.95633C1.70312 7.91258 1.69687 7.86883 1.6875 7.82508C1.675 7.79696 1.68125 7.86571 1.65313 7.82821C1.625 7.79071 1.62812 7.78758 1.62812 7.75633C1.62812 7.72508 1.65625 7.75321 1.65625 7.75321C1.65625 7.75321 1.65625 7.73446 1.65625 7.69696L1.63125 7.63758C1.61563 7.59696 1.60312 7.55633 1.59375 7.51571C1.57812 7.45321 1.55937 7.39696 1.55 7.36571C1.54062 7.33446 1.525 7.31258 1.5125 7.28758C1.5125 7.15008 1.5125 7.00633 1.50312 6.85633L1.46875 6.85946L1.45 6.50008V6.45946C1.40625 6.35321 1.375 6.24383 1.35312 6.13133C1.35312 6.13133 1.37812 6.20008 1.39062 6.17821V6.17508L1.36875 6.09696C1.35312 6.05946 1.35 6.04383 1.3625 6.04383H1.34375L1.32812 5.99071C1.3125 5.96883 1.3 5.94383 1.29062 5.91883L1.27188 5.83446L1.22812 5.66258C1.23125 5.64383 1.23438 5.62508 1.23438 5.60633C1.23438 5.56571 1.20938 5.56571 1.20938 5.56571L1.20625 5.64071C1.19062 5.55321 1.175 5.46571 1.1625 5.37508L1.1875 5.32821C1.1875 5.32821 1.20938 5.35008 1.20938 5.32508C1.20938 5.29696 1.2 5.26571 1.18438 5.24383H1.175L1.15313 5.23446C1.14688 5.16571 1.14062 5.10008 1.13437 5.03446L1.15313 5.00008L1.1625 4.94383V4.85321C1.16562 4.83446 1.175 4.81883 1.18438 4.80633C1.18438 4.77196 1.18125 4.74696 1.18125 4.72508L1.16875 4.67821C1.16875 4.67821 1.16875 4.67196 1.17188 4.65633C1.175 4.64071 1.17188 4.63758 1.175 4.62196C1.175 4.59071 1.1625 4.58446 1.15313 4.58133H1.15L1.14375 4.65321C1.12812 4.56571 1.08125 4.52196 1.06875 4.43133L1.08438 4.40008L1.09063 4.38446C1.09063 4.38446 1.1125 4.40633 1.1125 4.38133C1.1125 4.35321 1.10312 4.32196 1.0875 4.30008H1.07812L1.06875 4.29696L1.05625 4.29383C1.04688 4.24696 1.0375 4.20321 1.02188 4.15946L1.23125 4.14696L1.31562 4.12508C1.375 4.11258 1.43437 4.14383 1.45625 4.19696L1.51875 4.17508H1.57812C1.57812 4.17508 1.55 4.20008 1.57812 4.20321C1.60625 4.20633 1.60938 4.20633 1.65 4.18133C1.69062 4.15633 1.61563 4.15946 1.65 4.14696C1.69687 4.13758 1.74375 4.13446 1.79062 4.13758C1.825 4.13758 1.85938 4.13446 1.89062 4.12821C1.9375 4.12196 1.96875 4.12821 2.01562 4.12196C2.04688 4.11883 2.06875 4.11258 2.10625 4.10946H2.1625C2.22812 4.11258 2.30312 4.12821 2.33125 4.12821C2.35938 4.13133 2.475 4.12821 2.47813 4.15008C2.48438 4.17196 2.55313 4.17821 2.60625 4.15633V4.19071H2.72187L2.825 4.20008L2.8375 4.20321V4.23758L2.92812 4.25321L2.96563 4.24383C3.00938 4.25946 3.05 4.27508 3.09063 4.29696L3.10625 4.33133C3.1875 4.29696 3.275 4.26571 3.3625 4.24383C3.4125 4.23446 3.4625 4.22508 3.5125 4.22196L3.55312 4.21883L3.6375 4.20946L3.7 4.20008L3.75625 4.21258C3.75625 4.21258 3.7375 4.22508 3.74688 4.23446C3.75 4.23758 3.75312 4.24071 3.75625 4.24071C3.76562 4.24383 3.775 4.24696 3.78437 4.24383C3.79688 4.24071 3.8125 4.23758 3.825 4.23133C3.86875 4.21571 3.8 4.20321 3.82812 4.19696C3.87188 4.19696 3.91562 4.20321 3.95625 4.21571C3.9875 4.22196 4.01875 4.22508 4.05 4.22508C4.09375 4.22821 4.12187 4.24071 4.1625 4.24696C4.19375 4.25008 4.21562 4.25008 4.24687 4.25633L4.3 4.26883C4.34688 4.28446 4.39375 4.30946 4.42188 4.32196L4.44375 4.33133C4.48438 4.34383 4.52187 4.35946 4.55937 4.38133H4.62813C4.68125 4.38446 4.73125 4.39383 4.78438 4.40321C4.82812 4.41571 4.87188 4.42196 4.91563 4.42508L4.98125 4.43133L5.03438 4.45633C5.03438 4.45633 5 4.46571 5.025 4.48133C5.05 4.49696 5.05 4.49696 5.09688 4.49071C5.14375 4.48758 5.075 4.45633 5.10938 4.45946L5.12187 4.46258C5.1625 4.47508 5.2 4.49071 5.2375 4.50946C5.26875 4.52508 5.3 4.53446 5.33125 4.54383C5.37813 4.55633 5.4 4.57821 5.44375 4.59071C5.475 4.60008 5.49687 4.60633 5.52812 4.61883L5.53438 4.62196L5.54688 4.62508C5.59062 4.64071 5.63438 4.65321 5.67812 4.66258L5.74375 4.67508L5.79688 4.70633C5.79688 4.70633 5.75938 4.71258 5.78438 4.73133C5.80938 4.75008 5.80937 4.75008 5.85938 4.75008C5.90938 4.75008 5.84062 4.71258 5.875 4.71883C5.91875 4.73446 5.9625 4.75633 6.00313 4.78133C6.03125 4.79696 6.0625 4.81258 6.09688 4.82196C6.14062 4.84071 6.16563 4.86258 6.20625 4.87821C6.2375 4.89071 6.25938 4.89696 6.2875 4.91258L6.33437 4.94071C6.3875 4.97821 6.44063 5.02821 6.4625 5.04383C6.48438 5.06258 6.57812 5.11571 6.56875 5.13758C6.55937 5.15946 6.6125 5.20008 6.66563 5.21258L6.64687 5.24071L6.7375 5.30008L6.80937 5.36258L6.81563 5.37196L6.79688 5.40008L6.85 5.46258L6.88438 5.47508C6.90313 5.50946 6.92188 5.54383 6.9375 5.57821C6.97188 5.59696 6.96563 5.57196 7.00938 5.58133C7.05312 5.58446 7.09688 5.58133 7.14062 5.56571C7.17188 5.60633 7.20625 5.64383 7.24375 5.67508C7.32188 5.75008 7.24375 5.67508 7.34688 5.74383C7.37813 5.76571 7.4125 5.78446 7.45 5.79383C7.45625 5.81883 7.46563 5.84696 7.47813 5.87196C7.5 5.89383 7.51875 5.91571 7.53438 5.94071C7.54688 5.96571 7.56563 5.98758 7.5875 6.00633C7.60313 6.02508 7.625 6.03758 7.65 6.03446C7.64687 6.09696 7.64062 6.15946 7.6375 6.21883C7.64062 6.25008 7.64375 6.28446 7.64687 6.32196C7.65937 6.38758 7.62187 6.45633 7.55937 6.48133L7.575 6.55946C7.57187 6.60633 7.56875 6.63446 7.56875 6.63446C7.56875 6.63446 7.54688 6.59696 7.54063 6.63446C7.53438 6.67196 7.53438 6.67196 7.55625 6.72508C7.57812 6.77821 7.58125 6.68758 7.59062 6.72508C7.59687 6.78133 7.59687 6.83758 7.59062 6.89383C7.5875 6.93446 7.59062 6.97508 7.59375 7.01571C7.59688 7.07196 7.59062 7.10946 7.59375 7.16258C7.59688 7.20008 7.6 7.22821 7.6 7.26883V7.33758C7.59375 7.41571 7.575 7.50321 7.57188 7.53758C7.56875 7.57196 7.56875 7.70633 7.54688 7.70946C7.525 7.71258 7.51562 7.80008 7.53438 7.86258H7.5V8.00008L7.49062 8.12196L7.4875 8.13758H7.45312L7.43437 8.24071L7.44375 8.28758C7.42812 8.33758 7.40937 8.38446 7.3875 8.43133L7.35313 8.44696C7.39062 8.54696 7.41875 8.65008 7.44063 8.75321C7.44688 8.79383 7.45937 8.86883 7.46562 8.95008C7.46562 8.97196 7.46875 8.98758 7.46875 9.00633C7.47813 9.08446 7.48438 9.11571 7.48438 9.11571L7.5 9.19383C7.49687 9.24071 7.49375 9.26883 7.49375 9.26883C7.49375 9.26883 7.48125 9.24696 7.47188 9.25633C7.46875 9.25946 7.46562 9.26258 7.46562 9.26883C7.4625 9.28133 7.4625 9.29383 7.46562 9.30633C7.46875 9.32508 7.475 9.34071 7.48438 9.35946C7.50625 9.41258 7.50938 9.32196 7.51875 9.35946C7.525 9.41571 7.525 9.47196 7.51875 9.52821C7.51562 9.56883 7.51875 9.60946 7.52187 9.65008C7.525 9.70633 7.51875 9.74383 7.52187 9.79696C7.525 9.83446 7.52812 9.86258 7.52812 9.90321V9.97196C7.52187 10.0345 7.5125 10.1001 7.50625 10.1407C7.50625 10.1532 7.50313 10.1626 7.50313 10.172C7.50313 10.2251 7.49688 10.2782 7.4875 10.3313C7.49375 10.3595 7.5 10.3845 7.50625 10.4126C7.5125 10.4532 7.525 10.5282 7.53125 10.6095C7.53438 10.6657 7.54063 10.7188 7.55 10.772L7.56563 10.8501C7.5625 10.897 7.55937 10.922 7.55937 10.922C7.55937 10.922 7.5375 10.8845 7.53125 10.922C7.525 10.9595 7.525 10.9595 7.54688 11.0126C7.56875 11.0657 7.57188 10.9751 7.58125 11.0126V11.0282C7.58438 11.0782 7.58438 11.1313 7.58125 11.1813C7.57812 11.222 7.58125 11.2626 7.58437 11.3032C7.5875 11.3595 7.58125 11.397 7.58437 11.4501C7.5875 11.4876 7.59062 11.5157 7.59062 11.5563V11.5657V11.5813C7.59375 11.6345 7.6 11.6907 7.60938 11.7438L7.625 11.822C7.62187 11.8688 7.61875 11.8938 7.61875 11.8938C7.61875 11.8938 7.59687 11.8563 7.59062 11.8938C7.58437 11.9313 7.58437 11.9313 7.60625 11.9845C7.62812 12.0376 7.63125 11.947 7.64062 11.9845C7.64687 12.0407 7.64687 12.097 7.64062 12.1532C7.6375 12.1938 7.64062 12.2345 7.64375 12.2751C7.64688 12.3345 7.64062 12.3688 7.64375 12.422C7.64688 12.4595 7.65 12.4876 7.65 12.5282V12.597C7.64375 12.6751 7.625 12.7626 7.625 12.797C7.625 12.8313 7.62187 12.9657 7.6 12.9688C7.57812 12.972 7.56875 13.0595 7.5875 13.122H7.55312V13.2595L7.54375 13.3813L7.54063 13.397H7.50625L7.4875 13.5001L7.49687 13.547C7.49062 13.5626 7.48438 13.5751 7.48125 13.5907C7.4625 13.5751 7.44375 13.5626 7.425 13.5501C7.37813 13.5157 7.35938 13.5063 7.33125 13.4876ZM14.9469 4.21571V4.31571C14.95 4.38133 14.9062 4.44071 14.8438 4.45946L14.85 4.53758L14.8344 4.60633C14.8344 4.60633 14.8156 4.56883 14.8062 4.60321C14.7969 4.63758 14.7969 4.63758 14.8125 4.69071C14.8281 4.74383 14.8406 4.65633 14.8469 4.69383C14.8469 4.74696 14.8406 4.80321 14.8281 4.85321C14.8219 4.89071 14.8188 4.93133 14.8188 4.96883C14.8156 5.02508 14.8031 5.05946 14.8 5.10946L14.7969 5.21258L14.7875 5.27821C14.7719 5.35321 14.7438 5.43446 14.7375 5.46571C14.7312 5.49696 14.7156 5.62508 14.6906 5.62821C14.6687 5.63133 14.65 5.70946 14.6625 5.77196L14.6281 5.76883L14.6125 5.90008L14.5875 6.01571L14.5813 6.03133L14.5469 6.02821L14.5156 6.12508L14.5188 6.16883C14.4969 6.21571 14.4719 6.25946 14.4469 6.30008L14.4125 6.31258C14.4375 6.41258 14.4563 6.51258 14.4656 6.61571C14.4656 6.65633 14.4688 6.72821 14.4656 6.80633V6.85946V6.96258L14.4719 7.04071L14.4563 7.10946C14.4563 7.10946 14.4437 7.08758 14.4344 7.09696C14.4312 7.10008 14.4281 7.10321 14.4281 7.10633C14.425 7.11883 14.4219 7.13133 14.4219 7.14383C14.425 7.16258 14.4281 7.17821 14.4344 7.19696C14.45 7.25008 14.4625 7.16258 14.4688 7.20008C14.4688 7.25321 14.4625 7.30633 14.45 7.35946C14.4437 7.39696 14.4406 7.43758 14.4406 7.47508C14.4406 7.53133 14.425 7.56571 14.4219 7.61571L14.4187 7.71883L14.4094 7.78446C14.3969 7.84071 14.3781 7.90321 14.3687 7.94071L14.3625 7.96883C14.3562 8.01883 14.3438 8.06883 14.3281 8.11883L14.3375 8.20008C14.3375 8.24071 14.3406 8.31258 14.3375 8.39071C14.3344 8.44383 14.3344 8.49383 14.3375 8.54696L14.3438 8.62508L14.3281 8.69383C14.3281 8.69383 14.3094 8.65633 14.3 8.69071C14.2906 8.72508 14.2906 8.72508 14.3062 8.77821C14.3219 8.83133 14.3344 8.74383 14.3406 8.78133V8.79696C14.3375 8.84696 14.3312 8.89383 14.3219 8.94383C14.3156 8.98133 14.3125 9.02196 14.3125 9.05946C14.3094 9.11571 14.2969 9.15008 14.2969 9.20008L14.2937 9.30321V9.31258V9.32821C14.2906 9.38133 14.2906 9.43133 14.2937 9.48446L14.3 9.56258L14.2844 9.63133C14.2844 9.63133 14.2656 9.59383 14.2563 9.62821C14.2469 9.66258 14.2469 9.66258 14.2594 9.71571C14.275 9.76883 14.2875 9.68133 14.2937 9.71883C14.2937 9.77196 14.2875 9.82508 14.275 9.87821C14.2687 9.91571 14.2656 9.95633 14.2656 9.99383C14.2656 10.0501 14.25 10.0845 14.25 10.1345L14.2469 10.2376L14.2375 10.3032C14.2219 10.3782 14.1938 10.4595 14.1875 10.4876C14.1812 10.5157 14.1656 10.647 14.1406 10.6501C14.1187 10.6532 14.1 10.7313 14.1125 10.7938L14.0813 10.7907L14.0656 10.922L14.0406 11.0376L14.0344 11.0501L14 11.047L13.9688 11.1438L13.9719 11.1876C13.95 11.2313 13.9281 11.272 13.9031 11.3126C13.9031 11.3657 13.9219 11.3407 13.9344 11.3938C13.95 11.4407 13.9781 11.4845 14.0156 11.5188C13.9969 11.5813 13.9844 11.6438 13.9781 11.7063C13.9719 11.7532 13.9719 11.7657 13.9719 11.772C13.8938 11.7626 13.8125 11.7563 13.725 11.7501L13.6219 11.7345L13.4281 11.7282H13.3969C13.3031 11.7501 13.2094 11.7501 13.1156 11.7282C13.1156 11.7282 13.2469 11.6688 13.0406 11.6907C12.9187 11.7032 12.8031 11.7376 12.6938 11.7938C12.55 11.8313 12.4031 11.8532 12.2563 11.8595C12.1313 11.8657 12.0063 11.897 11.8906 11.9501C11.7094 12.0063 11.5344 12.0688 11.3562 12.1313L11.2375 12.2001L11.2281 12.1688H11.2188L11.1438 12.1845L11.0625 12.2126L11.05 12.1813C11.0188 12.2126 10.9656 12.2251 10.9563 12.2032C10.9469 12.1813 10.8656 12.2095 10.8438 12.2188C10.8219 12.2251 10.7656 12.2282 10.7156 12.2438L10.675 12.2595C10.6531 12.2688 10.6344 12.2813 10.6156 12.2938C10.5875 12.3095 10.5625 12.3126 10.5281 12.3282C10.5062 12.3438 10.4844 12.3532 10.4594 12.3626C10.425 12.372 10.3906 12.3845 10.3625 12.4063C10.3438 12.4251 10.3969 12.4032 10.375 12.4376C10.3531 12.472 10.3531 12.472 10.3313 12.4751C10.3094 12.4813 10.3188 12.4501 10.3188 12.4501L10.275 12.4657L10.2375 12.5032C10.2094 12.5251 10.1812 12.547 10.1531 12.5657C10.1156 12.5907 10.0813 12.6157 10.05 12.6407C10.0312 12.6595 10.0125 12.6782 9.99687 12.697C9.89375 12.7313 9.78125 12.772 9.66562 12.8157L9.68125 12.847C9.59062 12.8813 9.50313 12.9251 9.4125 12.9657L9.38125 12.9782C9.31875 13.0501 9.25 13.1126 9.17188 13.1657C9.17188 13.1657 9.2125 13.1188 9.19063 13.1157L9.14375 13.1626C9.12187 13.1907 9.1125 13.197 9.10625 13.1876L9.1 13.1782L9.06875 13.2095C9.05938 13.2313 9.04688 13.2501 9.03438 13.2657L8.96875 13.3126L8.8625 13.4095C8.84688 13.4126 8.83125 13.4188 8.81875 13.422C8.80313 13.4251 8.79375 13.4407 8.8 13.4532C8.8 13.4563 8.8 13.4563 8.80313 13.4595L8.8625 13.4345L8.70625 13.5595C8.70625 13.5501 8.70625 13.5438 8.70625 13.5345C8.7125 13.3782 8.69688 13.222 8.6625 13.072C8.65313 12.8813 8.6625 12.6907 8.6875 12.5001C8.7125 12.3376 8.7125 12.1751 8.6875 12.0157L8.66875 11.2845C8.6625 11.222 8.65312 11.1657 8.64375 11.1095H8.67813L8.68125 11.097L8.69063 10.997V10.8845H8.725C8.70625 10.8313 8.7125 10.7626 8.73438 10.7595C8.75625 10.7563 8.75625 10.647 8.75937 10.6157C8.7625 10.5845 8.77812 10.5188 8.78438 10.4532C8.78438 10.4345 8.78438 10.4157 8.78438 10.397C8.78438 10.3626 8.78125 10.3407 8.77812 10.3095C8.775 10.2657 8.78125 10.2376 8.77812 10.1876C8.77187 10.1532 8.77187 10.122 8.775 10.0876C8.78125 10.0407 8.78125 9.99696 8.775 9.95008C8.76562 9.91883 8.7625 9.99383 8.74063 9.95008C8.71875 9.90633 8.71875 9.90633 8.725 9.87821C8.73125 9.84696 8.75313 9.87821 8.75313 9.87821C8.75313 9.87821 8.75625 9.85633 8.75937 9.81883L8.74375 9.75321C8.73438 9.70946 8.72813 9.66571 8.725 9.61883C8.71875 9.55008 8.70625 9.49071 8.7 9.45633C8.69375 9.42196 8.68125 9.39696 8.67188 9.36571C8.69063 9.22196 8.70625 9.07196 8.725 8.91571H8.69063L8.72188 8.54071L8.72812 8.50008C8.7 8.38446 8.68125 8.26571 8.675 8.14383C8.675 8.14383 8.69063 8.21883 8.70625 8.19696V8.19383L8.69375 8.10946C8.68438 8.06883 8.68125 8.05321 8.69375 8.05321H8.70625L8.69687 7.99383C8.68437 7.96883 8.675 7.94383 8.66875 7.91571L8.6625 7.82508L8.64062 7.64071C8.64688 7.62196 8.65312 7.60321 8.65312 7.58446C8.65938 7.54383 8.63437 7.53758 8.63437 7.53758L8.61875 7.61571C8.61562 7.52196 8.6125 7.42821 8.6125 7.33133L8.64375 7.28446C8.64375 7.28446 8.6625 7.30946 8.66562 7.28446C8.66875 7.25321 8.66562 7.22196 8.65 7.19383H8.64062L8.61875 7.18133C8.61875 7.10946 8.62187 7.03758 8.62813 6.96883L8.65312 6.93446L8.66875 6.87821L8.67813 6.78446C8.68438 6.76571 8.69375 6.75008 8.70625 6.73758C8.70938 6.70321 8.7125 6.67508 8.7125 6.65008L8.70625 6.59696C8.70938 6.59071 8.70937 6.58446 8.7125 6.57508C8.7125 6.56571 8.71562 6.55633 8.71875 6.53758C8.725 6.50633 8.7125 6.49696 8.70312 6.49383H8.7L8.68437 6.57196C8.68125 6.47821 8.64062 6.42508 8.64062 6.32821L8.65938 6.29696L8.66875 6.28133C8.66875 6.28133 8.6875 6.30633 8.69063 6.28133C8.69375 6.25008 8.69063 6.21883 8.675 6.19071H8.66562L8.65625 6.18758L8.64375 6.18133C8.64375 6.11883 8.62187 6.06571 8.625 6.00633C8.625 5.99696 8.625 5.98446 8.625 5.97508V5.97196L8.6625 5.87821C8.7625 5.80321 8.88437 5.69696 8.99375 5.60321L9.04688 5.54071C9.08438 5.49696 9.14687 5.48758 9.19687 5.52196L9.22812 5.46883L9.275 5.43758C9.275 5.43758 9.26875 5.47196 9.29375 5.45946C9.31875 5.44696 9.31875 5.44696 9.33438 5.40321C9.35 5.35946 9.29688 5.40321 9.3125 5.37821C9.34062 5.34696 9.37187 5.31883 9.40938 5.29696C9.43437 5.28133 9.45625 5.25946 9.475 5.23758C9.50625 5.20633 9.53125 5.20008 9.5625 5.17196C9.58125 5.15321 9.6 5.13446 9.62187 5.11883L9.6625 5.09383C9.70625 5.07196 9.75 5.05321 9.79688 5.03758C9.81875 5.02508 9.9 4.97821 9.91562 4.99696C9.93125 5.01258 9.98438 4.99383 10.0125 4.95633L10.0281 4.98446L10.1125 4.94071L10.1938 4.91258H10.2063L10.2188 4.94383L10.2937 4.93133L10.3188 4.90946C10.3563 4.91258 10.3969 4.91571 10.4344 4.92196L10.4594 4.95008C10.5125 4.89071 10.5719 4.83758 10.6375 4.79383C10.6812 4.76883 10.725 4.74696 10.7719 4.72508L10.8094 4.70946C10.8344 4.70008 10.8594 4.68758 10.8844 4.67196L10.9375 4.64071L10.9937 4.63133C10.9937 4.63133 10.9812 4.65008 10.9937 4.65633C10.9969 4.65946 11 4.65946 11.0031 4.65946C11.0125 4.65946 11.025 4.65633 11.0344 4.65321C11.0469 4.64383 11.0563 4.63446 11.0688 4.62508C11.1031 4.59383 11.0344 4.60946 11.0594 4.59383C11.1 4.57821 11.1438 4.56571 11.1875 4.56258C11.2188 4.55633 11.25 4.54696 11.2812 4.53446C11.325 4.51883 11.3563 4.52196 11.3969 4.50633C11.425 4.49696 11.45 4.48758 11.4781 4.47821L11.5312 4.46883C11.5844 4.46258 11.6344 4.46258 11.6687 4.46258H11.6938C11.7344 4.45321 11.7781 4.45008 11.8219 4.45008L11.8813 4.41571C11.9313 4.39383 11.9812 4.37508 12.0312 4.35946C12.0719 4.34696 12.1156 4.33133 12.1531 4.31571L12.2125 4.28758L12.2719 4.28446C12.2719 4.28446 12.2469 4.31258 12.2781 4.31258C12.3062 4.31258 12.3062 4.31258 12.3438 4.28446C12.3813 4.25633 12.3094 4.26571 12.3375 4.25008L12.35 4.24696C12.3906 4.23758 12.4281 4.23133 12.4688 4.22821C12.5 4.22508 12.5312 4.21883 12.5625 4.20633C12.6062 4.19383 12.6375 4.20008 12.6781 4.19071C12.7063 4.18446 12.7312 4.17508 12.7594 4.17196H12.7656L12.7781 4.16883C12.8219 4.15946 12.8625 4.14696 12.9031 4.13133L12.9625 4.10633H13.0219C13.0219 4.10633 12.9969 4.13133 13.025 4.13446C13.0531 4.13758 13.0531 4.13446 13.0938 4.10946C13.1313 4.08446 13.0594 4.08758 13.0906 4.07508C13.1344 4.06258 13.1781 4.05946 13.2219 4.06258C13.2531 4.06258 13.2844 4.05633 13.3156 4.05008C13.3594 4.04071 13.3906 4.04696 13.4312 4.04071C13.4625 4.03446 13.4844 4.03133 13.5156 4.02821H13.5688C13.6313 4.02821 13.7 4.04383 13.725 4.04696C13.75 4.05008 13.8562 4.04696 13.8594 4.06883C13.8625 4.09071 13.9281 4.09696 13.9781 4.07821V4.11258H14.0813L14.175 4.12196L14.1875 4.12508V4.15008L14.2656 4.17196L14.3 4.16258C14.3344 4.17821 14.3719 4.19696 14.4031 4.21883C14.4437 4.21258 14.4219 4.19696 14.4656 4.18133C14.5031 4.15946 14.5375 4.12821 14.5625 4.09071C14.6125 4.10633 14.6625 4.11258 14.7125 4.11571C14.8219 4.12821 14.7125 4.11571 14.8406 4.10633C14.9375 4.10008 14.9438 4.06883 14.9875 4.07196C14.9656 4.11571 14.9562 4.16883 14.9469 4.21571ZM15.5688 3.51258C15.5719 3.50633 15.5781 3.49696 15.5844 3.48758C15.5813 3.51258 15.575 3.51571 15.5688 3.51258Z" fill="#FF91B2"/>
</g>
<defs>
<clipPath id="clip0_750_2161">
<rect width="16" height="16" fill="white"/>
</clipPath>
</defs>
</svg>
