<svg width="93" height="83" viewBox="0 0 93 83" fill="none" xmlns="http://www.w3.org/2000/svg">
<path d="M58.6377 60.8798L58.5391 75.5498L59.4135 75.5568L59.5121 60.8867L58.6377 60.8798Z" fill="#050E0B"/>
<path d="M86.3055 50.5667C85.5145 59.7881 71.5879 63.5789 40.6179 59.3668C19.7536 56.5238 5.57573 47.5507 8.1047 39.0434C10.0213 32.612 16.6443 31.8676 27.3237 32.517C27.8812 32.5523 28.3624 32.0942 28.41 31.4805C29.1522 20.7759 37.1609 9.32376 48.2562 10.3297C58.3229 11.2379 63.7248 17.1934 66.9088 27.961C67.7307 30.7545 67.8507 33.377 67.4318 35.7861C67.3225 36.4029 67.6757 36.9968 68.232 37.1293C81.2259 40.167 86.8012 44.7883 86.3057 50.5724L86.3055 50.5667Z" fill="#FF91B2"/>
<path d="M58.5843 36.9727C61.6078 36.5167 63.6968 33.1841 63.2501 29.5291C62.8034 25.8741 59.9903 23.2809 56.9668 23.7369C53.9432 24.1928 51.8543 27.5254 52.3009 31.1804C52.7476 34.8354 55.5607 37.4287 58.5843 36.9727Z" fill="white"/>
<path d="M46.0278 28.4368C46.2919 24.7599 44.0404 21.5618 40.9988 21.2937C37.9573 21.0257 35.2775 23.7892 35.0134 27.4662C34.7493 31.1432 37.0008 34.3413 40.0424 34.6093C43.0839 34.8774 45.7637 32.1138 46.0278 28.4368Z" fill="white"/>
<path d="M40.7862 32.3249C42.7701 32.2269 44.3008 30.2019 44.2052 27.802C44.1095 25.402 42.4237 23.536 40.4398 23.634C38.4559 23.7321 36.9252 25.757 37.0209 28.157C37.1165 30.5569 38.8023 32.4229 40.7862 32.3249Z" fill="#0F0000"/>
<path d="M58.1141 34.4572C60.0482 34.1655 61.3845 32.0348 61.099 29.6981C60.8134 27.3614 59.0141 25.7036 57.08 25.9953C55.146 26.287 53.8096 28.4177 54.0952 30.7544C54.3807 33.0911 56.1801 34.7489 58.1141 34.4572Z" fill="#0F0000"/>
<path d="M50.5605 33.955L50.5055 34.0028L50.6899 33.9704L50.5605 33.955Z" fill="#2A1D1D"/>
<path d="M49.9282 34.2432L50.0118 34.2724C50.5379 34.143 50.3912 34.2182 50.7614 34.0524C50.6731 34.0347 50.4818 34.0169 50.2727 34.0787C50.299 34.0941 50.5046 34.0774 50.4443 34.12C50.2904 34.1395 50.3046 34.1051 50.1048 34.1383C49.948 34.2197 50.2385 34.1311 50.1741 34.2019L49.9336 34.2485L49.9282 34.2432Z" fill="#2A1D1D"/>
<path d="M50.4653 34.199C50.373 34.2094 50.2809 34.2253 50.2041 34.2404C50.2965 34.23 50.4149 34.2292 50.4653 34.199Z" fill="#2A1D1D"/>
<path d="M50.5231 34.2205C50.5089 34.2541 50.3285 34.2527 50.2979 34.2598L50.6475 34.2413L50.5231 34.2205Z" fill="#2A1D1D"/>
<path d="M50.5195 34.3623C50.5195 34.3623 50.5405 34.3714 50.5507 34.3709C50.6069 34.3576 50.5606 34.3601 50.5195 34.3623Z" fill="#2A1D1D"/>
<path d="M50.5618 34.4284C50.6793 34.3997 50.6068 34.3924 50.5497 34.3787C50.5445 34.379 50.5394 34.3793 50.5291 34.3798C50.4324 34.413 50.1802 34.421 50.246 34.3895C50.1886 34.3702 50.4347 34.3346 50.2697 34.3323L50.0761 34.393C50.1084 34.4304 50.4686 34.4167 50.5669 34.4282L50.5618 34.4284Z" fill="#2A1D1D"/>
<path d="M50.5179 34.3616C50.5179 34.3616 50.502 34.3512 50.5018 34.3455C50.4611 34.359 50.487 34.3633 50.5179 34.3616Z" fill="#2A1D1D"/>
<path d="M50.5426 34.2867L50.4908 34.2784L50.3834 34.3007L50.5426 34.2867Z" fill="#2A1D1D"/>
<path d="M50.5925 34.5459C50.2531 34.5641 50.6203 34.4606 50.358 34.4747C50.375 34.5185 50.1296 34.5707 49.9443 34.5751L50.0537 34.6083C50.1827 34.6126 50.4341 34.5823 50.5923 34.5403L50.5925 34.5459Z" fill="#2A1D1D"/>
<path d="M49.75 34.6855C49.7808 34.6839 49.7964 34.6882 49.8069 34.6928C49.7915 34.6936 49.7759 34.6893 49.75 34.6855Z" fill="#2A1D1D"/>
<path d="M50.3285 34.8995L49.9895 34.7939C50.098 34.7993 50.2061 34.7935 50.2431 34.8196C50.2878 34.7721 50.0711 34.767 50.1059 34.7313C50.4198 34.7143 50.1289 34.7976 50.4115 34.7711C50.4002 34.7435 50.3883 34.6991 50.1197 34.6855L50.3341 34.6288L49.99 34.6643C49.8928 34.6865 50.2639 34.6833 50.0225 34.7076C49.8733 34.7157 49.8471 34.7059 49.8107 34.6966C49.8786 34.7211 49.5402 34.7732 49.5832 34.8216C49.6159 34.8705 50.162 34.8578 50.3287 34.9051L50.3285 34.8995Z" fill="#2A1D1D"/>
<path d="M49.9461 34.8984L49.8125 34.9053L49.9925 34.9011L49.9461 34.8984Z" fill="#2A1D1D"/>
<path d="M50.395 35.0357L50.1811 34.9684C50.212 34.9668 50.284 34.9629 50.3458 34.9595C50.2631 34.9527 50.1289 34.9487 50.0667 34.9408C49.7528 34.9578 50.1671 35.0086 50.22 35.0451C50.0731 35.115 50.0546 35.0316 49.7561 35.0477C49.7658 35.0303 49.838 35.032 49.8627 35.0025C49.5081 35.033 49.8251 35.1002 49.9088 35.1351C49.9397 35.1334 50.0374 35.1282 50.0111 35.1127L50.1105 35.1523C50.3626 35.1387 50.4285 35.107 50.3948 35.03L50.395 35.0357Z" fill="#2A1D1D"/>
<path d="M50.3979 34.9291C50.3979 34.9291 50.3989 34.9572 50.3526 34.9597C50.4349 34.9553 50.4966 34.9519 50.3979 34.9291Z" fill="#2A1D1D"/>
<path d="M49.9151 35.1586C49.9151 35.1586 49.9303 35.1522 49.9094 35.142C49.894 35.1428 49.8942 35.1485 49.9151 35.1586Z" fill="#2A1D1D"/>
<path d="M50.286 35.1563L50.2512 35.1918L50.4004 35.1837C50.4004 35.1837 50.3634 35.1577 50.286 35.1563Z" fill="#2A1D1D"/>
<path d="M49.5226 36.4988C49.6436 36.5491 49.7061 36.5571 49.6893 36.5239C49.8473 36.595 49.8016 36.6202 49.8864 36.6726C50.0005 36.6777 50.0706 36.7536 50.228 36.8077C50.2576 36.7662 50.0619 36.6573 50.118 36.6315C50.1602 36.652 50.2338 36.6821 50.2913 36.6961C50.2098 36.5923 50.0957 36.4448 50.2506 36.4306C50.3269 36.3923 50.2624 36.3275 50.2023 36.2397C50.346 36.061 50.2177 35.806 50.4076 35.6135L50.0833 35.5286C50.2496 35.5424 50.0918 35.4769 50.3005 35.5168C50.2591 35.5191 50.2909 35.5401 50.2916 35.5572C50.5867 35.5525 50.2868 35.4264 50.3993 35.3861C50.3373 35.3895 50.0513 35.3595 50.0039 35.3393C50.3735 35.3875 50.0017 35.2768 50.4275 35.3049C50.5346 35.2592 50.1051 35.2712 50.1704 35.2164C49.9521 35.1941 50.0633 35.2621 49.8972 35.254C49.725 35.2179 49.9734 35.21 49.7448 35.194C49.6385 35.2625 50.0606 35.4729 50.16 35.644L49.9613 35.5922C50.0994 35.6872 50.0779 35.808 49.7455 35.7862C49.9385 35.8213 49.6237 35.8555 50.0574 35.9571C49.9535 35.9514 49.9695 35.9619 49.9285 35.9755L50.0648 36.0194C50.0557 36.054 49.8462 35.9914 49.8476 36.0312C50.035 36.0552 50.0834 36.1038 50.2304 36.1584C50.0124 36.1475 49.8207 36.1466 49.6439 36.1277C49.7014 36.1417 49.7694 36.1607 49.8528 36.1733C49.7804 36.1772 49.9584 36.2302 50.0165 36.2612C50.0176 36.2896 49.7868 36.211 49.6662 36.1721C49.5841 36.1936 50.0204 36.3692 49.8593 36.3551L50.0477 36.4075C50.0761 36.4743 49.8573 36.4407 49.9017 36.5237C49.6399 36.4468 49.7001 36.3923 49.5994 36.3295C49.5421 36.3212 49.5218 36.3337 49.4381 36.3098C49.5599 36.3829 49.7191 36.4881 49.8308 36.5674C49.5508 36.4175 49.5431 36.492 49.5177 36.5047L49.5226 36.4988Z" fill="#2A1D1D"/>
<path d="M49.4463 36.2986C49.4095 36.2779 49.3779 36.2626 49.3516 36.2471C49.3674 36.2575 49.3833 36.268 49.3678 36.2689C49.3992 36.2785 49.4253 36.2884 49.4463 36.2986Z" fill="#2A1D1D"/>
<path d="M49.5276 36.496L49.4961 36.4863C49.4961 36.4863 49.5175 36.5022 49.5276 36.496Z" fill="#2A1D1D"/>
<path d="M50.2732 36.43C50.2732 36.43 50.2629 36.4305 50.2525 36.4311C50.2525 36.4311 50.2525 36.4311 50.2424 36.4368L50.2683 36.4354L50.2732 36.43Z" fill="#2A1D1D"/>
<path d="M49.4454 36.0967C49.5129 36.1098 49.5853 36.1171 49.6526 36.1247C49.5693 36.1012 49.5016 36.0825 49.4454 36.0967Z" fill="#2A1D1D"/>
<path d="M49.7267 35.8411C49.695 35.8203 49.638 35.8121 49.5754 35.7929C49.5657 35.8104 49.6234 35.8354 49.7267 35.8411Z" fill="#2A1D1D"/>
<path d="M49.3828 36.332L49.4266 36.3979L49.4743 36.4295L49.3828 36.332Z" fill="#2A1D1D"/>
<path d="M49.9193 37.6289C50.1351 37.7309 50.0525 37.5931 50.1188 37.5668C50.0614 37.4105 49.689 37.2715 49.7012 37.1797L50.1096 37.4534C50.1267 37.3557 50.2844 37.2789 49.9279 37.008C49.9855 37.0276 50.0535 37.0467 50.1072 37.1007C50.1152 37.0376 49.5047 36.7522 49.6757 36.7599C49.9209 36.9572 49.9434 36.8649 50.2024 37.0158L50.2293 37.0428C50.227 36.9803 50.1033 36.8505 50.1335 36.826C50.0178 36.7754 49.8346 36.7171 49.8383 36.6771C49.8073 36.6788 49.6809 36.6173 49.5704 36.5664C49.6826 36.6628 49.5939 36.6449 49.7319 36.7398C49.5749 36.6914 49.6892 36.7023 49.5373 36.6536L49.6598 36.7494C49.6185 36.7517 49.5218 36.6545 49.476 36.674C49.5605 36.7207 49.6408 36.796 49.6104 36.8147L49.5627 36.7832C49.611 36.8317 49.528 36.8249 49.7703 36.9426L49.5235 36.8422L49.6868 36.9244C49.5999 36.9519 49.2043 36.7458 49.3714 36.9302C49.4288 36.9441 49.5036 37.0084 49.5304 37.0354C49.656 37.074 49.4282 36.9271 49.4216 36.8876C49.5852 36.9754 49.7514 37.1371 49.8659 37.1537C49.6562 37.0797 49.8485 37.2457 49.4472 37.0228C49.4015 37.0481 49.5827 37.1919 49.4682 37.1753L49.4098 37.133C49.6595 37.3129 49.2736 37.0892 49.5141 37.2981L49.5872 37.3168C49.6882 37.391 49.6834 37.4027 49.695 37.4362C49.6701 37.4148 49.64 37.3955 49.6049 37.3785C49.7856 37.5109 49.7782 37.591 49.8263 37.6339C49.8728 37.6314 49.7437 37.4961 49.7105 37.4353C49.8067 37.5212 49.9658 37.6263 49.9193 37.6289Z" fill="#2A1D1D"/>
<path d="M49.4805 36.7168L49.5706 36.78C49.5706 36.78 49.5332 36.748 49.4805 36.7168Z" fill="#2A1D1D"/>
<path d="M49.4782 37.5987C49.4209 37.5904 49.3388 37.4695 49.2438 37.4234C49.3416 37.5491 49.5094 37.6027 49.6662 37.7822C49.5495 37.7088 49.7065 37.894 49.6968 37.9116C49.6101 37.808 49.3803 37.6154 49.3323 37.5781C49.3865 37.6435 49.2593 37.565 49.244 37.5715C49.4078 37.6595 49.2998 37.6825 49.4746 37.7869C49.6035 37.911 49.6603 38.0504 49.5486 37.971C49.4572 37.8791 49.4884 37.8831 49.493 37.8657C49.3259 37.6867 49.3819 37.8034 49.2208 37.6469C49.4276 37.9206 49.2865 38.0308 49.6737 38.4201C49.7589 38.4838 49.6874 38.3681 49.6861 38.3339C49.5707 38.2946 49.4969 38.1163 49.4371 38.0397C49.5114 38.087 49.4229 37.9322 49.5525 38.079L49.6628 38.2611C49.833 38.2404 49.9193 38.0477 49.9543 37.8691C49.9394 37.887 49.9245 37.9049 49.9094 37.9171C49.8021 37.8147 49.8114 37.7857 49.7727 37.7194L49.4805 37.5187C49.5115 37.5171 49.4788 37.4732 49.575 37.5535C49.4672 37.4397 49.393 37.3924 49.292 37.3238C49.2635 37.2513 49.3752 37.3307 49.2087 37.1688C48.9501 37.0404 49.3713 37.3651 49.1342 37.2583L49.4881 37.5867L49.4782 37.5987Z" fill="#2A1D1D"/>
<path d="M49.4062 37.3506L49.54 37.4741L49.4855 37.3974L49.4062 37.3506Z" fill="#2A1D1D"/>
<path d="M50.0081 37.8551C49.9444 37.8074 49.9277 37.7743 49.8642 37.7323C49.8023 37.7357 49.8922 37.7932 50.0081 37.8551Z" fill="#2A1D1D"/>
<path d="M49.1875 37.6699L49.2057 37.743L49.2691 37.7794C49.2152 37.7197 49.1987 37.6921 49.1877 37.6756L49.1875 37.6699Z" fill="#2A1D1D"/>
<path d="M49.5483 38.6262C49.5919 38.5441 49.5086 38.3891 49.6828 38.4765C49.5612 38.2666 49.3909 38.1448 49.2652 37.9636C49.2127 37.9437 49.4623 38.2549 49.4813 38.3507C49.3514 38.1982 49.4633 38.4257 49.4058 38.4118C49.46 38.4772 49.5148 38.5597 49.5483 38.6262Z" fill="#2A1D1D"/>
<path d="M48.965 38.0847C48.965 38.0847 48.9915 38.248 48.9318 38.166C48.8809 38.0439 48.8689 37.9991 48.8955 38.0204C48.7619 37.7551 48.8973 38.0714 48.793 37.901C48.8095 37.9285 48.837 37.9725 48.8547 38.034C48.7809 37.9926 48.915 38.2748 48.7866 38.1512C48.8051 38.2354 48.7897 38.2362 48.8533 38.4258C48.7315 38.1997 48.7519 38.1929 48.6569 37.9936C48.6868 38.1056 48.7633 38.3626 48.8339 38.6029C48.6624 38.2886 48.7438 38.6816 48.642 38.4373C48.6416 38.426 48.6391 38.358 48.6608 38.3852C48.6019 38.0421 48.6325 38.4606 48.5888 38.3948L48.5573 38.0956C48.5435 38.1418 48.5096 38.348 48.4656 38.129L48.46 37.976C48.4119 38.2171 48.3458 38.1014 48.2878 38.2125L48.281 38.0255C48.1859 38.2521 48.3365 38.1303 48.2494 38.578C48.2862 38.0252 48.1887 38.7573 48.1545 38.5263C48.162 38.3045 48.2178 38.4207 48.2241 38.1648C48.1826 38.4453 48.1907 38.2405 48.1572 38.3161C48.2045 38.0523 48.1195 38.2727 48.1864 37.9795C48.1352 38.1356 48.0739 38.2979 48.0017 38.4438C48.0273 38.2948 47.9968 38.3078 47.9721 38.3375C48.0193 38.3577 47.8305 38.7086 47.8614 38.8489C48.0081 38.7614 48.166 38.7017 48.2796 38.8432C48.3075 38.4726 48.3573 38.8503 48.3774 38.5483C48.3817 38.6673 48.3854 38.7693 48.3947 38.8823C48.4745 38.8042 48.3718 38.6792 48.3877 38.5477C48.417 38.5007 48.4506 38.7146 48.4503 38.8509C48.5077 38.8648 48.4518 38.7486 48.4704 38.5489L48.5314 38.9487C48.6167 38.8816 48.7106 38.7629 48.8005 38.6785C48.8908 38.6055 48.9715 38.55 49.1078 38.605L48.9965 38.384C49.1387 38.4614 48.8477 37.8413 49.1623 38.2557L49.0726 38.0618C49.1231 38.1726 49.2798 38.3628 49.3476 38.5238C49.3237 38.4343 49.3932 38.4986 49.3748 38.4201L49.2742 38.3518C49.1846 38.1579 49.2808 38.2492 49.3893 38.391C49.298 38.1518 49.1194 38.0706 49.0048 37.9009C49.1856 38.3282 48.724 37.5641 48.7826 37.754C48.8186 37.894 48.8881 37.9583 48.9491 38.0742L48.965 38.0847Z" fill="#2A1D1D"/>
<path d="M49.3788 38.6131C49.3788 38.6131 49.3667 38.5681 49.3555 38.5459C49.3561 38.563 49.3673 38.5852 49.3788 38.6131Z" fill="#2A1D1D"/>
<path d="M47.984 38.3504C47.984 38.3504 47.9737 38.351 47.9583 38.3518C47.9294 38.4102 47.9589 38.3688 47.984 38.3504Z" fill="#2A1D1D"/>
<path d="M49.0897 37.8947L49.0744 37.9012L49.1398 37.9888L49.0897 37.8947Z" fill="#2A1D1D"/>
<path d="M47.9591 37.9853L47.8906 38.0973C47.9101 38.062 47.9347 38.0265 47.9591 37.9853Z" fill="#2A1D1D"/>
<path d="M47.7656 37.6064L47.766 37.6182C47.766 37.6182 47.7763 37.6059 47.7656 37.6064Z" fill="#2A1D1D"/>
<path d="M47.3186 36.209C47.2443 36.1618 47.1748 36.1029 46.9763 36.0624L47.0957 36.0673C47.0378 36.042 46.8479 35.9498 46.6266 35.996L46.7309 36.0131C46.9095 36.0775 46.5302 36.0526 46.4489 36.0969C46.5031 36.1623 46.9604 36.1943 46.8534 36.2457C46.8646 36.2679 46.7452 36.263 46.6516 36.2567C46.6173 36.3099 46.9703 36.3248 47.0129 36.3567C46.0968 36.3952 47.2618 36.5026 46.6849 36.6024C46.7641 36.6436 46.6892 36.7218 46.8669 36.7634C46.6333 36.7533 46.8535 36.8211 46.5948 36.8351C47.1272 36.7948 46.3745 37.0522 47.0455 36.9701C46.8679 37.0766 47.092 36.9676 46.9459 37.0838C46.8739 37.0991 46.8681 37.0823 46.8524 37.0775C46.7199 37.1416 47.1429 37.0844 46.8455 37.1747C46.8072 37.2622 47.0262 37.1534 47.2128 37.1547C47.1487 37.2436 47.0553 37.243 46.7898 37.3543C47.1035 37.2859 46.9613 37.3677 47.1323 37.3641C47.1474 37.3519 47.1969 37.2866 47.3212 37.2855C47.2883 37.3784 47.5393 37.2964 47.6391 37.3308C47.3073 37.4742 47.6107 37.264 47.357 37.4145C47.1863 37.4238 47.1948 37.3721 46.9371 37.4146C46.9297 37.4948 47.0153 37.5699 47.1767 37.5896C47.1426 37.6484 47.0122 37.627 46.9931 37.6736C46.8687 37.8171 47.3708 37.653 47.2454 37.7681L47.0715 37.8345C47.3021 37.7593 47.0773 37.9937 47.2329 37.9966C47.3085 37.9356 47.359 37.8986 47.415 37.8728C47.015 38.1338 47.6566 37.8141 47.4218 38.0604C47.6586 37.8709 47.8118 37.8056 47.8478 37.798C47.7931 37.8636 47.6977 37.9485 47.6375 38.0031C47.7354 37.844 47.3587 38.1778 47.2149 38.2141C47.3632 38.1604 47.2918 38.3352 47.4791 38.2111L47.2982 38.369C47.3274 38.4586 47.7105 38.0162 47.594 38.2333L47.4743 38.3651C47.5327 38.4018 47.5471 38.515 47.6015 38.5861C47.6555 38.6458 47.7344 38.6757 47.8577 38.5038C47.9149 38.3639 48.0114 38.0226 48.0594 37.9174C47.9855 38.024 47.8431 38.2425 47.7376 38.3337L47.8792 38.0925C47.7763 38.2576 47.6747 38.3144 47.6127 38.4658C47.502 38.5573 47.7291 38.243 47.6084 38.3465C47.7815 38.1149 47.8171 38.0958 47.9549 37.8947L47.855 37.9969C47.9243 37.9077 47.9036 37.9088 47.9781 37.8193C47.7281 38.0722 48.0353 37.6795 47.9092 37.7775L47.8852 37.8301C47.7755 37.95 47.7745 37.9216 47.7339 37.9466C47.8885 37.7786 47.8581 37.7974 47.9225 37.7141C47.8213 37.7823 47.5891 37.9545 47.5721 37.9155C47.8145 37.7371 47.6706 37.7734 47.8778 37.6254C47.6297 37.787 47.764 37.6316 47.6166 37.7137C47.555 37.7285 47.5691 37.6878 47.7114 37.6117C47.7218 37.6111 47.7475 37.604 47.7628 37.5975L47.7622 37.5805C47.7928 37.5674 47.8182 37.5546 47.8234 37.5543C47.8228 37.5373 47.6295 37.639 47.7562 37.558C47.8274 37.5199 47.8278 37.5313 47.8586 37.5239C47.893 37.4708 47.4329 37.6497 47.6608 37.5005C47.5329 37.5474 47.5002 37.5036 47.2144 37.6274C47.3108 37.5709 47.5461 37.484 47.4934 37.4584C47.2417 37.5234 47.5735 37.38 47.4034 37.4063C47.6765 37.363 47.4752 37.3853 47.7324 37.3314C47.8289 37.2749 47.4789 37.3452 47.518 37.2805C47.5795 37.26 47.6511 37.2333 47.7128 37.2186C47.6197 37.2237 47.4084 37.2579 47.6184 37.1895L47.4388 37.2392C47.5249 37.1832 47.4562 37.1471 47.6503 37.0682L47.2985 37.0873C47.657 36.9653 47.3143 36.9498 46.9975 36.9328C47.0119 36.9036 47.0726 36.8604 47.15 36.8505C47.1759 36.8491 47.228 36.8576 47.2799 36.8605C47.2891 36.8258 47.4838 36.7639 47.1939 36.774C47.0995 36.745 47.3944 36.7289 47.4348 36.6983C47.0238 36.658 47.7274 36.4772 47.1006 36.4886C47.1016 36.517 46.9744 36.5809 47.0077 36.6418C46.9294 36.6289 46.8111 36.6525 46.7947 36.6306C46.7614 36.5697 46.9932 36.5286 46.8875 36.4717L47.2865 36.4671C47.6871 36.3655 46.746 36.2858 47.3134 36.2093L47.3186 36.209Z" fill="#2A1D1D"/>
<path d="M47.3302 36.9194L47.5236 36.8527L47.3545 36.8787C47.3857 36.8883 47.3862 36.8995 47.3302 36.9194Z" fill="#2A1D1D"/>
<path d="M47.3603 36.8776C47.3603 36.8776 47.3136 36.8689 47.2773 36.8652C47.2778 36.8765 47.278 36.8821 47.3142 36.8857L47.3553 36.8835L47.3603 36.8776Z" fill="#2A1D1D"/>
<path d="M47.2472 36.0383C47.2472 36.0383 47.298 36.0129 47.2508 35.9927C47.2046 36.0009 47.1848 36.0247 47.2472 36.0383Z" fill="#2A1D1D"/>
<path d="M47.1282 35.9879L47.0668 36.0025L47.1135 36.0112L47.1282 35.9879Z" fill="#2A1D1D"/>
<path d="M46.9154 34.6944L46.6884 34.5815C46.8132 34.5917 46.6797 34.4851 46.8842 34.548C46.606 34.4549 46.9002 34.4161 46.4837 34.3704C46.5906 34.6039 46.3043 34.8587 46.6417 35.1537L46.4839 35.094C46.7959 35.2593 46.105 35.2285 46.7441 35.4045L46.4104 35.3543C46.3137 35.4052 46.8827 35.5109 46.526 35.5418L46.661 35.5458C46.661 35.5458 46.5993 35.5606 46.5948 35.5779L46.6569 35.5745C46.7885 35.63 46.7686 35.6539 46.6765 35.6874C46.5674 35.6819 46.6343 35.6669 46.6026 35.6515C46.4939 35.6575 46.7189 35.7136 46.7148 35.7423C46.622 35.7587 46.5641 35.7334 46.5171 35.7246C46.6558 35.831 46.3042 35.8615 46.8002 35.9541C46.894 35.9661 46.9708 35.9392 47.0135 35.971C47.1723 35.9168 46.9783 35.859 46.8462 35.7921L46.8469 35.8092C46.3618 35.733 46.9547 35.7805 46.7494 35.6948C46.9425 35.7299 46.9436 35.7583 47.0481 35.7811C47.4247 35.7264 46.7734 35.6422 47.2552 35.6274L47.2707 35.6266C47.3173 35.624 47.2282 35.6004 47.1858 35.5742C47.1237 35.5776 47.0879 35.5909 47.0415 35.5992C46.9993 35.5787 46.7856 35.5504 46.6968 35.5325C46.9146 35.532 46.5969 35.4923 46.7049 35.4693C46.9022 35.4757 46.883 35.5166 46.9875 35.5394L46.8558 35.4839C46.8492 35.4444 47.0784 35.4718 47.1871 35.4659C47.0401 35.4169 47.0784 35.4718 46.8693 35.4262C47.1177 35.4127 47.07 35.2387 46.8845 35.1291C46.9064 35.1621 47.0934 35.169 47.0582 35.1994C47.1047 35.1969 47.0039 35.134 46.8528 35.1138C46.7257 35.0409 46.8324 34.9781 46.9765 34.9475L46.8206 34.9389C46.5738 34.8555 47.0249 34.8537 46.8864 34.753C46.8595 34.726 46.4933 34.6376 46.5751 34.6047C46.7531 34.652 46.7331 34.6702 46.9156 34.7001L46.9154 34.6944Z" fill="#2A1D1D"/>
<path d="M46.6063 34.3492L46.8099 34.4172C46.8608 34.3975 46.5997 34.31 46.4648 34.2891C46.507 34.315 46.4094 34.326 46.5291 34.3534C46.56 34.3517 46.6328 34.3703 46.6063 34.3492Z" fill="#2A1D1D"/>
<path d="M46.6749 33.8042C46.6276 33.784 46.5492 33.7655 46.4967 33.7456C46.5012 33.8706 46.5535 34.0272 46.383 34.0365C46.3166 34.0629 46.6248 34.1372 46.6893 34.2021L46.4761 34.1795C46.6024 34.2353 46.3602 34.2655 46.7138 34.3089C46.7449 34.3072 46.5565 34.2548 46.6184 34.2458L46.7385 34.2734L46.7052 34.2126L46.8519 34.2615C47.0789 34.2378 46.4119 34.1204 46.5702 34.0605L46.8679 34.1297C46.8971 34.0768 46.7968 34.0254 46.9882 34.0206C46.9882 34.0206 46.8419 33.983 46.8998 34.0084C46.8791 34.0095 46.7596 33.9989 46.6705 33.9696C46.4531 33.8277 46.8485 34.0225 46.982 33.9925C46.7913 33.8719 46.6499 33.686 46.8992 33.7066C46.7123 33.694 46.5325 33.5899 46.5623 33.5541C46.6714 33.5652 46.7353 33.613 46.8246 33.648C46.8604 33.6346 46.9383 33.6418 46.9009 33.6097C46.7345 33.5902 46.5092 33.5171 46.4284 33.4304C46.2136 33.5047 46.7444 33.7207 46.6906 33.809L46.6749 33.8042Z" fill="#2A1D1D"/>
<path d="M46.4309 33.7136C46.4309 33.7136 46.4629 33.7402 46.4942 33.7498C46.4936 33.7328 46.4932 33.7215 46.4927 33.7102L46.4258 33.7139L46.4309 33.7136Z" fill="#2A1D1D"/>
<path d="M29.5777 75.4715C30.6875 75.4167 31.5473 74.3739 31.4982 73.1425C31.4491 71.911 30.5097 70.9572 29.4 71.012C28.2902 71.0669 27.4304 72.1096 27.4795 73.3411C27.5286 74.5725 28.468 75.5264 29.5777 75.4715Z" fill="#0F0000"/>
<path d="M59.1012 79.327C60.2109 79.2722 61.0707 78.2294 61.0216 76.998C60.9726 75.7665 60.0331 74.8127 58.9234 74.8675C57.8137 74.9223 56.9539 75.9651 57.0029 77.1965C57.052 78.428 57.9914 79.3818 59.1012 79.327Z" fill="#0F0000"/>
<path d="M32.5701 57.8944L29.2227 72.0879L30.0686 72.3333L33.4161 58.1399L32.5701 57.8944Z" fill="#050E0B"/>
<path d="M21.9391 37.5945C22.5237 37.5656 22.9816 37.1387 22.9618 36.6411C22.9419 36.1435 22.4519 35.7635 21.8672 35.7924C21.2826 35.8213 20.8247 36.2481 20.8445 36.7457C20.8643 37.2434 21.3544 37.6234 21.9391 37.5945Z" fill="#050E0B"/>
<path d="M82.5662 48.6483C83.1099 48.2633 83.2088 47.3566 82.7871 46.6231C82.3655 45.8897 81.5829 45.6072 81.0392 45.9923C80.4954 46.3773 80.3965 47.284 80.8182 48.0175C81.2399 48.7509 82.0225 49.0334 82.5662 48.6483Z" fill="#050E0B"/>
<path d="M33.1141 52.8921C33.1339 53.3882 32.5616 54.0165 31.9809 54.0452C31.4002 54.0739 31.0169 53.4986 30.9969 52.9967C30.9768 52.4949 31.4337 52.0723 32.0196 52.0434C32.6054 52.0144 33.0943 52.396 33.1141 52.8921Z" fill="#050E0B"/>
<path d="M15.441 38.0902C15.7944 37.5723 15.765 36.8873 15.3755 36.56C14.9859 36.2328 14.3837 36.3873 14.0304 36.9051C13.6771 37.423 13.7064 38.1081 14.096 38.4353C14.4855 38.7625 15.0877 38.608 15.441 38.0902Z" fill="#050E0B"/>
<path d="M40.9829 54.3659C41.0995 54.9658 40.7321 55.5667 40.1609 55.7035C39.5896 55.8403 38.5665 55.4909 38.4499 54.891C38.3333 54.2911 39.1632 53.6673 39.7344 53.5305C40.3057 53.3937 40.8663 53.7659 40.9829 54.3659Z" fill="#050E0B"/>
<path d="M59.7823 57.032C59.6601 56.4209 60.0937 55.7995 60.7413 55.6418C61.389 55.4841 62.5401 55.8158 62.657 56.4214C62.7738 57.027 61.8219 57.6912 61.1743 57.8489C60.5266 58.0066 59.8992 57.6376 59.7823 57.032Z" fill="#050E0B"/>
<path d="M78.0669 54.3987C77.693 53.9315 77.801 53.1547 78.2965 52.6674C78.792 52.1801 79.9425 51.849 80.3164 52.3162C80.6903 52.7834 80.1416 53.8733 79.641 54.3609C79.1404 54.8485 78.4356 54.8661 78.0669 54.3987Z" fill="#050E0B"/>
<path d="M14.5963 44.2481C14.9626 44.0458 14.9755 43.2481 14.6251 42.4663C14.2746 41.6845 13.6936 41.2147 13.3273 41.4169C12.961 41.6192 12.9481 42.417 13.2986 43.1988C13.649 43.9806 14.23 44.4504 14.5963 44.2481Z" fill="#050E0B"/>
<path d="M75.9093 43.3836C76.013 42.9444 75.48 42.4091 74.7188 42.188C73.9576 41.9668 73.2564 42.1435 73.1527 42.5827C73.0489 43.0219 73.5819 43.5572 74.3432 43.7784C75.1044 43.9995 75.8056 43.8228 75.9093 43.3836Z" fill="#050E0B"/>
<path d="M22.6409 49.0729C22.6828 49.6079 21.7679 49.7788 21.0208 49.5072C20.2736 49.2356 19.7852 48.6083 19.935 48.1038C20.0848 47.5993 20.5198 47.1436 21.2669 47.4152C22.0141 47.6868 22.5714 48.105 22.6409 49.0729Z" fill="#050E0B"/>
<path d="M51.6553 56.2053C51.9157 56.6667 51.1636 57.3038 50.3714 57.4516C49.5791 57.5993 48.8715 57.2857 48.7883 56.747C48.705 56.2083 48.9112 55.5695 49.7035 55.4218C50.4957 55.2741 51.1788 55.3604 51.6553 56.2053Z" fill="#050E0B"/>
<path d="M69.5165 56.4692C69.221 56.0324 69.9242 55.3291 70.7032 55.1078C71.4822 54.8865 72.2128 55.1303 72.3318 55.6616C72.4508 56.1928 72.3017 56.8458 71.5227 57.0672C70.7438 57.2885 70.058 57.2653 69.5165 56.4692Z" fill="#050E0B"/>
<path d="M27.9806 51.1142C28.129 50.6041 27.6421 49.9734 26.8932 49.7054C26.1443 49.4374 25.4169 49.6337 25.2686 50.1438C25.1203 50.6539 25.6071 51.2846 26.356 51.5526C27.1049 51.8206 27.8323 51.6243 27.9806 51.1142Z" fill="#050E0B"/>
</svg>
