<svg width="136" height="121" viewBox="0 0 136 121" fill="none" xmlns="http://www.w3.org/2000/svg">
<mask id="path-1-outside-1_729_4049" maskUnits="userSpaceOnUse" x="0" y="0" width="136" height="121" fill="black">
<rect fill="white" width="136" height="121"/>
<path d="M98.7966 36.7004C108.67 36.7004 118.555 36.7004 128.429 36.7004C129.284 36.7004 130.183 36.6287 131.007 36.844C132.868 37.3106 134.719 38.0166 134.975 40.565C135.243 43.1613 133.275 43.6279 131.745 44.3099C123.326 48.0668 114.896 51.7519 106.435 55.4728C106.905 57.1598 108.114 57.423 109.334 57.9973C116.03 61.144 122.663 64.4582 129.295 67.7604C130.9 68.562 132.59 69.5312 131.959 71.9959C131.338 74.3888 129.434 74.2332 127.69 74.2332C118.662 74.2332 109.633 74.2093 99.7486 72.8454C102.027 79.2584 105.376 83.9484 107.911 89.0932C109.002 91.3186 110.467 93.3167 111.559 95.5541C112.382 97.2411 112.992 99.3349 111.537 100.878C110.008 102.505 108.424 101.548 106.927 100.268C101.61 95.7335 96.2399 91.2708 90.8804 86.808C90.4632 86.461 89.9498 86.2456 88.7623 85.5517C88.7623 93.7833 88.7623 101.381 88.7623 108.99C88.7623 110.426 88.8907 111.922 88.5698 113.286C87.7354 116.863 85.8847 117.569 83.4029 114.937C78.6211 109.876 75.3263 103.439 71.2185 97.7436C71.0366 97.4923 70.9189 97.1932 70.7692 96.918C69.7315 95.0157 68.3195 92.4433 66.6827 92.5988C65.0139 92.7544 64.1902 95.6378 63.313 97.6479C60.5424 103.929 57.6648 110.151 54.7337 116.348C53.9421 118.012 53.0114 120.034 50.8505 119.34C48.9249 118.729 48.6575 116.707 48.358 114.745C47.0101 105.832 45.5552 96.93 44.186 88.0284C43.7902 85.4321 43.1697 85.0372 40.8484 86.473C32.376 91.7015 23.7003 96.5112 15.1316 101.536C13.6768 102.398 12.9173 101.644 11.7726 100.723C10.2643 99.5024 10.5852 98.4734 11.2912 97.1214C14.3721 91.2109 17.1214 85.0253 20.6515 79.4617C22.8552 75.992 21.625 74.8674 19.0041 74.2572C13.8372 73.0607 9.00199 70.7396 3.97417 69.0885C2.70118 68.6578 1.02167 68.3228 1.00028 66.1452C0.978883 64.3625 2.19839 63.7403 3.34302 63.0464C9.23733 59.457 15.4526 56.5616 21.8496 54.4798C25.6686 53.2355 25.0482 51.9074 23.4971 49.0598C20.0311 42.6468 15.4526 37.0474 12.4145 30.3114C11.7833 28.9115 10.6066 27.6552 11.8796 25.9922C13.0135 24.5205 14.233 24.3291 16.0516 24.7239C23.3045 26.3033 30.6109 27.5117 37.8959 28.8637C40.4953 29.3423 41.8967 28.9474 42.4851 25.2384C43.512 18.7177 42.7846 12.1133 43.9613 5.65244C44.2822 3.89366 44.3143 2.00326 45.951 1.23753C47.7589 0.400007 48.8608 1.94343 49.9198 3.28346C53.4821 7.82999 57.1085 12.3287 60.5852 16.9589C62.3289 19.2801 63.4628 19.6629 64.7037 16.4804C66.2441 12.544 68.0092 8.7034 69.7636 4.86278C70.4162 3.42704 71.3148 1.96736 72.9622 2.01522C74.8984 2.07504 75.4761 3.92955 75.9895 5.59262C77.5193 10.522 78.9848 15.4873 80.5039 20.4287C81.3169 23.0848 82.2262 23.7069 84.8577 21.9841C93.2018 16.5043 101.835 11.5749 110.328 6.39425C111.73 5.5328 112.735 6.08317 113.794 7.11212C115.506 8.77519 114.479 10.534 113.666 11.8381C110.81 16.4086 107.718 20.7996 104.723 25.2623C102.605 28.409 100.497 31.5677 98.3901 34.7143L98.8073 36.6646L98.7966 36.7004ZM66.2976 87.478C69.9883 92.0843 73.0264 96.4634 75.8933 101.034C78.2681 104.803 80.8997 108.38 83.4778 111.993C83.8843 112.556 84.6545 113.202 85.2001 113.154C86.2591 113.046 86.2805 111.874 86.3019 110.905C86.334 109.78 86.3126 108.655 86.3233 107.531C86.3447 100.304 86.2912 93.0774 86.4089 85.8628C86.4624 82.7759 87.0293 80.5864 90.3242 83.6015C95.4696 88.2916 100.818 92.7065 106.114 97.1812C107.194 98.0905 108.424 100.16 109.719 98.8682C111.12 97.4684 109.515 95.7575 108.724 94.3696C105.45 88.6027 102.016 82.9434 98.8928 77.0808C97.9301 75.2742 95.7906 73.1804 97.0208 71.1105C97.9942 69.4594 100.476 70.5721 102.273 70.5123C104.562 70.4405 106.862 70.6439 109.152 70.8233C115.164 71.3019 121.165 71.8523 127.166 72.295C128.097 72.3668 129.456 72.6061 129.659 71.1344C129.851 69.7705 128.61 69.3756 127.701 68.9569C123.743 67.1383 119.764 65.4154 115.827 63.5609C111.901 61.7064 108.039 59.6843 104.092 57.8657C103.011 57.3632 102.37 56.5496 102.241 55.4609C102.156 54.7071 102.99 54.3242 103.717 54.061C112.66 50.9263 120.972 45.8773 130.001 42.9579C130.996 42.6349 133.093 42.7306 132.59 40.577C132.162 38.7105 130.418 39.4762 129.242 39.4762C118.608 39.4882 108.018 37.9448 97.3845 38.5071C95.3092 38.6148 94.1539 38.1123 95.8334 35.5997C98.7217 31.2805 101.803 27.081 104.306 22.4866C106.809 17.8802 111.334 14.6139 112.254 8.09321C109.997 9.1102 108.114 9.54092 106.67 10.6656C99.3956 16.3129 91.1265 19.974 83.7238 25.3581C81.7662 26.7818 80.1509 26.4588 79.3593 23.2164C78.0114 17.7127 76.1821 12.3646 74.5133 6.96854C74.1603 5.83191 74.0319 4.16884 72.5343 4.31241C71.4538 4.40813 71.1757 5.72423 70.7799 6.77711C69.1753 11.0245 67.5172 15.26 65.8056 19.4595C64.693 22.1875 63.6233 24.3411 60.9489 20.6201C57.4829 15.7984 53.6211 11.3356 49.9412 6.70532C49.0212 5.54476 48.3794 3.49883 46.6999 4.20473C45.0204 4.91064 45.812 7.0164 45.7264 8.51197C45.3627 14.578 45.0525 20.644 44.8171 26.722C44.6674 30.7301 43.4371 32.2377 39.4791 31.3523C32.2262 29.749 24.8556 28.8397 17.5279 27.6552C16.1586 27.4279 14.3721 26.2195 13.4949 27.6792C12.4787 29.3781 14.6609 30.6583 15.0568 32.3214C15.2172 33.0034 16.0516 33.4461 16.4581 34.0922C19.9027 39.5719 23.3259 45.0637 26.7277 50.5793C27.7119 52.1706 28.2788 53.8456 26.0858 54.8387C19.6139 57.7581 13.1205 60.6535 6.63784 63.525C5.36485 64.0873 3.4607 64.0753 3.55697 66.1093C3.63186 67.8322 5.48252 67.892 6.61645 68.251C11.5266 69.8183 16.4902 71.1942 21.4431 72.6061C24.2887 73.4196 25.3156 74.8793 23.5078 78.014C20.566 83.099 17.7739 88.2796 14.9391 93.4363C13.9228 95.2789 11.7298 97.4205 13.4414 99.3109C14.6075 100.603 16.747 98.4734 18.2981 97.5521C25.7221 93.1253 33.0713 88.5668 40.4953 84.1638C45.1915 81.3761 45.459 81.4239 46.3789 87.2148C47.7803 96.1044 48.8501 105.066 50.0803 113.991C50.2514 115.26 49.3528 117.222 51.3426 117.437C52.8723 117.605 53.236 116.013 53.8779 114.697C58.1141 105.879 61.1094 96.3557 66.3297 87.478H66.2976Z"/>
</mask>
<path d="M98.7966 36.7004C108.67 36.7004 118.555 36.7004 128.429 36.7004C129.284 36.7004 130.183 36.6287 131.007 36.844C132.868 37.3106 134.719 38.0166 134.975 40.565C135.243 43.1613 133.275 43.6279 131.745 44.3099C123.326 48.0668 114.896 51.7519 106.435 55.4728C106.905 57.1598 108.114 57.423 109.334 57.9973C116.03 61.144 122.663 64.4582 129.295 67.7604C130.9 68.562 132.59 69.5312 131.959 71.9959C131.338 74.3888 129.434 74.2332 127.69 74.2332C118.662 74.2332 109.633 74.2093 99.7486 72.8454C102.027 79.2584 105.376 83.9484 107.911 89.0932C109.002 91.3186 110.467 93.3167 111.559 95.5541C112.382 97.2411 112.992 99.3349 111.537 100.878C110.008 102.505 108.424 101.548 106.927 100.268C101.61 95.7335 96.2399 91.2708 90.8804 86.808C90.4632 86.461 89.9498 86.2456 88.7623 85.5517C88.7623 93.7833 88.7623 101.381 88.7623 108.99C88.7623 110.426 88.8907 111.922 88.5698 113.286C87.7354 116.863 85.8847 117.569 83.4029 114.937C78.6211 109.876 75.3263 103.439 71.2185 97.7436C71.0366 97.4923 70.9189 97.1932 70.7692 96.918C69.7315 95.0157 68.3195 92.4433 66.6827 92.5988C65.0139 92.7544 64.1902 95.6378 63.313 97.6479C60.5424 103.929 57.6648 110.151 54.7337 116.348C53.9421 118.012 53.0114 120.034 50.8505 119.34C48.9249 118.729 48.6575 116.707 48.358 114.745C47.0101 105.832 45.5552 96.93 44.186 88.0284C43.7902 85.4321 43.1697 85.0372 40.8484 86.473C32.376 91.7015 23.7003 96.5112 15.1316 101.536C13.6768 102.398 12.9173 101.644 11.7726 100.723C10.2643 99.5024 10.5852 98.4734 11.2912 97.1214C14.3721 91.2109 17.1214 85.0253 20.6515 79.4617C22.8552 75.992 21.625 74.8674 19.0041 74.2572C13.8372 73.0607 9.00199 70.7396 3.97417 69.0885C2.70118 68.6578 1.02167 68.3228 1.00028 66.1452C0.978883 64.3625 2.19839 63.7403 3.34302 63.0464C9.23733 59.457 15.4526 56.5616 21.8496 54.4798C25.6686 53.2355 25.0482 51.9074 23.4971 49.0598C20.0311 42.6468 15.4526 37.0474 12.4145 30.3114C11.7833 28.9115 10.6066 27.6552 11.8796 25.9922C13.0135 24.5205 14.233 24.3291 16.0516 24.7239C23.3045 26.3033 30.6109 27.5117 37.8959 28.8637C40.4953 29.3423 41.8967 28.9474 42.4851 25.2384C43.512 18.7177 42.7846 12.1133 43.9613 5.65244C44.2822 3.89366 44.3143 2.00326 45.951 1.23753C47.7589 0.400007 48.8608 1.94343 49.9198 3.28346C53.4821 7.82999 57.1085 12.3287 60.5852 16.9589C62.3289 19.2801 63.4628 19.6629 64.7037 16.4804C66.2441 12.544 68.0092 8.7034 69.7636 4.86278C70.4162 3.42704 71.3148 1.96736 72.9622 2.01522C74.8984 2.07504 75.4761 3.92955 75.9895 5.59262C77.5193 10.522 78.9848 15.4873 80.5039 20.4287C81.3169 23.0848 82.2262 23.7069 84.8577 21.9841C93.2018 16.5043 101.835 11.5749 110.328 6.39425C111.73 5.5328 112.735 6.08317 113.794 7.11212C115.506 8.77519 114.479 10.534 113.666 11.8381C110.81 16.4086 107.718 20.7996 104.723 25.2623C102.605 28.409 100.497 31.5677 98.3901 34.7143L98.8073 36.6646L98.7966 36.7004ZM66.2976 87.478C69.9883 92.0843 73.0264 96.4634 75.8933 101.034C78.2681 104.803 80.8997 108.38 83.4778 111.993C83.8843 112.556 84.6545 113.202 85.2001 113.154C86.2591 113.046 86.2805 111.874 86.3019 110.905C86.334 109.78 86.3126 108.655 86.3233 107.531C86.3447 100.304 86.2912 93.0774 86.4089 85.8628C86.4624 82.7759 87.0293 80.5864 90.3242 83.6015C95.4696 88.2916 100.818 92.7065 106.114 97.1812C107.194 98.0905 108.424 100.16 109.719 98.8682C111.12 97.4684 109.515 95.7575 108.724 94.3696C105.45 88.6027 102.016 82.9434 98.8928 77.0808C97.9301 75.2742 95.7906 73.1804 97.0208 71.1105C97.9942 69.4594 100.476 70.5721 102.273 70.5123C104.562 70.4405 106.862 70.6439 109.152 70.8233C115.164 71.3019 121.165 71.8523 127.166 72.295C128.097 72.3668 129.456 72.6061 129.659 71.1344C129.851 69.7705 128.61 69.3756 127.701 68.9569C123.743 67.1383 119.764 65.4154 115.827 63.5609C111.901 61.7064 108.039 59.6843 104.092 57.8657C103.011 57.3632 102.37 56.5496 102.241 55.4609C102.156 54.7071 102.99 54.3242 103.717 54.061C112.66 50.9263 120.972 45.8773 130.001 42.9579C130.996 42.6349 133.093 42.7306 132.59 40.577C132.162 38.7105 130.418 39.4762 129.242 39.4762C118.608 39.4882 108.018 37.9448 97.3845 38.5071C95.3092 38.6148 94.1539 38.1123 95.8334 35.5997C98.7217 31.2805 101.803 27.081 104.306 22.4866C106.809 17.8802 111.334 14.6139 112.254 8.09321C109.997 9.1102 108.114 9.54092 106.67 10.6656C99.3956 16.3129 91.1265 19.974 83.7238 25.3581C81.7662 26.7818 80.1509 26.4588 79.3593 23.2164C78.0114 17.7127 76.1821 12.3646 74.5133 6.96854C74.1603 5.83191 74.0319 4.16884 72.5343 4.31241C71.4538 4.40813 71.1757 5.72423 70.7799 6.77711C69.1753 11.0245 67.5172 15.26 65.8056 19.4595C64.693 22.1875 63.6233 24.3411 60.9489 20.6201C57.4829 15.7984 53.6211 11.3356 49.9412 6.70532C49.0212 5.54476 48.3794 3.49883 46.6999 4.20473C45.0204 4.91064 45.812 7.0164 45.7264 8.51197C45.3627 14.578 45.0525 20.644 44.8171 26.722C44.6674 30.7301 43.4371 32.2377 39.4791 31.3523C32.2262 29.749 24.8556 28.8397 17.5279 27.6552C16.1586 27.4279 14.3721 26.2195 13.4949 27.6792C12.4787 29.3781 14.6609 30.6583 15.0568 32.3214C15.2172 33.0034 16.0516 33.4461 16.4581 34.0922C19.9027 39.5719 23.3259 45.0637 26.7277 50.5793C27.7119 52.1706 28.2788 53.8456 26.0858 54.8387C19.6139 57.7581 13.1205 60.6535 6.63784 63.525C5.36485 64.0873 3.4607 64.0753 3.55697 66.1093C3.63186 67.8322 5.48252 67.892 6.61645 68.251C11.5266 69.8183 16.4902 71.1942 21.4431 72.6061C24.2887 73.4196 25.3156 74.8793 23.5078 78.014C20.566 83.099 17.7739 88.2796 14.9391 93.4363C13.9228 95.2789 11.7298 97.4205 13.4414 99.3109C14.6075 100.603 16.747 98.4734 18.2981 97.5521C25.7221 93.1253 33.0713 88.5668 40.4953 84.1638C45.1915 81.3761 45.459 81.4239 46.3789 87.2148C47.7803 96.1044 48.8501 105.066 50.0803 113.991C50.2514 115.26 49.3528 117.222 51.3426 117.437C52.8723 117.605 53.236 116.013 53.8779 114.697C58.1141 105.879 61.1094 96.3557 66.3297 87.478H66.2976Z" fill="#FF91B2"/>
<path d="M98.7966 36.7004C108.67 36.7004 118.555 36.7004 128.429 36.7004C129.284 36.7004 130.183 36.6287 131.007 36.844C132.868 37.3106 134.719 38.0166 134.975 40.565C135.243 43.1613 133.275 43.6279 131.745 44.3099C123.326 48.0668 114.896 51.7519 106.435 55.4728C106.905 57.1598 108.114 57.423 109.334 57.9973C116.03 61.144 122.663 64.4582 129.295 67.7604C130.9 68.562 132.59 69.5312 131.959 71.9959C131.338 74.3888 129.434 74.2332 127.69 74.2332C118.662 74.2332 109.633 74.2093 99.7486 72.8454C102.027 79.2584 105.376 83.9484 107.911 89.0932C109.002 91.3186 110.467 93.3167 111.559 95.5541C112.382 97.2411 112.992 99.3349 111.537 100.878C110.008 102.505 108.424 101.548 106.927 100.268C101.61 95.7335 96.2399 91.2708 90.8804 86.808C90.4632 86.461 89.9498 86.2456 88.7623 85.5517C88.7623 93.7833 88.7623 101.381 88.7623 108.99C88.7623 110.426 88.8907 111.922 88.5698 113.286C87.7354 116.863 85.8847 117.569 83.4029 114.937C78.6211 109.876 75.3263 103.439 71.2185 97.7436C71.0366 97.4923 70.9189 97.1932 70.7692 96.918C69.7315 95.0157 68.3195 92.4433 66.6827 92.5988C65.0139 92.7544 64.1902 95.6378 63.313 97.6479C60.5424 103.929 57.6648 110.151 54.7337 116.348C53.9421 118.012 53.0114 120.034 50.8505 119.34C48.9249 118.729 48.6575 116.707 48.358 114.745C47.0101 105.832 45.5552 96.93 44.186 88.0284C43.7902 85.4321 43.1697 85.0372 40.8484 86.473C32.376 91.7015 23.7003 96.5112 15.1316 101.536C13.6768 102.398 12.9173 101.644 11.7726 100.723C10.2643 99.5024 10.5852 98.4734 11.2912 97.1214C14.3721 91.2109 17.1214 85.0253 20.6515 79.4617C22.8552 75.992 21.625 74.8674 19.0041 74.2572C13.8372 73.0607 9.00199 70.7396 3.97417 69.0885C2.70118 68.6578 1.02167 68.3228 1.00028 66.1452C0.978883 64.3625 2.19839 63.7403 3.34302 63.0464C9.23733 59.457 15.4526 56.5616 21.8496 54.4798C25.6686 53.2355 25.0482 51.9074 23.4971 49.0598C20.0311 42.6468 15.4526 37.0474 12.4145 30.3114C11.7833 28.9115 10.6066 27.6552 11.8796 25.9922C13.0135 24.5205 14.233 24.3291 16.0516 24.7239C23.3045 26.3033 30.6109 27.5117 37.8959 28.8637C40.4953 29.3423 41.8967 28.9474 42.4851 25.2384C43.512 18.7177 42.7846 12.1133 43.9613 5.65244C44.2822 3.89366 44.3143 2.00326 45.951 1.23753C47.7589 0.400007 48.8608 1.94343 49.9198 3.28346C53.4821 7.82999 57.1085 12.3287 60.5852 16.9589C62.3289 19.2801 63.4628 19.6629 64.7037 16.4804C66.2441 12.544 68.0092 8.7034 69.7636 4.86278C70.4162 3.42704 71.3148 1.96736 72.9622 2.01522C74.8984 2.07504 75.4761 3.92955 75.9895 5.59262C77.5193 10.522 78.9848 15.4873 80.5039 20.4287C81.3169 23.0848 82.2262 23.7069 84.8577 21.9841C93.2018 16.5043 101.835 11.5749 110.328 6.39425C111.73 5.5328 112.735 6.08317 113.794 7.11212C115.506 8.77519 114.479 10.534 113.666 11.8381C110.81 16.4086 107.718 20.7996 104.723 25.2623C102.605 28.409 100.497 31.5677 98.3901 34.7143L98.8073 36.6646L98.7966 36.7004ZM66.2976 87.478C69.9883 92.0843 73.0264 96.4634 75.8933 101.034C78.2681 104.803 80.8997 108.38 83.4778 111.993C83.8843 112.556 84.6545 113.202 85.2001 113.154C86.2591 113.046 86.2805 111.874 86.3019 110.905C86.334 109.78 86.3126 108.655 86.3233 107.531C86.3447 100.304 86.2912 93.0774 86.4089 85.8628C86.4624 82.7759 87.0293 80.5864 90.3242 83.6015C95.4696 88.2916 100.818 92.7065 106.114 97.1812C107.194 98.0905 108.424 100.16 109.719 98.8682C111.12 97.4684 109.515 95.7575 108.724 94.3696C105.45 88.6027 102.016 82.9434 98.8928 77.0808C97.9301 75.2742 95.7906 73.1804 97.0208 71.1105C97.9942 69.4594 100.476 70.5721 102.273 70.5123C104.562 70.4405 106.862 70.6439 109.152 70.8233C115.164 71.3019 121.165 71.8523 127.166 72.295C128.097 72.3668 129.456 72.6061 129.659 71.1344C129.851 69.7705 128.61 69.3756 127.701 68.9569C123.743 67.1383 119.764 65.4154 115.827 63.5609C111.901 61.7064 108.039 59.6843 104.092 57.8657C103.011 57.3632 102.37 56.5496 102.241 55.4609C102.156 54.7071 102.99 54.3242 103.717 54.061C112.66 50.9263 120.972 45.8773 130.001 42.9579C130.996 42.6349 133.093 42.7306 132.59 40.577C132.162 38.7105 130.418 39.4762 129.242 39.4762C118.608 39.4882 108.018 37.9448 97.3845 38.5071C95.3092 38.6148 94.1539 38.1123 95.8334 35.5997C98.7217 31.2805 101.803 27.081 104.306 22.4866C106.809 17.8802 111.334 14.6139 112.254 8.09321C109.997 9.1102 108.114 9.54092 106.67 10.6656C99.3956 16.3129 91.1265 19.974 83.7238 25.3581C81.7662 26.7818 80.1509 26.4588 79.3593 23.2164C78.0114 17.7127 76.1821 12.3646 74.5133 6.96854C74.1603 5.83191 74.0319 4.16884 72.5343 4.31241C71.4538 4.40813 71.1757 5.72423 70.7799 6.77711C69.1753 11.0245 67.5172 15.26 65.8056 19.4595C64.693 22.1875 63.6233 24.3411 60.9489 20.6201C57.4829 15.7984 53.6211 11.3356 49.9412 6.70532C49.0212 5.54476 48.3794 3.49883 46.6999 4.20473C45.0204 4.91064 45.812 7.0164 45.7264 8.51197C45.3627 14.578 45.0525 20.644 44.8171 26.722C44.6674 30.7301 43.4371 32.2377 39.4791 31.3523C32.2262 29.749 24.8556 28.8397 17.5279 27.6552C16.1586 27.4279 14.3721 26.2195 13.4949 27.6792C12.4787 29.3781 14.6609 30.6583 15.0568 32.3214C15.2172 33.0034 16.0516 33.4461 16.4581 34.0922C19.9027 39.5719 23.3259 45.0637 26.7277 50.5793C27.7119 52.1706 28.2788 53.8456 26.0858 54.8387C19.6139 57.7581 13.1205 60.6535 6.63784 63.525C5.36485 64.0873 3.4607 64.0753 3.55697 66.1093C3.63186 67.8322 5.48252 67.892 6.61645 68.251C11.5266 69.8183 16.4902 71.1942 21.4431 72.6061C24.2887 73.4196 25.3156 74.8793 23.5078 78.014C20.566 83.099 17.7739 88.2796 14.9391 93.4363C13.9228 95.2789 11.7298 97.4205 13.4414 99.3109C14.6075 100.603 16.747 98.4734 18.2981 97.5521C25.7221 93.1253 33.0713 88.5668 40.4953 84.1638C45.1915 81.3761 45.459 81.4239 46.3789 87.2148C47.7803 96.1044 48.8501 105.066 50.0803 113.991C50.2514 115.26 49.3528 117.222 51.3426 117.437C52.8723 117.605 53.236 116.013 53.8779 114.697C58.1141 105.879 61.1094 96.3557 66.3297 87.478H66.2976Z" stroke="#FF91B2" stroke-width="1.21041" mask="url(#path-1-outside-1_729_4049)"/>
<path d="M46.5381 44.5781C46.8369 44.3888 47.1966 44.3573 47.6006 44.4863L47.5996 44.4873C48.5005 44.7712 48.8016 45.5912 48.8232 46.376C48.8422 47.0634 48.6563 47.8007 48.4082 48.3467L48.2988 48.5684C46.251 52.3547 46.7395 56.4607 46.8691 60.6064L46.8936 61.1396C47.5462 72.2355 57.5909 77.4773 65.5146 75.8135L66.293 75.6387C70.1489 74.7137 73.4204 73.0494 76.0957 70.5928C78.9499 67.9718 81.14 64.436 82.6299 59.8994V59.8984L83.0693 58.5996C83.2103 58.1711 83.3405 57.7395 83.4453 57.2822L83.4727 57.0957C83.4889 56.8927 83.4742 56.6425 83.4492 56.3525C83.4179 55.9886 83.3706 55.565 83.3916 55.1963C83.4123 54.8332 83.503 54.4274 83.832 54.1748C84.1625 53.9213 84.6362 53.8956 85.2344 54.04H85.2354L85.4072 54.0898C85.7913 54.2166 86.0593 54.4307 86.2041 54.7324C86.3616 55.0609 86.3426 55.4331 86.2744 55.7705C86.2055 56.111 86.0751 56.468 85.958 56.7871C85.8665 57.0364 85.7838 57.26 85.7295 57.457L85.6855 57.6445C83.3747 70.0167 73.6623 79.0923 62.627 79.1973V79.2256L62.3232 79.2246C50.2654 79.1636 41.7686 67.31 44.3662 54.418L44.5361 53.5498C44.918 51.5224 45.2079 49.4771 45.5078 47.4229C45.5955 46.805 45.6891 45.9744 45.9414 45.3633C46.0691 45.0542 46.254 44.7583 46.5381 44.5781Z" fill="#FF91B2" stroke="#FF91B2" stroke-width="0.605204"/>
<path d="M75.8086 40.4043C76.1919 40.3401 76.5251 40.3745 76.7979 40.5225C77.1134 40.6937 77.2936 40.9866 77.3877 41.3066C77.5662 41.9143 77.4633 42.7226 77.2959 43.4209V43.4512L77.2793 43.5C77.1018 44.0115 77.0615 44.6258 77.0566 45.3018C77.0519 45.9592 77.0815 46.6885 77.0205 47.3506C76.9589 48.0185 76.8026 48.6782 76.3916 49.207C75.9731 49.7452 75.3229 50.1063 74.3613 50.2432L74.3623 50.2441C73.7902 50.3266 73.3246 50.2377 72.9697 49.9854C72.6183 49.7355 72.4204 49.3577 72.3145 48.9541C72.1062 48.1602 72.2239 47.1476 72.3633 46.374L72.5029 45.5137C72.6418 44.6244 72.7917 43.6713 73.0947 42.8477C73.509 41.7218 74.232 40.7671 75.6406 40.4375L75.8086 40.4043Z" fill="#FF91B2" stroke="#FF91B2" stroke-width="0.605204"/>
<path d="M60.8506 38.9502C61.3891 38.9031 61.8163 39.0202 62.1396 39.2793C62.4557 39.5327 62.6359 39.8925 62.7461 40.2607C62.8564 40.6292 62.9053 41.0344 62.9375 41.4072C62.9613 41.6827 62.9796 41.9317 63.001 42.1553H63.207L63.0146 42.582C62.776 43.1104 62.652 43.7232 62.5537 44.3662C62.4578 44.9936 62.3844 45.67 62.2412 46.2568C62.0969 46.8478 61.8691 47.4117 61.4238 47.8086C60.969 48.214 60.3345 48.4041 59.4668 48.3467V48.3477C59.0315 48.319 58.6758 48.1497 58.4062 47.8799C58.1413 47.6147 57.9732 47.266 57.8789 46.8916C57.6915 46.1471 57.7795 45.2409 58.0576 44.4727V44.4707L58.1133 44.3047C58.2335 43.9084 58.2923 43.4493 58.3379 42.9521C58.3886 42.3983 58.4241 41.7899 58.5264 41.2393C58.6292 40.6857 58.807 40.142 59.1729 39.7197C59.5473 39.2879 60.0893 39.0166 60.8506 38.9512V38.9502Z" fill="#FF91B2" stroke="#FF91B2" stroke-width="0.605204"/>
</svg>
