<svg width="93" height="83" viewBox="0 0 93 83" fill="none" xmlns="http://www.w3.org/2000/svg">
<path d="M58.8994 61.0145L58.8008 75.6846L59.6752 75.6915L59.7739 61.0215L58.8994 61.0145Z" fill="#050E0B"/>
<path d="M86.5672 50.7015C85.7762 59.9228 71.8496 63.7137 40.8796 59.5016C20.0154 56.6585 5.83745 47.6855 8.36642 39.1782C10.283 32.7468 16.906 32.0024 27.5854 32.6517C28.1429 32.687 28.6241 32.229 28.6718 31.6152C29.4139 20.9107 37.4226 9.45853 48.5179 10.4644C58.5846 11.3726 63.9865 17.3281 67.1705 28.0958C67.9924 30.8893 68.1124 33.5118 67.6935 35.9209C67.5842 36.5377 67.9374 37.1316 68.4937 37.2641C81.4876 40.3018 87.0629 44.9231 86.5674 50.7072L86.5672 50.7015Z" fill="#ACE2FF"/>
<path d="M58.846 37.1074C61.8695 36.6514 63.9585 33.3188 63.5118 29.6639C63.0652 26.0089 60.252 23.4156 57.2285 23.8716C54.205 24.3276 52.116 27.6602 52.5627 31.3152C53.0093 34.9701 55.8225 37.5634 58.846 37.1074Z" fill="white"/>
<path d="M46.2895 28.5716C46.5536 24.8946 44.3021 21.6965 41.2605 21.4285C38.219 21.1605 35.5392 23.924 35.2751 27.601C35.011 31.278 37.2625 34.4761 40.3041 34.7441C43.3456 35.0121 46.0254 32.2486 46.2895 28.5716Z" fill="white"/>
<path d="M41.0479 32.4597C43.0318 32.3616 44.5626 30.3366 44.4669 27.9367C44.3712 25.5368 42.6854 23.6707 40.7015 23.7688C38.7176 23.8668 37.1869 25.8918 37.2826 28.2917C37.3782 30.6917 39.0641 32.5577 41.0479 32.4597Z" fill="#0F0000"/>
<path d="M58.3758 34.5919C60.3099 34.3003 61.6462 32.1695 61.3607 29.8329C61.0751 27.4962 59.2758 25.8384 57.3417 26.1301C55.4077 26.4217 54.0713 28.5525 54.3569 30.8891C54.6424 33.2258 56.4418 34.8836 58.3758 34.5919Z" fill="#0F0000"/>
<path d="M50.8339 34.0897L50.779 34.1376L50.9633 34.1052L50.8339 34.0897Z" fill="#2A1D1D"/>
<path d="M50.2017 34.378L50.2852 34.4071C50.8114 34.2777 50.6646 34.353 51.0349 34.1871C50.9466 34.1694 50.7552 34.1517 50.5462 34.2135C50.5725 34.2289 50.7781 34.2122 50.7178 34.2547C50.5638 34.2743 50.578 34.2398 50.3782 34.273C50.2214 34.3545 50.512 34.2658 50.4476 34.3366L50.207 34.3833L50.2017 34.378Z" fill="#2A1D1D"/>
<path d="M50.7388 34.3337C50.6464 34.3442 50.5543 34.3601 50.4776 34.3752C50.5699 34.3648 50.6884 34.364 50.7388 34.3337Z" fill="#2A1D1D"/>
<path d="M50.7965 34.3553C50.7823 34.3889 50.602 34.3874 50.5713 34.3945L50.9209 34.3761L50.7965 34.3553Z" fill="#2A1D1D"/>
<path d="M50.793 34.4971C50.793 34.4971 50.8139 34.5062 50.8242 34.5057C50.8803 34.4924 50.8341 34.4949 50.793 34.4971Z" fill="#2A1D1D"/>
<path d="M50.8352 34.5632C50.9527 34.5345 50.8803 34.5272 50.8231 34.5135C50.818 34.5138 50.8128 34.5141 50.8025 34.5146C50.7058 34.5478 50.4536 34.5558 50.5194 34.5242C50.462 34.505 50.7081 34.4693 50.5431 34.467L50.3495 34.5278C50.3818 34.5652 50.742 34.5514 50.8404 34.5629L50.8352 34.5632Z" fill="#2A1D1D"/>
<path d="M50.7913 34.4964C50.7913 34.4964 50.7755 34.4859 50.7753 34.4803C50.7345 34.4938 50.7604 34.4981 50.7913 34.4964Z" fill="#2A1D1D"/>
<path d="M50.816 34.4215L50.7642 34.4132L50.6569 34.4355L50.816 34.4215Z" fill="#2A1D1D"/>
<path d="M50.8659 34.6806C50.5265 34.6989 50.8937 34.5954 50.6314 34.6095C50.6485 34.6532 50.4031 34.7055 50.2177 34.7099L50.3271 34.7431C50.4561 34.7473 50.7075 34.7171 50.8657 34.6751L50.8659 34.6806Z" fill="#2A1D1D"/>
<path d="M50.0234 34.8203C50.0543 34.8187 50.0699 34.823 50.0803 34.8275C50.0649 34.8284 50.0493 34.8241 50.0234 34.8203Z" fill="#2A1D1D"/>
<path d="M50.602 35.0343L50.263 34.9287C50.3715 34.9341 50.4795 34.9282 50.5166 34.9544C50.5612 34.9069 50.3445 34.9017 50.3793 34.8661C50.6932 34.8491 50.4023 34.9324 50.6849 34.9058C50.6736 34.8783 50.6617 34.8339 50.3931 34.8202L50.6076 34.7635L50.2634 34.7991C50.1663 34.8212 50.5374 34.8181 50.2959 34.8424C50.1467 34.8505 50.1206 34.8406 50.0841 34.8313C50.152 34.8558 49.8136 34.9079 49.8567 34.9563C49.8894 35.0053 50.4355 34.9926 50.6022 35.0399L50.602 35.0343Z" fill="#2A1D1D"/>
<path d="M50.2195 35.0332L50.0859 35.04L50.2659 35.0359L50.2195 35.0332Z" fill="#2A1D1D"/>
<path d="M50.6684 35.1704L50.4546 35.1032C50.4855 35.1015 50.5575 35.0976 50.6192 35.0943C50.5365 35.0875 50.4023 35.0835 50.3402 35.0756C50.0263 35.0926 50.4406 35.1433 50.4935 35.1799C50.3465 35.2497 50.328 35.1663 50.0296 35.1825C50.0392 35.1651 50.1115 35.1668 50.1362 35.1373C49.7816 35.1677 50.0985 35.235 50.1822 35.2699C50.2131 35.2682 50.3109 35.2629 50.2845 35.2475L50.3839 35.2871C50.6361 35.2735 50.7019 35.2418 50.6682 35.1648L50.6684 35.1704Z" fill="#2A1D1D"/>
<path d="M50.6713 35.0639C50.6713 35.0639 50.6723 35.092 50.626 35.0945C50.7083 35.09 50.7701 35.0867 50.6713 35.0639Z" fill="#2A1D1D"/>
<path d="M50.1886 35.2934C50.1886 35.2934 50.2037 35.2869 50.1828 35.2767C50.1675 35.2776 50.1677 35.2832 50.1886 35.2934Z" fill="#2A1D1D"/>
<path d="M50.5594 35.291L50.5247 35.3265L50.6738 35.3185C50.6738 35.3185 50.6368 35.2925 50.5594 35.291Z" fill="#2A1D1D"/>
<path d="M49.7961 36.6335C49.917 36.6839 49.9795 36.6919 49.9628 36.6586C50.1207 36.7297 50.075 36.755 50.1598 36.8073C50.274 36.8125 50.344 36.8884 50.5014 36.9425C50.531 36.901 50.3354 36.7921 50.3914 36.7662C50.4336 36.7867 50.5072 36.8169 50.5647 36.8308C50.4833 36.7271 50.3691 36.5795 50.524 36.5654C50.6004 36.5271 50.5359 36.4623 50.4757 36.3744C50.6195 36.1958 50.4911 35.9408 50.681 35.7482L50.3567 35.6634C50.523 35.6771 50.3652 35.6117 50.5739 35.6516C50.5325 35.6538 50.5644 35.6749 50.565 35.6919C50.8601 35.6872 50.5603 35.5612 50.6728 35.5209C50.6107 35.5243 50.3247 35.4943 50.2774 35.4741C50.6469 35.5223 50.2751 35.4116 50.7009 35.4397C50.8081 35.394 50.3785 35.406 50.4439 35.3512C50.2255 35.3289 50.3367 35.3969 50.1707 35.3888C49.9984 35.3526 50.2468 35.3448 50.0183 35.3288C49.912 35.3972 50.334 35.6077 50.4334 35.7788L50.2347 35.727C50.3728 35.822 50.3513 35.9427 50.019 35.921C50.2119 35.956 49.8971 35.9902 50.3308 36.0919C50.227 36.0862 50.2429 36.0967 50.2019 36.1103L50.3382 36.1541C50.3291 36.1888 50.1196 36.1262 50.1211 36.166C50.3084 36.1899 50.3568 36.2385 50.5038 36.2932C50.2859 36.2823 50.0942 36.2813 49.9173 36.2625C49.9748 36.2764 50.0429 36.2955 50.1262 36.3081C50.0538 36.312 50.2319 36.3649 50.29 36.3959C50.291 36.4243 50.0602 36.3458 49.9397 36.3068C49.8576 36.3284 50.2939 36.5039 50.1328 36.4899L50.3212 36.5423C50.3495 36.6091 50.1307 36.5754 50.1751 36.6584C49.9133 36.5816 49.9735 36.5271 49.8728 36.4642C49.8156 36.4559 49.7953 36.4684 49.7115 36.4445C49.8333 36.5176 49.9925 36.6228 50.1042 36.7022C49.8242 36.5523 49.8165 36.6267 49.7911 36.6395L49.7961 36.6335Z" fill="#2A1D1D"/>
<path d="M49.7198 36.4334C49.6829 36.4127 49.6514 36.3974 49.625 36.3818C49.6409 36.3923 49.6567 36.4028 49.6413 36.4036C49.6726 36.4133 49.6988 36.4232 49.7198 36.4334Z" fill="#2A1D1D"/>
<path d="M49.8011 36.6308L49.7695 36.6211C49.7695 36.6211 49.7909 36.637 49.8011 36.6308Z" fill="#2A1D1D"/>
<path d="M50.5467 36.5647C50.5467 36.5647 50.5363 36.5653 50.526 36.5659C50.526 36.5659 50.526 36.5659 50.5158 36.5716L50.5417 36.5702L50.5467 36.5647Z" fill="#2A1D1D"/>
<path d="M49.7189 36.2315C49.7863 36.2446 49.8588 36.2519 49.926 36.2595C49.8427 36.236 49.775 36.2172 49.7189 36.2315Z" fill="#2A1D1D"/>
<path d="M50.0002 35.9759C49.9685 35.955 49.9114 35.9468 49.8489 35.9277C49.8392 35.9451 49.8968 35.9702 50.0002 35.9759Z" fill="#2A1D1D"/>
<path d="M49.6562 36.4668L49.7 36.5327L49.7477 36.5642L49.6562 36.4668Z" fill="#2A1D1D"/>
<path d="M50.1927 37.7636C50.4086 37.8657 50.326 37.7279 50.3923 37.7015C50.3349 37.5453 49.9625 37.4062 49.9747 37.3145L50.383 37.5882C50.4002 37.4905 50.5578 37.4136 50.2013 37.1428C50.259 37.1624 50.3269 37.1815 50.3806 37.2354C50.3887 37.1724 49.7781 36.8869 49.9492 36.8947C50.1943 37.0919 50.2168 36.9996 50.4759 37.1506L50.5027 37.1776C50.5004 37.1151 50.3767 36.9852 50.4069 36.9608C50.2912 36.9102 50.108 36.8519 50.1117 36.8118C50.0808 36.8135 49.9543 36.7521 49.8438 36.7012C49.956 36.7976 49.8674 36.7796 50.0053 36.8745C49.8484 36.8262 49.9626 36.837 49.8108 36.7884L49.9332 36.8842C49.8919 36.8864 49.7953 36.7892 49.7494 36.8088C49.8339 36.8554 49.9142 36.9307 49.8839 36.9495L49.8361 36.9179C49.8845 36.9665 49.8014 36.9597 50.0437 37.0774L49.7969 36.977L49.9603 37.0591C49.8733 37.0866 49.4778 36.8805 49.6448 37.0649C49.7023 37.0789 49.777 37.1431 49.8039 37.1701C49.9295 37.2088 49.7016 37.0619 49.695 37.0224C49.8586 37.1102 50.0249 37.2719 50.1393 37.2884C49.9297 37.2145 50.1219 37.3805 49.7206 37.1576C49.675 37.1828 49.8561 37.3266 49.7417 37.3101L49.6832 37.2678C49.9329 37.4477 49.5471 37.224 49.7875 37.4328L49.8606 37.4516C49.9616 37.5258 49.9569 37.5374 49.9684 37.571C49.9435 37.5495 49.9135 37.5303 49.8784 37.5133C50.0591 37.6457 50.0516 37.7258 50.0998 37.7687C50.1462 37.7662 50.0172 37.6309 49.9839 37.5701C50.0802 37.6559 50.2392 37.7611 50.1927 37.7636Z" fill="#2A1D1D"/>
<path d="M49.7539 36.8516L49.844 36.9148C49.844 36.9148 49.8067 36.8828 49.7539 36.8516Z" fill="#2A1D1D"/>
<path d="M49.7516 37.7334C49.6943 37.7251 49.6122 37.6042 49.5172 37.5581C49.6151 37.6839 49.7828 37.7374 49.9396 37.917C49.8229 37.8435 49.9799 38.0287 49.9702 38.0464C49.8835 37.9428 49.6537 37.7502 49.6058 37.7129C49.6599 37.7783 49.5327 37.6998 49.5174 37.7063C49.6812 37.7943 49.5733 37.8172 49.748 37.9217C49.8769 38.0458 49.9338 38.1851 49.8221 38.1057C49.7306 38.0138 49.7619 38.0178 49.7664 38.0005C49.5993 37.8215 49.6554 37.9381 49.4942 37.7816C49.7011 38.0553 49.5599 38.1656 49.9471 38.5549C50.0323 38.6186 49.9608 38.5028 49.9596 38.4687C49.8441 38.4294 49.7703 38.251 49.7105 38.1745C49.7848 38.2217 49.6963 38.067 49.826 38.2138L49.9362 38.3959C50.1065 38.3752 50.1928 38.1824 50.2278 38.0038C50.2129 38.0218 50.198 38.0397 50.1829 38.0519C50.0755 37.9494 50.0848 37.9204 50.0462 37.8542L49.7539 37.6535C49.7849 37.6518 49.7522 37.608 49.8484 37.6883C49.7407 37.5744 49.6664 37.5272 49.5655 37.4586C49.5369 37.3861 49.6486 37.4655 49.4821 37.3036C49.2236 37.1752 49.6447 37.4999 49.4076 37.3931L49.7615 37.7215L49.7516 37.7334Z" fill="#2A1D1D"/>
<path d="M49.6797 37.4854L49.8134 37.6088L49.7589 37.5322L49.6797 37.4854Z" fill="#2A1D1D"/>
<path d="M50.2816 37.9898C50.2179 37.9422 50.2012 37.909 50.1377 37.867C50.0758 37.8704 50.1657 37.928 50.2816 37.9898Z" fill="#2A1D1D"/>
<path d="M49.4609 37.8047L49.4791 37.8777L49.5426 37.9141C49.4886 37.8544 49.4721 37.8269 49.4611 37.8104L49.4609 37.8047Z" fill="#2A1D1D"/>
<path d="M49.8217 38.761C49.8654 38.6788 49.782 38.5238 49.9562 38.6112C49.8346 38.4013 49.6644 38.2796 49.5386 38.0984C49.4861 38.0785 49.7357 38.3896 49.7547 38.4855C49.6249 38.333 49.7367 38.5605 49.6792 38.5465C49.7334 38.612 49.7882 38.6944 49.8217 38.761Z" fill="#2A1D1D"/>
<path d="M49.2384 38.2195C49.2384 38.2195 49.265 38.3827 49.2052 38.3008C49.1543 38.1787 49.1423 38.1339 49.1689 38.1551C49.0354 37.8899 49.1708 38.2061 49.0665 38.0358C49.083 38.0633 49.1104 38.1072 49.1281 38.1687C49.0543 38.1273 49.1885 38.4096 49.06 38.286C49.0786 38.3702 49.0631 38.371 49.1268 38.5606C49.005 38.3344 49.0254 38.3276 48.9304 38.1284C48.9602 38.2403 49.0367 38.4974 49.1074 38.7377C48.9359 38.4234 49.0172 38.8164 48.9154 38.5721C48.915 38.5608 48.9126 38.4928 48.9342 38.52C48.8753 38.1768 48.9059 38.5953 48.8622 38.5296L48.8308 38.2303C48.8169 38.2765 48.7831 38.4828 48.739 38.2637L48.7335 38.1107C48.6854 38.3518 48.6192 38.2362 48.5612 38.3472L48.5545 38.1602C48.4594 38.3868 48.6099 38.2651 48.5228 38.7127C48.5596 38.1599 48.4621 38.892 48.428 38.6611C48.4354 38.4393 48.4913 38.5555 48.4975 38.2996C48.456 38.5801 48.4641 38.3752 48.4307 38.4509C48.478 38.1871 48.393 38.4075 48.4598 38.1143C48.4087 38.2704 48.3474 38.4327 48.2752 38.5786C48.3008 38.4296 48.2703 38.4426 48.2455 38.4723C48.2927 38.4924 48.104 38.8434 48.1349 38.9837C48.2815 38.8962 48.4395 38.8365 48.553 38.9779C48.581 38.6073 48.6308 38.9851 48.6509 38.683C48.6552 38.802 48.6588 38.904 48.6681 39.0171C48.7479 38.9389 48.6453 38.8139 48.6612 38.6825C48.6904 38.6355 48.724 38.8494 48.7238 38.9857C48.7811 38.9996 48.7252 38.8834 48.7438 38.6836L48.8048 39.0835C48.8902 39.0164 48.984 38.8977 49.0739 38.8133C49.1643 38.7402 49.2449 38.6847 49.3812 38.7398L49.2699 38.5187C49.4122 38.5961 49.1211 37.9761 49.4357 38.3905L49.3461 38.1966C49.3966 38.3074 49.5532 38.4976 49.621 38.6586C49.5971 38.569 49.6666 38.6334 49.6483 38.5549L49.5477 38.4866C49.458 38.2927 49.5543 38.384 49.6627 38.5257C49.5714 38.2865 49.3929 38.2054 49.2783 38.0356C49.459 38.463 48.9975 37.6989 49.056 37.8888C49.0921 38.0287 49.1615 38.0931 49.2225 38.209L49.2384 38.2195Z" fill="#2A1D1D"/>
<path d="M49.6522 38.7479C49.6522 38.7479 49.6401 38.7029 49.6289 38.6807C49.6295 38.6977 49.6408 38.72 49.6522 38.7479Z" fill="#2A1D1D"/>
<path d="M48.2575 38.4852C48.2575 38.4852 48.2472 38.4858 48.2317 38.4866C48.2028 38.5449 48.2323 38.5036 48.2575 38.4852Z" fill="#2A1D1D"/>
<path d="M49.3632 38.0294L49.3479 38.036L49.4132 38.1235L49.3632 38.0294Z" fill="#2A1D1D"/>
<path d="M48.2325 38.1201L48.1641 38.232C48.1835 38.1968 48.2081 38.1613 48.2325 38.1201Z" fill="#2A1D1D"/>
<path d="M48.0391 37.7412L48.0395 37.7529C48.0395 37.7529 48.0497 37.7406 48.0391 37.7412Z" fill="#2A1D1D"/>
<path d="M47.592 36.3438C47.5177 36.2965 47.4482 36.2377 47.2498 36.1972L47.3692 36.2021C47.3112 36.1768 47.1213 36.0846 46.9001 36.1308L47.0044 36.1479C47.1829 36.2122 46.8036 36.1873 46.7223 36.2316C46.7765 36.297 47.2338 36.3291 47.1268 36.3805C47.138 36.4027 47.0186 36.3978 46.9251 36.3915C46.8907 36.4446 47.2437 36.4596 47.2863 36.4914C46.3702 36.5299 47.5353 36.6374 46.9583 36.7372C47.0375 36.7784 46.9626 36.8565 47.1404 36.8981C46.9067 36.8881 47.1269 36.9558 46.8682 36.9699C47.4007 36.9295 46.648 37.187 47.3189 37.1049C47.1413 37.2114 47.3655 37.1023 47.2193 37.2185C47.1473 37.2338 47.1415 37.2171 47.1258 37.2122C46.9933 37.2764 47.4163 37.2192 47.1189 37.3094C47.0806 37.397 47.2996 37.2882 47.4863 37.2894C47.4221 37.3784 47.3288 37.3778 47.0632 37.4891C47.377 37.4207 47.2348 37.5025 47.4057 37.4989C47.4208 37.4867 47.4703 37.4213 47.5947 37.4202C47.5617 37.5132 47.8128 37.4311 47.9125 37.4656C47.5808 37.609 47.8842 37.3988 47.6304 37.5493C47.4597 37.5586 47.4682 37.5069 47.2106 37.5494C47.2031 37.6295 47.2887 37.7046 47.4502 37.7243C47.416 37.7831 47.2856 37.7618 47.2666 37.8084C47.1422 37.9519 47.6443 37.7878 47.5188 37.9029L47.345 37.9693C47.5755 37.8941 47.3507 38.1285 47.5064 38.1314C47.5819 38.0703 47.6324 38.0334 47.6885 38.0076C47.2884 38.2686 47.93 37.9488 47.6953 38.1952C47.9321 38.0057 48.0852 37.9404 48.1212 37.9327C48.0666 37.9984 47.9711 38.0833 47.9109 38.1379C48.0088 37.9787 47.6321 38.3125 47.4883 38.3489C47.6367 38.2952 47.5652 38.47 47.7526 38.3459L47.5717 38.5038C47.6008 38.5934 47.984 38.151 47.8674 38.3681L47.7478 38.4999C47.8061 38.5366 47.8206 38.6498 47.875 38.7208C47.929 38.7806 48.0078 38.8104 48.1312 38.6385C48.1883 38.4987 48.2848 38.1574 48.3329 38.0522C48.259 38.1588 48.1166 38.3773 48.011 38.4685L48.1526 38.2272C48.0497 38.3923 47.9481 38.4491 47.8862 38.6006C47.7754 38.6921 48.0025 38.3778 47.8819 38.4812C48.0549 38.2496 48.0905 38.2306 48.2284 38.0294L48.1284 38.1317C48.1978 38.0425 48.1771 38.0436 48.2516 37.9541C48.0015 38.207 48.3087 37.8143 48.1827 37.9123L48.1587 37.9649C48.049 38.0848 48.0479 38.0563 48.0074 38.0813C48.162 37.9134 48.1316 37.9322 48.1959 37.8489C48.0947 37.9171 47.8625 38.0892 47.8455 38.0503C48.0879 37.8719 47.9441 37.9082 48.1513 37.7602C47.9031 37.9218 48.0374 37.7664 47.8901 37.8485C47.8284 37.8632 47.8425 37.8226 47.9849 37.7465C47.9952 37.7459 48.0209 37.7388 48.0362 37.7323L48.0356 37.7152C48.0662 37.7022 48.0917 37.6894 48.0968 37.6891C48.0962 37.672 47.9029 37.7737 48.0296 37.6928C48.1008 37.6547 48.1012 37.6661 48.132 37.6587C48.1664 37.6056 47.7063 37.7844 47.9342 37.6353C47.8063 37.6821 47.7736 37.6384 47.4878 37.7621C47.5843 37.7056 47.8196 37.6188 47.7668 37.5932C47.5152 37.6581 47.8469 37.5147 47.6768 37.5411C47.95 37.4977 47.7486 37.5201 48.0058 37.4662C48.1023 37.4097 47.7523 37.48 47.7915 37.4152C47.8529 37.3948 47.9245 37.3681 47.9862 37.3533C47.8931 37.3584 47.6818 37.3927 47.8919 37.3243L47.7122 37.374C47.7983 37.318 47.7296 37.2819 47.9238 37.2029L47.572 37.2221C47.9304 37.1 47.5877 37.0845 47.2709 37.0676C47.2854 37.0383 47.346 36.9952 47.4234 36.9852C47.4493 36.9838 47.5014 36.9924 47.5534 36.9953C47.5625 36.9606 47.7572 36.8987 47.4673 36.9088C47.373 36.8798 47.6679 36.8637 47.7082 36.833C47.2972 36.7927 48.0009 36.612 47.3741 36.6234C47.3751 36.6518 47.2478 36.7157 47.2811 36.7765C47.2029 36.7637 47.0845 36.7872 47.0682 36.7653C47.0349 36.7045 47.2666 36.6634 47.1609 36.6065L47.5599 36.6019C47.9605 36.5003 47.0194 36.4205 47.5869 36.344L47.592 36.3438Z" fill="#2A1D1D"/>
<path d="M47.6036 37.0542L47.7971 36.9875L47.6279 37.0135C47.6592 37.0231 47.6596 37.0343 47.6036 37.0542Z" fill="#2A1D1D"/>
<path d="M47.6337 37.0124C47.6337 37.0124 47.587 37.0037 47.5508 37C47.5512 37.0112 47.5514 37.0168 47.5876 37.0205L47.6288 37.0183L47.6337 37.0124Z" fill="#2A1D1D"/>
<path d="M47.5207 36.1731C47.5207 36.1731 47.5714 36.1476 47.5242 36.1275C47.478 36.1357 47.4582 36.1595 47.5207 36.1731Z" fill="#2A1D1D"/>
<path d="M47.4016 36.1226L47.3403 36.1372L47.387 36.146L47.4016 36.1226Z" fill="#2A1D1D"/>
<path d="M47.1889 34.8292L46.9618 34.7162C47.0866 34.7265 46.9531 34.6198 47.1577 34.6828C46.8794 34.5897 47.1736 34.5509 46.7571 34.5052C46.8641 34.7386 46.5777 34.9935 46.9151 35.2885L46.7573 35.2287C47.0693 35.3941 46.3785 35.3633 47.0175 35.5393L46.6838 35.4891C46.5871 35.54 47.1562 35.6457 46.7995 35.6765L46.9345 35.6806C46.9345 35.6806 46.8728 35.6953 46.8682 35.7127L46.9303 35.7093C47.062 35.7648 47.0421 35.7887 46.9499 35.8222C46.8408 35.8167 46.9077 35.8017 46.8761 35.7863C46.7674 35.7922 46.9924 35.8483 46.9882 35.8771C46.8955 35.8935 46.8375 35.8682 46.7905 35.8593C46.9292 35.9657 46.5777 35.9963 47.0737 36.0889C47.1675 36.1009 47.2443 36.0739 47.2869 36.1058C47.4457 36.0516 47.2517 35.9937 47.1197 35.9269L47.1203 35.9439C46.6353 35.8678 47.2282 35.9153 47.0228 35.8296C47.216 35.8647 47.217 35.8931 47.3215 35.9159C47.6981 35.8612 47.0468 35.777 47.5286 35.7622L47.5441 35.7613C47.5907 35.7588 47.5017 35.7351 47.4592 35.709C47.3971 35.7124 47.3613 35.7257 47.3149 35.7339C47.2727 35.7134 47.0591 35.6852 46.9703 35.6672C47.1881 35.6668 46.8703 35.6271 46.9784 35.6041C47.1757 35.6105 47.1564 35.6514 47.2609 35.6742L47.1293 35.6187C47.1227 35.5792 47.3518 35.6066 47.4605 35.6006C47.3135 35.5517 47.3518 35.6066 47.1427 35.561C47.3912 35.5475 47.3434 35.3734 47.1579 35.2639C47.1799 35.2969 47.3668 35.3038 47.3316 35.3342C47.3782 35.3317 47.2774 35.2688 47.1263 35.2485C46.9992 35.1757 47.1058 35.1129 47.2499 35.0823L47.094 35.0737C46.8473 34.9902 47.2984 34.9885 47.1599 34.8877C47.133 34.8607 46.7668 34.7724 46.8486 34.7395C47.0266 34.7868 47.0065 34.8049 47.1891 34.8349L47.1889 34.8292Z" fill="#2A1D1D"/>
<path d="M46.8797 34.4839L47.0834 34.552C47.1342 34.5323 46.8731 34.4448 46.7383 34.4238C46.7805 34.4498 46.6829 34.4607 46.8025 34.4881C46.8334 34.4865 46.9063 34.5051 46.8797 34.4839Z" fill="#2A1D1D"/>
<path d="M46.9483 33.939C46.901 33.9188 46.8227 33.9003 46.7701 33.8803C46.7747 34.0054 46.8269 34.162 46.6564 34.1713C46.59 34.1977 46.8982 34.272 46.9627 34.3368L46.7496 34.3143C46.8759 34.37 46.6336 34.4003 46.9873 34.4437C47.0183 34.442 46.83 34.3896 46.8918 34.3805L47.0119 34.4082L46.9786 34.3473L47.1254 34.3963C47.3524 34.3725 46.6853 34.2551 46.8437 34.1952L47.1413 34.2644C47.1705 34.2116 47.0702 34.1601 47.2617 34.1554C47.2617 34.1554 47.1153 34.1178 47.1732 34.1431C47.1525 34.1442 47.033 34.1337 46.944 34.1044C46.7265 33.9624 47.1219 34.1573 47.2555 34.1272C47.0647 34.0067 46.9233 33.8207 47.1726 33.8413C46.9858 33.8287 46.8059 33.7246 46.8357 33.6888C46.9449 33.7 47.0087 33.7477 47.098 33.7827C47.1338 33.7694 47.2117 33.7765 47.1743 33.7444C47.0079 33.725 46.7826 33.6519 46.7018 33.5652C46.487 33.6395 47.0178 33.8555 46.964 33.9438L46.9483 33.939Z" fill="#2A1D1D"/>
<path d="M46.7044 33.8484C46.7044 33.8484 46.7363 33.8749 46.7676 33.8846C46.767 33.8676 46.7666 33.8563 46.7662 33.845L46.6992 33.8486L46.7044 33.8484Z" fill="#2A1D1D"/>
<path d="M29.8394 75.6063C30.9492 75.5515 31.809 74.5087 31.7599 73.2773C31.7108 72.0458 30.7714 71.092 29.6617 71.1468C28.552 71.2016 27.6921 72.2444 27.7412 73.4758C27.7903 74.7073 28.7297 75.6611 29.8394 75.6063Z" fill="#0F0000"/>
<path d="M59.3629 79.4618C60.4726 79.4069 61.3324 78.3642 61.2834 77.1327C61.2343 75.9013 60.2949 74.9474 59.1851 75.0023C58.0754 75.0571 57.2156 76.0999 57.2647 77.3313C57.3137 78.5628 58.2532 79.5166 59.3629 79.4618Z" fill="#0F0000"/>
<path d="M32.8318 58.0292L29.4844 72.2227L30.3304 72.4681L33.6778 58.2746L32.8318 58.0292Z" fill="#050E0B"/>
<path d="M22.2008 37.7292C22.7854 37.7003 23.2433 37.2735 23.2235 36.7759C23.2037 36.2783 22.7136 35.8983 22.1289 35.9272C21.5443 35.9561 21.0864 36.3829 21.1062 36.8805C21.1261 37.3781 21.6161 37.7581 22.2008 37.7292Z" fill="#050E0B"/>
<path d="M82.8279 48.7831C83.3716 48.3981 83.4705 47.4913 83.0488 46.7579C82.6272 46.0244 81.8446 45.742 81.3009 46.127C80.7572 46.5121 80.6582 47.4188 81.0799 48.1522C81.5016 48.8857 82.2842 49.1681 82.8279 48.7831Z" fill="#050E0B"/>
<path d="M33.3758 53.0269C33.3956 53.523 32.8234 54.1512 32.2426 54.1799C31.6619 54.2086 31.2786 53.6333 31.2586 53.1315C31.2386 52.6297 31.6954 52.2071 32.2813 52.1782C32.8671 52.1492 33.3561 52.5307 33.3758 53.0269Z" fill="#050E0B"/>
<path d="M15.7028 38.225C16.0561 37.7071 16.0267 37.022 15.6372 36.6948C15.2476 36.3675 14.6454 36.5221 14.2921 37.0399C13.9388 37.5577 13.9681 38.2428 14.3577 38.5701C14.7472 38.8973 15.3494 38.7428 15.7028 38.225Z" fill="#050E0B"/>
<path d="M41.2446 54.5006C41.3612 55.1005 40.9938 55.7015 40.4226 55.8383C39.8513 55.9751 38.8282 55.6257 38.7116 55.0258C38.595 54.4259 39.4249 53.802 39.9961 53.6652C40.5674 53.5284 41.128 53.9007 41.2446 54.5006Z" fill="#050E0B"/>
<path d="M60.0441 57.1668C59.9219 56.5557 60.3554 55.9343 61.003 55.7766C61.6507 55.6189 62.8019 55.9505 62.9187 56.5562C63.0355 57.1618 62.0836 57.8259 61.436 57.9836C60.7883 58.1413 60.1609 57.7724 60.0441 57.1668Z" fill="#050E0B"/>
<path d="M78.3286 54.5334C77.9547 54.0662 78.0627 53.2895 78.5582 52.8022C79.0537 52.3149 80.2042 51.9838 80.5781 52.451C80.952 52.9182 80.4033 54.0081 79.9027 54.4957C79.4021 54.9832 78.6974 55.0009 78.3286 54.5334Z" fill="#050E0B"/>
<path d="M14.858 44.3829C15.2243 44.1806 15.2372 43.3828 14.8868 42.601C14.5363 41.8192 13.9553 41.3494 13.589 41.5517C13.2227 41.754 13.2099 42.5517 13.5603 43.3335C13.9107 44.1153 14.4917 44.5851 14.858 44.3829Z" fill="#050E0B"/>
<path d="M76.171 43.5184C76.2748 43.0792 75.7418 42.5439 74.9805 42.3227C74.2193 42.1016 73.5181 42.2783 73.4144 42.7175C73.3106 43.1567 73.8437 43.692 74.6049 43.9131C75.3661 44.1343 76.0673 43.9576 76.171 43.5184Z" fill="#050E0B"/>
<path d="M22.9026 49.2077C22.9445 49.7427 22.0297 49.9136 21.2825 49.642C20.5354 49.3703 20.0469 48.7431 20.1967 48.2386C20.3466 47.7341 20.7815 47.2783 21.5287 47.5499C22.2758 47.8216 22.8331 48.2397 22.9026 49.2077Z" fill="#050E0B"/>
<path d="M51.917 56.3401C52.1774 56.8015 51.4253 57.4386 50.6331 57.5863C49.8409 57.734 49.1332 57.4204 49.05 56.8817C48.9667 56.343 49.173 55.7043 49.9652 55.5566C50.7574 55.4089 51.4405 55.4951 51.917 56.3401Z" fill="#050E0B"/>
<path d="M69.7782 56.604C69.4828 56.1672 70.1859 55.4639 70.9649 55.2426C71.7439 55.0212 72.4745 55.2651 72.5935 55.7963C72.7125 56.3276 72.5635 56.9806 71.7845 57.2019C71.0055 57.4233 70.3197 57.4 69.7782 56.604Z" fill="#050E0B"/>
<path d="M28.2424 51.249C28.3907 50.7389 27.9038 50.1081 27.1549 49.8402C26.406 49.5722 25.6787 49.7685 25.5303 50.2786C25.382 50.7886 25.8688 51.4194 26.6177 51.6874C27.3666 51.9553 28.094 51.7591 28.2424 51.249Z" fill="#050E0B"/>
</svg>
