<svg aria-hidden="true" style="position: absolute; width: 0; height: 0; overflow: hidden;" version="1.1" xmlns="http://www.w3.org/2000/svg" xmlns:xlink="http://www.w3.org/1999/xlink">
<defs>
<symbol id="icon-inst" viewBox="0 0 32 32">
<path fill="none" stroke="#fff9c1" style="stroke: var(--color1, #fff9c1)" stroke-linejoin="miter" stroke-linecap="butt" stroke-miterlimit="4" stroke-width="1.4884" d="M9.302 1.186h13.395c4.521 0 8.186 3.665 8.186 8.186v13.395c0 4.521-3.665 8.186-8.186 8.186h-13.395c-4.521 0-8.186-3.665-8.186-8.186v-13.395c0-4.521 3.665-8.186 8.186-8.186z"></path>
<path fill="#fff9c1" style="fill: var(--color1, #fff9c1)" d="M20.093 7.884h-8.186c-2.251 0-4.093 1.841-4.093 4.093v8.186c0 2.251 1.842 4.093 4.093 4.093h8.186c2.251 0 4.093-1.842 4.093-4.093v-8.186c0-2.252-1.842-4.093-4.093-4.093zM16 19.48c-1.884 0-3.411-1.528-3.411-3.411s1.527-3.411 3.411-3.411c1.883 0 3.411 1.527 3.411 3.411s-1.528 3.411-3.411 3.411zM20.434 12.659c-0.566 0-1.023-0.458-1.023-1.023s0.458-1.023 1.023-1.023 1.023 0.458 1.023 1.023c0 0.565-0.458 1.023-1.023 1.023z"></path>
</symbol>
<symbol id="icon-viber" viewBox="0 0 32 32">
<path fill="none" stroke="#fff9c1" style="stroke: var(--color1, #fff9c1)" stroke-linejoin="miter" stroke-linecap="butt" stroke-miterlimit="4" stroke-width="1.4884" d="M9.302 1.186h13.395c4.521 0 8.186 3.665 8.186 8.186v13.395c0 4.521-3.665 8.186-8.186 8.186h-13.395c-4.521 0-8.186-3.665-8.186-8.186v-13.395c0-4.521 3.665-8.186 8.186-8.186z"></path>
<path fill="#fff9c1" style="fill: var(--color1, #fff9c1)" d="M17.637 7.884h-3.273c-3.15 0-5.728 2.577-5.728 5.728v2.455c0 2.209 1.289 4.235 3.273 5.176v2.741c0 0.245 0.307 0.368 0.471 0.184l2.373-2.373h2.884c3.15 0 5.728-2.578 5.728-5.728v-2.455c0-3.15-2.578-5.728-5.728-5.728zM19.785 18.623l-0.839 0.818c-0.88 0.859-3.15-0.123-5.155-2.168s-2.884-4.337-2.046-5.196l0.818-0.818c0.307-0.307 0.818-0.286 1.166 0.020l1.187 1.227c0.43 0.43 0.245 1.166-0.307 1.33-0.389 0.123-0.655 0.552-0.532 0.941 0.205 0.9 1.35 2.046 2.209 2.271 0.389 0.082 0.818-0.123 0.961-0.511 0.184-0.552 0.921-0.716 1.33-0.286l1.186 1.227c0.327 0.286 0.327 0.798 0.020 1.146zM16.737 11.771c-0.082 0-0.164 0-0.245 0.020-0.143 0.020-0.286-0.102-0.307-0.245s0.102-0.286 0.245-0.307c0.102-0.020 0.205-0.020 0.307-0.020 1.493 0 2.721 1.227 2.721 2.721 0 0.102 0 0.204-0.020 0.307-0.020 0.143-0.164 0.266-0.307 0.245s-0.266-0.164-0.245-0.307c0-0.082 0.020-0.164 0.020-0.245 0.020-1.187-0.961-2.168-2.168-2.168zM18.374 13.959c0 0.143-0.123 0.266-0.266 0.266s-0.266-0.123-0.266-0.266c0-0.593-0.491-1.084-1.084-1.084-0.143 0-0.266-0.123-0.266-0.266s0.123-0.266 0.266-0.266c0.88-0.020 1.616 0.716 1.616 1.616zM20.46 14.839c-0.041 0.143-0.184 0.245-0.348 0.204-0.143-0.041-0.225-0.184-0.184-0.327 0.061-0.245 0.082-0.491 0.082-0.757 0-1.8-1.473-3.273-3.273-3.273-0.082 0-0.164 0-0.245 0-0.143 0-0.286-0.102-0.286-0.245s0.102-0.286 0.245-0.286c0.102 0 0.205-0.020 0.286-0.020 2.107 0 3.825 1.718 3.825 3.825 0 0.286-0.041 0.593-0.102 0.88z"></path>
</symbol>
<symbol id="icon-tg" viewBox="0 0 32 32">
<path fill="none" stroke="#fff9c1" style="stroke: var(--color1, #fff9c1)" stroke-linejoin="miter" stroke-linecap="butt" stroke-miterlimit="4" stroke-width="1.4884" d="M9.302 1.186h13.395c4.521 0 8.186 3.665 8.186 8.186v13.395c0 4.521-3.665 8.186-8.186 8.186h-13.395c-4.521 0-8.186-3.665-8.186-8.186v-13.395c0-4.521 3.665-8.186 8.186-8.186z"></path>
<path fill="#fff9c1" style="fill: var(--color1, #fff9c1)" d="M14.238 18.207l-0.271 3.752c0.387 0 0.555-0.164 0.757-0.361l1.817-1.71 3.764 2.716c0.69 0.379 1.177 0.179 1.363-0.626l2.472-11.406c0.219-1.005-0.369-1.398-1.042-1.152l-14.523 5.477c-0.991 0.379-0.976 0.923-0.168 1.17l3.713 1.138 8.625-5.316c0.406-0.265 0.775-0.118 0.471 0.147l-6.977 6.171z"></path>
</symbol>
<symbol id="icon-whatsapp" viewBox="0 0 32 32">
<path fill="none" stroke="#fff9c1" style="stroke: var(--color1, #fff9c1)" stroke-linejoin="miter" stroke-linecap="butt" stroke-miterlimit="4" stroke-width="1.4884" d="M9.302 1.186h13.395c4.521 0 8.186 3.665 8.186 8.186v13.395c0 4.521-3.665 8.186-8.186 8.186h-13.395c-4.521 0-8.186-3.665-8.186-8.186v-13.395c0-4.521 3.665-8.186 8.186-8.186z"></path>
<path fill="#fff9c1" style="fill: var(--color1, #fff9c1)" d="M16.002 7.884h-0.004c-4.514 0-8.184 3.671-8.184 8.186 0 1.791 0.577 3.45 1.558 4.798l-1.020 3.041 3.146-1.006c1.294 0.858 2.838 1.353 4.503 1.353 4.514 0 8.184-3.672 8.184-8.186s-3.67-8.186-8.184-8.186zM20.765 19.443c-0.198 0.558-0.981 1.020-1.607 1.155-0.428 0.091-0.986 0.164-2.867-0.616-2.406-0.997-3.955-3.441-4.076-3.6-0.116-0.159-0.972-1.294-0.972-2.469s0.597-1.747 0.837-1.992c0.197-0.202 0.524-0.294 0.837-0.294 0.101 0 0.192 0.005 0.274 0.009 0.24 0.010 0.361 0.025 0.52 0.404 0.197 0.476 0.678 1.651 0.736 1.771 0.058 0.121 0.117 0.284 0.035 0.443-0.077 0.164-0.144 0.236-0.265 0.376s-0.235 0.246-0.356 0.395c-0.111 0.13-0.235 0.269-0.096 0.51 0.139 0.235 0.62 1.020 1.328 1.651 0.914 0.813 1.655 1.073 1.92 1.184 0.198 0.082 0.433 0.062 0.577-0.091 0.183-0.198 0.409-0.525 0.639-0.847 0.164-0.231 0.37-0.26 0.587-0.178 0.221 0.077 1.391 0.655 1.631 0.775s0.399 0.178 0.457 0.279c0.057 0.101 0.057 0.577-0.14 1.136z"></path>
</symbol>
</defs>
</svg>

