<svg width="173" height="154" viewBox="0 0 173 154" fill="none" xmlns="http://www.w3.org/2000/svg">
<mask id="path-1-outside-1_643_4785" maskUnits="userSpaceOnUse" x="0" y="0.630859" width="173" height="153" fill="black">
<rect fill="white" y="0.630859" width="173" height="153"/>
<path d="M125.8 47.1889C138.4 47.1889 151.014 47.1889 163.614 47.1889C164.706 47.1889 165.853 47.0973 166.904 47.3721C169.279 47.9676 171.641 48.8684 171.969 52.1205C172.31 55.4337 169.798 56.0292 167.846 56.8995C157.102 61.6937 146.345 66.3963 135.547 71.1447C136.148 73.2975 137.69 73.6334 139.247 74.3663C147.792 78.3818 156.256 82.6111 164.72 86.8251C166.767 87.8481 168.924 89.0848 168.119 92.2301C167.327 95.2837 164.897 95.0852 162.672 95.0852C151.15 95.0852 139.629 95.0547 127.015 93.3141C129.923 101.498 134.196 107.483 137.431 114.048C138.823 116.888 140.694 119.438 142.086 122.293C143.137 124.446 143.915 127.118 142.059 129.087C140.107 131.164 138.086 129.943 136.175 128.309C129.39 122.522 122.537 116.827 115.698 111.132C115.166 110.689 114.511 110.414 112.995 109.529C112.995 120.033 112.995 129.729 112.995 139.439C112.995 141.271 113.159 143.18 112.749 144.921C111.685 149.486 109.323 150.387 106.156 147.028C100.054 140.569 95.8492 132.355 90.6072 125.087C90.3751 124.767 90.2249 124.385 90.0338 124.034C88.7096 121.606 86.9077 118.323 84.819 118.522C82.6894 118.72 81.6383 122.4 80.5189 124.965C76.9832 132.981 73.311 140.92 69.5706 148.829C68.5604 150.952 67.3727 153.532 64.6152 152.646C62.158 151.868 61.8167 149.287 61.4344 146.783C59.7144 135.409 57.8578 124.049 56.1105 112.689C55.6054 109.376 54.8136 108.872 51.8513 110.705C41.0395 117.377 29.9683 123.515 19.0337 129.927C17.1771 131.027 16.2078 130.065 14.7472 128.889C12.8223 127.332 13.2319 126.019 14.1329 124.293C18.0644 116.751 21.5728 108.857 26.0777 101.757C28.8899 97.3296 27.32 95.8944 23.9754 95.1158C17.3819 93.5889 11.2115 90.6269 4.7954 88.5199C3.1709 87.9702 1.02766 87.5427 1.00035 84.7639C0.973052 82.489 2.52929 81.695 3.98998 80.8095C11.5118 76.229 19.4432 72.5341 27.6066 69.8774C32.4801 68.2895 31.6884 66.5948 29.7089 62.9609C25.2859 54.7772 19.4432 47.6317 15.5662 39.0357C14.7608 37.2493 13.2592 35.6461 14.8837 33.5239C16.3307 31.6459 17.887 31.4016 20.2077 31.9054C29.4632 33.9208 38.787 35.4629 48.0835 37.1882C51.4008 37.799 53.1891 37.2951 53.9399 32.562C55.2504 24.2408 54.3221 15.8128 55.8238 7.56793C56.2333 5.32351 56.2743 2.91113 58.3629 1.93397C60.67 0.865197 62.076 2.83479 63.4275 4.54483C67.9734 10.3467 72.6012 16.0876 77.0378 21.9964C79.263 24.9584 80.71 25.447 82.2935 21.3856C84.2593 16.3624 86.5118 11.4613 88.7506 6.56023C89.5833 4.72805 90.73 2.86533 92.8323 2.9264C95.3032 3.00274 96.0404 5.36931 96.6956 7.49159C98.6478 13.7821 100.518 20.1184 102.456 26.4242C103.494 29.8137 104.654 30.6076 108.013 28.409C118.66 21.4162 129.677 15.1257 140.516 8.51456C142.304 7.41525 143.588 8.11759 144.939 9.43065C147.123 11.5529 145.813 13.7974 144.775 15.4616C141.13 21.294 137.185 26.8975 133.363 32.5925C130.66 36.608 127.971 40.6388 125.281 44.6544L125.814 47.1431L125.8 47.1889ZM84.3276 111.987C89.0373 117.865 92.9142 123.454 96.5728 129.286C99.6033 134.095 102.962 138.661 106.251 143.272C106.77 143.989 107.753 144.814 108.449 144.753C109.801 144.615 109.828 143.119 109.855 141.882C109.896 140.447 109.869 139.012 109.883 137.577C109.91 128.355 109.842 119.133 109.992 109.926C110.06 105.987 110.784 103.193 114.988 107.04C121.555 113.025 128.38 118.659 135.138 124.37C136.516 125.53 138.086 128.171 139.738 126.522C141.526 124.736 139.479 122.553 138.468 120.782C134.291 113.422 129.909 106.2 125.923 98.7191C124.694 96.4136 121.964 93.7416 123.534 91.1002C124.776 88.9932 127.943 90.4132 130.237 90.3368C133.158 90.2452 136.093 90.5048 139.014 90.7338C146.686 91.3445 154.345 92.0469 162.003 92.6118C163.191 92.7034 164.925 93.0088 165.184 91.1308C165.43 89.3902 163.846 88.8863 162.686 88.352C157.635 86.0312 152.557 83.8326 147.533 81.466C142.523 79.0994 137.595 76.5191 132.557 74.1983C131.179 73.5571 130.36 72.5188 130.196 71.1294C130.087 70.1675 131.151 69.6789 132.08 69.343C143.492 65.3428 154.099 58.8996 165.621 55.1742C166.89 54.7619 169.566 54.8841 168.924 52.1358C168.378 49.754 166.153 50.7311 164.652 50.7311C151.082 50.7464 137.567 48.7768 123.998 49.4944C121.35 49.6318 119.875 48.9905 122.019 45.7842C125.705 40.2724 129.636 34.9133 132.83 29.0503C136.025 23.172 141.799 19.0038 142.973 10.6826C140.093 11.9804 137.69 12.5301 135.847 13.9653C126.565 21.1719 116.012 25.844 106.565 32.7146C104.067 34.5316 102.006 34.1193 100.996 29.9816C99.2757 22.9583 96.9413 16.1334 94.8118 9.24744C94.3613 7.79696 94.1974 5.67468 92.2863 5.8579C90.9075 5.98004 90.5526 7.65954 90.0475 9.00314C87.9998 14.4234 85.8838 19.8283 83.6996 25.1874C82.2799 28.6686 80.9148 31.4169 77.502 26.6684C73.079 20.5154 68.1509 14.8203 63.4548 8.91154C62.2808 7.43052 61.4617 4.81966 59.3185 5.72048C57.1753 6.62131 58.1854 9.30851 58.0762 11.217C57.6121 18.958 57.2162 26.699 56.9159 34.4552C56.7248 39.5701 55.1549 41.4939 50.1039 40.364C40.8484 38.3181 31.4426 37.1577 22.0915 35.6461C20.3442 35.356 18.0644 33.814 16.945 35.6767C15.6481 37.8448 18.433 39.4785 18.9381 41.6007C19.1429 42.471 20.2077 43.0359 20.7264 43.8604C25.1221 50.8533 29.4905 57.8614 33.8316 64.9C35.0875 66.9307 35.811 69.0682 33.0125 70.3355C24.7535 74.0609 16.4672 77.7558 8.19456 81.4202C6.57006 82.1378 4.14014 82.1225 4.263 84.7181C4.35856 86.9167 6.72023 86.9931 8.16726 87.4511C14.4332 89.4513 20.7674 91.2071 27.0879 93.0087C30.7191 94.047 32.0296 95.9097 29.7226 99.91C25.9685 106.399 22.4055 113.01 18.7879 119.591C17.4911 121.942 14.6926 124.675 16.8768 127.087C18.3647 128.736 21.095 126.019 23.0744 124.843C32.5484 119.194 41.9268 113.377 51.4008 107.758C57.3937 104.2 57.7349 104.261 58.909 111.651C60.6973 122.995 62.0624 134.431 63.6323 145.821C63.8507 147.44 62.704 149.944 65.2431 150.219C67.1953 150.432 67.6594 148.402 68.4785 146.722C73.8844 135.47 77.7067 123.316 84.3685 111.987H84.3276Z"/>
</mask>
<path d="M125.8 47.1889C138.4 47.1889 151.014 47.1889 163.614 47.1889C164.706 47.1889 165.853 47.0973 166.904 47.3721C169.279 47.9676 171.641 48.8684 171.969 52.1205C172.31 55.4337 169.798 56.0292 167.846 56.8995C157.102 61.6937 146.345 66.3963 135.547 71.1447C136.148 73.2975 137.69 73.6334 139.247 74.3663C147.792 78.3818 156.256 82.6111 164.72 86.8251C166.767 87.8481 168.924 89.0848 168.119 92.2301C167.327 95.2837 164.897 95.0852 162.672 95.0852C151.15 95.0852 139.629 95.0547 127.015 93.3141C129.923 101.498 134.196 107.483 137.431 114.048C138.823 116.888 140.694 119.438 142.086 122.293C143.137 124.446 143.915 127.118 142.059 129.087C140.107 131.164 138.086 129.943 136.175 128.309C129.39 122.522 122.537 116.827 115.698 111.132C115.166 110.689 114.511 110.414 112.995 109.529C112.995 120.033 112.995 129.729 112.995 139.439C112.995 141.271 113.159 143.18 112.749 144.921C111.685 149.486 109.323 150.387 106.156 147.028C100.054 140.569 95.8492 132.355 90.6072 125.087C90.3751 124.767 90.2249 124.385 90.0338 124.034C88.7096 121.606 86.9077 118.323 84.819 118.522C82.6894 118.72 81.6383 122.4 80.5189 124.965C76.9832 132.981 73.311 140.92 69.5706 148.829C68.5604 150.952 67.3727 153.532 64.6152 152.646C62.158 151.868 61.8167 149.287 61.4344 146.783C59.7144 135.409 57.8578 124.049 56.1105 112.689C55.6054 109.376 54.8136 108.872 51.8513 110.705C41.0395 117.377 29.9683 123.515 19.0337 129.927C17.1771 131.027 16.2078 130.065 14.7472 128.889C12.8223 127.332 13.2319 126.019 14.1329 124.293C18.0644 116.751 21.5728 108.857 26.0777 101.757C28.8899 97.3296 27.32 95.8944 23.9754 95.1158C17.3819 93.5889 11.2115 90.6269 4.7954 88.5199C3.1709 87.9702 1.02766 87.5427 1.00035 84.7639C0.973052 82.489 2.52929 81.695 3.98998 80.8095C11.5118 76.229 19.4432 72.5341 27.6066 69.8774C32.4801 68.2895 31.6884 66.5948 29.7089 62.9609C25.2859 54.7772 19.4432 47.6317 15.5662 39.0357C14.7608 37.2493 13.2592 35.6461 14.8837 33.5239C16.3307 31.6459 17.887 31.4016 20.2077 31.9054C29.4632 33.9208 38.787 35.4629 48.0835 37.1882C51.4008 37.799 53.1891 37.2951 53.9399 32.562C55.2504 24.2408 54.3221 15.8128 55.8238 7.56793C56.2333 5.32351 56.2743 2.91113 58.3629 1.93397C60.67 0.865197 62.076 2.83479 63.4275 4.54483C67.9734 10.3467 72.6012 16.0876 77.0378 21.9964C79.263 24.9584 80.71 25.447 82.2935 21.3856C84.2593 16.3624 86.5118 11.4613 88.7506 6.56023C89.5833 4.72805 90.73 2.86533 92.8323 2.9264C95.3032 3.00274 96.0404 5.36931 96.6956 7.49159C98.6478 13.7821 100.518 20.1184 102.456 26.4242C103.494 29.8137 104.654 30.6076 108.013 28.409C118.66 21.4162 129.677 15.1257 140.516 8.51456C142.304 7.41525 143.588 8.11759 144.939 9.43065C147.123 11.5529 145.813 13.7974 144.775 15.4616C141.13 21.294 137.185 26.8975 133.363 32.5925C130.66 36.608 127.971 40.6388 125.281 44.6544L125.814 47.1431L125.8 47.1889ZM84.3276 111.987C89.0373 117.865 92.9142 123.454 96.5728 129.286C99.6033 134.095 102.962 138.661 106.251 143.272C106.77 143.989 107.753 144.814 108.449 144.753C109.801 144.615 109.828 143.119 109.855 141.882C109.896 140.447 109.869 139.012 109.883 137.577C109.91 128.355 109.842 119.133 109.992 109.926C110.06 105.987 110.784 103.193 114.988 107.04C121.555 113.025 128.38 118.659 135.138 124.37C136.516 125.53 138.086 128.171 139.738 126.522C141.526 124.736 139.479 122.553 138.468 120.782C134.291 113.422 129.909 106.2 125.923 98.7191C124.694 96.4136 121.964 93.7416 123.534 91.1002C124.776 88.9932 127.943 90.4132 130.237 90.3368C133.158 90.2452 136.093 90.5048 139.014 90.7338C146.686 91.3445 154.345 92.0469 162.003 92.6118C163.191 92.7034 164.925 93.0088 165.184 91.1308C165.43 89.3902 163.846 88.8863 162.686 88.352C157.635 86.0312 152.557 83.8326 147.533 81.466C142.523 79.0994 137.595 76.5191 132.557 74.1983C131.179 73.5571 130.36 72.5188 130.196 71.1294C130.087 70.1675 131.151 69.6789 132.08 69.343C143.492 65.3428 154.099 58.8996 165.621 55.1742C166.89 54.7619 169.566 54.8841 168.924 52.1358C168.378 49.754 166.153 50.7311 164.652 50.7311C151.082 50.7464 137.567 48.7768 123.998 49.4944C121.35 49.6318 119.875 48.9905 122.019 45.7842C125.705 40.2724 129.636 34.9133 132.83 29.0503C136.025 23.172 141.799 19.0038 142.973 10.6826C140.093 11.9804 137.69 12.5301 135.847 13.9653C126.565 21.1719 116.012 25.844 106.565 32.7146C104.067 34.5316 102.006 34.1193 100.996 29.9816C99.2757 22.9583 96.9413 16.1334 94.8118 9.24744C94.3613 7.79696 94.1974 5.67468 92.2863 5.8579C90.9075 5.98004 90.5526 7.65954 90.0475 9.00314C87.9998 14.4234 85.8838 19.8283 83.6996 25.1874C82.2799 28.6686 80.9148 31.4169 77.502 26.6684C73.079 20.5154 68.1509 14.8203 63.4548 8.91154C62.2808 7.43052 61.4617 4.81966 59.3185 5.72048C57.1753 6.62131 58.1854 9.30851 58.0762 11.217C57.6121 18.958 57.2162 26.699 56.9159 34.4552C56.7248 39.5701 55.1549 41.4939 50.1039 40.364C40.8484 38.3181 31.4426 37.1577 22.0915 35.6461C20.3442 35.356 18.0644 33.814 16.945 35.6767C15.6481 37.8448 18.433 39.4785 18.9381 41.6007C19.1429 42.471 20.2077 43.0359 20.7264 43.8604C25.1221 50.8533 29.4905 57.8614 33.8316 64.9C35.0875 66.9307 35.811 69.0682 33.0125 70.3355C24.7535 74.0609 16.4672 77.7558 8.19456 81.4202C6.57006 82.1378 4.14014 82.1225 4.263 84.7181C4.35856 86.9167 6.72023 86.9931 8.16726 87.4511C14.4332 89.4513 20.7674 91.2071 27.0879 93.0087C30.7191 94.047 32.0296 95.9097 29.7226 99.91C25.9685 106.399 22.4055 113.01 18.7879 119.591C17.4911 121.942 14.6926 124.675 16.8768 127.087C18.3647 128.736 21.095 126.019 23.0744 124.843C32.5484 119.194 41.9268 113.377 51.4008 107.758C57.3937 104.2 57.7349 104.261 58.909 111.651C60.6973 122.995 62.0624 134.431 63.6323 145.821C63.8507 147.44 62.704 149.944 65.2431 150.219C67.1953 150.432 67.6594 148.402 68.4785 146.722C73.8844 135.47 77.7067 123.316 84.3685 111.987H84.3276Z" fill="#ACE2FF"/>
<path d="M125.8 47.1889C138.4 47.1889 151.014 47.1889 163.614 47.1889C164.706 47.1889 165.853 47.0973 166.904 47.3721C169.279 47.9676 171.641 48.8684 171.969 52.1205C172.31 55.4337 169.798 56.0292 167.846 56.8995C157.102 61.6937 146.345 66.3963 135.547 71.1447C136.148 73.2975 137.69 73.6334 139.247 74.3663C147.792 78.3818 156.256 82.6111 164.72 86.8251C166.767 87.8481 168.924 89.0848 168.119 92.2301C167.327 95.2837 164.897 95.0852 162.672 95.0852C151.15 95.0852 139.629 95.0547 127.015 93.3141C129.923 101.498 134.196 107.483 137.431 114.048C138.823 116.888 140.694 119.438 142.086 122.293C143.137 124.446 143.915 127.118 142.059 129.087C140.107 131.164 138.086 129.943 136.175 128.309C129.39 122.522 122.537 116.827 115.698 111.132C115.166 110.689 114.511 110.414 112.995 109.529C112.995 120.033 112.995 129.729 112.995 139.439C112.995 141.271 113.159 143.18 112.749 144.921C111.685 149.486 109.323 150.387 106.156 147.028C100.054 140.569 95.8492 132.355 90.6072 125.087C90.3751 124.767 90.2249 124.385 90.0338 124.034C88.7096 121.606 86.9077 118.323 84.819 118.522C82.6894 118.72 81.6383 122.4 80.5189 124.965C76.9832 132.981 73.311 140.92 69.5706 148.829C68.5604 150.952 67.3727 153.532 64.6152 152.646C62.158 151.868 61.8167 149.287 61.4344 146.783C59.7144 135.409 57.8578 124.049 56.1105 112.689C55.6054 109.376 54.8136 108.872 51.8513 110.705C41.0395 117.377 29.9683 123.515 19.0337 129.927C17.1771 131.027 16.2078 130.065 14.7472 128.889C12.8223 127.332 13.2319 126.019 14.1329 124.293C18.0644 116.751 21.5728 108.857 26.0777 101.757C28.8899 97.3296 27.32 95.8944 23.9754 95.1158C17.3819 93.5889 11.2115 90.6269 4.7954 88.5199C3.1709 87.9702 1.02766 87.5427 1.00035 84.7639C0.973052 82.489 2.52929 81.695 3.98998 80.8095C11.5118 76.229 19.4432 72.5341 27.6066 69.8774C32.4801 68.2895 31.6884 66.5948 29.7089 62.9609C25.2859 54.7772 19.4432 47.6317 15.5662 39.0357C14.7608 37.2493 13.2592 35.6461 14.8837 33.5239C16.3307 31.6459 17.887 31.4016 20.2077 31.9054C29.4632 33.9208 38.787 35.4629 48.0835 37.1882C51.4008 37.799 53.1891 37.2951 53.9399 32.562C55.2504 24.2408 54.3221 15.8128 55.8238 7.56793C56.2333 5.32351 56.2743 2.91113 58.3629 1.93397C60.67 0.865197 62.076 2.83479 63.4275 4.54483C67.9734 10.3467 72.6012 16.0876 77.0378 21.9964C79.263 24.9584 80.71 25.447 82.2935 21.3856C84.2593 16.3624 86.5118 11.4613 88.7506 6.56023C89.5833 4.72805 90.73 2.86533 92.8323 2.9264C95.3032 3.00274 96.0404 5.36931 96.6956 7.49159C98.6478 13.7821 100.518 20.1184 102.456 26.4242C103.494 29.8137 104.654 30.6076 108.013 28.409C118.66 21.4162 129.677 15.1257 140.516 8.51456C142.304 7.41525 143.588 8.11759 144.939 9.43065C147.123 11.5529 145.813 13.7974 144.775 15.4616C141.13 21.294 137.185 26.8975 133.363 32.5925C130.66 36.608 127.971 40.6388 125.281 44.6544L125.814 47.1431L125.8 47.1889ZM84.3276 111.987C89.0373 117.865 92.9142 123.454 96.5728 129.286C99.6033 134.095 102.962 138.661 106.251 143.272C106.77 143.989 107.753 144.814 108.449 144.753C109.801 144.615 109.828 143.119 109.855 141.882C109.896 140.447 109.869 139.012 109.883 137.577C109.91 128.355 109.842 119.133 109.992 109.926C110.06 105.987 110.784 103.193 114.988 107.04C121.555 113.025 128.38 118.659 135.138 124.37C136.516 125.53 138.086 128.171 139.738 126.522C141.526 124.736 139.479 122.553 138.468 120.782C134.291 113.422 129.909 106.2 125.923 98.7191C124.694 96.4136 121.964 93.7416 123.534 91.1002C124.776 88.9932 127.943 90.4132 130.237 90.3368C133.158 90.2452 136.093 90.5048 139.014 90.7338C146.686 91.3445 154.345 92.0469 162.003 92.6118C163.191 92.7034 164.925 93.0088 165.184 91.1308C165.43 89.3902 163.846 88.8863 162.686 88.352C157.635 86.0312 152.557 83.8326 147.533 81.466C142.523 79.0994 137.595 76.5191 132.557 74.1983C131.179 73.5571 130.36 72.5188 130.196 71.1294C130.087 70.1675 131.151 69.6789 132.08 69.343C143.492 65.3428 154.099 58.8996 165.621 55.1742C166.89 54.7619 169.566 54.8841 168.924 52.1358C168.378 49.754 166.153 50.7311 164.652 50.7311C151.082 50.7464 137.567 48.7768 123.998 49.4944C121.35 49.6318 119.875 48.9905 122.019 45.7842C125.705 40.2724 129.636 34.9133 132.83 29.0503C136.025 23.172 141.799 19.0038 142.973 10.6826C140.093 11.9804 137.69 12.5301 135.847 13.9653C126.565 21.1719 116.012 25.844 106.565 32.7146C104.067 34.5316 102.006 34.1193 100.996 29.9816C99.2757 22.9583 96.9413 16.1334 94.8118 9.24744C94.3613 7.79696 94.1974 5.67468 92.2863 5.8579C90.9075 5.98004 90.5526 7.65954 90.0475 9.00314C87.9998 14.4234 85.8838 19.8283 83.6996 25.1874C82.2799 28.6686 80.9148 31.4169 77.502 26.6684C73.079 20.5154 68.1509 14.8203 63.4548 8.91154C62.2808 7.43052 61.4617 4.81966 59.3185 5.72048C57.1753 6.62131 58.1854 9.30851 58.0762 11.217C57.6121 18.958 57.2162 26.699 56.9159 34.4552C56.7248 39.5701 55.1549 41.4939 50.1039 40.364C40.8484 38.3181 31.4426 37.1577 22.0915 35.6461C20.3442 35.356 18.0644 33.814 16.945 35.6767C15.6481 37.8448 18.433 39.4785 18.9381 41.6007C19.1429 42.471 20.2077 43.0359 20.7264 43.8604C25.1221 50.8533 29.4905 57.8614 33.8316 64.9C35.0875 66.9307 35.811 69.0682 33.0125 70.3355C24.7535 74.0609 16.4672 77.7558 8.19456 81.4202C6.57006 82.1378 4.14014 82.1225 4.263 84.7181C4.35856 86.9167 6.72023 86.9931 8.16726 87.4511C14.4332 89.4513 20.7674 91.2071 27.0879 93.0087C30.7191 94.047 32.0296 95.9097 29.7226 99.91C25.9685 106.399 22.4055 113.01 18.7879 119.591C17.4911 121.942 14.6926 124.675 16.8768 127.087C18.3647 128.736 21.095 126.019 23.0744 124.843C32.5484 119.194 41.9268 113.377 51.4008 107.758C57.3937 104.2 57.7349 104.261 58.909 111.651C60.6973 122.995 62.0624 134.431 63.6323 145.821C63.8507 147.44 62.704 149.944 65.2431 150.219C67.1953 150.432 67.6594 148.402 68.4785 146.722C73.8844 135.47 77.7067 123.316 84.3685 111.987H84.3276Z" stroke="#ACE2FF" stroke-width="1.54462" mask="url(#path-1-outside-1_643_4785)"/>
<path d="M59.1094 57.2422C59.4902 57.0009 59.9483 56.9621 60.4629 57.126L60.4639 57.125C61.614 57.4871 61.9977 58.5345 62.0254 59.5361C62.0496 60.413 61.8135 61.354 61.4971 62.0508L61.3564 62.334C58.743 67.1659 59.3667 72.4058 59.5322 77.6963L59.5635 78.377C60.3963 92.5365 73.2136 99.2265 83.3252 97.1035L84.3193 96.8799C89.24 95.6995 93.4151 93.5754 96.8291 90.4404C100.471 87.0958 103.266 82.5832 105.167 76.7939L105.729 75.1357C105.908 74.5888 106.074 74.0378 106.208 73.4541L106.229 73.3408C106.27 73.0625 106.25 72.7 106.213 72.2686C106.173 71.8041 106.113 71.2635 106.14 70.793C106.166 70.3295 106.281 69.8117 106.701 69.4893C107.123 69.1657 107.728 69.1329 108.491 69.3174H108.492L108.711 69.3799C109.201 69.5416 109.544 69.815 109.729 70.2002C109.93 70.6194 109.905 71.0948 109.818 71.5254C109.73 71.9601 109.564 72.4158 109.414 72.8232C109.297 73.1413 109.192 73.4263 109.123 73.6777L109.066 73.917C106.117 89.7051 93.7237 101.288 79.6416 101.422V101.457L79.2529 101.455C63.8657 101.377 53.0231 86.2515 56.3379 69.7998L56.5547 68.6924C57.0421 66.1049 57.4122 63.4948 57.7949 60.873C57.9069 60.0846 58.0257 59.0251 58.3477 58.2451C58.5106 57.8505 58.7466 57.4722 59.1094 57.2422Z" fill="#ACE2FF" stroke="#ACE2FF" stroke-width="0.772312"/>
<path d="M96.4668 51.915C96.9561 51.833 97.3813 51.8775 97.7295 52.0664C98.132 52.2849 98.3624 52.6581 98.4824 53.0664C98.7102 53.8415 98.5787 54.8727 98.3652 55.7637V55.8037L98.3438 55.8652C98.1171 56.518 98.0667 57.3022 98.0605 58.165C98.0546 59.0042 98.0916 59.9352 98.0137 60.7803C97.935 61.6328 97.7358 62.4745 97.2109 63.1494C96.6769 63.8362 95.8472 64.2971 94.6201 64.4717L94.6211 64.4727C93.8911 64.5779 93.2976 64.4635 92.8447 64.1416C92.3962 63.8227 92.1439 63.3403 92.0088 62.8252C91.7431 61.8121 91.8924 60.5203 92.0703 59.5332L92.249 58.4346C92.4262 57.2998 92.6172 56.0832 93.0039 55.0322C93.5325 53.5957 94.4555 52.3786 96.2529 51.958L96.4668 51.915Z" fill="#ACE2FF" stroke="#ACE2FF" stroke-width="0.772312"/>
<path d="M77.377 50.0586C78.0641 49.9985 78.6089 50.1479 79.0215 50.4785C79.4251 50.8019 79.6552 51.2614 79.7959 51.7314C79.9366 52.2016 79.9989 52.7186 80.04 53.1943C80.0704 53.5458 80.089 53.8642 80.1162 54.1494H80.3848L80.1377 54.6943C79.8332 55.3685 79.6752 56.1494 79.5498 56.9697C79.4274 57.7705 79.3342 58.6338 79.1514 59.3828C78.9673 60.1371 78.6766 60.8567 78.1084 61.3633C77.528 61.8807 76.7177 62.1241 75.6104 62.0508V62.0498C75.0553 62.0132 74.6016 61.7991 74.2578 61.4551C73.9195 61.1165 73.7043 60.6704 73.584 60.1924C73.3449 59.2424 73.4576 58.0867 73.8125 57.1064L73.8135 57.1045L73.8838 56.8926C74.0372 56.3868 74.1118 55.8006 74.1699 55.166C74.2347 54.4592 74.2796 53.6822 74.4102 52.9795C74.5414 52.2732 74.7686 51.5808 75.2354 51.042C75.7132 50.4905 76.405 50.1431 77.377 50.0596V50.0586Z" fill="#ACE2FF" stroke="#ACE2FF" stroke-width="0.772312"/>
</svg>
