<svg width="16" height="16" viewBox="0 0 16 16" fill="none" xmlns="http://www.w3.org/2000/svg">
<g clip-path="url(#clip0_750_2249)">
<path d="M15.7471 8.65312C15.7408 8.58125 15.7315 8.53125 15.7252 8.49375C15.7315 8.41875 15.7408 8.34688 15.744 8.26875C15.7471 8.06563 15.7502 7.82812 15.7533 7.57812C15.744 7.33125 15.7065 7.07188 15.6815 6.83125L15.6283 6.56563C15.5377 6.24688 15.6221 6.13438 15.6221 6.13438L15.5533 5.93437L15.5127 5.74375C15.5127 5.74375 15.5596 5.83125 15.544 5.73438C15.5315 5.65312 15.5002 5.57812 15.4502 5.5125C15.3783 5.3875 15.4596 5.61875 15.4158 5.525C15.369 5.43125 15.3002 5.225 15.2627 5.10625C15.2315 5.00312 15.1877 4.90625 15.1408 4.80937L14.969 4.45937L14.8346 4.20937C14.8096 4.15625 14.7815 4.1 14.7533 4.05L14.4908 3.59063C14.4471 3.5 14.244 3.21563 14.2471 3.19688C14.1877 3.07188 14.1033 2.9625 14.0002 2.87188L14.0283 2.84687C13.9533 2.75 13.8752 2.65625 13.7877 2.56875L13.5658 2.32812L13.5377 2.29688L13.5627 2.27187L13.3752 2.05625C13.344 2.02813 13.3127 2.00312 13.2752 1.98125L13.0096 1.68125L12.9971 1.625C12.7908 1.49375 12.544 1.3625 12.2627 1.21875C12.1596 1.16562 11.9971 1.05313 11.7877 0.965625L11.6533 0.903125L11.3846 0.784375C11.319 0.759375 11.2533 0.728125 11.1877 0.70625L11.0065 0.628125C11.0065 0.628125 11.069 0.634375 11.0471 0.615625C11.0377 0.609375 11.0315 0.603125 11.019 0.6C10.9877 0.584375 10.9533 0.56875 10.9221 0.559375C10.894 0.55 10.8565 0.54375 10.7877 0.528125C10.6471 0.496875 10.8752 0.590625 10.7752 0.5625C10.6752 0.534375 10.4752 0.440625 10.3502 0.40625C10.2252 0.375 10.1877 0.3625 10.0346 0.325L9.65333 0.221875L9.36583 0.18125L9.18771 0.15C9.02521 0.121875 8.85333 0.06875 8.74083 0.0625L8.65646 0.040625C8.57521 0.03125 8.32208 0.01875 8.22833 0L8.00958 0.009375L7.47833 0.0625C7.33146 0.065625 7.18771 0.084375 7.04708 0.11875L6.84083 0.16875L6.64708 0.190625C6.64708 0.190625 6.74083 0.15 6.64083 0.159375C6.55958 0.1625 6.48146 0.18125 6.40646 0.2125C6.27521 0.265625 6.51271 0.21875 6.41271 0.25L6.37521 0.265625C6.26896 0.3 6.08771 0.340625 5.98146 0.365625C5.85958 0.39375 5.81896 0.409375 5.67208 0.45L5.30333 0.584375L5.04083 0.690625L5.01583 0.7L4.97521 0.71875C4.84396 0.78125 4.71583 0.846875 4.59396 0.921875L4.41583 1.02813C4.30021 1.07812 4.23771 1.10938 4.23771 1.10938C4.23771 1.10938 4.30958 1.0375 4.22208 1.08125C4.15021 1.11562 4.08458 1.1625 4.02833 1.21875C3.92208 1.3125 4.13146 1.1875 4.04708 1.25C3.96271 1.3125 3.77833 1.41875 3.66896 1.48125C3.58146 1.54063 3.49396 1.60625 3.41583 1.675L3.10021 1.90625C3.01896 1.96875 2.97521 2.02187 2.89396 2.09687L2.75958 2.21563C2.62208 2.325 2.48771 2.4375 2.36271 2.55938C2.26271 2.675 2.15021 2.78125 2.03146 2.87812C2.00021 2.86875 1.84708 3.03437 1.76896 3.18438L1.74083 3.16563L1.52208 3.45625C1.45333 3.54062 1.39083 3.62812 1.33458 3.71875L1.30958 3.75312L1.27521 3.73125L1.10958 3.95937L1.05333 4.06875C0.962708 4.17188 0.897083 4.28125 0.828333 4.37187C0.772083 4.50625 0.818958 4.44375 0.778333 4.58437C0.747083 4.69062 0.734583 4.80312 0.737708 4.9125C0.737708 4.9125 0.672083 5.04375 0.540833 5.40312C0.418958 5.76562 0.522083 5.4 0.434583 5.83125C0.409583 6.0625 0.375208 6.29063 0.325208 6.51562C0.281458 6.70312 0.256458 6.89375 0.243958 7.08437C0.243958 7.08437 0.259583 7.27812 0.268958 7.325C0.275208 7.4 0.284583 7.475 0.300208 7.54688C0.300208 7.54688 0.300208 7.56562 0.303333 7.58437C0.265833 7.64687 0.247083 7.71562 0.247083 7.7875C0.231458 7.89687 0.222083 8.00625 0.225208 8.11563V8.79688C0.234583 9.04375 0.281458 9.29688 0.306458 9.5375L0.359583 9.8C0.456458 10.1156 0.375208 10.2281 0.375208 10.2281L0.447083 10.425L0.490833 10.6156C0.490833 10.6156 0.440833 10.5281 0.462708 10.625C0.478333 10.7031 0.512708 10.7781 0.559583 10.8438C0.631458 10.9656 0.547083 10.7375 0.593958 10.8313C0.640833 10.925 0.712708 11.1281 0.756458 11.2437C0.790833 11.3438 0.834583 11.4438 0.887708 11.5344L1.06896 11.8781L1.20958 12.1219C1.23458 12.175 1.26583 12.225 1.30021 12.275L1.57208 12.725C1.61583 12.8156 1.84083 13.0813 1.83458 13.1062C1.89708 13.2281 1.98458 13.3375 2.09083 13.4219L2.06271 13.4469C2.14083 13.5406 2.22521 13.6281 2.31896 13.7094L2.55021 13.9406L2.57833 13.9719L2.55333 14C2.61896 14.0688 2.67833 14.1406 2.75021 14.2031L2.85646 14.2688L3.13146 14.5531L3.14708 14.6094C3.35646 14.7344 3.62208 14.8313 3.90021 14.9719C4.05646 15.0531 4.21896 15.1281 4.38458 15.1906L4.51896 15.2469L4.78771 15.3531C4.85333 15.3781 4.92208 15.3906 4.99083 15.4094L5.17208 15.4812C5.17208 15.4812 5.10958 15.475 5.13458 15.4937C5.14396 15.5 5.15333 15.5062 5.16271 15.5094C5.19396 15.525 5.22833 15.5375 5.25958 15.5469C5.28771 15.5531 5.32208 15.5594 5.39083 15.5719C5.53146 15.5969 5.30021 15.5156 5.40333 15.5375C5.50646 15.5594 5.70958 15.6344 5.83146 15.6625C5.95333 15.6906 5.99396 15.7031 6.14396 15.7344C6.26896 15.7688 6.39708 15.7969 6.52521 15.8125L6.80646 15.8438L6.98146 15.8719C7.12833 15.9031 7.27521 15.925 7.42208 15.9375L7.50021 15.9469C7.58146 15.9531 7.82833 15.9656 7.92208 15.9844C7.99396 15.9812 8.06583 15.9719 8.13771 15.9594L8.66271 15.9062C8.77521 15.8969 8.89083 15.8812 9.00021 15.8562L9.08771 15.8375L9.29083 15.7875L9.48458 15.7656C9.48458 15.7656 9.39396 15.8062 9.49083 15.7969C9.57208 15.7937 9.65021 15.7719 9.72208 15.7312C9.85021 15.675 9.61583 15.7313 9.71271 15.6938L9.75021 15.6812C9.85646 15.6469 10.0315 15.6094 10.1408 15.5844C10.244 15.5625 10.3471 15.5312 10.444 15.4906L10.8096 15.3594L11.069 15.2531L11.094 15.2437L11.1346 15.2219C11.4283 15.0688 11.5127 15.0156 11.5127 15.0156L11.6908 14.9094C11.7502 14.8844 11.8096 14.8531 11.8627 14.8219C11.8627 14.8219 11.794 14.8938 11.8783 14.85C11.9502 14.8156 12.0158 14.7687 12.069 14.7125C12.1752 14.6219 11.969 14.7406 12.0502 14.6812C12.1315 14.6187 12.319 14.5188 12.4221 14.45C12.5252 14.3844 12.5533 14.35 12.6721 14.2563L12.9783 14.025L13.1783 13.8313L13.3096 13.7156C13.4471 13.6094 13.5783 13.4937 13.7002 13.3719C13.8002 13.2562 13.9096 13.15 14.0283 13.0562C14.0627 13.0656 14.2002 12.8938 14.2846 12.7469L14.3158 12.7688L14.5315 12.4812C14.5971 12.3969 14.6565 12.3094 14.7127 12.2188L14.7377 12.1875L14.7721 12.2094L14.9346 11.9781L14.9877 11.8687C15.0752 11.7656 15.1377 11.6562 15.2065 11.5656C15.2627 11.4313 15.2158 11.4937 15.2565 11.3562C15.2877 11.25 15.2971 11.1406 15.2908 11.0312C15.2908 11.0312 15.3565 10.9 15.4846 10.5437C15.6158 10.1875 15.5002 10.5469 15.5877 10.1187C15.6658 9.69062 15.6033 9.80313 15.694 9.44063C15.7377 9.25625 15.7627 9.06563 15.7752 8.87813C15.7752 8.89062 15.7565 8.69687 15.7471 8.65312ZM14.7846 8.6625C14.7815 8.69688 14.7783 8.73125 14.7815 8.76875C14.744 8.98438 14.6971 9.20312 14.6471 9.43125L14.544 9.71562C14.494 9.89687 14.4315 10.075 14.3502 10.2469L14.3127 10.3313C14.2346 10.5906 14.1158 10.8375 13.9565 11.0594C13.9565 11.0594 14.0908 10.6906 13.819 11.2094L13.2877 12.0938C13.2096 12.2094 13.1221 12.3187 13.0252 12.4187L12.744 12.7188L12.4002 13.0063C12.1752 13.1969 11.9408 13.3344 11.794 13.4656C11.6377 13.5844 11.5346 13.65 11.5346 13.65C11.0783 13.9469 10.5877 14.1844 10.0752 14.3625C9.95021 14.4187 9.82521 14.45 9.70646 14.4937L9.69708 14.4594L9.66896 14.4625L9.45333 14.5063C9.37208 14.5281 9.29083 14.5438 9.20958 14.5531L9.20333 14.5156C9.09396 14.5531 8.94083 14.5687 8.92833 14.5437C8.91583 14.5188 8.68146 14.5656 8.61583 14.5562L8.25646 14.5437L8.13458 14.5469C8.07208 14.5531 8.00646 14.5594 7.94396 14.5594L7.67833 14.5469C7.60646 14.55 7.53146 14.5469 7.45958 14.5437C7.37521 14.5437 7.22833 14.5125 7.15646 14.5125C7.08458 14.5125 7.25021 14.5406 7.15333 14.55C7.10021 14.5625 7.04396 14.5594 6.99083 14.5437C6.92521 14.5281 6.99396 14.5125 6.99396 14.5125L6.86271 14.4875H6.71896C6.61896 14.4812 6.52208 14.4688 6.42521 14.4438C6.27833 14.4156 6.14396 14.3938 6.06583 14.3875C5.99708 14.3812 5.93146 14.3719 5.86271 14.3562C5.55021 14.2344 5.24708 14.0938 4.95646 13.9312L4.93771 13.9656C4.69396 13.8344 4.45646 13.6906 4.22833 13.5312C4.20333 13.5156 4.17833 13.4969 4.15333 13.4781C3.92208 13.3531 3.70333 13.2062 3.49708 13.0406C3.49708 13.0406 3.63146 13.1406 3.60646 13.0938L3.60021 13.0875L3.45646 12.9719C3.38146 12.9187 3.35333 12.8937 3.36271 12.8844L3.37208 12.875L3.27208 12.7969C3.21896 12.7688 3.16896 12.7344 3.12208 12.7C3.07521 12.6531 3.03146 12.6031 2.98458 12.5562L2.69708 12.2625L2.62833 12.1531C2.58146 12.0719 2.55333 12.0781 2.55333 12.0781C2.58146 12.1313 2.60958 12.1812 2.64396 12.2312C2.51583 12.0687 2.40021 11.8937 2.27521 11.7125L2.24396 11.6062C2.24396 11.6062 2.29396 11.6438 2.26271 11.5938C2.23771 11.5312 2.20021 11.475 2.15646 11.425L2.14708 11.4312L2.11583 11.4219L1.89396 11L1.89083 10.9187L1.85958 10.7812L1.79396 10.5813C1.78458 10.5469 1.78146 10.5094 1.78458 10.4719L1.72208 10.2906C1.70646 10.2562 1.69708 10.2188 1.68458 10.1844L1.67833 10.1375L1.66583 10.0562C1.65333 9.9875 1.63458 9.96875 1.62208 9.9625H1.61583L1.64708 10.1344C1.59083 9.9375 1.51583 9.83437 1.45646 9.62187C1.45646 9.59688 1.45646 9.575 1.46271 9.54688L1.46896 9.50937C1.46896 9.50937 1.50021 9.5625 1.49083 9.50625C1.48458 9.44063 1.46896 9.37187 1.44396 9.30937H1.43146L1.41896 9.3L1.40333 9.2875C1.38458 9.15 1.34083 9.03438 1.32208 8.90312L1.31271 8.83438C1.29083 8.77813 1.26896 8.71875 1.25646 8.65938L1.26896 8.525L1.20333 8.3125C1.20646 8.275 1.21583 8.2375 1.22833 8.20312C1.21583 8.125 1.19708 8.04375 1.17521 7.96562C1.17521 7.90312 1.18458 7.86563 1.18458 7.83125C1.13771 7.76562 1.22833 7.73125 1.17833 7.71562C1.18771 7.65312 1.18458 7.5875 1.17208 7.525C1.18146 7.4625 1.16583 7.37187 1.20333 7.39687C1.24396 7.11875 1.30646 6.8375 1.37521 6.54375L1.47833 6.25625C1.52833 6.07188 1.59396 5.89375 1.67521 5.71875L1.71271 5.63125C1.75021 5.46875 1.81271 5.31563 1.90646 5.175L2.07833 4.89687C2.08146 4.89687 1.93771 5.26875 2.21896 4.74687L2.75958 3.85625C2.84083 3.74063 2.93146 3.63125 3.03146 3.53125C3.22208 3.3125 3.43458 3.11562 3.66583 2.94062C3.90021 2.75937 4.13146 2.6125 4.28146 2.48438L4.54708 2.30312C5.01271 2.00937 5.50958 1.775 6.03146 1.6L6.40958 1.475L6.41896 1.50937L6.44708 1.50625L6.66583 1.45938L6.91583 1.42188L6.92208 1.45938C7.03458 1.41875 7.18771 1.40625 7.20021 1.42813C7.30646 1.43438 7.41271 1.43438 7.51896 1.42813L7.88146 1.4375L8.00333 1.43438H8.19396L8.45958 1.45C8.53146 1.44688 8.60646 1.45 8.67833 1.45625C8.77833 1.47812 8.87833 1.49688 8.97833 1.50625C9.05021 1.50625 8.88771 1.47812 8.98458 1.46875C9.03771 1.45938 9.09396 1.4625 9.14708 1.47812C9.21271 1.49375 9.14083 1.50937 9.14083 1.50937L9.27208 1.5375C9.31896 1.5375 9.36896 1.54062 9.41583 1.55C9.41583 1.55 9.48146 1.55938 9.70646 1.60625C9.85333 1.64062 9.98771 1.65625 10.0627 1.68125L10.2627 1.72812C10.4065 1.8 10.5596 1.85938 10.7065 1.94062L11.1533 2.2L11.1721 2.16563C11.4127 2.3125 11.6377 2.48438 11.8627 2.64687L11.9315 2.7125C12.069 2.79688 12.2033 2.8875 12.3346 2.98125C12.419 3.04375 12.4971 3.11562 12.5721 3.19062C12.5721 3.19062 12.4408 3.08438 12.4658 3.13438L12.4721 3.14062L12.6158 3.26562C12.6908 3.32188 12.7158 3.34687 12.7065 3.35625L12.6971 3.36562L12.7971 3.45C12.8502 3.48125 12.8971 3.51875 12.9408 3.55938L13.0721 3.7125L13.3533 4.02187C13.3533 4.02187 13.3721 4.05312 13.4158 4.1375C13.4565 4.22187 13.4908 4.21562 13.4908 4.21562L13.4065 4.05312C13.5221 4.22813 13.6408 4.40938 13.7627 4.59375C13.7752 4.62813 13.7815 4.66563 13.7877 4.70312C13.7877 4.70312 13.7408 4.6625 13.7658 4.71562C13.7908 4.77812 13.8252 4.8375 13.869 4.8875L13.8783 4.88125L13.9096 4.89375C13.9783 5.04063 14.0533 5.1875 14.1158 5.33125V5.41563L14.144 5.54375L14.2065 5.75C14.2127 5.7875 14.2158 5.82188 14.2127 5.85938L14.2752 6.04375L14.3096 6.15312L14.3158 6.2L14.3283 6.28125C14.3377 6.35 14.3596 6.37188 14.369 6.37813H14.3752L14.3471 6.2C14.4033 6.40312 14.4752 6.50938 14.5283 6.725C14.5283 6.75 14.5283 6.775 14.5221 6.8L14.519 6.84375C14.519 6.84375 14.4877 6.79063 14.494 6.84688C14.4971 6.91563 14.5127 6.98125 14.5377 7.04375H14.5502L14.5596 7.05312L14.5752 7.06563C14.5908 7.20312 14.6315 7.32188 14.6502 7.45625L14.6596 7.52812C14.6846 7.5875 14.7033 7.64688 14.7158 7.70625L14.7033 7.84062L14.7658 8.05625C14.7627 8.09375 14.7533 8.13125 14.7377 8.16562C14.7502 8.24687 14.7658 8.325 14.7877 8.40625C14.7877 8.45312 14.7815 8.49687 14.7752 8.54375C14.8283 8.6125 14.7377 8.64688 14.7846 8.6625Z" fill="#FF91B2"/>
<path d="M8.77798 5.8592C8.77173 5.84045 8.77173 5.8217 8.77173 5.80295C8.77798 5.77483 8.77798 5.7467 8.77173 5.7217C8.76236 5.70295 8.75923 5.7467 8.73423 5.7217C8.70923 5.6967 8.70923 5.6967 8.71548 5.67795C8.72173 5.6592 8.74673 5.67795 8.74673 5.67795C8.74673 5.67795 8.74673 5.66545 8.75298 5.64358L8.73423 5.60608C8.72173 5.58108 8.71548 5.55295 8.71236 5.52795C8.70611 5.4967 8.69673 5.46233 8.68423 5.43108C8.67486 5.41233 8.66236 5.3967 8.65298 5.37795C8.67173 5.29358 8.69048 5.20608 8.70298 5.11233H8.66236L8.69048 4.89045L8.69673 4.86545C8.66548 4.79983 8.64361 4.72795 8.63423 4.65608C8.63423 4.65608 8.65298 4.69983 8.66861 4.68733L8.65611 4.63733C8.64361 4.61233 8.64361 4.60295 8.65611 4.60295H8.66861L8.65923 4.56858C8.64673 4.55608 8.63736 4.54045 8.62798 4.5217L8.61861 4.46858L8.59361 4.3592C8.59986 4.34983 8.60611 4.33733 8.60923 4.32483C8.61861 4.29983 8.58736 4.2967 8.58736 4.2967L8.57173 4.34358C8.56548 4.28733 8.56236 4.23108 8.56236 4.17483L8.59673 4.1467C8.59673 4.1467 8.61861 4.16233 8.62173 4.1467C8.62486 4.12795 8.61861 4.10608 8.60298 4.09358H8.59048L8.56548 4.0842C8.56548 4.04045 8.56861 3.99983 8.57486 3.9592L8.59986 3.94045L8.61548 3.90608L8.62486 3.84983C8.63423 3.83733 8.64361 3.82795 8.65611 3.8217C8.65923 3.79983 8.66236 3.7842 8.66236 3.7717L8.65611 3.74358L8.66236 3.73108C8.66236 3.72483 8.66861 3.71858 8.67173 3.7092C8.67486 3.69983 8.66236 3.6842 8.65298 3.68108H8.64986L8.63423 3.72795C8.62798 3.6717 8.58423 3.64358 8.58111 3.5842L8.60298 3.56545L8.61236 3.55608C8.61236 3.55608 8.63423 3.5717 8.63736 3.55608C8.64048 3.53733 8.63423 3.51858 8.61861 3.50295H8.60611H8.59673L8.58111 3.4967C8.58111 3.4592 8.55611 3.42795 8.55923 3.39358V3.37483L8.51236 3.32795L8.53111 3.29358L8.47486 3.24045C8.48423 3.22795 8.49361 3.21858 8.50611 3.21233C8.50923 3.18733 8.46236 3.16545 8.46236 3.15608L8.46861 3.1217C8.41548 3.10608 8.50611 3.0967 8.45611 3.09358C8.45611 3.09358 8.47486 3.06858 8.39986 3.0092C8.32486 2.94983 8.31236 2.95295 8.31236 2.95295C8.29673 2.94045 8.27798 2.9342 8.25923 2.92795C8.21548 2.91233 8.17173 2.9342 8.16861 2.9717C8.16548 3.01233 8.09048 2.9842 8.09048 2.9842C8.06861 2.99358 8.05611 3.01858 8.05923 3.04045C8.05923 3.08733 8.00298 3.0217 7.97486 2.9842C7.94673 2.9467 7.85611 2.9717 7.83423 2.96858C7.81236 2.96858 7.67798 2.9092 7.65923 2.96545C7.64673 3.00295 7.64361 3.04358 7.65298 3.08108C7.65298 3.08108 7.55298 3.05295 7.53423 3.12795C7.52798 3.15295 7.51861 3.17795 7.51236 3.20295C7.48736 3.3092 7.47173 3.41858 7.46548 3.52795C7.46861 3.5467 7.47486 3.56858 7.47798 3.59045C7.49048 3.66545 7.38423 3.68733 7.38423 3.68733L7.40298 3.7342C7.40298 3.74983 7.39986 3.76233 7.39673 3.77795C7.39673 3.77795 7.37173 3.75608 7.36548 3.77795C7.35923 3.79983 7.35923 3.79983 7.38423 3.83108C7.40923 3.86233 7.40923 3.80608 7.42173 3.83108C7.42798 3.86545 7.42798 3.8967 7.42173 3.93108C7.41861 3.95608 7.42173 3.97795 7.42798 4.00295C7.43423 4.03733 7.42486 4.0592 7.42798 4.09045C7.43423 4.11233 7.43736 4.1342 7.43736 4.15295V4.19358C7.43111 4.24045 7.41236 4.29045 7.40923 4.31233C7.40611 4.33108 7.40923 4.41233 7.38111 4.41545C7.35298 4.41858 7.34673 4.46858 7.37173 4.50608H7.33423V4.58733L7.32486 4.6592L7.32173 4.66858H7.28423L7.26548 4.73108L7.27486 4.7592C7.25923 4.79045 7.23736 4.81858 7.21861 4.8467L7.18111 4.85608C7.22173 4.91233 7.25611 4.9717 7.28111 5.03733C7.29361 5.07483 7.30298 5.11233 7.30923 5.15295C7.30923 5.16545 7.31236 5.17483 7.31548 5.1842C7.31861 5.20608 7.32486 5.22795 7.33111 5.2467L7.34986 5.29358C7.34986 5.3092 7.34673 5.3217 7.34361 5.33733C7.34361 5.33733 7.32798 5.32483 7.31861 5.33108C7.31548 5.33108 7.31236 5.3342 7.31236 5.33733C7.30923 5.34358 7.30923 5.35295 7.31236 5.36233C7.31861 5.3717 7.32486 5.3842 7.33111 5.39045C7.35611 5.4217 7.35611 5.36545 7.36861 5.39045C7.37486 5.42483 7.37486 5.45608 7.36861 5.49045C7.36548 5.51545 7.36861 5.53733 7.37486 5.56233C7.38111 5.5967 7.37173 5.61858 7.37486 5.64983C7.38111 5.6717 7.38423 5.69045 7.38423 5.71233V5.75295C7.37798 5.78733 7.37173 5.81858 7.35923 5.85295L7.35611 5.8717C7.35611 5.90295 7.34986 5.9342 7.33736 5.96545C7.34673 5.98108 7.35298 5.9967 7.36236 6.01233C7.37486 6.04983 7.38423 6.08733 7.39048 6.12795C7.39361 6.1592 7.40298 6.19358 7.41236 6.22483L7.43111 6.2717C7.42798 6.29983 7.42486 6.31545 7.42486 6.31545C7.42486 6.31545 7.39986 6.29358 7.39361 6.31545C7.38736 6.33733 7.38736 6.33733 7.41236 6.36858C7.43736 6.39983 7.44048 6.34358 7.44986 6.36858V6.37795C7.45298 6.4092 7.45298 6.43733 7.44986 6.46858C7.44673 6.49358 7.44986 6.51545 7.45611 6.54045C7.46236 6.57483 7.45298 6.5967 7.45611 6.62795C7.45923 6.64983 7.46236 6.66858 7.46548 6.69045V6.6967V6.70608C7.46861 6.73733 7.47798 6.7717 7.48736 6.80295L7.50611 6.84983C7.50611 6.87795 7.49986 6.89358 7.49986 6.89358C7.49986 6.89358 7.47486 6.8717 7.46861 6.89358C7.46236 6.91545 7.46236 6.91545 7.48736 6.9467C7.51236 6.97795 7.51548 6.9217 7.52486 6.9467C7.53111 6.98108 7.53111 7.01233 7.52486 7.0467C7.52173 7.0717 7.52486 7.09358 7.53111 7.11858C7.53736 7.15295 7.52798 7.17483 7.53111 7.20608C7.53423 7.22795 7.53736 7.2467 7.54048 7.26858V7.3092C7.53423 7.35608 7.51548 7.40608 7.51236 7.42795C7.50923 7.4467 7.51236 7.52795 7.48423 7.53108C7.45611 7.5342 7.44986 7.5842 7.47486 7.6217H7.43736V7.70295L7.42798 7.77483L7.42486 7.7842H7.38423L7.36548 7.8467L7.37486 7.87483C7.35611 7.90295 7.33736 7.93108 7.31861 7.95608C7.32798 7.98733 7.34361 7.9717 7.36548 8.00295L7.37173 8.00608L7.34048 8.01545L7.31861 8.0217C7.30298 8.07795 7.16236 8.0717 7.16236 8.0717C7.16236 8.0717 7.20611 7.9967 7.09986 8.0467C7.03736 8.07795 6.98423 8.13108 6.94986 8.19358C6.88111 8.2467 6.80298 8.2842 6.71861 8.30295C6.64673 8.31545 6.58111 8.35608 6.53423 8.41233L6.27173 8.5967L6.21861 8.6592L6.19986 8.62795H6.19361L6.14986 8.64045L6.10611 8.66545L6.08736 8.6342C6.07798 8.66545 6.04986 8.6717 6.03423 8.65295C6.01861 8.63108 5.97798 8.65608 5.96548 8.6592C5.95611 8.66233 5.91548 8.66233 5.89048 8.6717L5.86861 8.68108C5.85923 8.68733 5.84673 8.6967 5.84048 8.7092C5.82798 8.7217 5.80923 8.7217 5.79361 8.73733C5.77798 8.75295 5.77486 8.7592 5.75923 8.76233C5.74361 8.76858 5.71548 8.77795 5.70611 8.79358C5.69673 8.8092 5.72798 8.79358 5.72486 8.82483C5.72173 8.85608 5.72173 8.85608 5.70611 8.85608C5.69048 8.8592 5.69048 8.83108 5.69048 8.83108L5.66548 8.83733L5.64986 8.86858C5.64048 8.88733 5.62486 8.90295 5.60923 8.91858C5.59048 8.93733 5.57486 8.9592 5.56236 8.98108L5.54361 9.02795C5.47798 9.04358 5.41236 9.06233 5.34673 9.0842L5.36548 9.11858L5.20923 9.17483L5.19048 9.17795C5.16548 9.22795 5.13111 9.27483 5.08736 9.3092C5.08736 9.3092 5.10611 9.27483 5.08736 9.26858L5.06236 9.29983C5.05298 9.31858 5.04673 9.32483 5.04048 9.31233L5.03423 9.29983L5.01861 9.3217C5.01548 9.33733 5.01236 9.35295 5.00298 9.36545L4.97173 9.39358L4.91548 9.45608C4.90611 9.45608 4.89673 9.45608 4.88736 9.45608C4.86861 9.45608 4.88111 9.48733 4.88111 9.48733L4.91861 9.4842C4.88736 9.5092 4.85298 9.5342 4.81548 9.55608L4.78111 9.53733C4.78111 9.53733 4.78111 9.51233 4.76861 9.51858C4.75298 9.52483 4.74361 9.53733 4.74361 9.55295L4.74986 9.56233L4.75923 9.5842C4.73111 9.59983 4.70298 9.61233 4.67486 9.62483L4.64986 9.6092H4.61861L4.57798 9.6217C4.56548 9.61858 4.55611 9.61233 4.54673 9.60608L4.50923 9.61858L4.49361 9.6342H4.48423H4.46548C4.44986 9.6342 4.45298 9.65295 4.45611 9.6592V9.66545L4.49361 9.66233C4.46236 9.68733 4.46236 9.73733 4.42798 9.7592L4.40923 9.7467L4.39673 9.74045C4.39673 9.74045 4.39673 9.71545 4.38423 9.71858C4.36861 9.72483 4.35923 9.73733 4.35923 9.75295L4.36548 9.76233V9.7717L4.36861 9.7842C4.34361 9.7967 4.33736 9.83108 4.31236 9.84045L4.29986 9.8467L4.29361 9.90295H4.26236L4.25611 9.9717C4.24361 9.96858 4.23111 9.96233 4.22173 9.95608C4.20298 9.96233 4.21548 10.0123 4.20298 10.0123L4.17798 10.0217C4.19361 10.0717 4.14361 9.99983 4.16548 10.0467C4.16548 10.0467 4.14048 10.0405 4.13736 10.128C4.13423 10.2155 4.14361 10.2248 4.14361 10.2248C4.14361 10.2436 4.14673 10.2623 4.15298 10.278C4.16548 10.3217 4.19986 10.353 4.22798 10.3405C4.25611 10.328 4.27173 10.403 4.27173 10.403C4.28423 10.4186 4.30923 10.4217 4.32486 10.4092C4.35611 10.3905 4.34048 10.4655 4.32798 10.5061C4.31548 10.5436 4.37486 10.6155 4.38423 10.6342C4.39361 10.653 4.42173 10.7936 4.46548 10.7905C4.49673 10.7873 4.52486 10.7748 4.54361 10.7498C4.54361 10.7498 4.57173 10.8467 4.63423 10.8373L4.69048 10.828C4.77173 10.8092 4.84986 10.7811 4.92486 10.7467L4.95923 10.7123C4.99986 10.6717 5.06861 10.7592 5.06861 10.7592L5.09048 10.7248L5.12173 10.7155C5.12173 10.7155 5.12173 10.7467 5.13736 10.7405C5.15298 10.7342 5.15611 10.7405 5.16236 10.7061C5.16861 10.6717 5.13423 10.6905 5.14361 10.6748C5.16236 10.6561 5.18423 10.6436 5.20923 10.6373C5.22486 10.6311 5.24048 10.6186 5.25298 10.6061C5.27173 10.5873 5.29361 10.5873 5.30923 10.5717C5.32173 10.5592 5.33111 10.5498 5.34673 10.5405L5.37486 10.528C5.40611 10.5186 5.43423 10.5123 5.46548 10.5092C5.48111 10.503 5.53111 10.4748 5.54673 10.4936C5.56236 10.5155 5.59673 10.503 5.61236 10.4686L5.63111 10.4998L5.68423 10.4686L5.73736 10.4498H5.74673L5.76548 10.4811L5.81548 10.4748L5.82798 10.4561C5.85611 10.4592 5.88736 10.4655 5.91548 10.4748L5.94048 10.503C5.95611 10.4498 5.97798 10.3967 6.00923 10.3467C6.02798 10.3217 6.04673 10.2998 6.07173 10.278L6.09048 10.2592C6.10298 10.2467 6.11548 10.2342 6.12486 10.2217L6.14673 10.1873L6.17798 10.178C6.17798 10.178 6.17798 10.1967 6.18736 10.203H6.19361C6.20298 10.203 6.20611 10.203 6.20923 10.1967C6.21236 10.1873 6.21548 10.178 6.21861 10.1686C6.22798 10.1373 6.19048 10.153 6.19986 10.1373C6.20923 10.1186 6.24361 10.1061 6.26548 10.0998C6.28111 10.0936 6.29673 10.0811 6.30923 10.0686C6.32798 10.0498 6.34673 10.0498 6.36548 10.0342C6.37798 10.0217 6.38736 10.0123 6.40298 10.003L6.43111 9.99045C6.45923 9.9842 6.48736 9.98108 6.51861 9.98108L6.53111 9.97795C6.54361 9.97483 6.58111 9.95295 6.59986 9.95608L6.61861 9.91858C6.63736 9.89358 6.65923 9.8717 6.68111 9.84983C6.69986 9.8342 6.71861 9.81545 6.73111 9.79358L6.75298 9.7592L6.78423 9.74983C6.78423 9.74983 6.78423 9.77795 6.79986 9.77483C6.81548 9.7717 6.81861 9.7717 6.82486 9.74045C6.83111 9.7092 6.79673 9.72483 6.80611 9.7092L6.80923 9.70295C6.82486 9.68733 6.84673 9.67795 6.86548 9.66858C6.88111 9.66233 6.89673 9.64983 6.90923 9.63733C6.92798 9.61858 6.94673 9.61858 6.96548 9.60295C6.97798 9.59045 6.98736 9.58108 7.00298 9.5717H7.00611L7.01236 9.56545C7.03111 9.54983 7.04986 9.53108 7.06236 9.5092L7.08423 9.47483L7.11548 9.46545C7.11548 9.46545 7.11548 9.4967 7.13111 9.49045C7.14673 9.48733 7.14986 9.49045 7.15611 9.45608C7.16236 9.4217 7.12798 9.44045 7.13736 9.42483C7.15611 9.40608 7.17798 9.39358 7.20298 9.38733C7.21861 9.38108 7.23423 9.36858 7.24673 9.35608C7.26548 9.33733 7.28423 9.33733 7.30298 9.3217C7.31236 9.3092 7.32486 9.29983 7.33736 9.29045L7.36548 9.27795C7.39986 9.26545 7.44048 9.26233 7.45611 9.25608C7.47173 9.24983 7.52173 9.2217 7.53736 9.24045C7.55298 9.2592 7.59048 9.24983 7.60298 9.21545L7.62173 9.2467L7.67486 9.21545L7.72798 9.1967H7.73736L7.75923 9.23108L7.80923 9.22483L7.82173 9.20608C7.84986 9.2092 7.87798 9.21545 7.90611 9.22483C7.92173 9.20608 7.90298 9.19983 7.91236 9.16858C7.91548 9.13108 7.91236 9.09045 7.89986 9.05295C7.93111 9.04983 7.95923 9.03733 7.98423 9.0217C8.03736 8.99045 7.98423 9.0217 8.03423 8.9592C8.08423 8.8967 8.04048 8.86858 8.10611 8.85295C8.14048 8.8467 8.17173 8.82795 8.18736 8.7967C8.18736 8.77483 8.19048 8.75608 8.19673 8.73733C8.19986 8.73108 8.19986 8.72483 8.19986 8.7217C8.20923 8.7217 8.21861 8.72483 8.22798 8.72483C8.27486 8.73733 8.19048 8.74358 8.35923 8.7717C8.41236 8.78108 8.39673 8.79045 8.45298 8.74983C8.46861 8.7217 8.48423 8.69358 8.50611 8.6717C8.54361 8.6592 8.49361 8.61858 8.54361 8.62483C8.55923 8.55295 8.57486 8.47795 8.58736 8.39983L8.61548 8.3217L8.64048 8.1717L8.64673 8.1467C8.60298 8.09045 8.68111 7.93108 8.68111 7.93108C8.68111 7.93108 8.72486 8.0342 8.73423 7.87795C8.74048 7.7842 8.72173 7.69045 8.68111 7.60295C8.66861 7.49045 8.67798 7.37483 8.70298 7.26233C8.72798 7.16858 8.72798 7.06858 8.69986 6.97483L8.67173 6.54358C8.66236 6.50608 8.65298 6.47483 8.64361 6.44045H8.68111L8.68423 6.4342L8.69361 6.37795V6.31233H8.73111C8.70923 6.28108 8.71548 6.24045 8.74048 6.23733C8.76548 6.2342 8.76548 6.1717 8.76861 6.15295C8.78111 6.1217 8.79048 6.09045 8.79673 6.05608C8.79673 6.0467 8.79673 6.0342 8.79673 6.02483C8.79361 6.00608 8.79048 5.99045 8.78736 5.97483C8.77173 5.90608 8.78111 5.88733 8.77798 5.8592Z" fill="#FF91B2"/>
</g>
<defs>
<clipPath id="clip0_750_2249">
<rect width="16" height="16" fill="white"/>
</clipPath>
</defs>
</svg>
