<svg width="71" height="63" viewBox="0 0 71 63" fill="none" xmlns="http://www.w3.org/2000/svg">
<path d="M35.8242 25.5774C38.6848 25.5774 41.6059 24.1421 44.0635 22.7659C47.8697 20.6344 51.8 18.9866 55.5438 16.6743C60.2508 13.767 64.4755 10.2391 68.8594 6.95117M41.4453 32.9568H52.7108C55.3782 32.9568 57.9234 32.935 60.5596 32.6249C61.678 32.4933 62.6161 32.7388 63.5859 32.2539M2 13.6387C8.27273 16.6387 12.5 18.1387 18.6043 22.2261C27 29.6387 31.8451 36.2188 34.1457 45.421C35.9987 52.8334 36.5 54.1387 36.5 61.1387M32.3086 17.1412C32.415 16.184 33.956 15.1424 34.6125 14.4859C35.8643 13.2341 36.8939 11.8531 38.1464 10.6006C40.0028 8.7442 41.5648 6.41616 43.1251 4.29424C43.6375 3.59736 44.1988 2.76163 44.9604 2.38086" stroke="#FF91B2" stroke-width="3" stroke-linecap="round"/>
</svg>
