<svg width="115" height="82" viewBox="0 0 115 82" fill="none" xmlns="http://www.w3.org/2000/svg">
<path d="M33.6952 23.9066C47.2943 24.3552 57.331 30.5507 64.7472 42.1876C66.931 45.6147 69.1061 49.0513 71.367 52.4116C73.7562 55.9627 76.7535 58.4161 80.9926 57.7479C85.5399 57.0319 88.5715 54.0344 90.4212 49.4331C93.7611 41.1566 91.8086 33.5005 88.2717 26.0067C86.7645 22.8088 84.3324 20.2313 83.596 16.4892C82.3542 10.1696 85.3943 3.49678 90.8066 1.25343C96.7755 -1.21904 101.905 0.594732 105.528 6.44656C111.454 16.0214 114.939 26.5891 114.999 38.245C115.076 53.6335 110.178 66.5686 98.3341 75.2938C90.524 81.0502 81.8061 82.5585 72.7457 79.9237C64.8072 77.604 59.0866 71.819 54.5221 64.3634C51.7989 59.9053 49.5552 55.1131 46.4894 50.8937C38.7392 40.2211 23.4786 41.863 17.7324 54.0249C16.7989 56.0009 16.0196 58.0247 15.4716 60.1535C14.5296 63.8384 10.9927 66.5686 7.45592 66.2918C3.57656 65.9863 0.4508 62.836 0.0739967 58.7216C-0.345626 54.1108 1.07595 49.8914 2.90859 45.9488C9.50265 31.7631 20.0103 24.3457 33.6952 23.897V23.9066Z" fill="#ACE2FF"/>
<path d="M90.2059 17.8056C90.887 17.8056 91.4392 17.1902 91.4392 16.4311C91.4392 15.672 90.887 15.0566 90.2059 15.0566C89.5248 15.0566 88.9727 15.672 88.9727 16.4311C88.9727 17.1902 89.5248 17.8056 90.2059 17.8056Z" fill="black"/>
<path d="M98.5067 12.6806C99.1878 12.6806 99.74 12.0652 99.74 11.3061C99.74 10.547 99.1878 9.93164 98.5067 9.93164C97.8256 9.93164 97.2734 10.547 97.2734 11.3061C97.2734 12.0652 97.8256 12.6806 98.5067 12.6806Z" fill="black"/>
</svg>
