<svg width="93" height="83" viewBox="0 0 93 83" fill="none" xmlns="http://www.w3.org/2000/svg">
<path d="M58.6416 61.4745L58.543 76.1445L59.4174 76.1515L59.516 61.4814L58.6416 61.4745Z" fill="#050E0B"/>
<path d="M86.3094 51.1605C85.5184 60.3818 71.5918 64.1727 40.6218 59.9606C19.7575 57.1175 5.57963 48.1445 8.10861 39.6372C10.0252 33.2058 16.6482 32.4614 27.3276 33.1107C27.8851 33.146 28.3663 32.688 28.414 32.0742C29.1561 21.3697 37.1648 9.91751 48.2601 10.9234C58.3268 11.8316 63.7287 17.7871 66.9127 28.5548C67.7346 31.3483 67.8546 33.9707 67.4357 36.3799C67.3264 36.9966 67.6796 37.5906 68.2359 37.7231C81.2298 40.7608 86.8051 45.3821 86.3096 51.1662L86.3094 51.1605Z" fill="#FFF9C1"/>
<path d="M58.5882 37.5664C61.6117 37.1104 63.7007 33.7778 63.254 30.1229C62.8073 26.4679 59.9942 23.8746 56.9707 24.3306C53.9471 24.7866 51.8582 28.1192 52.3048 31.7742C52.7515 35.4291 55.5646 38.0224 58.5882 37.5664Z" fill="white"/>
<path d="M46.0317 29.0316C46.2958 25.3546 44.0443 22.1565 41.0027 21.8885C37.9612 21.6204 35.2814 24.384 35.0173 28.061C34.7532 31.738 37.0047 34.936 40.0463 35.2041C43.0878 35.4721 45.7676 32.7086 46.0317 29.0316Z" fill="white"/>
<path d="M40.7901 32.9196C42.774 32.8216 44.3047 30.7966 44.2091 28.3967C44.1134 25.9968 42.4276 24.1307 40.4437 24.2287C38.4598 24.3268 36.9291 26.3518 37.0248 28.7517C37.1204 31.1516 38.8062 33.0177 40.7901 32.9196Z" fill="#0F0000"/>
<path d="M58.118 35.0509C60.0521 34.7592 61.3884 32.6285 61.1029 30.2918C60.8173 27.9552 59.018 26.2974 57.0839 26.589C55.1499 26.8807 53.8135 29.0114 54.0991 31.3481C54.3846 33.6848 56.184 35.3426 58.118 35.0509Z" fill="#0F0000"/>
<path d="M50.5253 34.5477L50.4704 34.5956L50.6548 34.5632L50.5253 34.5477Z" fill="#2A1D1D"/>
<path d="M49.8931 34.836L49.9766 34.8651C50.5028 34.7357 50.356 34.811 50.7263 34.6451C50.638 34.6274 50.4466 34.6097 50.2376 34.6715C50.2639 34.6869 50.4695 34.6702 50.4092 34.7127C50.2552 34.7323 50.2694 34.6978 50.0696 34.7311C49.9128 34.8125 50.2034 34.7238 50.139 34.7947L49.8984 34.8413L49.8931 34.836Z" fill="#2A1D1D"/>
<path d="M50.4302 34.7908C50.3378 34.8012 50.2457 34.8171 50.169 34.8322C50.2613 34.8218 50.3798 34.821 50.4302 34.7908Z" fill="#2A1D1D"/>
<path d="M50.4879 34.8123C50.4737 34.8459 50.2934 34.8445 50.2627 34.8516L50.6123 34.8331L50.4879 34.8123Z" fill="#2A1D1D"/>
<path d="M50.4844 34.9551C50.4844 34.9551 50.5053 34.9642 50.5156 34.9637C50.5717 34.9504 50.5255 34.9529 50.4844 34.9551Z" fill="#2A1D1D"/>
<path d="M50.5266 35.0212C50.6441 34.9925 50.5717 34.9852 50.5145 34.9715C50.5094 34.9718 50.5042 34.9721 50.4939 34.9726C50.3972 35.0058 50.145 35.0138 50.2108 34.9823C50.1534 34.963 50.3995 34.9273 50.2345 34.925L50.0409 34.9858C50.0732 35.0232 50.4334 35.0094 50.5318 35.0209L50.5266 35.0212Z" fill="#2A1D1D"/>
<path d="M50.4827 34.9544C50.4827 34.9544 50.4669 34.9439 50.4667 34.9383C50.4259 34.9518 50.4518 34.9561 50.4827 34.9544Z" fill="#2A1D1D"/>
<path d="M50.5074 34.8795L50.4556 34.8712L50.3483 34.8935L50.5074 34.8795Z" fill="#2A1D1D"/>
<path d="M50.5573 35.1387C50.2179 35.1569 50.5851 35.0534 50.3228 35.0675C50.3399 35.1112 50.0945 35.1635 49.9091 35.1679L50.0185 35.2011C50.1475 35.2054 50.3989 35.1751 50.5571 35.1331L50.5573 35.1387Z" fill="#2A1D1D"/>
<path d="M49.7148 35.2793C49.7457 35.2776 49.7613 35.2819 49.7717 35.2865C49.7563 35.2873 49.7407 35.283 49.7148 35.2793Z" fill="#2A1D1D"/>
<path d="M50.2934 35.4933L49.9544 35.3877C50.0629 35.3931 50.1709 35.3872 50.208 35.4134C50.2526 35.3659 50.0359 35.3607 50.0707 35.325C50.3846 35.308 50.0937 35.3914 50.3764 35.3648C50.365 35.3373 50.3531 35.2928 50.0845 35.2792L50.299 35.2225L49.9548 35.2581C49.8577 35.2802 50.2288 35.277 49.9873 35.3014C49.8381 35.3095 49.812 35.2996 49.7755 35.2903C49.8435 35.3148 49.5051 35.3669 49.5481 35.4153C49.5808 35.4642 50.1269 35.4516 50.2936 35.4989L50.2934 35.4933Z" fill="#2A1D1D"/>
<path d="M49.9109 35.4912L49.7773 35.498L49.9573 35.4939L49.9109 35.4912Z" fill="#2A1D1D"/>
<path d="M50.3598 35.6274L50.146 35.5602C50.1769 35.5586 50.2489 35.5547 50.3106 35.5513C50.2279 35.5445 50.0937 35.5405 50.0316 35.5326C49.7177 35.5496 50.132 35.6004 50.1849 35.6369C50.0379 35.7068 50.0194 35.6234 49.721 35.6395C49.7306 35.6221 49.8029 35.6238 49.8276 35.5943C49.473 35.6248 49.7899 35.692 49.8737 35.7269C49.9045 35.7252 50.0023 35.7199 49.9759 35.7045L50.0753 35.7441C50.3275 35.7305 50.3933 35.6988 50.3596 35.6218L50.3598 35.6274Z" fill="#2A1D1D"/>
<path d="M50.3627 35.5229C50.3627 35.5229 50.3637 35.551 50.3174 35.5535C50.3998 35.549 50.4615 35.5457 50.3627 35.5229Z" fill="#2A1D1D"/>
<path d="M49.88 35.7504C49.88 35.7504 49.8951 35.744 49.8742 35.7338C49.8589 35.7346 49.8591 35.7403 49.88 35.7504Z" fill="#2A1D1D"/>
<path d="M50.2508 35.75L50.2161 35.7855L50.3652 35.7775C50.3652 35.7775 50.3282 35.7514 50.2508 35.75Z" fill="#2A1D1D"/>
<path d="M49.4875 37.0925C49.6084 37.1429 49.6709 37.1509 49.6542 37.1176C49.8121 37.1887 49.7664 37.214 49.8512 37.2663C49.9654 37.2715 50.0355 37.3474 50.1928 37.4015C50.2224 37.36 50.0268 37.2511 50.0828 37.2252C50.125 37.2457 50.1986 37.2759 50.2561 37.2898C50.1747 37.1861 50.0605 37.0385 50.2154 37.0244C50.2918 36.9861 50.2273 36.9212 50.1671 36.8334C50.3109 36.6547 50.1825 36.3998 50.3724 36.2072L50.0482 36.1224C50.2144 36.1361 50.0566 36.0707 50.2653 36.1106C50.2239 36.1128 50.2558 36.1339 50.2564 36.1509C50.5515 36.1462 50.2517 36.0202 50.3642 35.9799C50.3021 35.9833 50.0161 35.9533 49.9688 35.9331C50.3383 35.9813 49.9665 35.8706 50.3923 35.8986C50.4995 35.8529 50.0699 35.8649 50.1353 35.8101C49.9169 35.7879 50.0282 35.8558 49.8621 35.8478C49.6898 35.8116 49.9382 35.8038 49.7097 35.7878C49.6034 35.8562 50.0254 36.0667 50.1248 36.2378L49.9261 36.186C50.0642 36.281 50.0427 36.4017 49.7104 36.38C49.9033 36.415 49.5885 36.4492 50.0222 36.5509C49.9184 36.5452 49.9343 36.5557 49.8934 36.5693L50.0296 36.6131C50.0205 36.6478 49.811 36.5852 49.8125 36.625C49.9998 36.6489 50.0482 36.6975 50.1952 36.7522C49.9773 36.7413 49.7856 36.7403 49.6087 36.7215C49.6662 36.7354 49.7343 36.7545 49.8176 36.767C49.7452 36.771 49.9233 36.8239 49.9814 36.8549C49.9824 36.8833 49.7516 36.8048 49.6311 36.7658C49.549 36.7874 49.9853 36.9629 49.8242 36.9489L50.0126 37.0013C50.0409 37.0681 49.8221 37.0344 49.8665 37.1174C49.6047 37.0406 49.6649 36.986 49.5642 36.9232C49.507 36.9149 49.4867 36.9274 49.4029 36.9035C49.5247 36.9766 49.6839 37.0818 49.7956 37.1612C49.5156 37.0113 49.508 37.0857 49.4825 37.0985L49.4875 37.0925Z" fill="#2A1D1D"/>
<path d="M49.4112 36.8914C49.3743 36.8707 49.3428 36.8554 49.3164 36.8398C49.3323 36.8503 49.3481 36.8608 49.3327 36.8616C49.364 36.8713 49.3902 36.8812 49.4112 36.8914Z" fill="#2A1D1D"/>
<path d="M49.4925 37.0897L49.4609 37.0801C49.4609 37.0801 49.4823 37.096 49.4925 37.0897Z" fill="#2A1D1D"/>
<path d="M50.2381 37.0237C50.2381 37.0237 50.2277 37.0243 50.2174 37.0248C50.2174 37.0248 50.2174 37.0248 50.2072 37.0306L50.2331 37.0292L50.2381 37.0237Z" fill="#2A1D1D"/>
<path d="M49.4103 36.6885C49.4777 36.7016 49.5502 36.7089 49.6174 36.7165C49.5341 36.693 49.4664 36.6743 49.4103 36.6885Z" fill="#2A1D1D"/>
<path d="M49.6916 36.4349C49.6599 36.414 49.6028 36.4058 49.5403 36.3867C49.5306 36.4041 49.5882 36.4292 49.6916 36.4349Z" fill="#2A1D1D"/>
<path d="M49.3477 36.9258L49.3914 36.9917L49.4391 37.0232L49.3477 36.9258Z" fill="#2A1D1D"/>
<path d="M49.8841 38.2226C50.1 38.3247 50.0174 38.1869 50.0837 38.1605C50.0263 38.0043 49.6539 37.8652 49.6661 37.7735L50.0744 38.0472C50.0916 37.9495 50.2492 37.8726 49.8927 37.6017C49.9504 37.6214 50.0183 37.6404 50.072 37.6944C50.0801 37.6314 49.4695 37.3459 49.6406 37.3537C49.8857 37.5509 49.9083 37.4586 50.1673 37.6096L50.1941 37.6365C50.1919 37.5741 50.0681 37.4442 50.0983 37.4198C49.9826 37.3692 49.7994 37.3109 49.8031 37.2708C49.7722 37.2725 49.6458 37.2111 49.5352 37.1602C49.6474 37.2565 49.5588 37.2386 49.6967 37.3335C49.5398 37.2852 49.654 37.296 49.5022 37.2474L49.6247 37.3432C49.5833 37.3454 49.4867 37.2482 49.4408 37.2678C49.5253 37.3144 49.6056 37.3897 49.5753 37.4085L49.5276 37.3769C49.5759 37.4255 49.4928 37.4186 49.7351 37.5363L49.4883 37.436L49.6517 37.5181C49.5647 37.5456 49.1692 37.3395 49.3362 37.5239C49.3937 37.5379 49.4684 37.6021 49.4953 37.6291C49.6209 37.6678 49.393 37.5208 49.3864 37.4814C49.55 37.5692 49.7163 37.7309 49.8307 37.7474C49.6211 37.6735 49.8134 37.8394 49.412 37.6166C49.3664 37.6418 49.5475 37.7856 49.4331 37.7691L49.3746 37.7267C49.6243 37.9067 49.2385 37.6829 49.4789 37.8918L49.552 37.9106C49.653 37.9848 49.6483 37.9964 49.6598 38.0299C49.6349 38.0085 49.6049 37.9893 49.5698 37.9722C49.7505 38.1047 49.743 38.1848 49.7912 38.2277C49.8376 38.2252 49.7086 38.0899 49.6753 38.0291C49.7716 38.1149 49.9306 38.2201 49.8841 38.2226Z" fill="#2A1D1D"/>
<path d="M49.4453 37.3105L49.5354 37.3738C49.5354 37.3738 49.4981 37.3417 49.4453 37.3105Z" fill="#2A1D1D"/>
<path d="M49.443 38.1924C49.3857 38.1841 49.3036 38.0632 49.2087 38.0171C49.3065 38.1429 49.4742 38.1964 49.631 38.3759C49.5144 38.3025 49.6713 38.4877 49.6616 38.5054C49.5749 38.4018 49.3452 38.2091 49.2972 38.1719C49.3514 38.2373 49.2241 38.1587 49.2088 38.1653C49.3727 38.2532 49.2647 38.2762 49.4394 38.3807C49.5683 38.5047 49.6252 38.6441 49.5135 38.5647C49.4221 38.4728 49.4533 38.4768 49.4578 38.4595C49.2907 38.2805 49.3468 38.3971 49.1856 38.2406C49.3925 38.5143 49.2513 38.6246 49.6385 39.0138C49.7238 39.0776 49.6522 38.9618 49.651 38.9277C49.5355 38.8884 49.4617 38.71 49.402 38.6335C49.4762 38.6807 49.3877 38.526 49.5174 38.6728L49.6276 38.8549C49.7979 38.8342 49.8842 38.6414 49.9192 38.4628C49.9043 38.4807 49.8894 38.4986 49.8743 38.5109C49.7669 38.4084 49.7762 38.3794 49.7376 38.3131L49.4453 38.1125C49.4763 38.1108 49.4436 38.067 49.5398 38.1472C49.4321 38.0334 49.3578 37.9862 49.2569 37.9176C49.2283 37.8451 49.34 37.9245 49.1735 37.7626C48.915 37.6342 49.3361 37.9589 49.099 37.8521L49.4529 38.1805L49.443 38.1924Z" fill="#2A1D1D"/>
<path d="M49.3711 37.9434L49.5048 38.0669L49.4503 37.9902L49.3711 37.9434Z" fill="#2A1D1D"/>
<path d="M49.973 38.4478C49.9093 38.4002 49.8926 38.367 49.8291 38.3251C49.7672 38.3284 49.8571 38.386 49.973 38.4478Z" fill="#2A1D1D"/>
<path d="M49.1523 38.2617L49.1705 38.3348L49.234 38.3712C49.18 38.3115 49.1635 38.2839 49.1525 38.2674L49.1523 38.2617Z" fill="#2A1D1D"/>
<path d="M49.5131 39.22C49.5568 39.1378 49.4735 38.9828 49.6476 39.0702C49.526 38.8603 49.3558 38.7385 49.23 38.5574C49.1775 38.5375 49.4271 38.8486 49.4461 38.9444C49.3163 38.792 49.4281 39.0195 49.3706 39.0055C49.4248 39.0709 49.4796 39.1534 49.5131 39.22Z" fill="#2A1D1D"/>
<path d="M48.9298 38.6765C48.9298 38.6765 48.9564 38.8397 48.8966 38.7578C48.8457 38.6357 48.8338 38.5909 48.8603 38.6122C48.7268 38.3469 48.8622 38.6632 48.7579 38.4928C48.7744 38.5203 48.8018 38.5643 48.8195 38.6258C48.7457 38.5844 48.8799 38.8666 48.7514 38.743C48.77 38.8272 48.7545 38.828 48.8182 39.0176C48.6964 38.7915 48.7168 38.7847 48.6218 38.5854C48.6517 38.6974 48.7281 38.9544 48.7988 39.1947C48.6273 38.8804 48.7086 39.2734 48.6068 39.0291C48.6064 39.0178 48.604 38.9498 48.6256 38.977C48.5667 38.6338 48.5973 39.0524 48.5536 38.9866L48.5222 38.6874C48.5083 38.7336 48.4745 38.9398 48.4304 38.7208L48.4249 38.5678C48.3768 38.8089 48.3106 38.6932 48.2526 38.8043L48.2459 38.6173C48.1508 38.8439 48.3013 38.7221 48.2142 39.1698C48.251 38.617 48.1535 39.3491 48.1194 39.1181C48.1268 38.8963 48.1827 39.0125 48.1889 38.7566C48.1474 39.0371 48.1555 38.8323 48.1221 38.9079C48.1694 38.6441 48.0844 38.8645 48.1512 38.5713C48.1001 38.7274 48.0388 38.8897 47.9666 39.0356C47.9922 38.8866 47.9617 38.8996 47.9369 38.9293C47.9841 38.9495 47.7954 39.3004 47.8263 39.4407C47.9729 39.3532 48.1309 39.2935 48.2445 39.435C48.2724 39.0644 48.3222 39.4421 48.3423 39.1401C48.3466 39.2591 48.3502 39.3611 48.3595 39.4741C48.4393 39.396 48.3367 39.271 48.3526 39.1395C48.3819 39.0925 48.4154 39.3064 48.4152 39.4427C48.4725 39.4566 48.4166 39.3404 48.4353 39.1407L48.4962 39.5405C48.5816 39.4734 48.6754 39.3547 48.7653 39.2703C48.8557 39.1973 48.9363 39.1418 49.0726 39.1968L48.9613 38.9758C49.1036 39.0532 48.8125 38.4331 49.1271 38.8475L49.0375 38.6536C49.088 38.7644 49.2446 38.9546 49.3124 39.1156C49.2885 39.0261 49.358 39.0904 49.3397 39.0119L49.2391 38.9436C49.1494 38.7497 49.2457 38.841 49.3541 38.9827C49.2628 38.7436 49.0843 38.6624 48.9697 38.4927C49.1504 38.92 48.6889 38.1559 48.7474 38.3458C48.7835 38.4858 48.8529 38.5501 48.9139 38.666L48.9298 38.6765Z" fill="#2A1D1D"/>
<path d="M49.3436 39.2059C49.3436 39.2059 49.3315 39.1609 49.3203 39.1387C49.3209 39.1558 49.3322 39.178 49.3436 39.2059Z" fill="#2A1D1D"/>
<path d="M47.9489 38.9432C47.9489 38.9432 47.9386 38.9438 47.9231 38.9446C47.8942 39.0029 47.9237 38.9616 47.9489 38.9432Z" fill="#2A1D1D"/>
<path d="M49.0546 38.4874L49.0393 38.494L49.1046 38.5815L49.0546 38.4874Z" fill="#2A1D1D"/>
<path d="M47.9239 38.5781L47.8555 38.69C47.8749 38.6548 47.8995 38.6193 47.9239 38.5781Z" fill="#2A1D1D"/>
<path d="M47.7305 38.1992L47.7309 38.2109C47.7309 38.2109 47.7411 38.1986 47.7305 38.1992Z" fill="#2A1D1D"/>
<path d="M47.2834 36.8018C47.2092 36.7546 47.1396 36.6957 46.9412 36.6552L47.0606 36.6601C47.0027 36.6348 46.8127 36.5426 46.5915 36.5888L46.6958 36.6059C46.8743 36.6702 46.495 36.6453 46.4137 36.6896C46.4679 36.755 46.9252 36.7871 46.8182 36.8385C46.8294 36.8607 46.71 36.8558 46.6165 36.8495C46.5821 36.9026 46.9351 36.9176 46.9777 36.9494C46.0616 36.9879 47.2267 37.0954 46.6497 37.1952C46.7289 37.2364 46.654 37.3146 46.8318 37.3561C46.5981 37.3461 46.8183 37.4138 46.5596 37.4279C47.0921 37.3875 46.3394 37.645 47.0103 37.5629C46.8327 37.6694 47.0569 37.5603 46.9107 37.6765C46.8387 37.6918 46.8329 37.6751 46.8172 37.6702C46.6847 37.7344 47.1077 37.6772 46.8104 37.7674C46.772 37.855 46.991 37.7462 47.1777 37.7474C47.1135 37.8364 47.0202 37.8358 46.7546 37.9471C47.0684 37.8787 46.9262 37.9605 47.0971 37.9569C47.1122 37.9447 47.1617 37.8793 47.2861 37.8782C47.2532 37.9712 47.5042 37.8892 47.6039 37.9236C47.2722 38.067 47.5756 37.8568 47.3218 38.0073C47.1511 38.0166 47.1596 37.9649 46.902 38.0074C46.8945 38.0876 46.9802 38.1626 47.1416 38.1823C47.1074 38.2412 46.977 38.2198 46.958 38.2664C46.8336 38.4099 47.3357 38.2458 47.2102 38.3609L47.0364 38.4273C47.2669 38.3521 47.0421 38.5865 47.1978 38.5894C47.2733 38.5283 47.3238 38.4914 47.3799 38.4656C46.9798 38.7266 47.6214 38.4068 47.3867 38.6532C47.6235 38.4637 47.7766 38.3984 47.8126 38.3907C47.758 38.4564 47.6626 38.5413 47.6023 38.5959C47.7002 38.4367 47.3235 38.7705 47.1797 38.8069C47.3281 38.7532 47.2567 38.928 47.444 38.8039L47.2631 38.9618C47.2922 39.0514 47.6754 38.609 47.5588 38.8261L47.4392 38.9579C47.4975 38.9946 47.512 39.1078 47.5664 39.1788C47.6204 39.2386 47.6992 39.2685 47.8226 39.0965C47.8797 38.9567 47.9763 38.6154 48.0243 38.5102C47.9504 38.6168 47.808 38.8353 47.7024 38.9265L47.844 38.6852C47.7411 38.8503 47.6395 38.9071 47.5776 39.0586C47.4669 39.1501 47.6939 38.8358 47.5733 38.9392C47.7463 38.7076 47.7819 38.6886 47.9198 38.4874L47.8198 38.5897C47.8892 38.5005 47.8685 38.5016 47.943 38.4121C47.6929 38.665 48.0001 38.2723 47.8741 38.3703L47.8501 38.4229C47.7404 38.5428 47.7393 38.5143 47.6988 38.5393C47.8534 38.3714 47.823 38.3902 47.8873 38.3069C47.7861 38.3751 47.5539 38.5472 47.5369 38.5083C47.7793 38.3299 47.6355 38.3662 47.8427 38.2182C47.5945 38.3798 47.7288 38.2244 47.5815 38.3065C47.5198 38.3212 47.5339 38.2806 47.6763 38.2045C47.6866 38.2039 47.7123 38.1968 47.7276 38.1903L47.727 38.1732C47.7576 38.1602 47.7831 38.1474 47.7883 38.1471C47.7876 38.1301 47.5943 38.2317 47.721 38.1508C47.7922 38.1127 47.7926 38.1241 47.8234 38.1167C47.8578 38.0636 47.3977 38.2424 47.6256 38.0933C47.4977 38.1401 47.465 38.0964 47.1792 38.2202C47.2757 38.1636 47.511 38.0768 47.4582 38.0512C47.2066 38.1161 47.5383 37.9727 47.3682 37.9991C47.6414 37.9557 47.44 37.9781 47.6973 37.9242C47.7937 37.8677 47.4438 37.938 47.4829 37.8732C47.5443 37.8528 47.6159 37.8261 47.6776 37.8114C47.5845 37.8164 47.3732 37.8507 47.5833 37.7823L47.4036 37.832C47.4897 37.776 47.421 37.7399 47.6152 37.661L47.2634 37.6801C47.6218 37.5581 47.2791 37.5425 46.9623 37.5256C46.9768 37.4963 47.0374 37.4532 47.1148 37.4433C47.1407 37.4418 47.1928 37.4504 47.2448 37.4533C47.2539 37.4186 47.4486 37.3567 47.1587 37.3668C47.0644 37.3378 47.3593 37.3217 47.3996 37.291C46.9886 37.2508 47.6923 37.07 47.0655 37.0814C47.0665 37.1098 46.9392 37.1737 46.9725 37.2345C46.8943 37.2217 46.7759 37.2453 46.7596 37.2234C46.7263 37.1625 46.958 37.1214 46.8523 37.0645L47.2513 37.0599C47.652 36.9583 46.7108 36.8785 47.2783 36.8021L47.2834 36.8018Z" fill="#2A1D1D"/>
<path d="M47.295 37.5132L47.4885 37.4465L47.3193 37.4725C47.3506 37.482 47.351 37.4933 47.295 37.5132Z" fill="#2A1D1D"/>
<path d="M47.3251 37.4694C47.3251 37.4694 47.2784 37.4607 47.2422 37.457C47.2426 37.4682 47.2428 37.4739 47.279 37.4775L47.3202 37.4753L47.3251 37.4694Z" fill="#2A1D1D"/>
<path d="M47.2121 36.6311C47.2121 36.6311 47.2628 36.6056 47.2156 36.5855C47.1694 36.5937 47.1496 36.6175 47.2121 36.6311Z" fill="#2A1D1D"/>
<path d="M47.093 36.5806L47.0317 36.5952L47.0784 36.604L47.093 36.5806Z" fill="#2A1D1D"/>
<path d="M46.8803 35.2882L46.6532 35.1752C46.778 35.1855 46.6445 35.0788 46.8491 35.1417C46.5708 35.0486 46.865 35.0098 46.4485 34.9641C46.5555 35.1976 46.2691 35.4525 46.6065 35.7475L46.4488 35.6877C46.7607 35.853 46.0699 35.8223 46.7089 35.9983L46.3752 35.9481C46.2785 35.9989 46.8476 36.1047 46.4909 36.1355L46.6259 36.1396C46.6259 36.1396 46.5642 36.1543 46.5596 36.1717L46.6217 36.1683C46.7534 36.2238 46.7335 36.2476 46.6414 36.2811C46.5323 36.2757 46.5991 36.2607 46.5675 36.2453C46.4588 36.2512 46.6838 36.3073 46.6796 36.336C46.5869 36.3525 46.5289 36.3272 46.4819 36.3183C46.6206 36.4247 46.2691 36.4552 46.7651 36.5479C46.8589 36.5599 46.9357 36.5329 46.9783 36.5648C47.1371 36.5105 46.9432 36.4527 46.8111 36.3859L46.8117 36.4029C46.3267 36.3268 46.9196 36.3742 46.7142 36.2886C46.9074 36.3236 46.9084 36.3521 47.0129 36.3749C47.3895 36.3202 46.7383 36.236 47.22 36.2212L47.2355 36.2203C47.2821 36.2178 47.1931 36.1941 47.1507 36.168C47.0885 36.1713 47.0527 36.1847 47.0064 36.1929C46.9641 36.1724 46.7505 36.1442 46.6617 36.1262C46.8795 36.1257 46.5617 36.0861 46.6698 36.0631C46.8671 36.0694 46.8478 36.1104 46.9523 36.1332L46.8207 36.0777C46.8141 36.0381 47.0432 36.0656 47.1519 36.0596C47.0049 36.0107 47.0432 36.0656 46.8342 36.02C47.0826 36.0064 47.0348 35.8324 46.8493 35.7229C46.8713 35.7559 47.0582 35.7628 47.023 35.7932C47.0696 35.7906 46.9688 35.7278 46.8177 35.7075C46.6906 35.6347 46.7972 35.5719 46.9413 35.5412L46.7854 35.5326C46.5387 35.4492 46.9898 35.4474 46.8513 35.3467C46.8244 35.3197 46.4582 35.2314 46.54 35.1985C46.718 35.2457 46.6979 35.2639 46.8805 35.2939L46.8803 35.2882Z" fill="#2A1D1D"/>
<path d="M46.5711 34.9429L46.7748 35.011C46.8256 34.9913 46.5646 34.9037 46.4297 34.8828C46.4719 34.9088 46.3743 34.9197 46.4939 34.9471C46.5248 34.9454 46.5977 34.9641 46.5711 34.9429Z" fill="#2A1D1D"/>
<path d="M46.6397 34.397C46.5924 34.3768 46.5141 34.3583 46.4616 34.3383C46.4661 34.4634 46.5183 34.62 46.3478 34.6293C46.2814 34.6557 46.5896 34.73 46.6541 34.7948L46.441 34.7723C46.5673 34.828 46.325 34.8583 46.6787 34.9017C46.7097 34.9 46.5214 34.8476 46.5832 34.8386L46.7033 34.8662L46.67 34.8054L46.8168 34.8543C47.0438 34.8305 46.3767 34.7131 46.5351 34.6533L46.8327 34.7225C46.8619 34.6696 46.7616 34.6181 46.9531 34.6134C46.9531 34.6134 46.8067 34.5758 46.8646 34.6011C46.8439 34.6023 46.7244 34.5917 46.6354 34.5624C46.4179 34.4205 46.8133 34.6153 46.9469 34.5853C46.7561 34.4647 46.6147 34.2787 46.864 34.2993C46.6772 34.2867 46.4974 34.1826 46.5271 34.1468C46.6363 34.158 46.7001 34.2058 46.7894 34.2408C46.8252 34.2274 46.9031 34.2346 46.8657 34.2024C46.6993 34.183 46.474 34.1099 46.3932 34.0232C46.1784 34.0975 46.7092 34.3135 46.6554 34.4018L46.6397 34.397Z" fill="#2A1D1D"/>
<path d="M46.3958 34.3064C46.3958 34.3064 46.4277 34.333 46.459 34.3426C46.4584 34.3256 46.458 34.3143 46.4576 34.303L46.3906 34.3066L46.3958 34.3064Z" fill="#2A1D1D"/>
<path d="M29.5816 76.0653C30.6914 76.0104 31.5512 74.9677 31.5021 73.7362C31.453 72.5048 30.5136 71.5509 29.4039 71.6058C28.2941 71.6606 27.4343 72.7034 27.4834 73.9348C27.5325 75.1663 28.4719 76.1201 29.5816 76.0653Z" fill="#0F0000"/>
<path d="M59.1051 79.9208C60.2148 79.8659 61.0746 78.8232 61.0255 77.5917C60.9765 76.3603 60.0371 75.4064 58.9273 75.4613C57.8176 75.5161 56.9578 76.5588 57.0068 77.7903C57.0559 79.0218 57.9953 79.9756 59.1051 79.9208Z" fill="#0F0000"/>
<path d="M32.574 58.4882L29.2266 72.6816L30.0725 72.9271L33.42 58.7336L32.574 58.4882Z" fill="#050E0B"/>
<path d="M21.943 38.1872C22.5276 38.1583 22.9855 37.7315 22.9657 37.2339C22.9458 36.7363 22.4558 36.3563 21.8711 36.3852C21.2865 36.4141 20.8286 36.8409 20.8484 37.3385C20.8682 37.8361 21.3583 38.2161 21.943 38.1872Z" fill="#050E0B"/>
<path d="M82.5701 49.2421C83.1138 48.857 83.2127 47.9503 82.791 47.2169C82.3694 46.4834 81.5868 46.201 81.0431 46.586C80.4994 46.9711 80.4004 47.8778 80.8221 48.6112C81.2438 49.3447 82.0264 49.6271 82.5701 49.2421Z" fill="#050E0B"/>
<path d="M33.118 53.4859C33.1378 53.982 32.5655 54.6102 31.9848 54.6389C31.4041 54.6676 31.0208 54.0923 31.0008 53.5905C30.9808 53.0886 31.4376 52.6661 32.0235 52.6371C32.6093 52.6082 33.0983 52.9897 33.118 53.4859Z" fill="#050E0B"/>
<path d="M15.4449 38.6849C15.7983 38.1671 15.7689 37.482 15.3794 37.1547C14.9898 36.8275 14.3876 36.982 14.0343 37.4999C13.681 38.0177 13.7103 38.7028 14.0999 39.03C14.4894 39.3573 15.0916 39.2028 15.4449 38.6849Z" fill="#050E0B"/>
<path d="M40.9868 54.9586C41.1034 55.5585 40.736 56.1595 40.1648 56.2963C39.5935 56.4331 38.5704 56.0837 38.4538 55.4838C38.3372 54.8839 39.1671 54.26 39.7383 54.1232C40.3096 53.9864 40.8702 54.3587 40.9868 54.9586Z" fill="#050E0B"/>
<path d="M59.7862 57.6248C59.6641 57.0137 60.0976 56.3923 60.7452 56.2346C61.3929 56.0769 62.544 56.4086 62.6609 57.0142C62.7777 57.6198 61.8258 58.2839 61.1782 58.4416C60.5305 58.5993 59.9031 58.2304 59.7862 57.6248Z" fill="#050E0B"/>
<path d="M78.0708 54.9924C77.6969 54.5252 77.8049 53.7485 78.3004 53.2612C78.7959 52.7739 79.9464 52.4428 80.3203 52.91C80.6942 53.3772 80.1455 54.4671 79.6449 54.9546C79.1443 55.4422 78.4396 55.4599 78.0708 54.9924Z" fill="#050E0B"/>
<path d="M14.6002 44.8418C14.9665 44.6396 14.9794 43.8418 14.629 43.06C14.2785 42.2782 13.6975 41.8084 13.3312 42.0107C12.9649 42.213 12.952 43.0107 13.3025 43.7925C13.6529 44.5743 14.2339 45.0441 14.6002 44.8418Z" fill="#050E0B"/>
<path d="M75.9132 43.9764C76.017 43.5372 75.4839 43.0019 74.7227 42.7807C73.9615 42.5596 73.2603 42.7363 73.1566 43.1755C73.0528 43.6147 73.5858 44.15 74.3471 44.3712C75.1083 44.5923 75.8095 44.4156 75.9132 43.9764Z" fill="#050E0B"/>
<path d="M22.6448 49.6666C22.6867 50.2017 21.7718 50.3726 21.0247 50.101C20.2775 49.8293 19.7891 49.2021 19.9389 48.6976C20.0887 48.1931 20.5237 47.7373 21.2709 48.0089C22.018 48.2806 22.5753 48.6987 22.6448 49.6666Z" fill="#050E0B"/>
<path d="M51.6592 56.7981C51.9196 57.2595 51.1675 57.8966 50.3753 58.0443C49.5831 58.192 48.8754 57.8785 48.7922 57.3397C48.7089 56.801 48.9151 56.1623 49.7074 56.0146C50.4996 55.8669 51.1827 55.9531 51.6592 56.7981Z" fill="#050E0B"/>
<path d="M69.5204 57.0639C69.2249 56.6271 69.9281 55.9239 70.7071 55.7025C71.4861 55.4812 72.2167 55.7251 72.3357 56.2563C72.4547 56.7875 72.3056 57.4406 71.5267 57.6619C70.7477 57.8832 70.0619 57.86 69.5204 57.0639Z" fill="#050E0B"/>
<path d="M27.9845 51.707C28.1329 51.1969 27.646 50.5662 26.8971 50.2982C26.1482 50.0302 25.4208 50.2265 25.2725 50.7366C25.1242 51.2466 25.611 51.8774 26.3599 52.1454C27.1088 52.4133 27.8362 52.2171 27.9845 51.707Z" fill="#050E0B"/>
</svg>
