<svg width="135" height="107" viewBox="0 0 135 107" fill="none" xmlns="http://www.w3.org/2000/svg">
<path d="M98.0359 32.1356C107.934 32.1356 117.843 32.1356 127.74 32.1356C128.598 32.1356 129.499 32.0709 130.325 32.2648C132.191 32.6848 134.046 33.3202 134.303 35.6142C134.571 37.9513 132.598 38.3713 131.065 38.9852C122.625 42.3669 114.175 45.684 105.693 49.0334C106.164 50.5519 107.376 50.7889 108.599 51.3058C115.312 54.1383 121.96 57.1215 128.609 60.094C130.218 60.8156 131.912 61.6879 131.279 63.9065C130.657 66.0605 128.749 65.9205 127.001 65.9205C117.95 65.9205 108.899 65.8989 98.9903 64.6712C101.274 70.4438 104.631 74.6656 107.173 79.2966C108.266 81.2998 109.735 83.0983 110.829 85.1123C111.655 86.6308 112.266 88.5155 110.808 89.9049C109.274 91.3696 107.687 90.508 106.186 89.3556C100.856 85.2738 95.473 81.2567 90.1004 77.2395C89.6822 76.9272 89.1675 76.7334 87.9772 76.1087C87.9772 83.5184 87.9772 90.3572 87.9772 97.2068C87.9772 98.4992 88.1058 99.8454 87.7841 101.073C86.9477 104.293 85.0925 104.929 82.6046 102.559C77.8111 98.0038 74.5082 92.2096 70.3904 87.0832C70.2081 86.857 70.0901 86.5878 69.94 86.34C68.8998 84.6276 67.4843 82.3121 65.8435 82.4521C64.1706 82.5922 63.3449 85.1877 62.4656 86.997C59.6881 92.6512 56.8035 98.2515 53.8652 103.83C53.0717 105.327 52.1387 107.147 49.9725 106.523C48.0423 105.973 47.7742 104.153 47.4739 102.387C46.1227 94.3636 44.6643 86.3508 43.2917 78.3381C42.8949 76.001 42.2729 75.6456 39.9459 76.938C31.4528 81.6444 22.7559 85.9739 14.1662 90.4972C12.7078 91.2726 11.9464 90.5941 10.799 89.7648C9.28696 88.6663 9.60867 87.7401 10.3164 86.5231C13.4048 81.2028 16.1608 75.6348 19.6996 70.6269C21.9087 67.5036 20.6755 66.4913 18.0482 65.942C12.8687 64.865 8.02157 62.7757 2.98145 61.2895C1.70534 60.9017 0.0217255 60.6002 0.000278187 58.6401C-0.0211691 57.0354 1.20133 56.4753 2.34876 55.8507C8.25749 52.6197 14.4879 50.0135 20.9007 48.1395C24.729 47.0194 24.1071 45.824 22.5521 43.2608C19.0777 37.4882 14.4879 32.4479 11.4424 26.3845C10.8097 25.1244 9.63012 23.9936 10.9062 22.4966C12.0429 21.1719 13.2654 20.9996 15.0885 21.355C22.3591 22.7766 29.6834 23.8643 36.9862 25.0813C39.592 25.5121 40.9968 25.1567 41.5866 21.8181C42.6161 15.9485 41.8869 10.0036 43.0665 4.18787C43.3882 2.60471 43.4204 0.903075 45.0611 0.213807C46.8734 -0.54008 47.9779 0.849226 49.0396 2.05545C52.6105 6.14798 56.2459 10.1974 59.731 14.3653C61.479 16.4547 62.6157 16.7993 63.8596 13.9346C65.4039 10.3913 67.1733 6.93417 68.9319 3.47706C69.5861 2.18468 70.4869 0.870766 72.1383 0.913845C74.0793 0.967694 74.6584 2.63702 75.1731 4.13402C76.7066 8.57119 78.1757 13.0407 79.6985 17.4886C80.5135 19.8795 81.425 20.4395 84.063 18.8887C92.4275 13.9561 101.081 9.51893 109.596 4.8556C111.001 4.08017 112.009 4.57558 113.071 5.50179C114.786 6.99879 113.757 8.58196 112.942 9.75587C110.079 13.8699 106.979 17.8225 103.977 21.8396C101.854 24.6721 99.741 27.5153 97.6284 30.3478L98.0467 32.1032L98.0359 32.1356ZM65.4575 77.8427C69.1571 81.989 72.2027 85.9308 75.0766 90.0449C77.4573 93.4374 80.0953 96.6575 82.6797 99.91C83.0872 100.416 83.8593 100.998 84.4062 100.955C85.4678 100.858 85.4893 99.8023 85.5107 98.93C85.5429 97.9176 85.5214 96.9052 85.5322 95.8929C85.5536 89.3879 85.5 82.8829 85.618 76.3887C85.6716 73.6101 86.2399 71.6392 89.5428 74.3532C94.7009 78.575 100.063 82.5491 105.371 86.577C106.454 87.3955 107.687 89.2587 108.985 88.0955C110.39 86.8355 108.781 85.2954 107.987 84.0461C104.706 78.855 101.264 73.7609 98.1325 68.4837C97.1673 66.8575 95.0226 64.9727 96.2558 63.1096C97.2317 61.6233 99.7196 62.6249 101.521 62.5711C103.816 62.5064 106.122 62.6895 108.416 62.8511C114.443 63.2819 120.459 63.7773 126.475 64.1758C127.408 64.2404 128.77 64.4558 128.974 63.1311C129.167 61.9033 127.923 61.5479 127.011 61.171C123.044 59.534 119.054 57.9831 115.108 56.3138C111.172 54.6445 107.301 52.8244 103.344 51.1874C102.261 50.735 101.618 50.0027 101.489 49.0226C101.403 48.3441 102.24 47.9995 102.969 47.7626C111.934 44.9409 120.266 40.396 129.317 37.7682C130.314 37.4774 132.416 37.5635 131.912 35.625C131.483 33.9449 129.735 34.6342 128.555 34.6342C117.896 34.6449 107.28 33.2556 96.6204 33.7618C94.54 33.8587 93.3819 33.4064 95.0655 31.1447C97.9609 27.2568 101.049 23.4766 103.559 19.341C106.068 15.1946 110.604 12.2545 111.526 6.38491C109.264 7.30035 107.376 7.68806 105.929 8.70042C98.6365 13.7838 90.3471 17.0793 82.9263 21.9258C80.9639 23.2074 79.3446 22.9166 78.5511 19.998C77.1999 15.0438 75.3661 10.2297 73.6932 5.37255C73.3394 4.34942 73.2107 2.85241 71.7094 2.98165C70.6263 3.06781 70.3475 4.25249 69.9507 5.20023C68.3421 9.02352 66.68 12.836 64.9642 16.6162C63.8489 19.0718 62.7766 21.0103 60.0956 17.6609C56.6212 13.3207 52.7499 9.30353 49.061 5.13561C48.1388 4.09094 47.4954 2.2493 45.8117 2.88472C44.1281 3.52014 44.9217 5.41563 44.8359 6.76186C44.4713 12.2222 44.1603 17.6825 43.9244 23.1535C43.7742 26.7614 42.541 28.1184 38.5733 27.3214C31.3026 25.8783 23.914 25.0598 16.5683 23.9936C15.1957 23.7889 13.4048 22.7012 12.5255 24.0151C11.5068 25.5444 13.6944 26.6968 14.0912 28.1938C14.252 28.8077 15.0885 29.2062 15.496 29.7877C18.949 34.7203 22.3805 39.6637 25.7907 44.6285C26.7772 46.0609 27.3456 47.5687 25.1473 48.4626C18.6594 51.0904 12.1502 53.6967 5.65165 56.2815C4.37553 56.7877 2.46672 56.7769 2.56323 58.6078C2.6383 60.1586 4.49349 60.2125 5.6302 60.5356C10.5524 61.9464 15.5281 63.1849 20.4932 64.4558C23.3457 65.1881 24.3752 66.502 22.5629 69.3237C19.6138 73.9009 16.815 78.5642 13.9732 83.206C12.9545 84.8646 10.7561 86.7924 12.4719 88.494C13.6408 89.6572 15.7855 87.7401 17.3404 86.9109C24.7826 82.926 32.1498 78.8227 39.592 74.8594C44.2997 72.3501 44.5678 72.3931 45.49 77.6057C46.8948 85.6077 47.9672 93.6743 49.2004 101.709C49.372 102.85 48.4712 104.616 50.4658 104.81C51.9993 104.961 52.3639 103.529 53.0073 102.344C57.2539 94.4066 60.2565 85.8339 65.4896 77.8427H65.4575Z" fill="#FFF9C1"/>
<path d="M61.4704 70.1422C49.61 70.0884 41.192 59.6093 43.7657 48.1395C44.2375 46.0501 44.5699 43.9392 44.9131 41.8284C45.0954 40.676 45.267 39.0174 46.6181 39.4051C48.0658 39.8144 47.7012 41.7637 47.1436 42.6899C45.0418 46.1794 45.5458 49.9703 45.6745 53.6644C46.0391 64.1757 56.5054 69.1622 64.7304 67.6113C73.2343 66.0066 79.1001 61.3433 82.1134 53.1044C82.403 52.3182 82.7247 51.5643 82.9392 50.7242C83.1965 49.7119 82.0813 47.5148 84.3654 48.0102C86.0383 48.3764 84.7944 49.9703 84.5906 50.9396C82.2743 62.0756 72.4836 70.1745 61.4704 70.1207V70.1422Z" fill="#FFF9C1"/>
<path d="M76.18 38.1654C75.3971 40.1901 77.1236 43.5934 73.499 44.0565C71.4187 44.3257 71.5581 42.2795 71.8369 40.8901C72.2444 38.8439 72.3302 36.3022 74.8931 35.7637C76.5446 35.4191 76.5231 36.8945 76.18 38.1546V38.1654Z" fill="#FFF9C1"/>
<path d="M61.8868 37.3144C60.8573 39.3607 61.8868 42.5378 58.6268 42.3439C57.1684 42.2578 56.9539 40.5238 57.4794 39.2207C58.1764 37.519 57.222 34.6435 60.0209 34.4281C61.9404 34.2773 61.7045 36.2482 61.8761 37.3144H61.8868Z" fill="#FFF9C1"/>
</svg>
