<svg width="115" height="81" viewBox="0 0 115 81" fill="none" xmlns="http://www.w3.org/2000/svg">
<path d="M33.6952 23.7288C47.2943 24.1775 57.331 30.373 64.7472 42.0098C66.931 45.4369 69.1061 48.8736 71.367 52.2338C73.7562 55.785 76.7535 58.2384 80.9926 57.5702C85.5399 56.8542 88.5715 53.8567 90.4212 49.2554C93.7611 40.9788 91.8086 33.3228 88.2717 25.829C86.7645 22.631 84.3324 20.0536 83.596 16.3114C82.3542 9.99185 85.3943 3.31905 90.8066 1.07569C96.7755 -1.39678 101.905 0.416998 105.528 6.26882C111.454 15.8437 114.939 26.4113 114.999 38.0673C115.076 53.4557 110.178 66.3909 98.3341 75.1161C90.524 80.8725 81.8061 82.3808 72.7457 79.746C64.8072 77.4263 59.0866 71.6413 54.5221 64.1857C51.7989 59.7276 49.5552 54.9354 46.4894 50.716C38.7392 40.0433 23.4786 41.6853 17.7324 53.8471C16.7989 55.8232 16.0196 57.847 15.4716 59.9758C14.5296 63.6606 10.9927 66.3909 7.45592 66.114C3.57656 65.8085 0.4508 62.6583 0.0739967 58.5439C-0.345626 53.9331 1.07595 49.7136 2.90859 45.771C9.50265 31.5854 20.0103 24.168 33.6952 23.7193V23.7288Z" fill="#FFF9C1"/>
<path d="M90.2059 17.6279C90.887 17.6279 91.4392 17.0125 91.4392 16.2534C91.4392 15.4943 90.887 14.8789 90.2059 14.8789C89.5248 14.8789 88.9727 15.4943 88.9727 16.2534C88.9727 17.0125 89.5248 17.6279 90.2059 17.6279Z" fill="black"/>
<path d="M98.5067 12.5029C99.1878 12.5029 99.74 11.8875 99.74 11.1284C99.74 10.3693 99.1878 9.75391 98.5067 9.75391C97.8256 9.75391 97.2734 10.3693 97.2734 11.1284C97.2734 11.8875 97.8256 12.5029 98.5067 12.5029Z" fill="black"/>
</svg>
