<svg width="152" height="141" viewBox="0 0 152 141" fill="none" xmlns="http://www.w3.org/2000/svg">
<path d="M125.672 44.1739C125.606 44.7838 125.753 45.5311 125.443 45.9659C120.646 52.6997 126.694 52.3985 130.388 53.7035C138.874 56.6961 145.755 64.6903 145.624 72.4923C145.426 83.8522 138.692 92.8548 127.679 95.872C125.125 96.5766 124.661 97.2689 124.825 100.064C125.795 117.253 112.036 125.776 97.5211 121.956C94.7462 121.231 91.9168 120.797 89.3771 119.275C86.505 117.556 85.8913 120.78 85.1468 121.956C81.2207 128.134 75.3307 130.646 68.5393 131.792C59.0958 133.392 47.2037 126.554 45.2645 117.213C44.8075 115.015 44.6741 113.515 41.0541 114.366C27.1024 117.635 13.2868 104.246 15.7103 91.951C16.1778 89.5451 16.8447 87.1951 18.1513 85.1549C19.4992 83.0505 19.573 81.7444 16.9203 80.7356C2.95722 75.4096 3.7117 55.3799 16.1928 47.586C18.766 45.9694 18.9664 45.2827 17.3329 42.5679C11.3042 32.5182 20.4316 16.2115 32.2176 15.3239C37.3512 14.9345 42.2224 15.4879 46.6219 18.2753C48.6297 19.5453 49.4399 19.2336 50.7665 17.1155C56.2552 8.43435 64.935 5.98577 74.4521 6.64516C82.9727 7.23031 89.1276 12.243 92.1876 19.9925C93.5394 23.4079 95.0722 22.8549 97.1937 22.1375C101.837 20.5863 106.523 19.1768 111.393 20.6786C123.33 24.3784 126.334 32.0189 125.672 44.1739ZM18.2653 33.482C18.1485 34.5549 17.8583 36.066 17.8414 37.5839C17.7929 42.0124 20.5656 44.1199 24.8605 43.5706C28.9349 43.0545 33.1234 43.1678 36.7562 45.4489C38.4013 46.4851 39.8709 48.085 39.3392 50.3468C38.8087 52.5973 37.1758 53.2308 34.9003 53.3715C30.8654 53.6292 27.403 52.5093 24.5088 49.8401C21.1688 46.7567 18.3019 46.9815 15.5007 50.4817C14.8407 51.3012 13.9284 51.9217 13.1428 52.6361C5.29756 59.895 7.86235 74.8126 17.6174 79.0517C19.8188 80.0114 21.1358 79.972 23.0831 78.0243C26.8476 74.2748 31.3517 71.28 37.0581 71.5015C39.1148 71.5884 41.5205 71.9304 42.1448 74.4781C42.6844 76.6509 41.4731 78.1302 39.6685 79.3964C35.42 82.3504 30.6407 82.6298 25.7481 82.5883C24.3106 82.5803 22.2908 81.5262 21.5561 83.2402C20.0258 86.8102 17.4571 90.0615 17.5735 94.2337C17.9482 108.193 30.7582 114.045 41.3236 111.996C43.2014 111.629 43.9985 111.018 43.8558 108.66C43.5761 104.31 45.4717 100.426 47.8203 96.7851C49.3431 94.4369 51.5146 93.6792 53.5856 95.2075C55.4871 96.6144 57.0097 98.9857 55.5162 101.588C53.5719 104.976 51.9591 108.674 48.3367 110.805C46.1174 112.106 45.9268 113.857 46.8065 116.261C49.772 124.354 55.4754 128.586 64.0136 129.219C72.6873 129.867 79.7639 127.255 84.6521 119.686C85.8464 117.839 85.3979 116.716 83.7725 115.499C79.9819 112.675 78.5323 108.586 78.1219 104.073C77.8949 101.546 79.1927 99.4818 81.2358 98.4359C83.329 97.3498 85.0584 98.5551 86.6937 100.31C88.9734 102.752 89.479 105.447 89.5581 108.598C89.7768 117.387 89.7826 117.753 98.2914 119.914C111.132 123.175 121.729 117.381 123.104 103.076C123.578 98.0993 122.326 96.8088 117.552 96.3004C115.589 96.0866 113.578 95.9018 111.713 95.3102C108.711 94.3662 108.017 91.8224 108.564 89.1052C109.131 86.3101 111.415 86.5131 113.666 86.7011C116.301 86.931 118.071 88.3921 119.792 90.2022C124.363 94.9739 125.417 95.043 131.609 92.3805C133.789 91.4409 135.394 89.8102 137.091 88.3724C142.99 83.3698 145.003 75.1558 142.574 67.7949C140.06 60.1734 133.978 57.1113 126.952 54.8492C123.159 53.6248 120.567 53.7311 118.134 57.4198C116.521 59.861 113.925 61.7951 110.887 62.7442C108.5 63.4898 106.688 62.7325 105.464 60.6566C104.145 58.4103 105.031 56.5642 106.851 55.0483C109.301 52.9954 112.347 52.5958 115.336 52.19C121.083 51.4103 123.664 48.6746 123.869 42.8119C123.915 41.4457 123.618 40.0764 123.665 38.7102C123.909 30.075 118.296 23.5444 109.711 22.7122C105.305 22.2895 100.939 22.8653 96.6851 24.0819C94.5296 24.6927 93.7709 25.6843 94.0283 28.352C94.4791 33.0177 93.7055 37.71 90.982 41.8586C89.3129 44.3965 86.9947 44.5096 84.5482 43.809C82.1569 43.1257 82.1213 41.0421 82.1997 38.9595C82.4249 33.3275 85.6001 29.4338 89.6786 26.0499C90.5569 25.3228 92.1576 24.8801 91.5165 23.3247C90.5291 20.966 89.6141 18.4666 88.0961 16.473C80.3416 6.33812 62.4084 6.54479 53.6409 15.6687C51.1561 18.2549 49.495 21.0337 53.5976 24.4515C55.974 26.4244 57.5428 29.9435 58.3676 33.0615C59.0054 35.485 59.9933 39.3064 56.3516 40.5667C53.0529 41.7159 50.9655 39.5002 49.9928 36.3775C48.7918 32.5214 46.9018 28.8074 47.8342 24.5438C48.2228 22.7577 47.7751 21.4177 46.0059 20.368C35.2639 13.9759 19.5055 16.8534 18.2916 33.4506L18.2653 33.482ZM87.9068 112.441C88.591 108.779 87.5273 105.863 86.4375 103.082C85.742 101.292 84.2848 99.5793 81.864 100.424C79.5022 101.252 79.5552 103.281 79.7412 105.347C80.0311 108.555 82.0172 110.862 83.8605 113.223C84.5818 114.147 85.3164 115.473 86.7216 115.043C88.1619 114.606 87.7062 113.025 87.9068 112.441ZM92.0082 32.6457C92.1164 31.6519 92.4322 30.4293 92.3345 29.2302C92.206 27.685 91.0148 26.7782 89.9399 28.1581C87.7476 30.9933 84.8564 33.4324 84.0797 37.2102C83.7682 38.7075 83.2039 40.3258 85.0491 41.201C87.0237 42.1474 88.7866 41.3681 89.792 39.6835C91.0322 37.6245 92.1518 35.4153 92.0094 32.6344L92.0082 32.6457ZM27.0398 80.5807C31.1916 81.1357 34.8481 79.7398 38.4326 78.0619C39.5507 77.5437 40.6066 76.6532 40.4584 75.2886C40.2806 73.5666 38.4112 73.123 37.3686 73.158C33.0063 73.2772 29.2206 75.2303 26.0019 78.0565C24.816 79.0929 24.9043 80.5881 27.0398 80.5807ZM56.7605 36.4975C56.1662 32.7303 55.1886 29.0243 51.9648 26.342C51.096 25.6189 50.1635 24.9574 49.5842 26.6084C48.9562 28.3912 51.9347 36.6804 53.464 38.0468C55.7001 40.0501 56.1855 38.4232 56.7718 36.4987L56.7605 36.4975ZM46.3442 110.234C49.6211 107.083 52.4708 104.605 53.3839 100.728C53.7305 99.2228 53.9677 97.5688 52.1565 96.8002C50.3126 96.0166 49.0797 97.3793 48.5147 98.689C47.0605 102.085 45.5199 105.539 46.3442 110.234ZM30.6731 45.4378C28.3208 45.4444 24.8856 44.8075 24.2372 46.988C23.7319 48.6928 27.3459 49.1549 29.2175 49.9987C30.1858 50.4355 31.1518 50.895 32.1587 51.1875C34.051 51.7364 36.2838 51.5682 37.0234 49.8089C37.9787 47.5361 35.0904 47.7472 34.0256 46.7285C33.1265 45.865 31.9602 45.4637 30.6743 45.4265L30.6731 45.4378ZM116.553 54.1166C113.358 54.42 110.744 55.5751 108.234 56.9244C107.409 57.3716 107.411 58.5032 107.611 59.3934C107.919 60.7526 109.078 60.8101 110.115 60.6146C113.064 60.0558 114.982 57.8536 116.995 55.9246C117.658 55.2883 117.706 54.2193 116.553 54.1166ZM116.367 94.5029C117.268 94.0869 119.13 95.4437 119.708 93.8041C120.318 92.0765 118.613 91.2737 117.186 90.6497C116.642 90.4076 116.159 89.8066 115.626 89.7714C113.934 89.69 111.849 86.7204 110.649 89.7778C109.558 92.5615 112.529 93.0565 114.259 94.0448C114.754 94.3272 115.429 94.3094 116.367 94.5029Z" fill="#FFF9C1"/>
<path d="M84.864 73.4163C82.8986 79.3043 78.0205 82.6926 73.0254 82.2286C67.6017 81.7179 62.4242 77.2688 61.2624 71.1658C68.4408 80.8265 76.0599 84.2389 84.8628 73.4276L84.864 73.4163Z" fill="#FFF9C1"/>
<path d="M90.0401 62.4602C89.7957 64.2848 88.2599 65.1803 86.3035 65.1158C84.0061 65.037 83.3285 63.3977 83.4859 61.3236C83.6638 58.8519 85.5993 58.4799 87.3953 58.5498C89.3843 58.6293 90.1193 60.1606 90.0401 62.4602Z" fill="#FFF9C1"/>
<path d="M61.648 61.6547C60.4062 61.1081 58.7033 60.6027 58.9156 58.4432C59.1587 56.0014 61.2558 55.6127 62.9279 55.772C64.5775 55.9288 65.964 57.3482 65.6722 59.2933C65.3756 61.2836 63.8768 61.9431 61.648 61.6547Z" fill="#FFF9C1"/>
</svg>
