<svg width="28" height="32" viewBox="0 0 28 32" fill="none" xmlns="http://www.w3.org/2000/svg">
<path d="M17.1111 0H10.8889C4.9 0 0 5.0379 0 11.1953V15.9933C0 20.3115 2.45 24.2699 6.22222 26.1091V31.4669C6.22222 31.9467 6.80556 32.1866 7.11667 31.8267L11.6278 27.1887H17.1111C23.1 27.1887 28 22.1508 28 15.9933V11.1953C28 5.0379 23.1 0 17.1111 0ZM21.1944 20.9913L19.6 22.5906C17.9278 24.2699 13.6111 22.3507 9.8 18.3524C5.98889 14.354 4.31667 9.87589 5.91111 8.19658L7.46667 6.59725C8.05 5.9975 9.02222 6.03748 9.68333 6.63723L11.9389 9.03623C12.7556 9.87589 12.4056 11.3153 11.3556 11.6352C10.6167 11.8751 10.1111 12.7147 10.3444 13.4744C10.7333 15.2337 12.9111 17.4727 14.5444 17.9125C15.2833 18.0725 16.1 17.6726 16.3722 16.913C16.7222 15.8334 18.1222 15.5135 18.9 16.3532L21.1556 18.7522C21.7778 19.312 21.7778 20.3115 21.1944 20.9913ZM15.4 7.59683C15.2444 7.59683 15.0889 7.59684 14.9333 7.63682C14.6611 7.6768 14.3889 7.4369 14.35 7.15702C14.3111 6.87713 14.5444 6.59725 14.8167 6.55727C15.0111 6.51728 15.2056 6.51728 15.4 6.51728C18.2389 6.51728 20.5722 8.91628 20.5722 11.8351C20.5722 12.035 20.5722 12.2349 20.5333 12.4348C20.4944 12.7147 20.2222 12.9546 19.95 12.9146C19.6778 12.8746 19.4444 12.5948 19.4833 12.3149C19.4833 12.1549 19.5222 11.995 19.5222 11.8351C19.5611 9.51603 17.6944 7.59683 15.4 7.59683ZM18.5111 11.8751C18.5111 12.1549 18.2778 12.3948 18.0056 12.3948C17.7333 12.3948 17.5 12.1549 17.5 11.8751C17.5 10.7155 16.5667 9.75594 15.4389 9.75594C15.1667 9.75594 14.9333 9.51603 14.9333 9.23615C14.9333 8.95627 15.1667 8.71637 15.4389 8.71637C17.1111 8.67638 18.5111 10.1158 18.5111 11.8751ZM22.4778 13.5943C22.4 13.8742 22.1278 14.0741 21.8167 13.9942C21.5444 13.9142 21.3889 13.6343 21.4667 13.3544C21.5833 12.8746 21.6222 12.3948 21.6222 11.8751C21.6222 8.35652 18.8222 5.47772 15.4 5.47772C15.2444 5.47772 15.0889 5.47772 14.9333 5.47772C14.6611 5.47772 14.3889 5.2778 14.3889 4.99792C14.3889 4.71803 14.5833 4.43815 14.8556 4.43815C15.05 4.43815 15.2444 4.39817 15.4 4.39817C19.4056 4.39817 22.6722 7.75677 22.6722 11.8751C22.6722 12.4348 22.5944 13.0346 22.4778 13.5943Z" fill="#FF91B2"/>
</svg>
