<svg width="32" height="32" viewBox="0 0 32 32" fill="none" xmlns="http://www.w3.org/2000/svg">
<path d="M24 0H8C3.60039 0 0 3.59883 0 8V24C0 28.3996 3.60039 32 8 32H24C28.3996 32 32 28.3996 32 24V8C32 3.59883 28.3996 0 24 0ZM16 22.6664C12.3176 22.6664 9.3332 19.6808 9.3332 16C9.3332 12.3176 12.3176 9.3332 16 9.3332C19.6808 9.3332 22.6668 12.3176 22.6668 16C22.6668 19.6808 19.6808 22.6664 16 22.6664ZM24.6668 9.3332C23.5612 9.3332 22.6668 8.43758 22.6668 7.3332C22.6668 6.22883 23.5612 5.3332 24.6668 5.3332C25.7724 5.3332 26.6668 6.22883 26.6668 7.3332C26.6668 8.43758 25.7724 9.3332 24.6668 9.3332Z" fill="#FF91B2"/>
</svg>
