<svg width="54" height="58" viewBox="0 0 54 58" fill="none" xmlns="http://www.w3.org/2000/svg">
<path d="M18.3078 35.0328C18.3016 35.1009 18.2939 35.1682 18.2847 35.2347M18.2847 35.2347C17.9153 37.9195 15.2213 39.3243 14.2401 41.7158C13.8044 42.7778 12.7405 43.045 12.1508 43.9558C11.6226 44.7716 10.8417 45.4209 10.1539 46.1039C8.18284 48.0612 6.56997 50.5143 4.8474 52.7135C4.00805 53.7852 2.69229 54.797 2 56M18.2847 35.2347C18.2952 35.2772 18.303 35.3201 18.3078 35.3633M18.2847 35.2347C18.2297 35.0123 18.1001 34.7999 17.9294 34.5988M13.0013 24.6226C13.2581 25.7698 13.4815 27.0361 13.8024 28.2415M23.7426 29.245C23.9532 30.5059 26.6361 31.7382 27.6975 32.0877C30.0081 32.8483 31.9755 33.2453 34.4729 32.8339C36.9863 32.42 39.3494 32.2394 41.5733 31.0118C42.6565 30.4138 43.5768 29.4521 44.5413 28.7567M13.8024 28.2415C13.099 26.3523 12.7148 24.3095 12.7148 22.1776V19.4872C12.7148 9.8293 20.5994 2 30.3254 2H34.3894C44.1155 2 52 9.8293 52 19.4872V22.1776C52 31.8355 44.1155 39.6648 34.3894 39.6648H30.3254C25.4911 39.6648 21.1117 37.7305 17.9294 34.5988M13.8024 28.2415C14.6424 30.4976 15.9376 32.5345 17.5774 34.2424M13.8024 28.2415C14.0566 29.1963 14.3719 30.1128 14.8133 30.9018C15.3651 31.888 15.5145 32.6155 16.4774 33.3804C16.7885 33.6275 17.2142 33.9168 17.5774 34.2424M17.5774 34.2424C17.705 34.3568 17.8249 34.4757 17.9294 34.5988M17.5774 34.2424C17.693 34.3629 17.8104 34.4817 17.9294 34.5988" stroke="#FF91B2" stroke-width="3" stroke-linecap="round"/>
</svg>
