<svg width="43" height="54" viewBox="0 0 43 54" fill="none" xmlns="http://www.w3.org/2000/svg">
<path d="M42.7354 11.8321C41.2833 1.25185 31.18 1.21114 22.3725 0.416019C14.8536 -0.262585 2.16288 -1.38423 0.897761 8.81392C0.289348 13.7172 1.13164 18.6024 1.04544 23.5186C0.892707 32.2085 0.823359 40.8344 0.00353131 49.4942C-0.0663786 50.2315 0.920784 50.3651 1.27511 49.8497C6.17863 55.0732 33.3225 53.9547 38.3448 53.7817C38.5941 53.9058 38.8465 53.8817 39.0621 53.7618C39.0664 53.7618 39.0759 53.7615 39.0795 53.7615C40.583 53.7632 40.583 51.4295 39.0795 51.4304C38.8732 51.4304 38.6671 51.4239 38.4605 51.4239C37.9579 50.7436 37.6103 49.9698 37.4405 49.104C37.108 47.407 38.436 47.0156 39.745 46.6498C40.2554 46.7874 40.8032 46.5922 40.9048 45.9072C41.9327 38.9881 41.838 32.0428 42.1503 25.0701C42.3454 20.7045 43.3348 16.1985 42.7354 11.8321ZM36.0044 51.3972C29.0251 51.3582 22.0603 51.2032 15.0808 50.98C11.0572 50.8511 -2.7676 50.6903 6.00849 44.0272C14.7169 37.4158 26.3281 45.5602 36.0555 46.1315C35.5936 46.743 35.296 47.4955 35.2154 48.3248C35.1107 49.4002 35.4397 50.4609 36.0044 51.3972ZM38.9639 44.0393C32.6739 41.3788 24.043 40.6505 17.5262 39.9839C12.0536 39.4244 6.31283 40.1347 2.67471 44.1047C3.86065 36.8509 3.3564 29.2192 3.48106 21.9545C3.53834 18.6168 3.06272 15.2743 3.03774 11.9335C3.0164 9.07138 3.77951 7.07796 5.05081 5.6851C3.60347 17.4053 4.07459 29.6476 5.00364 41.3526C5.03873 41.794 5.69095 41.8058 5.69909 41.3526C5.91219 29.1299 5.87906 16.9294 6.17554 4.70832C9.04353 2.65931 13.4622 2.49675 17.6731 2.53718C22.7835 2.58604 27.9147 3.31349 32.9485 4.11816C39.1141 5.10364 40.4738 9.92461 40.5221 15.2703C40.6072 24.6369 40.1422 34.7123 38.9639 44.0393Z" fill="#ACE2FF"/>
<path d="M16.8067 20.8491C15.8928 18.8153 14.6606 16.3945 12.49 15.4995C10.302 14.5974 9.03491 17.1984 8.83894 18.8939C8.57923 21.1411 8.75471 23.9353 9.61103 26.0592C9.9238 26.835 11.279 26.8288 11.1976 25.8445C11.1718 25.5314 11.0836 24.4398 11.0334 23.1581C11.5183 23.0924 12.3544 23.2013 12.9238 23.2449C13.647 23.2996 14.6103 23.5543 15.31 23.3266C15.3302 23.3201 15.3431 23.3075 15.3625 23.2996C15.4228 23.4554 15.4981 23.6045 15.5562 23.7615C15.6615 24.0459 15.7238 24.4187 15.8903 24.674C16.086 24.9738 16.0526 25.0931 16.0565 24.8214C16.0829 24.996 16.1601 25.1748 16.319 25.343C16.3246 25.3489 16.3303 25.3548 16.3359 25.3607C16.6764 25.7215 17.3326 25.7336 17.6712 25.3607C18.7139 24.2118 17.298 21.943 16.8067 20.8491ZM12.7289 21.3188C12.1668 21.3225 11.5657 21.3163 10.9994 21.4219C11.0045 19.3153 11.2139 17.3561 12.0281 17.802C13.1652 18.425 13.9132 20.0456 14.4851 21.2635C13.8918 21.2427 13.248 21.3155 12.7289 21.3188Z" fill="#ACE2FF"/>
<path d="M32.9587 19.8775C32.5078 19.5425 32.0139 19.3569 31.5001 19.2778C31.5681 18.9886 31.6169 18.6868 31.634 18.3661C31.7334 16.4505 30.4077 14.4888 28.5515 13.9989C26.9801 13.5842 25.6327 14.4335 24.8497 15.67C24.4998 15.766 24.2031 16.0493 24.1787 16.5395C24.1624 16.8685 24.1716 17.2046 24.1657 17.5373C23.8788 19.3597 24.1831 21.2608 24.5773 23.1043C24.7132 23.8823 24.8769 24.6518 25.0793 25.4018C25.3441 26.3833 26.3461 26.4911 26.9824 26.0514C27.7081 27.565 29.6617 28.3018 31.248 27.7821C32.8377 27.261 33.8425 25.6516 34.2112 24.0985C34.5711 22.5812 34.2631 20.8469 32.9587 19.8775ZM27.4796 16.4943C28.3544 16.1332 28.8972 17.1406 29.0914 17.8276C29.3349 18.6868 28.9979 19.3277 28.4291 19.7702C27.8569 19.9931 27.3097 20.254 26.8237 20.5083C26.7297 20.5578 26.6707 20.6257 26.5994 20.6875C26.3077 18.819 26.3181 16.9738 27.4796 16.4943ZM31.7455 23.6355C31.5992 24.2445 31.2014 25.0938 30.5789 25.3546C29.7091 25.7193 28.8859 24.7293 28.1158 24.4511C27.8842 24.3674 27.6503 24.4003 27.442 24.4957C27.3386 24.0468 27.1736 23.4196 27.0043 22.7014C27.2334 22.8036 27.4933 22.8505 27.7808 22.7763C28.4098 22.6143 28.9746 22.367 29.4761 22.0545C30.8482 21.6028 32.2323 21.6095 31.7455 23.6355Z" fill="#ACE2FF"/>
<path d="M24.2266 31.1522C23.6252 31.7514 23.2324 32.2657 22.5684 32.6439C22.3516 32.7675 22.3269 32.7846 21.919 32.8803C21.8794 32.8896 21.878 32.8924 21.8712 32.896C21.8491 32.8958 21.826 32.8955 21.7536 32.8997C21.6228 32.9073 21.4914 32.8989 21.3608 32.8879C21.7943 32.9238 20.7224 32.6504 21.1005 32.8155C20.9854 32.7649 20.8762 32.7029 20.7681 32.6394C20.7398 32.6226 20.6513 32.5594 20.5929 32.5184C20.4351 32.3873 20.2917 32.2405 20.1572 32.0855C20.1137 32.0293 20.0423 31.9386 20.0233 31.9097C19.9525 31.8042 19.8905 31.6933 19.8298 31.5818C19.8121 31.5498 19.7593 31.4319 19.7304 31.3704C19.6984 31.2831 19.6667 31.1955 19.6394 31.107C19.6035 30.9899 19.5774 30.8698 19.553 30.7502C19.5485 30.728 19.5488 30.7367 19.5462 30.7269C19.5454 30.7044 19.5462 30.6988 19.5423 30.6452C19.5336 30.5287 19.5361 30.4116 19.5409 30.2948C19.5423 30.2569 19.5426 30.2333 19.5429 30.212C19.5431 30.2103 19.5434 30.2106 19.5434 30.2086C19.5631 30.0982 19.5957 29.9913 19.6302 29.8849C19.6319 29.8795 19.6299 29.8837 19.6313 29.8792C19.6428 29.8618 19.6482 29.8565 19.6748 29.8082C19.7032 29.7566 19.7068 29.7456 19.715 29.7276C19.7197 29.7217 19.7164 29.7276 19.7231 29.7192C19.7964 29.6285 19.8781 29.5474 19.9637 29.4685C19.9752 29.4578 19.9705 29.4604 19.9764 29.4542C19.9924 29.448 20.0247 29.4303 20.0932 29.3893C20.1471 29.3582 20.2024 29.3292 20.2585 29.3017C20.2672 29.2984 20.2639 29.2998 20.2743 29.2958C20.9475 29.0423 21.6337 29.0723 22.4095 29.1116C23.5064 29.1675 23.64 27.5747 22.6593 27.2639C20.9164 26.7114 18.7601 26.7925 17.6025 28.4036C16.6813 29.6852 16.9144 31.3583 17.529 32.7071C18.134 34.0348 19.4614 35.184 20.9211 35.4145C23.0347 35.7478 25.1225 34.461 26.2183 32.688C26.9848 31.4476 25.2401 30.1429 24.2266 31.1522Z" fill="#ACE2FF"/>
</svg>
