<svg width="54" height="54" viewBox="0 0 54 54" fill="none" xmlns="http://www.w3.org/2000/svg">
<path d="M53.6673 28.3151C52.7838 23.5423 48.906 19.5682 44.3096 18.2515C52.8903 14.2987 50.5921 0.139712 39.7288 0C29.0132 0.379623 26.7235 13.8682 34.9051 18.0469C31.3654 19.1321 28.2859 21.9518 27.0047 25.3896C25.7391 21.925 22.6455 19.0672 19.0845 18.0243C27.1993 13.9106 24.9252 0.328819 14.2097 0.237088C3.36766 0.420549 1.2058 14.2535 9.68565 18.1711C3.77958 19.8801 -0.490175 25.9569 0.0453204 32.2736C0.0936144 38.9727 0.232815 45.9414 0.931657 52.6335C1.00978 53.9784 2.22565 54.279 2.35207 52.6377C2.92591 45.161 2.80802 37.3724 2.94012 29.8815C3.44721 24.3636 7.90019 19.9027 13.4909 19.0954C13.8858 19.0446 14.1585 18.8951 14.3233 18.7158C14.3901 18.9134 14.5122 19.0757 14.6954 19.1124C19.8828 20.2668 23.7832 23.5789 25.7917 28.3588C17.7323 29.5358 16.1627 40.1892 22.7662 43.5282C18.9098 44.8618 16.4908 49.5076 17.7238 53.3335C17.9411 53.9939 19.0703 53.8034 19.1442 53.3335C19.7251 48.7117 22.6696 45.7989 27.0317 44.3538C31.2773 45.7227 34.567 48.9685 34.8241 53.4746C34.8937 54.3242 36.1309 53.984 36.2417 53.5649C37.8013 49.6163 35.0783 44.9973 31.2375 43.531C38.2501 39.9112 35.6337 29.2535 28.2192 28.3108C30.2802 23.5225 34.3142 20.2456 39.5086 19.0771C39.6506 19.0446 39.7558 18.9473 39.8282 18.8188C39.9873 18.9882 40.2515 19.1307 40.6549 19.19C47.2768 20.223 51.1318 24.8279 51.1318 32.3653C51.156 39.0292 51.2639 45.964 51.8846 52.6278C51.9514 53.9685 53.1715 54.2367 53.3051 52.6462C53.7141 44.6558 54.4215 36.2956 53.6673 28.3151ZM14.3432 18.0173C14.177 17.8394 13.873 17.7011 13.3816 17.687C9.39447 17.2016 6.47268 13.1047 6.95136 9.46799C7.34481 3.74825 14.9525 1.02456 19.1044 4.84195C23.6043 8.59584 21.4182 16.256 15.6741 17.6151C15.238 17.6927 14.5605 17.5262 14.3432 18.0173ZM30.8768 32.5332C34.4874 35.5872 32.9534 41.7303 28.2661 42.9722C27.857 43.0314 27.2831 42.8974 26.9905 43.2417C23.5063 42.7986 20.6029 39.691 21.1058 36.3295C21.5163 31.7599 27.5047 29.3481 30.8768 32.5332ZM39.8822 18.0427C39.6052 17.3921 38.6507 17.6588 38.0754 17.5671C34.4917 16.4903 31.9946 12.8832 32.4463 9.4313C32.8867 3.72426 40.429 0.635057 44.6377 4.67684C49.2001 8.5521 47.0382 16.4381 41.0498 17.7322C40.6577 17.8155 40.091 17.8056 39.8822 18.0427Z" fill="#FF91B2"/>
</svg>
