<svg width="57" height="55" viewBox="0 0 57 55" fill="none" xmlns="http://www.w3.org/2000/svg">
<path fill-rule="evenodd" clip-rule="evenodd" d="M46.9202 36.1308C46.0766 38.7556 44.0215 41.6984 41.8751 43.4243C41.6958 43.567 41.5221 43.7263 41.3428 43.8727C39.8442 45.0497 38.2499 46.0936 36.7211 47.2253L35.1478 48.3338L28.9204 52.7194L19.2637 45.9992C18.311 45.3392 17.353 44.6831 16.4327 43.9939C16.037 43.6977 15.0414 42.829 14.703 42.4787C14.433 42.1992 13.3877 41.068 13.2508 40.8486C13.056 40.5363 12.7516 40.1598 12.5184 39.8127C11.6741 38.5559 11.0571 37.2807 10.5749 35.8453C15.8095 37.5738 21.2698 38.1343 26.7575 38.2803C27.0344 38.2875 27.3114 38.2781 27.5869 38.2803C28.5716 38.2884 29.7276 38.3037 30.7049 38.2545C31.0966 38.2358 31.4855 38.2114 31.8794 38.2129L35.2442 37.9388L36.2415 37.8412C39.1907 37.5417 42.4752 36.9893 45.3451 36.1596L47.0906 35.6078L46.9202 36.1308ZM13.664 34.5819C13.6467 34.6249 13.6553 34.6687 13.6611 34.7132C16.8203 35.5174 19.7795 35.9267 23.0166 36.1954C23.0166 36.1881 22.9617 36.044 22.9635 35.902C22.964 35.8651 22.9524 35.5398 22.9161 35.4938C22.8442 35.4027 22.9086 35.3202 22.8509 35.2462C22.848 35.2426 22.8459 35.2369 22.8466 35.2325C22.8653 35.1408 22.8057 35.0532 22.7742 34.9649C22.7535 34.9118 22.7685 34.8587 22.7642 34.8056L22.7161 34.4526L22.6996 33.413L22.6802 31.689C22.6781 31.5778 22.663 31.4666 22.6594 31.3547L22.6609 30.1429C22.6449 29.1768 22.5564 28.3118 22.7527 27.2925C22.6126 27.2196 22.6986 27.2222 22.663 27.1949C22.5815 27.1325 22.4832 26.8959 22.4808 26.8119L22.2276 26.3319L21.9364 25.9444C21.9058 25.8585 21.7009 25.7655 21.506 25.5154C21.1582 25.0696 20.9636 24.9583 20.4685 24.704C20.4405 24.6887 20.4085 24.7348 20.4096 24.6386C20.4101 24.5975 20.2968 24.564 20.1778 24.4679C20.0576 24.5692 19.853 24.6684 19.7057 24.7348C19.15 24.9855 19.4749 24.8552 19.0391 24.9744C18.5986 25.095 18.3312 25.0878 17.8662 25.0691C17.2509 25.0446 16.6362 24.8227 16.0999 24.531C16.0704 24.5476 16.0431 24.5712 16.0173 24.5949C15.88 24.7273 15.5997 24.841 15.5876 24.9048C15.5696 24.9989 15.4751 24.9875 15.4685 25.0562C15.4685 25.0605 15.4663 25.0641 15.4627 25.0649C15.3912 25.083 15.3698 25.1822 15.3451 25.2327C15.3265 25.27 15.2878 25.2815 15.2605 25.3065L14.9455 25.6817C14.6305 26.0311 14.6159 26.0481 14.3974 26.4407C14.0957 26.9829 14.0353 27.5947 14.0323 28.212L14.0674 29.4108L13.9576 31.0559L13.8485 33.5448C13.8427 33.6226 13.8973 33.6815 13.8076 33.7485C13.7564 33.7871 13.7613 34.3446 13.664 34.5819ZM24.4708 27.3515C24.4535 27.5194 24.3935 28.0749 24.4241 28.2297C24.491 28.6855 24.4921 29.2759 24.508 29.7751C24.5101 29.8303 24.5274 29.8857 24.5266 29.9415C24.5238 30.3938 24.5494 30.5684 24.5855 31.0076L24.6465 32.7998L24.6013 33.9908L24.5719 34.3115C24.5719 34.641 24.535 35.6832 24.3631 35.9372C24.2858 36.0513 24.2687 36.1706 24.2282 36.2873L25.8375 36.3791C26.5112 36.4422 27.1819 36.4099 27.8543 36.4308C28.2582 36.4451 28.6657 36.4387 29.0703 36.433C30.6594 36.4104 32.3045 36.3358 33.8965 36.2457L33.6562 35.5082C33.5413 35.1242 33.563 34.3195 33.5329 34.2017C33.4944 34.0518 33.5538 34.0767 33.5336 34.0281L33.4611 32.9211C33.3944 32.0461 33.4808 31.1154 33.3614 30.2522L33.3356 29.3109C33.3328 29.2549 33.3162 29.1997 33.317 29.1437C33.3199 28.7039 33.2938 28.5072 33.2581 28.0775C33.2127 27.5309 33.1722 27.3417 32.9905 26.8436L32.6125 26.0738C32.5622 25.9856 32.4487 25.8758 32.3793 25.7402L31.5715 24.9524C31.3474 24.7361 31.4532 24.7803 31.3469 24.674C31.2335 24.5606 31.2123 24.5745 31.0262 24.3662C30.7736 24.5303 30.6936 24.5994 30.3942 24.735C29.8358 24.9878 30.1583 24.8559 29.727 24.9747C28.6859 25.2613 27.3234 24.9684 26.4763 24.3275C26.2504 24.5313 26.0893 24.7386 25.9016 24.9208C25.7569 25.0614 25.2965 25.4727 25.2279 25.606C25.1589 25.7399 25.1436 25.6712 25.1332 25.7185C25.1146 25.8003 25.0428 25.8405 25.0099 25.9108C24.9805 25.9725 24.9431 26.0291 24.9081 26.0873C24.6936 26.4194 24.5596 26.9727 24.4708 27.3515ZM35.1972 26.969C35.072 27.2237 35.0993 27.2222 35.1463 27.4677C35.1877 27.6842 35.207 28.8428 35.1828 28.9435L35.218 30.2994L35.1082 32.1598L35.0128 34.8653C35.0114 34.9011 35.0013 34.9391 34.9991 34.9765C34.9941 35.0646 35.0472 35.131 34.9583 35.2067C34.9164 35.2424 34.9025 35.7188 34.8758 35.851L34.8062 36.1868C37.9168 35.9671 41.1672 35.5445 44.1982 34.7935C44.2039 34.7346 44.1874 34.6737 44.1674 34.6142C44.0778 34.3596 44.1237 34.0554 44.0662 33.9914C43.9948 33.9119 44.0602 33.843 44.0016 33.7719C43.9987 33.7683 43.9958 33.764 43.9973 33.7604C44.0152 33.6772 43.9564 33.6003 43.9234 33.5207C43.904 33.4748 43.9192 33.4268 43.9142 33.3801L43.8668 33.0651L43.8497 32.1403L43.831 30.6072C43.8281 30.5075 43.8139 30.4085 43.8102 30.3088L43.8117 29.2305L43.7759 28.0231C43.7856 27.3649 43.7833 27.3859 43.6439 26.7439C43.6289 26.6793 43.5995 26.6205 43.5779 26.558C43.4739 26.2362 43.2043 25.8761 42.9918 25.619C42.8396 25.4349 42.6597 25.2881 42.481 25.1332C42.4295 25.0887 42.3629 25.1103 42.3619 25.007C42.3613 24.9425 41.8511 24.6203 41.7936 24.5708C41.7418 24.5157 41.6035 24.52 41.5339 24.5149C41.4846 24.5112 41.5065 24.4578 41.4894 24.436C41.4737 24.4446 41.4579 24.4546 41.4429 24.4662C41.3067 24.5774 41.1334 24.6613 40.97 24.7351C40.4175 24.9852 40.7317 24.8567 40.3028 24.9748C39.8649 25.0953 39.5924 25.0879 39.1306 25.0695C38.5592 25.0467 37.9616 24.8461 37.4589 24.5831C37.442 24.6068 37.4557 24.6396 37.4252 24.6505C37.3709 24.67 37.4006 24.6936 37.3908 24.6928C37.3564 24.6878 37.3485 24.7523 37.3335 24.7932L37.2696 24.8291C37.2195 24.9155 37.0047 25.0439 36.9166 25.0551L36.4775 25.3614L36.1317 25.6921C36.0778 25.7014 36.0851 25.7675 36.0463 25.7889C36.0226 25.8026 36.0097 25.8262 35.9989 25.8499C35.8892 26.0698 35.8165 26.1002 35.6459 26.266C35.3887 26.5408 35.3842 26.6068 35.1972 26.969ZM56.5943 27.4842C56.5325 25.5991 55.2527 24.2312 53.8214 23.1982C53.482 22.9507 53.1226 22.7284 52.7631 22.5562C52.4736 22.4168 52.8609 22.6991 52.8916 22.7694C52.698 22.7772 52.6266 22.6854 52.7925 22.8605C52.6517 22.7781 52.2774 22.5611 52.1404 22.5327C52.2655 22.6972 52.8377 23.2061 53.0128 23.3491C53.487 23.7366 53.8826 24.0224 54.2733 24.4948C54.4873 24.7535 54.3445 24.6978 54.5538 24.936C54.8375 25.2587 55.2111 25.7897 55.3293 26.2202C55.6055 27.2259 55.4994 27.9265 55.0904 28.8353C54.99 29.0584 54.5533 29.7077 54.3794 29.8339C54.0642 30.0627 53.9152 30.3025 53.6383 30.545C52.4887 31.5509 51.0098 32.4013 49.5963 32.9958C49.7559 31.8272 49.7951 30.8638 49.7979 29.6904L49.7936 22.6789C49.7865 21.6157 49.78 20.5532 49.7728 19.4899L49.7686 11.8987C49.7671 11.5141 49.5304 11.1526 49.1466 11.0119C43.9853 9.11815 39.1877 7.2593 34.5094 4.36635C33.0456 3.46122 31.7287 2.56711 30.3568 1.5102L29.4866 0.796294C29.1629 0.529564 28.7067 0.522927 28.3573 0.796294C27.43 1.52198 26.6611 2.33394 25.6368 3.01604L25.0571 3.4651C24.887 3.57843 24.7149 3.69251 24.5448 3.80659C24.0235 4.15221 23.6541 4.44436 23.1235 4.78447C21.5751 5.77701 17.8765 7.73954 16.1263 8.47862C15.4956 8.74761 14.8736 9.01672 14.2444 9.27857C13.7416 9.4902 13.2651 9.77108 12.7055 10.0225C12.2695 10.2185 11.1275 10.6633 10.8143 10.854C10.4882 11.0525 9.85411 11.261 9.75605 11.3326C9.55081 11.4804 9.20506 11.6339 8.87509 11.7975C9.31814 11.6502 9.40555 11.6244 9.84221 11.555C10.1326 11.5088 10.6167 11.3667 10.8574 11.3815C11.0099 11.3907 12.8574 10.8198 13.1847 10.7121C14.8924 10.15 16.4405 9.60365 18.1021 8.9099C18.9773 8.53898 19.8468 8.1444 20.6935 7.77924C20.9488 7.6738 21.2087 7.54895 21.4661 7.41984C24.1875 6.05927 26.5639 4.54492 28.9103 2.65239C30.351 3.86069 31.8485 4.89981 33.4258 5.9254C35.6388 7.33068 38.1781 8.64192 40.5671 9.70634C42.9632 10.7739 45.3571 11.6984 47.8176 12.6034L47.8943 28.8105C47.9102 30.7013 47.9408 31.8735 47.5586 33.7924L45.4751 34.4481L45.5555 34.309C45.6885 33.9163 45.7227 33.3543 45.7227 32.9408L45.7521 32.656L45.7973 31.5956L45.7356 30.0007L45.6767 29.0515C45.6781 29.0027 45.6609 28.9525 45.6588 28.903L45.643 28.3449C45.6105 28.136 45.6497 28.1921 45.633 28.0658C45.6238 27.9961 45.6007 27.8986 45.5922 27.8103C45.5757 27.6876 45.5886 27.5621 45.5434 27.4436L45.4737 27.0182C45.326 26.4158 45.1683 25.9413 44.8152 25.4162C44.7072 25.2558 44.2024 24.6252 44.0554 24.5553C44.0052 24.5315 44.0668 24.5131 43.9313 24.4255C43.356 24.0247 43.1716 23.7499 42.3659 23.6807C43.1617 22.7511 43.3891 21.6069 43.1306 20.4344C42.8236 19.3275 42.1645 18.397 40.9719 18.1658C40.6478 18.1029 39.9394 18.0587 39.631 18.226C39.5462 18.272 39.6824 18.2937 39.6812 18.3301C39.6791 18.3936 39.5992 18.4034 39.6669 18.4607C39.6029 18.4815 39.5244 18.4923 39.4968 18.5369C39.5811 18.6691 39.7913 18.7909 39.9503 18.765C39.9629 18.763 40.1405 18.806 40.149 18.8691C40.1637 18.9766 40.4183 18.904 40.5257 19.0191C40.596 19.0942 41.1796 19.5484 41.1628 19.6634C41.1464 19.775 41.2183 19.7765 41.2675 19.8528C41.6554 20.4539 41.7505 21.0124 41.5825 21.7132C41.4862 22.1149 41.0979 22.6211 40.7331 22.8302C40.3763 23.0347 39.7849 23.2659 39.3433 23.2269C39.2111 23.2153 39.0896 23.2312 39.0011 23.1775C38.873 23.0996 38.7127 23.1758 38.1215 22.7019C37.707 22.3695 37.4578 21.8503 37.4314 21.3286C37.4299 21.2777 37.4085 21.2253 37.4164 21.1744C37.4638 20.8885 37.4239 20.9135 37.5118 20.5911L37.7019 20.0214C37.7213 19.9777 37.7671 19.9525 37.7773 19.9031C37.7945 19.8184 37.8052 19.7222 37.8756 19.6713C37.8978 19.6565 37.8432 19.6496 37.9473 19.5557C38.0698 19.4451 37.8733 19.5226 38.1862 19.2594C38.2664 19.192 38.3776 19.1497 38.5135 19.0118C38.6525 18.8708 38.8915 18.885 38.9446 18.7923C39.0544 18.6011 39.2083 18.6616 39.2638 18.5506C39.3073 18.4636 39.3726 18.5108 39.3865 18.4724C39.4117 18.4077 39.4533 18.3927 39.497 18.3633C39.3918 18.288 39.4036 18.2396 39.3635 18.2011C39.2117 18.0555 39.2692 17.9978 39.027 17.9214C38.7682 17.8396 38.321 17.8033 38.057 17.8661C37.6177 17.9706 37.4132 17.9698 37.0304 18.2249C36.5299 18.5583 36.0256 19.1594 35.8236 19.7359C35.763 19.9088 35.7463 19.8378 35.6378 20.2224C35.3238 21.3349 35.49 22.3282 36.097 23.316C35.7504 23.455 35.2959 23.7698 35.0675 24.0564L34.5079 24.7638C34.455 24.8869 34.4526 24.8165 34.4232 24.8865L34.302 25.152C34.0686 24.7763 33.6984 24.3472 33.3091 24.1247C33.2668 24.1005 33.1626 23.9808 33.0924 23.9567C32.9863 23.9194 32.8693 23.9073 32.7912 23.8283C32.7875 23.824 32.7804 23.8225 32.7746 23.8225C32.6812 23.8202 32.623 23.7162 32.4947 23.7228L31.938 23.4939C32.5085 22.7283 32.7101 21.9385 32.6425 21.0037C32.6289 20.8155 32.5682 20.3996 32.4847 20.241C32.4465 20.1685 32.5199 20.1853 32.4093 19.99L32.202 19.543C31.8056 18.8023 31.2227 18.3262 30.3976 18.1663C30.0766 18.1041 29.3611 18.0589 29.0567 18.2265C28.9691 18.2748 29.1074 18.293 29.1069 18.3306C29.1063 18.3782 29.0289 18.4178 29.0796 18.4489C29.0839 18.4518 29.0875 18.4568 29.0904 18.4611C29.0236 18.4834 28.9501 18.4925 28.9218 18.5372C28.9953 18.6616 29.216 18.7922 29.3752 18.7654C29.389 18.763 29.565 18.8072 29.574 18.8695C29.5895 18.9776 29.8381 18.903 29.9492 19.0195C30.017 19.0906 30.6076 19.5517 30.5877 19.6638C30.568 19.7741 30.6452 19.7777 30.6925 19.8532C30.9764 20.3059 31.0964 20.6564 31.0871 21.1905C31.0819 21.4857 30.9679 21.9784 30.7808 22.215C30.3128 22.8067 30.0958 22.9408 29.3595 23.1569C29.1577 23.2162 28.5821 23.273 28.4254 23.1777C28.3002 23.1016 28.1255 23.1691 27.5458 22.7021C27.1409 22.3758 26.8786 21.8562 26.855 21.3289C26.8542 21.2779 26.8327 21.2256 26.8421 21.1746C26.9211 20.7187 26.8253 21.004 26.9819 20.4543L27.1276 20.0217C27.147 19.978 27.1907 19.9528 27.2022 19.9033C27.218 19.8187 27.2309 19.7225 27.3013 19.6715C27.3193 19.6581 27.2711 19.6489 27.3715 19.5559C27.4462 19.4869 27.3762 19.3998 27.7138 19.1908C27.9811 19.0252 27.8886 18.9549 28.3192 18.8385C28.3886 18.8199 28.3636 18.6983 28.5984 18.6219C28.7211 18.5819 28.666 18.5048 28.7684 18.4928C28.8527 18.4829 28.7471 18.4831 28.9219 18.3637C28.8164 18.289 28.8274 18.2377 28.7878 18.2015C28.6295 18.057 28.7053 18.0019 28.4521 17.9217C28.1916 17.8394 27.7476 17.8043 27.4828 17.8665C27.0636 17.9651 26.8305 17.9747 26.4547 18.2253C25.7833 18.6729 25.4205 19.2796 25.1267 19.9995C25.0115 20.3169 24.9086 20.895 24.9086 21.2213C24.9087 22.0746 25.1053 22.6699 25.5858 23.4188C25.6231 23.4747 25.6639 23.5278 25.7064 23.5817C25.4914 23.6511 25.09 23.8845 25.0492 23.8787C24.9191 23.8603 24.8979 23.9452 24.8045 24.0043C24.4306 24.2407 23.9683 24.754 23.6997 25.0955L22.9291 24.3358C22.4606 24.0376 22.1231 23.7164 21.584 23.5445L21.3487 23.4764C21.3266 23.4811 21.3432 23.4398 21.2919 23.4398C21.6823 22.8678 21.89 22.3905 21.952 21.6893C21.9877 21.2849 21.9595 20.8311 21.8681 20.4353L21.7842 20.1898C21.7942 20.0838 21.7207 20.006 21.6709 19.8749C21.471 19.3497 21.0489 18.7768 20.5423 18.4766C19.5805 17.9067 18.2964 18.1395 18.3426 18.27C18.3535 18.3007 18.4626 18.2882 18.395 18.3898C18.3582 18.4452 18.3701 18.4226 18.4029 18.4616C18.3376 18.4829 18.2616 18.4935 18.2336 18.5377C18.4151 18.8038 18.6945 18.7606 18.7228 18.7702C19.0007 18.8637 18.8246 18.9078 18.936 18.9223C19.2486 18.963 19.2652 19.0157 19.5414 19.2595C19.61 19.3201 19.9113 19.5903 19.9002 19.6641C19.883 19.7771 19.9554 19.7757 20.0043 19.8536C20.2977 20.3214 20.403 20.6453 20.3988 21.1909C20.3967 21.4807 20.2774 21.9846 20.0932 22.2154C19.661 22.7573 19.5102 22.8752 18.8448 23.1107C18.5907 23.2006 17.9215 23.2897 17.7378 23.1782C17.6096 23.1004 17.4488 23.1761 16.8582 22.7026C16.4423 22.3691 16.1977 21.8536 16.168 21.3294C16.1658 21.2784 16.1443 21.2261 16.1536 21.1751C16.2024 20.9044 16.158 20.9302 16.2476 20.5918L16.4391 20.0222C16.4585 19.9785 16.503 19.9533 16.5145 19.9038C16.531 19.8192 16.5425 19.723 16.6128 19.672C16.6164 19.6699 16.617 19.6655 16.617 19.6605C16.6183 19.5695 16.7237 19.5691 16.739 19.4553C16.7523 19.3566 17.1454 19.1194 17.2498 19.0126C17.3898 18.8695 17.6243 18.8885 17.6809 18.7931C17.7959 18.5993 17.9468 18.6616 18.0009 18.5514C18.0434 18.465 18.1095 18.5112 18.1236 18.4731C18.1473 18.4085 18.1904 18.3935 18.2334 18.364C18.1294 18.2905 18.1395 18.2383 18.1 18.2019C17.9439 18.058 18.0135 18.0006 17.7642 17.9221C17.5051 17.8405 17.0586 17.804 16.7942 17.8669C16.3578 17.9706 16.1473 17.9716 15.7661 18.2257C15.2695 18.5565 14.7597 19.1631 14.5608 19.7366C14.5069 19.8924 14.4836 19.8386 14.3736 20.2231C14.0548 21.3383 14.2524 22.56 14.9548 23.4968C14.3919 23.6559 13.9173 24.0533 13.4898 24.446C12.8958 25.0263 12.4927 25.7098 12.283 26.5222C12.0796 27.3102 12.1715 27.628 12.166 28.3926C12.1653 28.4414 12.1825 28.4902 12.1847 28.5396L12.207 29.303L12.2701 29.9544C12.2721 30.6676 12.2757 31.2773 12.3339 31.9819L12.3828 32.708C12.4033 32.7521 12.3443 32.7274 12.382 32.8615C12.4128 32.9708 12.3914 33.6801 12.5054 34.0174L12.6554 34.445C11.7692 34.1974 10.8366 33.9159 9.97858 33.5827C9.59902 31.6169 9.64348 30.3363 9.57686 28.3304C9.42408 24.0133 9.23086 19.7025 9.09399 15.3848C9.07984 14.9466 9.0161 12.6298 8.95549 12.726C8.92681 12.8918 8.94547 13.206 8.90527 13.3259C8.81624 12.981 8.84041 12.7596 8.79545 13.1981C8.78393 12.8355 8.77228 12.0002 8.73159 11.6994C8.57505 12.6581 8.51795 14.922 8.54212 15.9496C8.55038 16.2618 8.52158 17.844 8.474 18.0331C8.39648 18.3411 8.47187 21.2863 8.44031 22.0306C8.39936 22.9812 8.39147 23.9541 8.36781 24.9176C8.34489 25.8826 8.3355 26.8583 8.32473 27.8297C8.32047 28.2122 8.33262 28.6046 8.3211 28.979C8.30169 29.5874 8.29743 30.1958 8.31534 30.8165C8.31747 30.9492 8.31534 31.0962 8.30607 31.2089C8.26224 31.7196 8.34564 32.4378 8.43305 32.9617C7.34847 32.4909 5.52344 31.5435 4.58399 30.7714L4.04878 30.3015C3.74674 30.0526 3.44682 29.8015 3.23018 29.4685C3.1558 29.3503 3.08605 29.3472 2.88293 28.967C2.62221 28.4789 2.46981 28.3122 2.40294 27.7065C2.25856 26.3994 2.85613 25.1618 3.82062 24.237C4.07533 23.9927 4.09148 23.7563 4.80564 23.1887C5.18796 22.8849 5.09917 22.831 5.39257 22.6399C5.44705 22.6047 5.52606 22.5523 5.54259 22.5229C5.60571 22.4059 5.75347 22.3026 5.89485 22.1835C5.51667 22.3284 5.47698 22.2782 5.35538 22.3184C5.18683 22.3765 5.01389 22.4354 4.89267 22.4267C4.83232 22.4206 4.29159 22.6963 4.20393 22.7461C3.27514 23.2714 2.2806 24.128 1.71733 25.0253C1.41153 25.5124 1.00718 26.4345 0.94607 27.0413C0.87945 27.7037 0.909504 28.2403 1.10598 28.8872C1.74363 30.9869 3.75463 32.5953 5.55988 33.6216C5.61222 33.6511 5.66607 33.6791 5.71553 33.7113C6.51597 34.2274 7.94642 34.8467 8.87372 35.2308C9.72262 38.4482 11.3326 41.2085 13.6339 43.5761C14.0061 43.959 15.0749 44.9365 15.5201 45.2592L16.8925 46.2615L24.3223 51.519L28.3916 54.4253C28.7025 54.6456 29.1159 54.6541 29.4513 54.4253L33.6899 51.481L41.2252 46.2653C43.549 44.65 45.3072 42.9286 46.8048 40.5874C47.9938 38.7286 48.6903 36.9986 49.239 34.8128C49.7082 34.5951 50.0354 34.5046 50.5419 34.2231C50.5921 34.1958 50.6494 34.1686 50.7004 34.1492C51.1413 33.9882 52.4041 33.24 52.7687 33.0035C54.5337 31.859 56.4018 30.2036 56.5841 27.9513C56.592 27.7941 56.6028 27.6399 56.5943 27.4842Z" fill="#FF91B2"/>
</svg>
