<svg width="66" height="55" viewBox="0 0 66 55" fill="none" xmlns="http://www.w3.org/2000/svg">
<path fill-rule="evenodd" clip-rule="evenodd" d="M63.8135 43.2618L63.7621 40.3955L63.7473 37.8966C63.718 37.613 63.7326 37.3302 63.7254 37.0467L63.6813 36.2379C63.696 36.0653 63.6887 35.8942 63.6739 35.7223L56.7178 35.8589C56.615 35.8603 56.5047 35.8589 56.402 35.8581L56.3286 37.6564C56.2925 38.2696 56.1515 40.0395 56.02 40.4924L55.6675 42.4081L55.5206 43.1169C55.8839 43.2467 55.6288 43.2064 55.9833 43.3579C56.1239 43.418 56.5718 43.7365 56.615 43.8868C56.615 43.9102 56.6224 43.9301 56.6297 43.9471C58.0666 43.7745 59.4761 43.4517 60.9194 43.3792L62.7925 43.2926C63.0831 43.2506 63.0964 43.312 63.1892 43.2918C63.4022 43.2485 63.6005 43.2749 63.8135 43.2618ZM63.7694 45.0276L60.7872 44.9468L60.2951 44.9255C59.9244 44.9487 59.9686 44.8513 59.8103 44.841L58.2751 44.7315C57.2751 44.6195 57.5853 44.632 56.6371 44.6463C56.4375 44.6493 56.4916 44.4609 56.3359 44.6919C56.2763 44.7801 56.1114 44.6964 55.9465 44.7726C55.8951 44.7992 55.8363 44.8211 55.7776 44.8292C55.9014 45.3555 56.0024 46.1262 56.0127 46.6715L56.0715 48.2992C56.1145 48.594 56.0475 48.5551 56.0715 48.6451L56.1891 52.525L58.6718 52.4412L59.9279 52.4228C60.038 52.4206 60.1482 52.4007 60.2658 52.4022C60.7325 52.4051 61.8657 52.3866 62.374 52.3266C62.9859 52.2544 63.4941 51.7318 63.4978 51.0757L63.5199 49.4825C63.5273 49.3848 63.542 49.2878 63.542 49.1916L63.5787 48.1492L63.5861 47.2707C63.6026 46.6279 63.6719 45.6359 63.7694 45.0276ZM55.2929 33.6231C55.4177 33.6231 55.5427 33.6106 55.6675 33.6106L59.4283 33.598C59.7001 33.5951 59.9718 33.5781 60.2437 33.5739L63.1966 33.5753C63.3802 33.5967 63.5712 33.5886 63.7548 33.5798L63.7475 33.4101C63.7181 33.2977 63.7327 33.1869 63.7255 33.0744L63.6814 32.7564L63.6521 31.9264C63.6521 31.8728 63.63 31.8191 63.63 31.7656C63.63 31.2447 63.6005 31.1965 63.5638 30.7153L63.5124 29.7509C63.4888 29.582 63.3076 29.109 63.1745 28.9642C62.871 28.634 63.0974 28.8739 62.7925 28.647L62.1682 28.3179C62.0266 28.2084 61.9436 28.2107 61.8229 28.1584C61.8229 29.2059 61.9874 30.016 61.1618 30.8446C61.0279 30.9791 60.7766 31.1166 60.611 31.203C60.2278 31.4029 59.8297 31.3733 59.5238 31.3888C59.4576 31.391 59.3916 31.4094 59.3328 31.4094C58.767 31.4094 58.5293 31.4584 58.0474 31.4769C56.8072 31.4769 55.8845 30.4897 55.8145 29.2917L55.8438 27.9945C55.5966 28.0678 55.5712 28.168 55.1386 28.2003L54.4701 28.2583C54.3556 28.2992 54.3558 28.2349 54.3232 28.2554L53.6401 28.3127C52.7315 28.392 52.0434 28.3407 51.1941 28.4537C51.0771 28.4728 51.1332 28.4284 50.9371 28.4655L49.8866 28.5162L49.3724 28.575C48.782 28.5968 48.2611 28.6589 47.6389 28.6338L46.6913 28.5612L46.324 28.5546C46.1006 28.5373 45.4571 28.4489 45.3178 28.318C45.259 28.2644 45.2002 28.235 45.1415 28.21C45.1415 29.2339 45.2979 30.0243 44.4804 30.8447C44.3605 30.9651 44.081 31.1256 43.9296 31.2031C43.5352 31.4049 43.1498 31.3729 42.835 31.3889C42.7762 31.3912 42.7102 31.4096 42.644 31.4096C42.083 31.4096 41.8379 31.4588 41.3585 31.4771C40.1238 31.4771 39.2028 30.4854 39.1329 29.2918L39.1696 27.9147C39.0066 27.9889 38.8676 28.0298 38.7216 28.1313C38.5881 28.2241 38.0673 28.4274 37.9724 28.5882C37.9287 28.662 37.8909 28.6287 37.8769 28.6586C37.798 28.8285 37.4582 29.0456 37.4582 29.847L37.4729 30.8871C37.5022 30.9981 37.4876 31.1104 37.495 31.2229L37.5391 31.5416L37.5684 32.3716C37.5684 32.4245 37.5905 32.4782 37.5905 32.5318C37.5783 33.0366 37.6567 33.344 37.6567 33.6087L40.6977 33.5983C40.9694 33.5954 41.2412 33.5784 41.5131 33.5742L44.466 33.5756C44.8039 33.6153 45.1417 33.555 45.4796 33.569C45.6265 33.5756 45.7808 33.572 45.9276 33.5683C46.323 33.5568 46.4474 33.7299 46.5373 33.6931C46.7435 33.6087 47.3595 33.5917 47.5876 33.6204C47.9264 33.6389 49.9766 33.5387 50.1878 33.5756L51.3557 33.5316L52.744 33.6623L54.7493 33.7688C54.9109 33.676 55.0946 33.6216 55.2929 33.6231ZM54.7494 42.4941C54.7494 42.0519 54.6398 41.7041 54.6246 41.2138L54.5438 40.1788C54.5071 40.0958 54.4998 39.9988 54.4924 39.8945C54.4924 39.7806 54.4924 39.6624 54.4557 39.5654C54.4557 39.5566 54.4483 39.5448 54.4483 39.5317C54.4631 39.2841 54.3969 39.0792 54.3528 38.8558L54.3309 38.2557C54.2942 38.0126 54.2868 37.7622 54.2647 37.5153C54.2059 36.9189 54.2352 36.3085 54.2133 35.7084C54.2059 35.6321 54.2059 35.5563 54.2059 35.4807L52.9205 35.5851C52.2826 35.6088 51.8537 35.5573 51.2311 35.6717C51.1071 35.6945 51.181 35.6421 50.9813 35.6835L49.975 35.7327L49.4756 35.793L47.8082 35.8503L47.0883 35.807L47.059 37.9673C47.0442 38.3639 47.0295 38.7591 47.0149 39.1559L46.9268 42.6214C46.9268 42.844 46.9268 43.0687 46.9194 43.292C46.9857 43.2855 47.0269 43.2462 47.0737 43.2854L48.4105 43.1722C49.0068 43.1483 49.514 43.1977 50.1 43.087C50.2169 43.0649 50.1567 43.1138 50.3498 43.0753L51.356 43.0239L51.8555 42.9659C52.2814 42.93 53.9974 42.8801 54.4264 42.9799L54.6614 42.9835C54.6613 42.5148 54.7494 42.5887 54.7494 42.4941ZM54.4849 45.6012C54.4922 45.4432 54.507 45.2861 54.5144 45.1288L52.3695 45.1589C52.2814 45.1626 52.1933 45.1795 52.1051 45.1838L51.1428 45.1808L49.9749 45.2271L48.5866 45.0964L46.6988 44.9921L46.7502 45.7186C46.7869 45.7942 46.7943 45.8714 46.7943 45.9507C46.7943 46.2043 46.8347 46.1783 46.831 46.2387C46.8089 46.4238 46.8824 46.5971 46.9191 46.7735L46.9265 47.2303C46.956 47.4191 46.9632 47.6101 46.9853 47.7996L47 49.8733C46.9927 49.993 47.0148 50.1143 47.0148 50.2347L47.0221 52.3472L48.9613 52.3317C49.0494 52.3288 49.1375 52.3104 49.2256 52.3082L50.1878 52.3096L51.3557 52.2648L53.2508 52.433L54.2497 52.4778L54.3378 48.7008L54.3671 46.9739L54.3819 46.6008C54.3589 46.262 54.4514 46.3468 54.4554 46.2122L54.4849 45.6012ZM45.0755 43.2618L45.0388 41.6031C45.0177 40.1074 45.0474 38.5368 44.9874 37.0468L44.9433 36.2381C44.9581 36.0655 44.9507 35.8944 44.9433 35.7224L42.2843 35.7928L37.9872 35.859C37.8917 35.8605 37.7962 35.859 37.7081 35.8583C37.7007 35.9237 37.7007 35.9875 37.7007 36.0522C37.6934 36.0992 37.6788 36.1462 37.6788 36.194C37.6666 36.4451 37.6916 36.4375 37.6421 36.6949L37.6347 37.1158C37.6274 37.2039 37.62 37.2913 37.6054 37.3787C37.6054 37.4713 37.6054 37.5638 37.598 37.6564C37.5571 38.3186 37.4271 39.967 37.2822 40.4924C37.1639 40.9215 37.131 41.4571 37.0252 41.9306L36.8195 42.9875C36.7086 43.4532 36.6895 43.2118 36.8047 43.6868C36.8341 43.816 36.8635 43.9468 36.8929 44.0767C37.3616 43.9911 37.9357 43.9525 38.4574 43.8682C39.3657 43.7214 41.0064 43.4635 41.8804 43.3922L43.3127 43.3223L44.0619 43.2923C44.3662 43.251 44.3552 43.3114 44.4585 43.2915C44.6642 43.2485 44.8698 43.2749 45.0755 43.2618ZM45.0387 45.0276L42.0491 44.9468L41.5642 44.9255C41.1856 44.9492 41.2394 44.8512 41.0794 44.841C40.9179 44.83 40.7562 44.8263 40.6019 44.8014C40.5064 44.7874 40.3962 44.7977 40.3007 44.791L38.8096 44.6471C38.5045 44.5903 37.81 44.7032 37.7665 44.6059C37.731 44.5264 37.0757 44.5446 36.9879 44.539C37.2771 46.1078 37.2766 46.0646 37.3185 47.6453L37.3406 48.2991C37.378 48.5552 37.3195 48.5667 37.3406 48.645L37.4287 51.124C37.4974 51.9674 38.2264 52.5883 39.1328 52.5196C40.1593 52.4418 41.189 52.4379 42.2178 52.4227C42.3279 52.4205 42.4382 52.4006 42.5484 52.402C43.386 52.4076 43.9791 52.3569 44.7814 52.3301L44.774 50.4284L44.8107 49.1914C44.8281 48.734 44.794 48.7027 44.8474 48.1491L44.8547 47.2706C44.885 46.5203 44.9196 45.7702 45.0387 45.0276ZM36.7091 27.3869C35.9893 27.9838 35.5717 28.8959 35.5045 29.8382C35.4598 30.4633 35.3742 31.2358 35.4016 31.8427C35.4076 31.9768 35.4488 32.1744 35.4309 32.3246C35.4236 32.4583 35.4824 32.5905 35.4383 32.7249L35.475 35.6917C35.4859 36.5873 35.4841 37.3672 35.5926 38.256C35.6143 38.4321 35.5846 38.6629 35.6221 38.8561C35.6588 39.0794 35.7323 39.2844 35.7176 39.532C35.7176 39.5452 35.7176 39.5569 35.7249 39.5657C35.7616 39.6627 35.7544 39.7809 35.7616 39.8948C35.7852 40.2443 35.833 40.0578 35.8498 40.5581L35.9672 41.9295C36.0873 42.6285 35.9551 42.4972 35.9379 42.75C35.9305 42.8858 35.9158 43.0188 35.9379 43.1539C35.938 43.1545 35.9444 43.5334 35.8717 43.5881C35.755 43.6759 35.9249 44.1305 35.8643 44.4085C35.7817 44.7847 35.7702 45.811 35.7248 46.2126C35.7064 46.3237 35.6072 46.3415 35.644 46.6012L35.6 48.8775C35.409 48.9046 35.2254 48.9179 35.1077 48.8878L33.9986 49.0523C32.1849 49.3606 30.854 49.4658 28.989 49.4658C28.9964 49.454 28.9964 49.4439 28.9964 49.4335C28.9964 49.2141 29.1803 48.8321 29.1874 48.7665L29.1433 48.4574L29.0993 47.7669C29.132 47.6887 29.081 47.5045 29.0185 47.4731C29.0185 47.4613 29.0332 47.451 29.0111 47.4393C28.9744 47.4209 28.9083 47.4026 28.9304 47.3835C28.9304 47.382 28.923 47.3805 28.923 47.379C28.9227 47.3789 28.7814 47.297 28.7908 47.241C28.8001 47.1852 28.688 47.2044 28.688 47.0911C28.3909 46.9954 28.3848 46.9676 28.0709 46.9808C27.4198 47.0396 27.3548 47.1891 27.1821 47.2343C27.038 47.272 26.9397 47.4457 26.9397 47.5839C26.903 47.6053 26.9104 47.6243 26.9104 47.6442C26.8802 47.8156 26.8471 47.6147 26.881 48.0357C26.9073 48.3619 27.0087 48.3396 26.9911 48.4992C26.9911 48.5103 27.0132 48.5234 27.0132 48.5344L27.0426 48.7166L27.1159 48.8724C27.1159 49.0255 27.1211 49.2091 27.1821 49.3498L26.5064 49.261C23.2917 48.8772 20.2862 47.9809 17.4789 46.3625C16.3192 45.6938 16.2775 45.6542 15.2238 44.8699C13.0449 43.2478 11.1012 41.0715 9.70004 38.7387C7.83476 35.6329 6.76956 32.2688 6.57827 28.6741C6.57827 28.6755 6.58564 28.6755 6.58564 28.677L6.76926 28.7395C6.97646 28.8141 7.15154 28.6838 7.18057 28.7255C7.19531 28.7489 7.21727 28.7307 7.23201 28.7307L7.87101 28.6807C8.2051 28.6542 8.04948 28.6685 8.16487 28.6066C8.17961 28.6014 8.19419 28.6191 8.20156 28.5963C8.22367 28.5581 8.23826 28.4919 8.26037 28.5126C8.26037 28.514 8.26037 28.5111 8.26037 28.5074C8.26773 28.4692 8.28247 28.4773 8.28984 28.4759L8.34864 28.3988C8.5641 28.302 8.36795 28.3099 8.55437 28.2725C8.60065 28.1435 8.71839 27.8299 8.66446 27.6554C8.65208 27.6155 8.63233 27.1762 8.47346 26.9025C8.42513 26.8191 8.35483 26.6165 8.25314 26.586C8.25314 26.5852 8.24578 26.5823 8.24578 26.5801L8.05478 26.5235L7.81236 26.4523C7.67928 26.4297 7.36435 26.504 7.36435 26.5118C7.25986 26.559 7.24822 26.581 7.13666 26.5787C7.12192 26.5787 7.11455 26.5979 7.09996 26.6008L6.91634 26.6258C6.80728 26.6974 6.74288 26.6847 6.55646 26.7117C6.56383 26.3356 6.58593 25.9602 6.61526 25.5841C6.91604 22.3787 7.5185 20.4043 8.92177 17.5571C9.67321 16.0324 10.6914 14.6534 11.7792 13.3563C12.4905 12.5079 13.2033 11.8639 14.0048 11.1174C14.7171 10.454 16.2684 9.34277 17.0898 8.87339C18.3453 8.15599 19.3151 7.67261 20.7184 7.1714C22.9343 6.42231 24.632 6.053 27.0281 5.92346L26.8885 6.38842C26.8106 6.59621 26.9438 6.77821 26.9033 6.81152L26.8959 6.96508L26.9474 7.52332C26.9317 7.592 26.9138 7.73716 27.0207 7.81203C27.0342 7.82131 27.0017 7.8471 27.0355 7.86198C27.0722 7.88188 27.1383 7.90089 27.1162 7.92079C27.1162 7.92697 27.1529 7.91577 27.1529 7.95159C27.3217 8.05475 27.1714 8.03942 27.3146 8.12932C27.3784 8.1694 27.3063 8.21921 27.3954 8.23513C27.5519 8.26313 27.6454 8.38117 27.9757 8.33578C28.1953 8.30557 28.5061 8.27787 28.7249 8.13889C28.8356 8.0686 29.0134 8.06152 29.0996 7.80834L29.1069 7.71284L29.1731 7.46379C29.2036 7.25275 29.1329 7.1689 29.1217 7.00546C29.1215 7.00458 29.0481 6.89007 29.0481 6.76819C29.0481 6.7564 29.026 6.74329 29.026 6.7315C29.026 6.5803 28.9778 6.56438 29.0041 6.54345L28.9305 6.38341C28.9305 6.26315 28.922 6.01247 28.8644 5.90298L29.9001 5.95809C30.5882 5.99538 31.3359 6.12654 32.023 6.22616C32.7637 6.33359 33.3948 6.51398 34.1018 6.69922C35.0376 6.94445 35.5515 7.17597 36.3936 7.48589C37.0889 7.74188 37.897 8.18443 38.5677 8.50246L39.2141 8.89034C40.9279 9.83278 42.95 11.5196 44.1942 12.8745C45.0418 13.7974 46.113 15.1364 46.8018 16.1543C48.3573 18.4528 49.6655 21.4078 50.2322 24.1372C50.39 24.8978 50.4687 25.617 50.5994 26.3519C50.548 26.3556 50.5039 26.3578 50.4599 26.3527C50.3423 26.3387 50.2322 26.3975 50.1146 26.3593C49.8627 26.3192 47.7877 26.4277 47.4041 26.4041C47.3086 26.3908 47.2058 26.3842 47.1103 26.3938C46.8693 26.4178 46.6634 26.3642 46.3096 26.4768L46.1186 26.4886C46.0452 26.5267 45.9717 26.5929 45.8983 26.5737C45.8983 26.5723 45.8909 26.5745 45.8835 26.5774C45.7853 26.6529 45.776 26.5624 45.6852 26.653C45.6174 26.7208 45.3094 26.663 45.0755 26.7793L45.0241 25.8714C45.0566 25.8123 45.0194 25.6898 45.0093 25.5504C44.953 24.7589 44.2147 23.8997 43.2612 24.0012C42.9091 24.0388 42.2178 24.3626 41.8509 24.4853C41.3302 24.6597 41.6145 24.6921 41.6158 24.7372C41.6176 24.7935 41.5352 24.8358 41.6085 24.8871C41.5379 24.9154 41.4649 24.9314 41.4322 24.9848C41.5576 25.1351 41.7398 25.2676 41.9464 25.1963C41.9464 25.1963 42.1655 25.1936 42.1962 25.2617C42.2492 25.3797 42.5009 25.2101 42.6663 25.2705C42.7703 25.3085 43.3017 25.3498 43.2466 25.4799C43.1964 25.5984 43.2524 25.454 43.3054 25.668L43.2833 26.2144C43.2648 26.5913 43.2561 27.7738 43.2099 28.0442L43.1365 29.2401H43.1292V29.2409L43.0997 29.235C43.0997 29.2401 43.1071 29.2468 43.0997 29.249V29.2541L41.4323 29.2571C41.4323 29.2541 41.4323 29.2608 41.4323 29.2593C41.4323 29.2961 41.3809 29.2605 41.3809 29.2438C41.3883 29.2423 41.3809 29.2409 41.3809 29.2409C41.3809 29.2453 41.3809 29.2254 41.3809 29.2152L41.3662 28.2824C41.4014 27.9556 41.3774 27.0744 41.2928 26.7706L41.2854 26.5098C41.2413 26.4076 41.1752 26.3085 41.1973 26.2028C41.2002 26.1739 41.1606 26.2152 41.1606 26.0382C41.1606 25.9359 41.0798 25.8886 41.0798 25.7106C41.0798 25.5822 41.0328 25.443 41.0946 25.4027C41.244 25.3056 41.095 25.1862 41.2415 25.0869C41.2954 25.0504 41.2592 24.947 41.3223 24.9333C41.378 24.9213 41.3028 24.9333 41.4325 24.7842C41.3598 24.7042 41.2446 24.487 41.146 24.403C40.9634 24.2977 40.783 24.3066 40.5804 24.3456C40.0062 24.4563 39.8347 24.7731 39.5301 25.1705C39.3254 25.4373 39.2359 26.4532 39.2215 26.7689L38.7881 26.6933L38.2003 26.727C38.1353 26.7398 38.0749 26.6346 37.936 26.7196L37.6935 26.7974C37.3764 26.9137 36.9736 27.1558 36.7091 27.3869ZM50.7461 26.2931C50.7387 26.3064 50.7387 26.3211 50.7313 26.3365C50.7461 26.335 50.7534 26.3343 50.768 26.3328C50.7608 26.3195 50.7534 26.3064 50.7461 26.2931ZM35.8277 52.4149C35.5559 52.4545 35.2914 52.4816 35.1299 52.4427L33.8664 52.5992C31.8037 52.8867 30.5273 52.9392 28.4308 52.9003L26.6018 52.7755C24.417 52.4533 22.3707 52.0915 20.2406 51.3476C17.9506 50.5478 15.6493 49.3865 13.6592 47.9687C12.8653 47.4031 11.6341 46.3712 10.9047 45.6651L9.81749 44.5471C8.10076 42.6957 6.52551 40.3426 5.469 38.0142C4.51595 35.9137 3.7623 33.6496 3.43439 31.3027C3.13479 29.1585 3.05226 27.5048 3.22866 25.3566C3.4366 22.8253 4.03582 20.1844 5.02836 17.8356C5.30572 17.1791 5.56155 16.6931 5.86573 16.0794C7.06209 13.6659 8.94653 11.1742 10.934 9.33408C12.5253 7.8608 13.4408 7.11717 15.3706 5.93613C17.2359 4.79445 19.9306 3.71702 22.0035 3.23084C23.8839 2.78975 25.2897 2.57091 27.2994 2.51166C29.4042 2.44977 30.826 2.56605 32.948 2.93477C34.8297 3.26179 37.2367 4.06923 38.9198 4.8755L39.9261 5.38452C40.6295 5.72539 40.9879 5.99508 41.6522 6.3865C43.3514 7.3876 45.6249 9.38286 46.8233 10.7116C49.2421 13.3933 51.2734 16.4993 52.516 19.9013C52.8407 20.7904 52.9829 21.3056 53.2505 22.1865C53.56 23.205 53.9163 25.4082 54.0364 26.5077L53.0081 26.4636C52.4513 26.4214 51.6748 26.3182 51.1569 26.3182L51.1202 25.179C51.0855 24.653 50.6974 22.5024 50.7089 22.3694C50.7492 21.9032 49.9958 19.9128 49.7982 19.3276C49.0976 17.2531 48.1641 15.5599 46.9334 13.7797L46.3237 12.9379C46.1475 12.5933 45.8757 12.2893 45.5892 11.9801L44.5976 10.9136C43.8189 10.1518 42.9962 9.4365 42.1296 8.77613C40.9096 7.85403 39.5679 7.02403 38.185 6.34774C35.7826 5.17275 32.876 4.33612 30.2741 4.11993C30.0538 4.10313 29.8407 4.08766 29.6204 4.07071C22.1722 3.44821 14.5067 6.59798 9.76576 12.4069C8.21512 14.307 7.09598 16.235 6.07838 18.5874C5.95356 18.8834 5.82859 19.1882 5.71113 19.4961C3.91895 24.544 3.85853 29.8082 5.46871 34.8847C6.11405 36.9192 7.16805 39.0567 8.38489 40.8558L9.37656 42.1904C11.0893 44.4225 13.5414 46.6236 16.0094 47.9822C16.9084 48.4796 18.6204 49.3187 19.6528 49.6636C20.29 49.8764 21.0447 50.0303 21.6654 50.2351L22.7599 50.476C23.4782 50.6377 23.5286 50.5835 24.1777 50.6853C25.3524 50.8698 26.7701 50.9765 27.9384 50.9593C28.858 50.9457 31.9858 50.6452 32.7349 50.3548C33.3079 50.1462 33.9102 49.953 34.5418 49.7517C35.2016 49.5467 35.107 49.4642 35.5922 49.2794L35.5628 50.9608C35.5631 51.5087 35.6286 51.9047 35.8277 52.4149ZM54.1103 26.5157L54.3306 26.5275C54.3158 26.41 54.3085 26.2909 54.2939 26.172C54.2939 26.22 54.2883 26.4474 54.2498 26.4004C54.2351 26.3836 54.2279 26.316 54.2205 26.2704C54.1912 26.2234 54.1691 26.1764 54.1471 26.1279C54.1103 26.219 54.1176 26.3732 54.1103 26.5157ZM65.8188 36.5391L65.7306 40.0208L65.6351 44.0638C65.6351 44.2966 65.5544 44.5103 65.4222 44.6786C65.4221 44.679 65.4403 45.6135 65.4884 45.7188C65.5177 45.7944 65.5251 45.8716 65.5324 45.9509C65.5324 46.039 65.5251 46.1271 65.5619 46.2108C65.5619 46.2204 65.5693 46.2292 65.5693 46.2388C65.5473 46.4239 65.6133 46.5972 65.65 46.7736L65.6648 47.2305C65.7452 47.8141 65.7665 49.2619 65.7382 49.8734V51.2705C65.6776 52.6374 64.6926 53.9032 63.439 54.3504C62.6759 54.6228 61.9565 54.5541 61.162 54.5532C61.0005 54.5532 60.8314 54.5716 60.6625 54.5488C60.3834 54.5099 60.1117 54.5702 59.8325 54.5554C59.508 54.5385 59.1414 54.5828 58.8337 54.5855L56.7843 54.5621L55.2344 54.5033C54.9553 54.4966 54.7055 54.3777 54.5219 54.1941L52.524 54.3233C51.9906 54.3307 51.7385 54.3168 51.2312 54.4041C51.1083 54.4252 51.173 54.3776 50.9814 54.4159L49.9752 54.4666C49.8136 54.4784 49.6593 54.5033 49.4977 54.5232L48.08 54.5938L46.9047 54.5115L46.5522 54.5049C46.4714 54.4968 46.3833 54.4843 46.3024 54.4711C46.2969 54.4714 46.1485 54.5212 45.9278 54.5299L42.9529 54.5491C42.6738 54.5102 42.402 54.5705 42.1229 54.5557C41.7907 54.5383 41.4381 54.5831 41.1167 54.5858C40.3498 54.5923 38.9973 54.6235 38.2519 54.4667C37.3826 54.2838 36.464 53.6438 36.0483 52.8552C36.0262 52.8134 35.9968 52.7722 35.9749 52.7319C35.6784 52.8468 35.4819 52.8688 35.1668 53.0419C34.9465 53.1631 34.681 53.2421 34.425 53.3107C33.6978 53.5054 32.9927 53.689 32.3389 53.8889C31.2619 54.2258 27.5165 54.3932 26.2202 54.3105C24.9693 54.2306 23.8372 54.0917 22.599 53.8588C22.0719 53.7596 21.47 53.6851 21.005 53.5487C20.6304 53.4415 20.2558 53.3358 19.8886 53.2564L17.516 52.48C16.9066 52.2575 16.2703 51.9038 15.6796 51.6235C10.3667 49.1021 6.06674 44.4758 3.53033 39.2017C0.956196 33.8492 0.253382 27.4596 1.54716 21.691C1.86165 20.2889 2.23671 19.0584 2.75177 17.7275C3.14054 16.723 3.53593 15.9801 4.00045 15.0332C4.90162 13.1965 6.74111 10.5477 8.1799 9.06881C8.40022 8.83301 8.62791 8.59427 8.85575 8.36143C10.8504 6.38739 13.0094 4.80285 15.5253 3.53192C17.8245 2.37048 19.9575 1.64718 22.474 1.10943C23.1973 0.954833 24.5863 0.756472 25.3241 0.704007C27.275 0.565331 28.2974 0.549414 30.2087 0.702533C33.7086 0.982834 37.029 1.9297 40.1324 3.52028C42.3015 4.63204 43.9309 5.77329 45.781 7.37006L47.1325 8.6401L48.7118 10.3847C48.9676 10.7132 49.0704 10.9593 49.2847 11.2316C49.8304 11.9255 50.6886 13.2575 51.1285 14.031C51.8844 15.3601 52.5337 16.7592 53.0163 18.2113C53.2013 18.7675 54.0727 21.1432 54.0447 21.6717C54.0246 22.0506 54.7613 25.2621 54.5295 26.541L55.1759 26.5631C55.2833 26.5319 55.2879 26.635 55.3302 26.6417L55.9032 26.7305C55.9402 26.3552 55.9916 25.491 56.2116 25.171C56.5304 24.7076 56.8358 24.3626 57.4384 24.3212C57.9424 24.2865 57.9556 24.6283 58.1214 24.7846C57.9845 24.9105 58.0765 24.9131 58.0112 24.9338C57.9297 24.9594 57.9869 25.044 57.923 25.0873C57.8383 25.1448 57.8495 25.217 57.8495 25.329C57.6709 25.463 57.7797 25.5072 57.754 25.6303L57.7981 25.9057C57.8828 26.0217 57.8085 26.127 57.8716 26.1878C57.879 26.1929 57.879 26.1981 57.879 26.2032C57.857 26.3091 57.9304 26.4082 57.9671 26.5102L57.9745 26.7711C58.0819 27.1558 58.0392 27.5386 58.0626 27.8765C58.07 28.0124 58.0626 28.146 58.0479 28.2826C58.0405 28.3509 58.0626 28.4207 58.0626 28.4882C58.0626 28.6033 58.0405 29.2058 58.0774 29.2646L58.114 29.2594V29.2572C58.114 29.2557 58.114 29.2557 58.114 29.2557L59.0983 29.2638L59.7888 29.2543L59.7814 29.2353L59.8107 29.2412V29.2404H59.8181L59.8989 28.0445L59.9503 26.4365L59.987 25.6683C59.9252 25.4186 59.8966 25.654 59.9356 25.4802C59.9658 25.3451 59.4573 25.3109 59.3478 25.2708C59.1825 25.2104 58.9308 25.38 58.8777 25.262C58.8475 25.1946 58.6356 25.1965 58.6353 25.1965C58.4792 25.2729 58.1789 25.1239 58.1211 24.9851C58.1462 24.9307 58.2172 24.9165 58.29 24.8874C58.2182 24.8373 58.2955 24.7991 58.2974 24.7375C58.2991 24.6807 58.0172 24.6642 58.5324 24.4856C58.8926 24.3607 59.6013 24.0379 59.9428 24.0015C60.8712 23.9025 61.5661 24.6589 61.6909 25.5507L61.7056 25.9106L61.7571 26.8045C61.9078 26.8045 61.9834 26.71 62.2052 26.7083L62.6973 26.6818C62.8013 26.6204 62.9296 26.7017 63.0352 26.6663C63.0352 26.6641 63.0426 26.6641 63.05 26.6663C63.1674 26.7162 63.2924 26.6795 63.4246 26.6884L64.0857 26.9367C64.4584 27.0879 64.9245 27.5622 65.1288 27.9085C65.1728 27.9819 65.2316 28.0458 65.2757 28.1186C65.774 28.9541 65.733 29.5381 65.7825 30.4089V31.5732C65.7385 31.7076 65.7973 31.8398 65.7899 31.9727C65.7721 32.1234 65.8132 32.3202 65.8192 32.4538C65.8519 33.1634 65.7511 33.6235 65.7311 34.2477C65.7277 34.3551 65.784 34.4342 65.7899 34.6964L65.8192 35.4713V36.5391H65.8188ZM43.0922 29.2246C43.0922 29.2261 43.0922 29.2217 43.0996 29.2261V29.2342C43.0922 29.2313 43.0922 29.2276 43.0848 29.2232C43.0848 29.2195 43.0922 29.2276 43.0922 29.2246ZM30.8181 26.8132C30.7741 26.4924 30.537 26.0148 30.3479 25.7334C30.154 25.4449 29.689 25.0262 29.3637 24.8513C29.1246 24.7227 29.0238 24.6894 28.7687 24.6243L28.9083 24.3782C29.0151 24.0218 29.0696 23.6677 29.0993 23.2984L29.1066 22.8812L29.1875 21.4738L29.114 19.7681C29.0847 19.3468 29.0478 19.2193 29.0478 18.753C29.0478 18.7009 29.0257 18.6472 29.0257 18.595L28.9964 17.6981C28.9112 17.3393 28.9105 15.7126 28.8788 15.1573L28.798 14.1048C28.7708 14.0557 28.8445 14.0906 28.798 13.9387C28.7697 13.846 28.793 13.062 28.6585 12.6944C28.4477 12.1187 28.3405 11.9349 28.115 11.4017C27.9343 10.9746 27.9091 11.2072 27.8578 11.207C27.8466 11.207 27.7109 11.149 27.7109 11.2011C27.6751 11.142 27.6689 11.0831 27.608 11.0571C27.2483 11.2546 27.4938 11.6353 27.3363 11.6925C27.2123 11.7374 27.3906 11.9204 27.3215 12.084L27.2113 12.6533C27.2113 12.6893 27.226 12.7289 27.2113 12.7658C27.1716 12.868 27.2039 12.9488 27.1599 12.9824C27.0557 13.0623 27.1241 13.0985 27.1084 13.2013L27.0277 15.2786L26.9469 16.293C26.9395 16.4069 26.9395 16.5184 26.9322 16.6324C26.8743 17.3552 26.8203 17.5763 26.8881 18.3093C26.8955 18.3886 26.9028 18.4686 26.8955 18.548C26.8807 18.681 26.9395 18.8117 26.9028 18.9446V20.0985C26.9028 20.2051 26.925 20.3107 26.925 20.4166L26.9616 23.0477L27.0204 23.3842C27.0278 23.4341 27.0057 23.4848 27.0352 23.5355C27.0719 23.6207 27.1381 23.7029 27.1159 23.7905C27.1127 23.8163 27.1526 23.7778 27.1526 23.9286C27.1526 24.0621 27.216 23.9595 27.226 24.1834L27.2994 24.6638C27.011 24.6638 26.3377 25.044 26.0874 25.2609C25.1808 26.0469 24.8111 27.3457 25.1546 28.4819C25.233 28.7411 25.3384 28.891 25.4999 29.0901L24.9636 29.4433C24.8541 29.41 24.8594 29.4943 24.8093 29.5352C24.7873 29.5536 24.7579 29.5652 24.7359 29.5844L23.1934 30.9706L22.099 31.8879L21.6141 32.4205C21.526 32.4858 21.4965 32.602 21.3938 32.6504C21.2954 32.6972 19.8978 34.2286 19.6529 34.4516C19.4644 34.6025 19.0839 35.0012 18.9918 35.2177L18.8742 35.3506C18.8522 35.4249 18.8522 35.5187 18.7934 35.5541C18.7861 35.5563 18.7861 35.5607 18.7861 35.5659C18.793 35.6598 18.7053 35.6393 18.7053 35.7525C18.7053 35.8484 18.5108 35.9573 18.4115 36.2115C18.3387 36.3978 18.1802 36.4301 18.2057 36.5318C18.2601 36.7483 18.122 36.7508 18.1764 36.8682C18.2209 36.9644 18.1511 36.9521 18.1764 36.9886C18.2131 37.0533 18.2057 37.0834 18.2057 37.1267C18.3814 37.1531 18.554 37.3254 18.7787 37.3273L19.3884 37.2325C19.7754 37.0809 19.5926 37.3089 20.1964 36.8821C20.543 36.6371 20.6581 36.474 20.718 36.4428L21.5701 35.7031L22.4882 34.6836C22.6398 34.4273 23.3319 33.7373 23.5459 33.4687L23.6928 33.2585C23.7516 33.1895 23.825 33.1359 23.8617 33.0507L24.9488 31.8997L25.4851 31.2408C25.4906 31.2013 25.5395 31.2562 25.5806 31.1483C25.6044 31.0859 26.0945 30.6055 26.1903 30.3417L26.3887 29.76V29.7623C26.5941 29.8788 26.7009 29.9699 26.9395 29.9988C27.1973 30.0299 27.3581 30.1516 27.4537 30.0847C27.6908 29.9186 27.7613 30.0373 27.821 29.9223C27.8727 29.8225 27.9151 29.8914 27.9312 29.846C27.9532 29.7739 27.99 29.7608 28.0193 29.7307C27.9281 29.6196 27.9044 29.3415 27.799 29.1622C27.7171 29.0229 27.4832 28.677 27.4832 28.5341L27.2481 27.9119C27.221 27.8957 27.272 27.9069 27.2481 27.8009C27.2172 27.6638 27.2985 27.3517 27.351 27.2316L27.5567 26.9355C27.5846 26.8464 27.8568 26.6769 28.115 26.6938C28.1984 26.6993 28.2146 26.6633 28.2619 26.7042C28.2728 26.7081 28.6586 26.6206 28.9597 27.1962C29.194 27.6444 29.0863 27.7738 29.1214 27.8992C29.127 27.9195 29.0779 27.9186 29.0919 27.9755C29.1175 28.0793 28.8871 28.433 28.8421 28.5793C28.6343 29.2572 28.2203 29.4257 28.1076 29.5607C28.0426 29.6383 28.1901 29.6187 28.1443 29.745C28.1442 29.7455 28.1047 29.7929 28.1517 29.814C28.1517 29.8169 28.1517 29.8221 28.159 29.8272L28.0195 29.9316C28.0578 30.0194 28.2653 30.2119 28.4822 30.0984C28.4825 30.0983 28.6856 30.0555 28.7246 30.1095C28.8011 30.2148 28.9948 29.9737 29.136 29.964C29.5564 29.9351 29.9929 29.4828 30.0615 29.4851C30.2041 29.4898 30.1947 29.3915 30.2672 29.3145C30.6365 28.923 30.9136 28.1658 30.9136 27.6148C30.9136 27.1371 30.9109 27.2211 30.8181 26.8132ZM59.781 29.2261V29.2342C59.781 29.2313 59.7736 29.2276 59.7662 29.2232C59.7662 29.2195 59.7736 29.2276 59.7736 29.2246C59.7736 29.2261 59.7736 29.2217 59.781 29.2261Z" fill="#ACE2FF"/>
</svg>
