<svg width="55" height="55" viewBox="0 0 55 55" fill="none" xmlns="http://www.w3.org/2000/svg">
<path fill-rule="evenodd" clip-rule="evenodd" d="M37.5344 52.6618C37.5344 52.6606 37.5344 52.6606 37.5357 52.6618L37.5344 52.6631V52.6618ZM37.5356 52.6606C37.5356 52.6593 37.5387 52.6606 37.5387 52.6587L37.5356 52.6606ZM52.4623 12.4296C48.8356 17.5214 42.89 20.3109 38.9724 25.1457C38.6636 24.882 38.2275 24.6307 37.8134 24.62C38.9892 22.4418 37.1552 20.1665 35.1691 20.3128C35.4308 18.8683 34.0377 17.6368 32.7268 17.4466C33.1522 16.7118 33.9015 15.0839 34.4172 14.2275C41.083 21.811 45.6815 16.9537 51.8587 11.9648C52.0358 11.7707 52.5765 12.087 52.4623 12.4296ZM39.4907 30.6835C40.4967 31.6962 38.3966 33.0297 37.8446 33.8176C36.6645 35.4527 35.7607 35.2832 34.7528 33.6759C35.9767 32.4863 37.1849 31.0694 38.3491 29.8304C38.8857 30.0246 39.1352 30.2674 39.4907 30.6835ZM39.0178 39.559C38.0609 38.7706 37.2194 37.7924 37.2708 36.4003C35.757 36.8895 33.9751 35.7639 33.6932 34.2233C32.0201 34.7106 29.9898 33.3074 30.1726 31.507C30.0286 31.7359 30.1535 31.6724 30.029 31.7649C29.7867 31.9449 30.135 31.8603 29.4771 32.2279C26.8947 33.5851 24.4937 29.668 26.6669 27.7871C25.492 27.412 24.585 26.3632 24.8305 24.7787C25.0592 23.5336 26.2022 22.9268 26.9535 21.9858C25.9056 21.5317 24.4635 20.3844 24.0948 19.3602C22.5563 19.1929 21.4296 21.2765 22.7798 22.1679L22.6978 22.2611C23.3894 22.8849 22.4773 23.609 21.9669 23.0808L21.8886 23.1678C20.5947 21.5607 18.0065 24.2596 20.9676 25.8475L20.8875 25.9389C21.6485 26.5378 20.6526 27.6538 19.9678 26.978L19.8889 27.0669C18.9344 25.7106 17.0883 27.516 18.0246 28.6622L18.7659 29.4223C18.8775 29.4691 19.4853 29.9203 19.593 30.0003L19.4799 30.1327C20.319 30.7798 19.3353 32.0332 18.4912 31.2924L18.3781 31.4247L17.9094 30.9375C16.8069 30.6882 15.9206 32.2428 16.7958 33.0007C19.1526 35.3239 21.7059 37.736 24.0034 40.048C24.7737 40.8072 25.6621 41.2056 26.7384 41.2225C31.015 40.8314 33.2094 45.3437 35.2373 48.3394C37.3219 46.2977 39.7512 43.6816 42.0622 41.9142C40.7783 41.4779 40.0513 40.2759 39.0178 39.559ZM24.0166 42.6707C22.3269 44.1851 20.572 46.129 19.4303 48.0711C17.4203 46.023 15.2714 43.9271 13.079 42.0983C14.9457 40.6819 17.552 39.0403 17.6983 36.4356C19.6446 38.1305 21.9998 41.1951 24.2447 42.4923C24.1651 42.5476 24.0874 42.6048 24.0166 42.6707ZM16.5964 24.9853C12.248 20.5484 6.51209 17.4555 2.68476 12.4174C2.56223 12.1427 2.91664 11.9142 3.06299 12.0193C9.93573 17.0705 13.1553 21.652 20.8074 14.2143C21.639 15.6753 22.28 17.3161 22.891 18.8746C21.8958 19.0618 21.1502 20.3484 21.1479 21.3163C19.1491 21.1694 17.5735 23.27 18.327 25.1445C17.9488 25.249 17.5915 25.4216 17.2824 25.6641L16.5964 24.9853ZM22.9482 18.8617C22.9333 18.7784 22.906 18.6882 22.9221 18.6274C23.0909 18.7692 23.0666 18.8609 23.0514 18.6236C23.075 18.6882 23.0981 18.7523 23.1217 18.8175L22.9482 18.8617ZM27.8671 20.9901L27.5309 21.3574C26.87 20.0231 24.5956 19.0421 26.1824 17.6374C27.1987 16.9414 27.6863 18.0934 28.4673 18.5876C28.8158 18.8604 29.0803 18.9345 29.461 19.2656L27.8671 20.9901ZM33.9275 20.6427C33.8472 20.032 33.7434 19.9298 33.2798 19.6006C32.2699 18.7236 31.5091 19.7813 30.8494 20.4999C29.4587 21.8869 28.0757 23.3686 26.5763 24.6535C25.9026 25.3476 26.4393 26.2197 27.1089 26.6763L27.616 26.8441C29.5861 24.9818 31.8232 22.3111 33.9275 20.6427ZM36.3891 23.9203C36.9436 22.9901 36.0574 21.8357 35.1195 22.1007C34.6302 21.9994 32.7316 24.3623 32.3912 24.62C31.0496 26.0595 29.5291 27.5847 28.089 28.9441C27.7914 29.2346 27.6538 29.2929 27.5508 29.7041C27.3215 31.3575 28.9085 31.6547 30.1759 31.4796C31.5044 28.5056 34.3782 26.4361 36.3891 23.9203ZM38.3087 27.4556C38.5489 26.845 38.21 26.2585 37.7357 25.9058C37.7197 25.796 36.9721 25.6299 36.9291 25.6622C36.7612 25.7793 33.5635 28.9973 33.4987 28.9329C32.9976 29.3756 31.9819 30.1825 31.5802 30.6984C31.1612 32.4633 33.4071 33.0559 34.2604 31.5353C34.8931 30.9116 35.8448 29.9539 36.4443 29.3064C36.6521 29.0691 38.2695 27.7727 38.3087 27.4556ZM19.8597 10.9281C21.715 13.1305 22.7061 16.0485 23.2869 18.7827L23.9762 18.7416C23.8169 16.9728 25.5419 15.2947 27.3177 15.6071C28.5028 15.7633 29.8491 17.3342 30.3137 18.3694C30.8794 17.7909 31.4169 17.4672 32.2507 17.4274C33.1006 11.8873 37.7479 7.89271 40.9558 3.57879C41.0705 3.39908 41.7613 2.81142 41.3924 2.60324C27.9274 14.9565 26.8551 14.5293 13.6072 2.49138C13.6133 2.47896 13.5115 2.57841 13.5214 2.57214C13.4098 2.66168 13.3639 2.91049 13.4891 3.06311C14.5873 4.41401 18.9167 9.61644 19.8597 10.9281ZM35.5575 50.6943C35.5563 50.6943 35.5563 50.6955 35.5563 50.6943H35.5575ZM54.0389 11.4023C51.9436 7.7441 47.817 13.2821 45.5132 14.5561C46.1183 12.2947 43.4838 9.40062 41.3849 10.4173C42.069 11.2513 42.7833 11.4958 43.3778 12.5433C44.4749 14.268 42.8023 16.8203 40.7534 16.2589C38.2737 15.7068 38.3414 12.5974 40.0993 11.2321C40.5135 10.7407 41.5241 10.5969 41.1655 10.4676C41.2064 10.3589 41.2361 10.3773 41.1668 10.3427C41.2384 10.3189 41.3467 10.2964 41.3849 10.2508C41.1522 9.96445 40.5518 10.214 40.3463 10.1664C40.244 10.0848 39.9467 10.3358 39.7367 10.3851C37.7913 10.9739 36.83 13.3529 37.4951 15.2275C36.4493 14.7282 35.8722 14.2268 34.6675 13.7993C36.9371 10.8832 40.4247 7.1538 42.7674 4.28722C44.6433 2.1445 41.6212 -0.575858 39.7043 1.13045C37.0048 3.59334 34.4025 6.40424 31.4198 8.55298C31.5328 6.61693 31.0744 5.80253 29.9558 4.91865C28.9777 4.29412 27.2886 4.46894 27.6929 4.68502C27.6749 4.72364 27.6114 4.8093 27.6767 4.8093C27.6083 4.83613 27.5283 4.833 27.4903 4.88454C27.6549 5.15492 28.016 5.02625 28.2211 5.21637C28.2419 5.31883 28.518 5.2629 28.6443 5.38291C28.7425 5.4717 29.3878 5.9717 29.3764 6.08946C32.3427 11.5213 22.5666 11.282 25.7342 5.96631C25.8307 5.87376 25.7476 5.80729 26.1293 5.56563C26.4757 5.34629 26.3607 5.31043 26.8154 5.18464C26.8922 5.16345 26.8755 5.04255 27.1323 4.96781C27.2534 4.93257 27.2269 4.84867 27.3218 4.8404C27.4115 4.83262 27.2915 4.84529 27.4903 4.71612C27.0735 4.12808 26.3675 4.15968 25.7253 4.33701C23.9828 4.69204 23.0519 6.83577 23.2974 8.4815C20.345 6.46343 17.8637 3.73342 15.2129 1.38515C13.5644 -0.223713 10.7491 2.09471 12.3878 4.0823C15.0494 7.4134 18.1659 10.4937 20.6531 13.9509C19.5202 14.0579 18.4621 14.8684 17.393 15.1994C17.7182 14.1453 17.6087 13.0801 17.0978 12.1126C16.1442 10.0953 13.3659 10.4742 13.8078 10.7367C13.7486 10.8592 13.7421 10.8108 13.7923 10.861C13.7252 10.8784 13.6358 10.8895 13.6058 10.9325C16.9064 11.7884 16.9745 16.3832 13.1284 16.192C11.4672 15.7688 10.8017 14.1156 11.5215 12.5924C11.6874 12.3732 11.6462 12.2306 11.8502 12.0151C11.9352 11.9357 11.8664 11.8515 12.2449 11.6137C12.5773 11.4048 12.4934 11.3491 12.931 11.2333C13.0011 11.2148 13.0007 11.0846 13.2473 11.0164C13.3759 10.9809 13.3332 10.8969 13.4368 10.8902C13.525 10.8846 13.4189 10.8752 13.6058 10.7659C11.5571 8.96144 8.92582 12.2983 9.39987 14.4325C8.29452 13.6255 5.38166 11.4366 4.29588 10.6833C1.56185 8.98928 -0.580747 12.5143 2.24771 14.5691C6.38455 19.2144 11.8713 22.434 16.866 26.06C16.0544 27.0086 15.9177 28.3004 16.5429 29.3941C14.2066 30.307 14.1335 33.3753 16.0538 34.7864C15.9873 34.9714 15.9139 34.87 15.8891 35.4209C16.175 37.9062 13.8393 39.1365 12.632 40.9909L12.44 41.554C11.8386 40.7791 10.5921 40.2563 10.0082 41.27C10.3674 41.1018 11.002 41.3983 11.1536 41.6863C13.3688 44.9584 16.65 47.8619 19.4407 50.6795L19.4699 50.7317C19.0693 51.1317 17.8205 52.4648 17.4975 52.7756C14.44 50.3184 11.5263 46.8871 8.51925 44.3065C8.31659 44.1594 8.289 43.9388 8.3808 43.7005L9.58647 42.0431C10.1927 41.2255 9.84306 41.5656 9.77659 41.5584C9.75414 41.4358 9.80719 41.4054 9.69834 41.4596C9.74913 41.3887 9.87867 41.2297 9.89034 41.152C9.36124 41.2443 8.81835 42.0864 8.62384 42.094C7.68453 42.9242 6.53868 43.8733 7.67249 45.2088C9.89698 47.5911 14.0682 52.0422 16.4514 54.3064C17.844 55.1543 18.8809 53.9457 19.7596 53.0097C21.1704 51.7372 22.1435 50.5309 20.3519 48.9828C20.7058 48.9578 21.3425 48.2219 21.3717 48.1992C22.0554 47.5789 22.8686 46.5493 23.4156 45.8115C27.3853 39.2414 31.3437 45.6264 34.81 48.774C33.3941 49.9391 33.3008 51.3766 34.8275 52.5108C35.944 53.6237 37.3893 55.4424 38.9141 53.7927C41.6541 50.839 44.6043 48.0455 47.2975 45.0372C48.5034 43.4088 45.9245 42.3538 45.0155 41.6024C44.8741 41.5294 45.0302 41.698 45.0242 41.7479C44.9008 41.7705 44.8713 41.7173 44.926 41.8262C44.8546 41.7756 44.6949 41.6457 44.6178 41.6342C44.7109 42.1646 45.5536 42.7065 45.5598 42.9007C45.618 43.1766 46.6613 43.6542 46.4286 44.1535C43.9289 46.4427 40.0027 50.3281 37.5387 52.6587L37.5444 52.6816C36.9587 52.1139 36.134 51.2842 35.5563 50.6954L35.5575 50.6942C35.5563 50.6954 35.5575 50.6923 35.555 50.6891C38.3196 47.8802 41.4662 44.723 43.9594 41.7084C44.0015 41.4945 44.2612 41.5387 44.343 41.4798C44.4296 41.4173 44.5034 41.5037 44.5362 41.4866C44.6033 41.4531 44.6649 41.4866 44.7358 41.5158C44.4727 40.419 43.429 40.8564 42.8061 41.3598C42.689 41.2736 42.7449 41.3363 42.6196 41.1001C42.5802 41.0258 42.3826 40.8055 42.3953 40.7638C41.16 38.868 39.227 38.1642 38.9592 35.7511C38.9116 35.6978 38.9755 35.6519 38.9151 35.5939C38.8774 35.5578 38.9035 35.3357 38.8965 35.2707C39.7103 34.4029 40.2607 33.9182 41.0686 33.0192C42.3257 31.4869 41.338 29.027 39.4509 28.6466C40.0697 27.7087 40.0335 26.4237 39.3378 25.5338C41.7523 23.1516 55.9348 14.9122 54.0389 11.4023Z" fill="#FF91B2"/>
</svg>
