<svg width="59" height="55" viewBox="0 0 59 55" fill="none" xmlns="http://www.w3.org/2000/svg">
<path fill-rule="evenodd" clip-rule="evenodd" d="M36.9393 36.747C36.9692 36.852 36.9414 37.2832 36.8655 37.3705L36.6736 37.6761C36.5583 37.6905 36.559 37.7284 36.5334 37.7056C36.4998 37.6755 36.4404 37.751 36.3859 37.7211C36.2757 37.6606 36.1645 37.741 36.1645 37.7122C36.0758 37.6323 36.0596 37.5959 35.9875 37.5742C35.8153 37.5225 35.7326 37.362 35.6701 37.3742C35.583 37.3913 35.6029 37.3129 35.53 37.3226C35.53 37.3242 35.5226 37.3242 35.5226 37.3211C35.5078 37.2724 35.4341 37.2791 35.375 37.2673L35.2865 37.1869C35.0858 37.1051 34.963 36.9123 34.9028 36.863C34.8511 36.8232 34.8142 36.7729 34.7847 36.7191L34.1797 36.0676C34.1354 36.027 34.0838 35.9946 34.0469 35.9533L33.6263 35.484L33.3902 35.2346C33.35 35.1959 33.2014 35.0871 33.1319 34.9859L32.9549 34.7431L32.3868 33.9248L31.6931 33.0312C31.6562 32.9686 31.6172 33.0462 31.6488 32.9138C31.6617 32.8599 31.5269 32.7062 31.5012 32.6393V32.6402C31.361 32.7616 30.6985 33.0796 30.5789 33.0947C30.2857 33.1318 30.3375 33.1871 29.8041 33.2298C29.4007 33.262 28.8744 33.2162 28.4834 33.0888C27.4707 32.759 26.8044 32.3249 26.2549 31.3858C25.8914 30.7643 25.7533 30.2155 25.7531 29.5182C25.7531 29.1493 25.8846 28.4692 26.0631 28.1369C26.1729 27.9324 26.1807 27.8125 26.373 27.5252C26.694 27.0456 27.1427 26.6261 27.6865 26.4206L28.2473 26.3041C28.499 26.2462 28.885 26.2895 29.1327 26.3638C29.0899 26.3124 28.992 26.319 29.0221 26.1468C29.0352 26.071 28.9386 25.9656 28.9187 25.6893C28.9087 25.5506 28.8523 25.6132 28.8523 25.527C28.8523 25.4996 28.8597 25.4732 28.8228 25.4487L28.7417 25.2783L28.7343 25.1388C28.7047 25.082 28.7047 25.0237 28.6826 24.9661L28.668 24.3382L28.6459 23.2948C28.6459 23.227 28.6312 23.1598 28.6238 23.092V22.3585C28.6607 22.273 28.6091 22.1902 28.6238 22.1061C28.639 22.0113 28.5982 21.8982 28.5943 21.8028C28.5742 21.3201 28.614 21.3298 28.6533 20.8879L28.7344 20.0777L28.8008 18.7738C28.8008 18.7326 28.8295 18.7215 28.8082 18.6601C28.7892 18.6052 28.839 18.5857 28.8821 18.5428C28.8821 18.5037 28.8821 18.4667 28.9042 18.4276C28.905 18.4264 28.9127 18.1719 29.0075 17.996C29.0572 17.9037 28.9127 17.7762 29.0149 17.7466C29.1039 17.7208 29.0495 17.5714 29.0739 17.4928C29.0929 17.4316 29.2414 17.341 29.2658 17.3422L29.3469 17.433C29.3544 17.4308 29.3618 17.4301 29.3618 17.4277C29.3955 17.4008 29.4179 17.4371 29.4872 17.4367C29.5392 17.4362 29.5462 17.2883 29.7086 17.5606C29.9064 17.8925 30.1776 18.2141 30.2694 18.6018L30.3284 19.1751C30.3358 19.2031 30.3505 19.2312 30.321 19.2592V19.2799C30.3636 19.4173 30.3556 19.6397 30.3726 19.7772L30.4242 20.279L30.4391 21.2006L30.5055 21.6116C30.4907 21.6588 30.4981 21.7068 30.5129 21.7547L30.5277 22.1355C30.5277 22.1694 30.5498 22.2026 30.5498 22.2358C30.5498 22.627 30.5984 22.6898 30.6088 22.8985C30.6237 23.0446 30.6383 23.1922 30.6458 23.3375L30.6604 24.1691L30.594 24.8613C30.592 24.8702 30.6245 25.3581 30.4242 25.8124C30.3968 25.8748 30.3755 25.8275 30.2619 26.0441C30.2083 26.1464 29.9021 26.515 29.7822 26.5267L29.4648 26.6307C29.5637 26.7146 29.5178 26.7445 29.6272 26.8351C29.4687 26.9649 29.5502 26.9601 29.4871 26.9671C29.3928 26.9777 29.4385 27.0634 29.3321 27.0992C28.9963 27.2125 29.3277 27.2491 28.8821 27.3803C28.7218 27.4275 28.675 27.5536 28.5205 27.6489C28.4625 27.6847 28.2646 27.831 28.255 27.8961C28.2353 28.0293 28.1516 27.9909 28.1516 28.0886C28.1516 28.0945 28.1516 28.0989 28.1442 28.1004C28.0778 28.1461 28.0778 28.2384 28.0631 28.3174L27.9672 28.4739L27.7753 29.2021C27.7679 29.2922 27.7606 29.3822 27.7458 29.4745C27.7384 29.521 27.7605 29.5682 27.7605 29.6132C27.7709 29.9672 27.9534 30.4256 28.1958 30.6876C28.3744 30.8806 28.8262 31.2018 29.0886 31.2528C29.234 31.2811 29.1643 31.3199 29.3321 31.3199C29.577 31.3199 29.5913 31.3643 29.8634 31.2904L30.1807 31.2196C30.4959 31.0972 30.7428 31.0312 30.9997 30.7761C31.1404 30.6367 31.3569 30.4111 31.4277 30.2271L31.5752 29.7306C31.6153 29.5601 31.6042 29.1799 31.5604 28.9993C31.4805 28.6695 31.436 28.5749 31.2431 28.2666C31.1823 28.1695 31.1422 28.2101 31.1545 28.0903C31.1665 27.974 30.6739 27.5923 30.5791 27.4853C30.4809 27.3745 30.2442 27.4566 30.2322 27.3465C30.2256 27.2852 30.0596 27.2418 30.0478 27.244C29.8789 27.2744 29.6785 27.1178 29.6272 27.0152C29.6523 26.9676 29.7216 26.9575 29.7896 26.9354C29.7149 26.8906 29.8025 26.8631 29.8043 26.8011C29.8056 26.7567 29.581 26.732 29.9076 26.6284L30.5126 26.562C31.1416 26.5253 31.9512 26.8144 32.3721 27.3368C32.594 27.6121 32.8009 27.8815 32.9255 28.2252C32.9768 28.3667 33.0429 28.3972 33.0361 28.5277L33.1172 28.7631C33.2239 29.2266 33.2314 29.7063 33.1837 30.1783L32.9623 30.9561C32.8132 31.3267 32.6499 31.5533 32.4089 31.8614C32.694 31.9518 32.7439 32.0147 32.9623 32.2104L33.0877 32.3248C33.1709 32.3595 33.1078 32.3873 33.1468 32.3926L33.4641 32.6767L33.7887 32.9622L34.3274 33.5377C34.3864 33.5635 34.4159 33.6144 34.4603 33.6557L34.6078 33.7568C34.639 33.8234 34.7088 33.8484 34.7997 33.945C34.8366 33.9885 34.8808 34.0335 34.9177 34.0757C34.9398 34.0956 34.9767 34.1059 34.9916 34.1273L35.4195 34.508L36.1795 35.2843L36.5263 35.7676L36.7919 36.1417C36.7935 36.1471 36.9634 36.422 36.932 36.5535C36.9172 36.6334 36.9319 36.6888 36.9393 36.747ZM58.596 30.4765C58.6401 29.5458 58.6455 28.6039 58.5739 27.6733L58.4927 26.5126L58.3452 25.357L58.1238 23.9388C57.7023 21.5965 56.7262 18.6205 55.5781 16.4213C54.5893 14.4822 53.3866 12.6552 51.9994 10.9839C51.4402 10.3244 50.7393 9.53975 50.1252 8.93406C48.8004 7.6277 47.4976 6.58115 45.971 5.52281C45.7201 5.35303 45.4692 5.20177 45.2183 5.03941C43.0431 3.64905 40.4981 2.50601 38.0683 1.80534C36.5581 1.36985 35.6349 1.17083 34.0986 0.905935C33.4277 0.790232 32.5813 0.726685 31.8997 0.67645C30.5963 0.580374 29.8179 0.580374 28.4834 0.614412L27.1182 0.70143C26.1398 0.767585 25.0256 0.974698 24.0486 1.15367C23.0719 1.33279 22.4794 1.49721 21.5472 1.78091L19.9607 2.3092L18.3669 2.9282C14.8706 4.48573 11.8408 6.51019 9.10658 9.27101C6.48727 11.9159 4.58977 14.8611 3.12982 18.2407C3.0413 18.4553 2.96745 18.6738 2.87893 18.89C2.28765 20.3987 1.80878 22.0738 1.4769 23.6596L1.27034 24.8292L1.18922 25.4165C1.08024 26.3432 0.969482 27.0808 0.953149 28.0477C0.953149 28.1561 0.953149 28.2787 0.945738 28.3834C0.846093 29.5661 1.00132 31.8328 1.13762 32.9059C1.33883 34.4905 1.65917 36.0079 2.11155 37.5389C3.45538 42.0871 6.24763 46.3962 9.78543 49.57C10.8715 50.5444 12.1809 51.5946 13.4231 52.3872C13.5759 52.4847 14.6941 53.1758 14.6185 53.0521C14.4856 52.9229 14.22 52.7776 14.1315 52.658C14.1905 52.6714 14.2421 52.6832 14.3013 52.6956C14.3456 52.7162 14.4119 52.7532 14.4341 52.7538C14.4926 52.7563 14.322 52.6468 14.2571 52.5775C14.5685 52.7655 15.1886 53.1497 15.4967 53.2629C15.2394 53.0183 14.913 52.8131 14.6039 52.5574L13.6594 51.8314C13.1576 51.4602 12.6706 51.0669 12.1688 50.6877L11.0177 49.6524C10.6205 49.273 10.7326 49.272 10.3019 48.8584C9.63843 48.2208 9.18029 47.7306 8.58997 47.0491C8.01063 46.3804 7.02091 44.9127 6.58294 44.1869C6.01746 43.2497 5.2063 41.8032 4.77519 40.7778C4.59704 40.3541 4.11213 39.2144 4.02251 38.8158C3.91916 38.373 3.77902 37.9156 3.61665 37.4441C3.41119 36.8395 3.31909 36.394 3.16647 35.7809C2.87879 34.5272 2.67209 33.2544 2.56146 31.9727C2.41035 30.2252 2.42819 28.52 2.6058 26.7766C2.65013 26.4151 2.70174 26.0543 2.74607 25.6934C2.81963 25.0307 3.08535 23.8312 3.24045 23.1478C3.81567 20.6132 5.02225 17.7319 6.41329 15.4805C7.80585 13.2267 9.39605 11.3276 11.3718 9.5274C12.5685 8.43693 13.9376 7.421 15.312 6.57292C17.6804 5.1116 20.0845 4.14576 22.7793 3.39554C23.1039 3.30921 23.4361 3.24278 23.7607 3.16455L25.2364 2.87824C26.5112 2.64821 28.3185 2.51288 29.5825 2.48941L30.7336 2.5115L32.2611 2.61554C33.0209 2.66921 34.3446 2.85875 35.0871 3.03237C35.456 3.1268 35.8249 3.21465 36.2013 3.29878L37.3081 3.5984C38.0348 3.79618 39.5372 4.34532 40.23 4.6492C42.203 5.5143 44.0863 6.58143 45.8232 7.86487C47.8269 9.34554 49.6676 11.1752 51.1654 13.154C52.5183 14.9413 53.6303 16.8489 54.5153 18.9013C54.834 19.6402 55.0463 20.2359 55.2975 20.9798C55.7845 22.4227 56.0233 23.452 56.2863 24.957C56.4639 25.9733 56.5869 27.0672 56.6404 28.0996C56.7564 30.3371 56.5752 33.6975 55.9764 35.9492C55.6939 37.0109 55.5365 37.9624 55.1131 39.0298C55.0982 39.0674 55.0835 39.1109 55.0761 39.1493C54.9913 39.513 54.5914 40.3838 54.4342 40.7741C54.1287 41.5328 54.0332 41.7733 53.6299 42.5265C52.834 44.0132 51.8741 45.4493 50.8555 46.7841C50.2213 47.6153 49.6488 48.2416 48.9075 48.9763L47.8007 50.0676C47.415 50.4705 47.0082 50.8909 46.561 51.2496C46.2883 51.4683 45.611 51.9878 45.4468 52.1675C45.3435 52.2796 45.218 52.38 45.0779 52.4811L45.1443 52.2177L45.2772 51.6163C45.2846 51.5816 45.2993 51.5485 45.3067 51.5138C45.3141 51.4473 45.3215 51.3809 45.3288 51.3153L45.4321 50.7516C45.4279 50.7246 45.481 50.7051 45.4691 50.6358L45.506 50.4107C45.5731 50.0055 45.6258 49.9002 45.5429 49.4722L45.351 48.6864C45.2913 48.3508 45.2172 48.5 45.174 48.4901C45.1206 48.4779 45.0911 48.4262 45.0559 48.4473C45.0559 48.4495 45.0485 48.451 45.0485 48.4517L44.9895 48.3284C44.9655 48.3213 44.7901 48.3884 44.7607 48.445C44.7234 48.5173 44.713 48.7092 44.6279 48.7114C44.5106 48.7144 44.6259 48.9067 44.5467 48.9844C44.4122 49.1164 44.3174 49.4653 44.2589 49.5577C44.2346 49.596 44.1556 49.567 44.1556 49.6691C44.1556 49.7491 44.1228 49.7491 44.1112 49.7917L43.6759 51.1649L43.211 52.4126L43.0856 52.7993C42.9915 53.1199 42.994 53.1999 42.938 53.5061C42.8327 54.0809 43.3399 54.6662 43.971 54.5864C44.0079 54.5812 44.0521 54.5768 44.0964 54.5812C44.1924 54.5937 44.2883 54.5384 44.3842 54.5701L44.8712 54.5672L45.4615 54.5289L46.6568 54.4861C46.8648 54.5087 47.3766 54.4842 47.5718 54.4035L47.7341 54.3895C47.7932 54.3541 47.8522 54.292 47.9186 54.3097C47.9186 54.3192 47.9171 54.2806 48.0145 54.2758C48.0745 54.2728 48.1036 54.1799 48.3761 54.1799C48.5398 54.1799 48.6098 54.0727 48.7229 54.0877C48.9684 54.12 48.9085 53.9453 49.0844 53.9069C49.1591 53.8906 49.1311 53.7919 49.195 53.7867C49.2483 53.7823 49.1924 53.7559 49.291 53.6597L49.1434 53.3188C49.1333 53.2058 48.7024 52.905 48.5826 52.8561C48.3493 52.7608 48.399 52.7345 48.3096 52.6974C47.9798 52.5609 47.5903 52.5455 47.2398 52.5469L47.0184 52.5211C46.6648 52.5046 46.3152 52.4766 45.9632 52.5049C47.4654 51.6407 48.4923 50.8146 49.7854 49.6861C51.1199 48.5215 52.9104 46.4312 53.9323 44.963C56.0009 41.9906 57.4421 38.3181 58.1234 34.7619C58.4444 33.0888 58.4874 32.117 58.596 30.4765ZM43.0637 42.0177C43.2261 41.8613 43.3662 41.6908 43.5138 41.5234C45.264 39.5368 46.4108 37.4709 47.2326 35.0123C47.6897 33.6451 48.0001 31.6655 48.0664 30.2929L47.8376 30.3069L47.6973 30.3689C47.6666 30.385 47.681 30.343 47.6383 30.3792L47.5203 30.3954C47.5129 30.3976 47.5055 30.4146 47.4908 30.4146C47.383 30.4146 47.3955 30.4311 47.2989 30.4736C47.2989 30.4752 47.2915 30.4765 47.2915 30.4774C47.0825 30.5331 46.9735 30.5609 46.7971 30.4959C46.7859 30.4918 46.7094 30.4975 46.7012 30.4634C46.7012 30.4596 46.7012 30.4612 46.6938 30.4612C46.5882 30.4612 46.6376 30.4625 46.5388 30.4131C46.5388 30.4116 46.5314 30.4094 46.5314 30.4087C46.4969 30.3962 46.422 30.3254 46.3985 30.2464C46.3664 30.1381 46.3003 30.0611 46.2288 29.8007C46.1818 29.63 46.2053 29.53 46.1772 29.4525L46.192 29.1839L46.2215 29.0652L46.2731 28.9006L46.3542 28.8608C46.4003 28.7778 46.4648 28.797 46.4648 28.7811L46.5018 28.7183L46.5238 28.6858C46.5459 28.7042 46.5608 28.6438 46.5755 28.6098C46.5829 28.5899 46.5976 28.6054 46.605 28.6002L46.6714 28.5514L46.8559 28.5337L47.0698 28.5175L47.2322 28.4932L47.4536 28.4939L47.7192 28.4541L47.9627 28.5376L48.066 28.5819L47.889 26.6582C47.4812 23.9078 46.4272 21.2678 44.8562 18.9747C44.6125 18.6189 44.2957 18.1559 44.015 17.8376L43.624 17.3801C43.3866 17.0865 43.3358 16.9527 43.0853 16.6851C42.2295 15.7703 41.8961 15.4725 40.9602 14.7253C40.4646 14.3296 40.1002 14.0828 39.5804 13.7225C39.1932 13.454 38.088 12.8047 37.6177 12.5707C36.8344 12.1809 35.9792 11.8795 35.1384 11.6381C34.9614 11.5923 34.7842 11.5399 34.6735 11.4661C34.4796 11.3419 33.5575 11.1284 33.3307 11.0809L31.5302 10.8102L30.298 10.6353C30.3054 10.6397 30.3054 10.6456 30.3054 10.6501C30.3243 10.7337 30.3589 10.7251 30.3201 10.7358V10.7417L30.3643 10.8361L30.4012 10.9438L30.4381 11.3209C30.4843 11.3533 30.4337 11.3593 30.5045 11.4301C30.5045 11.4353 30.5119 11.4397 30.5045 11.4441C30.4816 11.4615 30.5266 11.474 30.5266 11.602C30.5266 11.6109 30.5487 11.6219 30.5487 11.6322C30.5487 11.7645 30.5976 11.7907 30.6077 11.8255L30.6521 12.0321C30.6901 12.1828 30.627 12.402 30.5931 12.4224V12.5014C30.5615 12.5795 30.4815 12.7011 30.3791 12.7249C30.2494 12.7551 30.1234 12.9021 29.6117 12.9404L29.3313 12.9419L29.0288 12.8482L28.9924 12.7712C28.92 12.7289 28.936 12.6751 28.9113 12.6554L28.8523 12.6228L28.8154 12.5963C28.8375 12.5801 28.7784 12.5631 28.7415 12.5469L28.7341 12.5063C28.7046 12.4886 28.7046 12.4709 28.6825 12.4539L28.6678 12.2642L28.653 12.0546L28.6235 11.89V11.668C28.6604 11.6422 28.6088 11.6177 28.6235 11.5919L28.594 11.5012L28.5866 11.4009L28.7341 10.9817C28.7415 10.9765 28.7415 10.9714 28.7341 10.9662L28.8005 10.5892C28.8005 10.5826 28.8154 10.5752 28.8154 10.5686C28.8154 10.5236 28.7691 10.5641 28.8818 10.5192L28.9113 10.4549C28.8112 10.4949 28.7047 10.4873 28.5498 10.5028C28.0455 10.5532 28.075 10.5918 27.6496 10.6755C27.1273 10.7783 26.901 10.7834 26.3214 10.9242C25.7359 11.0664 25.4463 11.2193 24.9932 11.3329C24.4273 11.4749 23.9501 11.6533 23.4141 11.8221C22.4281 12.1328 20.922 12.9639 20.005 13.5192C19.411 13.8788 17.9946 14.8735 17.5185 15.3861C17.2224 15.7048 16.8196 16.0525 16.5297 16.3498L16.1387 16.8006C15.6201 17.2715 14.9895 18.2853 14.5522 18.8866C13.7884 19.937 13.1917 21.1202 12.7001 22.3214C12.1451 23.6774 11.7068 25.1816 11.4827 26.6306C11.4182 27.0478 11.2834 28.2964 11.2834 28.6945L11.4458 28.6842C11.4458 28.6826 11.4532 28.6864 11.4532 28.682C11.462 28.6567 11.476 28.6853 11.5638 28.6238C11.5638 28.5967 11.5822 28.6457 11.6228 28.6133L11.7334 28.5956C11.7409 28.5934 11.7555 28.5764 11.763 28.5764C11.866 28.5764 11.8699 28.5598 11.9622 28.5174C11.9622 28.5159 11.9622 28.5152 11.9622 28.5152C12.0679 28.4835 12.2334 28.4466 12.346 28.4621L12.4566 28.4953C12.5303 28.5136 12.5058 28.481 12.5526 28.5278L12.6337 28.5337C12.7306 28.5656 12.7723 28.611 12.8402 28.7027L12.9952 29.0701L13.069 29.5092C13.0764 29.5166 13.0765 29.5291 13.0765 29.5387C13.0839 29.6368 13.0839 29.6368 13.0913 29.6833L13.0692 29.8081L13.0397 29.9261C13.0176 29.9386 13.0027 29.9764 12.9953 30.0582C12.9772 30.1383 12.9428 30.0596 12.9068 30.132C12.8676 30.2111 12.7934 30.1775 12.7739 30.2346C12.7546 30.2914 12.7173 30.2837 12.678 30.3814C12.6706 30.4013 12.6632 30.3866 12.6485 30.391C12.6485 30.3932 12.6411 30.3866 12.6411 30.3925C12.6158 30.458 12.4561 30.4846 12.3976 30.4574C12.3829 30.4515 12.3755 30.4655 12.3681 30.4671C12.3017 30.4693 12.2501 30.4714 12.191 30.4736L12.0213 30.4979L11.7999 30.4971L11.6818 30.5089C11.5276 30.5668 11.4916 30.5206 11.2908 30.4536C11.2908 30.4529 11.2908 30.4529 11.2834 30.4514C11.2908 30.5172 11.2982 30.5834 11.2982 30.6492C11.4532 33.0724 12.0877 35.4616 13.1724 37.6339C14.7885 40.8628 17.2191 43.4516 20.3224 45.2857C22.06 46.3126 23.3323 46.7649 25.1777 47.2846C26.1812 47.5784 27.2216 47.6765 28.2547 47.7687L28.8228 47.8072C28.8228 47.5838 28.7489 47.5701 28.7489 47.5475L28.712 47.3593L28.653 47.166L28.594 46.7779L28.6309 46.6649C28.6335 46.6574 28.6202 46.5895 28.6604 46.5705C28.6623 46.5696 28.6729 46.4125 28.7194 46.3985L28.8744 46.2665C29.0532 46.2082 29.1433 46.122 29.4499 46.0709L29.8188 46.0318L29.9368 46.0561C29.9443 46.0627 29.9517 46.0672 29.9959 46.0708C30.1128 46.0815 30.0155 46.1056 30.1877 46.1328C30.2742 46.1464 30.1931 46.1853 30.2616 46.2198C30.3615 46.2705 30.3054 46.3325 30.3648 46.3482L30.4386 46.3947C30.4165 46.4124 30.483 46.4279 30.5125 46.4441L30.5273 46.4861C30.6068 46.539 30.614 46.6842 30.5937 46.7266L30.6084 47.0402C30.6158 47.0616 30.6305 47.0808 30.6305 47.1022V47.3228C30.5936 47.3486 30.6453 47.373 30.6379 47.3988C30.6209 47.4426 30.6641 47.4757 30.6674 47.4896C30.6945 47.6039 30.601 47.7377 30.601 47.7884C30.601 47.7877 30.601 47.7877 30.601 47.7877L32.003 47.6394C35.7179 47.1412 39.3632 45.4989 42.1119 42.9539L43.0637 42.0177ZM46.0742 41.1094C47.6452 38.8818 48.6606 36.5619 49.2471 33.9129C49.3802 33.3116 49.48 32.75 49.5423 32.1347L49.6161 31.5524C49.7302 30.3504 49.7254 28.6724 49.594 27.4551C49.519 26.7592 49.2189 24.9737 48.9742 24.2955L48.7528 23.4735C48.4655 22.6012 47.9032 21.2403 47.4985 20.4814C46.8935 19.2993 46.1629 18.1807 45.3291 17.1455L44.6428 16.3229C42.2376 13.6423 38.7767 11.6055 35.2791 10.7756C34.4887 10.5879 33.2984 10.3574 32.4825 10.2901C31.8529 10.2381 31.1311 10.176 30.4975 10.2208C30.009 10.2552 30.7411 10.2894 30.859 10.3469C30.8147 10.3646 30.7705 10.3808 30.7262 10.397C30.6419 10.4179 30.4599 10.419 30.7188 10.4591C30.7483 10.4635 30.7704 10.4709 30.7999 10.4775L30.1949 10.4716C30.0965 10.4053 29.6381 10.1696 29.5455 10.1756L29.3167 10.1734C29.2349 10.1386 29.0013 10.1998 29.0733 10.2406V10.2465C29.0659 10.2524 29.0584 10.2583 29.0584 10.2642L28.7706 10.194C28.4828 10.1564 28.2025 10.1453 28.0402 10.0715C27.9058 10.0118 26.6803 10.0584 26.4242 10.084C23.9609 10.3303 22.2687 10.8394 20.049 11.8851C19.0732 12.3448 18.7021 12.5473 17.7764 13.1749C15.5932 14.655 13.6309 16.7551 12.2571 18.9894C11.5438 20.1494 11.1663 21.0307 10.6559 22.2604C10.3882 22.905 10.2724 23.2531 10.073 23.9405C9.25948 26.7445 9.05717 29.7296 9.49006 32.6179C9.70953 34.0819 10.1253 35.5801 10.6707 36.953C11.7516 39.6739 13.4942 42.2787 15.644 44.2544C17.7403 46.1809 19.8317 47.4887 22.5505 48.4883C24.05 49.0397 26.058 49.5372 27.7157 49.6401L28.793 49.7088C29.8464 49.7284 30.6773 49.731 31.7445 49.615C32.9775 49.4811 34.7571 49.1073 35.9061 48.6971C37.9418 47.9703 39.5568 47.1639 41.3221 45.8991C43.1804 44.5676 44.7578 42.9808 46.0742 41.1094Z" fill="#ACE2FF"/>
</svg>
