<svg width="43" height="55" viewBox="0 0 43 55" fill="none" xmlns="http://www.w3.org/2000/svg">
<path fill-rule="evenodd" clip-rule="evenodd" d="M40.3754 26.0606C40.3529 28.5815 40.0789 31.217 39.5578 33.6762L39.1498 35.4492C39.0063 36.2182 38.867 36.9887 38.716 37.755C38.3015 39.9299 37.9417 41.697 37.4134 43.8479C37.3393 44.1555 37.277 44.466 37.2001 44.7735L36.2877 48.2329C36.1761 48.6694 36.0632 49.1044 35.9254 49.5361C35.7701 50.023 35.5826 50.8519 35.4425 51.3771C35.3043 51.8944 34.8419 52.3696 34.3811 52.6304C33.4397 53.1632 32.1384 52.9095 31.431 52.0311C31.2702 51.8323 31.1441 51.6064 31.052 51.3667L31.1122 48.58L31.2008 42.073C31.2077 41.6087 31.2181 41.1425 31.2196 40.679C31.2203 40.1607 31.2556 39.6397 31.2327 39.1236C31.2307 39.0598 31.2307 38.9878 31.2383 38.9255C31.275 38.6101 31.2543 38.0262 31.2598 37.6534L31.3347 32.2195C31.3347 32.2194 31.4132 32.1181 31.4663 32.1385C31.5635 32.1755 31.537 31.9721 31.6381 31.9251C31.8259 31.8378 32.0645 31.5003 32.123 31.5066C32.2244 31.5176 32.2067 31.4508 32.2457 31.4083L33.156 30.281C33.3695 29.9818 34.0859 29.2655 34.3893 28.7783L34.7115 28.2635L35.1701 27.6067C35.2103 27.545 35.2394 27.4764 35.2803 27.414L35.9107 26.4676C36.0446 26.3226 36.3071 25.9096 36.3555 25.7139L36.4311 25.5836C36.4387 25.5186 36.4248 25.4389 36.4727 25.3987C36.4748 25.3967 36.4762 25.3932 36.4748 25.389C36.4548 25.3207 36.5374 25.3099 36.5143 25.2192C36.4968 25.1504 36.6658 24.9779 36.6951 24.7834C36.7179 24.6318 36.8528 24.5662 36.8177 24.4821C36.7397 24.2944 36.8576 24.2886 36.7914 24.1952C36.743 24.1271 36.802 24.1216 36.7774 24.0927C36.7358 24.0462 36.7394 24.0185 36.7317 23.9839C36.5768 23.9917 36.407 23.8753 36.2197 23.9133L35.7278 24.0941C35.4577 24.2696 35.5088 24.0885 35.1076 24.5216C34.9872 24.6516 34.8453 24.7979 34.755 24.9567L34.1343 25.7327L33.5128 26.7332C33.3743 26.9955 33.339 27.0896 33.1594 27.3387C33.1373 27.3684 33.1297 27.408 33.1102 27.4385L32.8865 27.7849C32.819 27.9406 32.8196 27.867 32.777 27.9588C30.9944 30.4819 28.0473 33.8542 24.2378 34.9066C21.9598 35.5359 21.5385 32.9168 21.5385 33.2846C21.5351 33.2833 21.5322 33.2846 21.5274 33.2854L21.454 33.4994C21.4143 33.433 21.4352 33.5427 21.4172 33.5756C21.2293 33.0517 21.4142 33.1693 21.3306 32.765L21.2669 32.9458C21.2537 32.8737 21.2385 32.8038 21.2136 32.74C21.1139 33.3461 21.3165 33.0415 20.9226 33.7412C20.7498 34.0481 20.3721 34.39 20.0719 34.4631C19.2007 34.6755 19.3711 34.5033 18.8884 34.4915C18.4169 34.4801 17.541 34.3601 17.0961 34.1194C14.0225 32.4572 13.5985 32.0699 11.437 29.3062C11.3256 29.1673 10.7936 28.1637 10.6021 27.8943L10.2259 27.4065C10.1829 27.3255 10.0893 27.2797 10.0637 27.1862C9.98946 27.0274 8.95791 25.6897 8.81037 25.4451C8.72597 25.2763 8.42412 24.8666 8.2686 24.762L8.17512 24.6449C8.11623 24.6145 8.03726 24.5992 8.01719 24.5389C8.01646 24.5368 8.01307 24.5348 8.00884 24.5348C7.93846 24.5303 7.95454 24.4457 7.86542 24.4357C7.79008 24.4273 7.70325 24.2165 7.52524 24.1108C7.38605 24.0281 7.38411 23.8863 7.28966 23.8869C7.07961 23.8885 7.1258 23.7797 7.01394 23.8073C6.93026 23.8279 6.94888 23.771 6.91417 23.7829C6.85395 23.8037 6.82964 23.7906 6.79505 23.785C6.7462 23.9315 6.57714 24.0423 6.54219 24.2354C6.4787 24.5857 6.56468 24.8735 6.5463 24.9837C6.51957 25.1444 6.74463 25.5991 6.83665 25.7603L6.99665 26.0022L7.49138 26.8432L8.21467 27.782L8.66356 28.328C8.68436 28.3578 8.71835 28.3793 8.7412 28.4077L9.11948 28.9017C9.35977 29.139 9.59268 29.4673 9.79778 29.7408C9.90311 29.8812 10.6055 30.7644 10.7068 30.8354C10.739 30.8484 10.6898 30.8765 10.7733 30.9296C10.8388 30.9712 11.1416 31.417 11.3823 31.5546C11.5553 31.773 11.8281 32.162 11.7786 32.4497C11.7041 32.8839 11.7642 33.3265 11.769 33.7744L12.0441 51.3393C11.9817 51.4959 11.9027 51.6448 11.8064 51.7827C11.12 52.7758 9.79149 53.0329 8.78982 52.3744C8.44686 52.1492 8.17464 51.8271 8.00558 51.4564L7.62041 50.0742L6.54098 46.2885L5.8738 43.7596C5.77197 43.3785 5.67559 42.9947 5.60013 42.604C5.50798 42.144 5.38886 41.6784 5.28281 41.2148C4.87865 39.4316 4.51755 37.6372 4.16177 35.8439L3.88049 34.6688C2.96371 31.1503 2.63393 26.9328 2.86829 23.3694C2.94968 22.1318 3.01825 21.2209 3.17727 19.9841L3.60887 16.9675L3.86174 15.7017C3.92172 15.3304 4.02294 14.5877 4.14025 14.2225L4.22756 13.8206L4.5421 12.9387C4.59701 12.7587 4.78783 12.4343 4.90659 12.2749C5.34218 11.6901 5.7288 11.3471 6.39404 11.0472C6.93606 10.8029 7.52633 10.6604 8.13522 10.6669C8.47612 10.6705 8.37019 10.6515 8.57722 10.7375C9.27354 11.0269 9.29507 11.0409 9.97954 11.2107C10.3 11.2901 11.0694 11.3247 11.3659 11.3014C9.22481 13.482 9.04547 16.8664 9.66911 19.6895C9.82668 20.4026 10.164 21.5711 10.4561 22.1782L10.6418 22.6681C10.812 23.0597 11.3434 24.066 11.5618 24.4403C12.9525 26.8241 14.6682 28.6344 16.9389 30.1875C18.0129 30.922 19.4406 31.7435 20.6643 32.2861C20.6985 32.3014 21.3631 32.6015 21.3163 32.5106C21.2484 32.4385 21.1139 32.3935 21.0723 32.3214C21.1056 32.3173 21.1353 32.3103 21.1638 32.3049C21.2433 32.2972 21.2965 32.3547 21.1554 32.2217L21.691 32.4454C21.4573 32.1717 21.1841 31.9514 20.8728 31.7706C20.5943 31.6112 20.3296 31.4345 20.0414 31.2925C19.9438 31.2448 19.2647 30.7996 19.2003 30.6939C19.1155 30.5546 18.4467 30.1626 18.2255 30.0046C17.3476 29.3777 16.3462 28.3866 15.594 27.597C15.3922 27.385 14.6614 26.5954 14.5458 26.3637C14.3943 26.0602 14.0186 25.6513 13.7657 25.278C12.5956 23.5523 11.8091 22.0455 11.3026 20.0574C10.8522 18.2894 10.7042 16.3892 11.2534 14.6367C11.8305 12.7956 13.2021 11.3789 15.2414 11.3111C16.3849 11.273 17.2666 11.5519 18.3675 12.0635C19.2478 12.4726 20.577 13.2624 21.4278 13.8372C21.7306 14.0354 22.1337 14.0471 22.4546 13.8359C23.0612 13.4373 24.2959 12.683 24.8754 12.4329C25.6202 12.1114 26.0367 11.8804 26.8527 11.6694C28.2416 11.3102 29.8096 11.464 30.9536 12.3726C32.6641 13.7311 32.9801 16.3348 32.7183 18.4016C32.6014 19.3246 32.4672 19.8209 32.1717 20.7628C31.7871 21.9886 30.8406 23.9053 30.0626 25.0244C29.9192 25.2247 29.7674 25.4187 29.6282 25.6223C29.3843 25.9893 29.2065 26.2937 28.8876 26.6276C28.8731 26.6429 28.8592 26.6616 28.8481 26.6789C28.6761 26.9549 28.3167 27.253 28.1026 27.5595C27.7942 28.001 26.1346 29.3764 25.6603 29.7739C25.1914 30.1668 24.5362 30.5931 24.0121 30.9191C23.9318 30.9683 23.85 31.03 23.7855 31.0896C23.2751 31.561 22.6431 31.8311 22.4643 32.0249C22.3069 32.1955 22.0781 32.2585 22.0395 32.3179C21.9716 32.4211 21.8331 32.5078 21.6882 32.6137C22.0183 32.5095 22.037 32.5744 22.1587 32.5493C22.2837 32.5235 22.5062 32.4707 22.6207 32.4967C22.7201 32.5192 23.6251 32.1682 23.8068 32.0892C24.5851 31.7511 25.5053 31.2919 26.2117 30.8407C26.6267 30.5754 27.0319 30.2927 27.4414 30.0398C28.2416 29.5463 29.5096 28.3533 30.1491 27.6413C31.2404 26.4261 32.0454 25.3507 32.8047 23.8917L33.2294 23.0887C34.1948 21.0591 34.8205 18.5747 34.6713 16.3619C34.5503 14.568 33.9437 12.7118 32.651 11.39L33.7381 11.1752C34.0763 11.0751 34.4151 10.909 34.7261 10.763L34.9852 10.6134C35.3719 10.6439 35.7542 10.6959 36.1202 10.7873C36.7964 10.9611 37.2488 11.2418 37.6985 11.7012C38.5532 12.5743 38.8688 13.5753 39.125 14.7704C39.7525 17.6974 40.221 20.4208 40.3278 23.4088L40.3754 26.0606ZM21.5779 33.6507L21.5475 33.4012L21.5177 33.5939C21.5378 33.6126 21.5573 33.6312 21.5779 33.6507ZM42.2301 24.449C42.2053 22.1183 41.8347 19.0064 41.308 16.7918C41.2138 16.3956 41.1336 15.857 41.0295 15.4906C40.8826 14.9931 40.7142 14.5192 40.6069 13.9892L40.32 13.1392C40.162 12.6946 39.7865 12.057 39.508 11.6391C38.8452 10.6447 37.7692 9.88708 36.5842 9.6763C36.4553 9.65139 36.3258 9.6312 36.1955 9.6133C36.5566 9.18798 36.8754 8.78226 37.115 8.26576C37.6153 7.18717 37.7191 6.42966 37.6734 5.31286C37.6521 4.79346 37.4187 3.91138 37.1434 3.42766L36.7138 2.7473C36.3994 2.27216 36.2775 2.32573 36.0577 2.04614L35.9184 1.93875C35.6995 1.74514 35.7087 1.76473 35.4687 1.61792C35.251 1.4849 34.848 1.16854 34.5604 1.0643L33.8343 0.823884C33.7068 0.771037 33.3908 0.670906 33.2565 0.695697L32.7231 0.727623C32.4949 0.706581 32.5724 0.81288 32.3718 0.809373C32.2325 0.806954 32.3836 0.823884 32.0912 0.913253C32.2662 0.998872 32.2471 1.04845 32.3004 1.08643C32.508 1.23445 32.4234 1.24509 32.489 1.27907C32.5672 1.31861 32.638 1.38573 32.7162 1.42528C33.1271 1.64102 33.8166 2.01494 34.097 2.33843L34.8175 3.07563C35.1253 3.44749 35.3892 3.86398 35.5803 4.30888L35.7958 5.21647C35.8973 6.10689 35.6834 7.08752 35.2 7.84794C34.6626 8.69313 33.7117 9.40602 32.7126 9.55368C32.626 9.56613 32.5428 9.60012 32.4562 9.60846C31.9316 9.64752 31.9183 9.62442 31.4682 9.58766C31.1208 9.55924 31.241 9.53856 30.9839 9.48995C30.5149 9.40118 29.9123 9.10696 29.549 8.77839L29.0773 8.31413C28.5864 7.76353 28.1781 6.80188 28.1142 6.07351C28.0288 5.09953 28.2332 4.05638 29.019 3.08603C29.5044 2.48669 29.597 2.35282 30.1906 1.87635C30.4185 1.69338 30.9403 1.37872 31.2512 1.27363C32.2584 0.933448 31.8545 1.06768 31.7813 0.968035C31.8431 0.860043 31.8783 0.871168 31.7854 0.842629C31.864 0.822191 32.0361 0.794135 32.0909 0.744916C31.9981 0.672841 31.6774 0.590124 31.5629 0.593873L30.7869 0.717223C30.6301 0.746851 30.6757 0.654701 30.5277 0.710934L29.8403 1.01302C29.4405 1.13178 29.0314 1.37896 28.6931 1.62336L28.1125 2.11531C27.918 2.19138 27.8675 2.33613 27.7522 2.48185C27.7017 2.54631 27.6441 2.60726 27.5943 2.67232C26.7336 3.83048 26.3355 5.69694 26.7283 7.1024L26.86 7.58117C27.1344 8.40048 27.4515 8.97986 28.0329 9.63265C26.3712 9.68731 24.5763 10.5092 23.1761 11.2886L21.9525 12.0368C21.3991 11.657 19.971 10.8244 19.3418 10.5416C17.876 9.88273 16.5776 9.492 14.9963 9.62914C15.6737 8.95168 16.1768 8.07033 16.3841 7.1342L16.495 6.48916C16.546 6.02684 16.5375 5.42436 16.4422 4.97183C16.3974 4.75851 16.404 4.61919 16.3001 4.39475C16.2523 4.29123 16.329 4.31251 16.1914 4.03304C16.1645 3.97826 16.1437 3.92009 16.1208 3.86398C15.8996 3.27589 15.3526 2.44461 14.8335 2.02522C14.4218 1.69253 14.0902 1.53266 13.621 1.34135C13.0803 1.12089 11.8858 0.959327 11.3533 1.13698C11.2286 1.17858 11.4134 1.19913 11.4351 1.23953C11.3588 1.36094 11.3381 1.30967 11.4171 1.36493C11.3476 1.3763 11.1916 1.38936 11.1434 1.4335C11.2997 1.58285 11.6936 1.68733 11.9069 1.68359C11.9447 1.68298 12.2254 1.75687 12.252 1.82145C12.2968 1.93041 12.6822 1.90646 12.8942 2.0702L13.4007 2.43396C13.5275 2.53664 14.0425 2.96921 14.0589 3.09558C14.0775 3.23852 14.1754 3.27226 14.2675 3.40662C14.7993 4.18287 15.003 4.84522 15.0129 5.7678C15.0166 6.10592 14.9141 6.69921 14.7774 7.03081C14.5316 7.62688 14.3541 7.87575 13.9085 8.35755C13.4826 8.81805 12.8598 9.11845 12.2754 9.32125C12.005 9.41509 11.3578 9.5278 11.0539 9.52284C10.8437 9.51933 10.4249 9.49611 10.2329 9.41545C10.0278 9.32935 9.93939 9.3493 9.55047 9.16537C8.82053 8.81999 8.10172 8.18957 7.76359 7.45056C7.5412 7.00577 7.4089 6.51733 7.37565 6.01777C7.37286 5.92429 7.3465 5.83141 7.35763 5.73721C7.42668 5.12299 7.39729 4.99372 7.65004 4.3003L7.92371 3.66916C7.9618 3.59503 8.03109 3.54097 8.06362 3.46128C8.1178 3.33914 8.16158 3.18858 8.28396 3.08857C8.31359 3.06438 8.26243 3.05664 8.42593 2.90354C8.60951 2.73182 8.42255 2.78829 8.88185 2.43445L9.46389 2.04916C9.72147 1.85241 10.1059 1.82641 10.2122 1.72567C10.4403 1.50932 10.6627 1.56483 10.7631 1.45333C10.8397 1.3682 10.9417 1.41089 10.9654 1.37436C11.0062 1.31063 11.0741 1.29394 11.1434 1.26492C10.9822 1.19805 10.9864 1.14 10.9362 1.11255C10.6854 0.975049 10.8302 0.919904 10.4374 0.858229C10.0321 0.794619 9.43934 0.814694 9.04752 0.931634C8.82078 0.999356 8.27078 1.15947 8.08031 1.26492C7.10403 1.80561 6.35402 2.67087 5.9443 3.71197L5.78213 4.08613C5.62008 4.54023 5.48791 5.34466 5.49117 5.81267C5.49952 7.01303 5.78685 7.89474 6.44169 8.90899L7.0091 9.60386C6.23925 9.69783 5.33541 10.0028 4.70536 10.454C3.55337 11.279 2.91969 12.5796 2.55339 13.8974C2.10401 15.5143 1.70904 17.4298 1.47601 19.0757L1.31178 20.0983C0.898199 23.323 0.759006 26.6049 1.12748 29.8417C1.30864 31.4333 1.4771 32.4224 1.78499 33.9495C1.91317 34.5834 2.08502 35.2084 2.24501 35.8354C2.39194 36.5574 2.53464 37.2794 2.68907 37.9999L4.11836 44.1488C4.19455 44.4605 4.2867 44.7682 4.36917 45.0786C4.66412 46.2036 4.98374 47.4684 5.32042 48.574C5.4925 49.1383 6.2511 51.8342 6.37143 52.1019C7.54205 54.7217 11.1087 55.2592 12.9541 53.0047C13.2111 52.6906 13.6924 51.913 13.6871 51.4777C13.667 49.8128 13.5945 48.0717 13.5457 46.4005L13.4099 42.1242C13.3961 41.6573 13.385 41.191 13.3642 40.726C13.342 40.2085 13.353 39.6847 13.3066 39.1699C13.3018 39.1062 13.2983 39.0341 13.3025 38.9717C13.3257 38.6268 13.2788 38.0866 13.2665 37.6976L13.1265 33.3161C14.8613 34.4334 17.9032 35.7491 19.9669 35.1708C20.3461 35.0645 20.7831 34.8445 21.045 34.5493C21.19 34.386 21.2416 34.2903 21.3484 34.1073C21.4854 34.419 21.6436 34.6891 21.913 34.9283C22.7298 35.6535 23.7677 35.616 23.9465 35.6884C24.303 35.8328 25.5682 35.5094 25.9939 35.3822C26.8961 35.1125 27.21 35.0273 28.1251 34.609C28.653 34.3676 29.4574 33.9347 29.941 33.5898L29.914 34.2922L29.5835 46.1537L29.4047 51.4754C29.3952 51.8206 29.7018 52.4098 29.8683 52.6802C31.0153 54.5424 33.4599 55.1421 35.3514 54.0486C36.0872 53.6246 36.6878 52.9587 37.033 52.1765L38.1416 48.2842L38.8642 45.4859C39.0749 44.7113 39.2204 43.927 39.4359 43.1503C39.5654 42.6937 39.6596 42.2151 39.767 41.746C40.1754 39.9558 40.5599 38.1257 40.8964 36.3217C41.0934 35.2648 41.3715 34.2789 41.56 33.2482C42.0617 30.5062 42.2462 28.4247 42.2577 25.5085C42.2634 25.155 42.2308 24.8017 42.2301 24.449Z" fill="#ACE2FF"/>
</svg>
