<svg width="50" height="55" viewBox="0 0 50 55" fill="none" xmlns="http://www.w3.org/2000/svg">
<path d="M49.1249 25.8437C49.1187 25.8539 49.1126 25.8635 49.1063 25.8737C49.1205 25.9078 49.1064 25.9611 49.106 26.0015C49.1197 26.0418 49.1299 26.0746 49.1188 26.1007C49.0052 26.3145 48.8703 26.5011 48.7164 26.6833C48.6259 26.7758 48.4523 26.799 48.3507 26.8064C48.3479 26.8007 48.3447 26.8016 48.3418 26.806C48.3193 26.8412 48.2961 26.8182 48.2732 26.8289C47.9563 26.9283 47.604 26.8914 47.306 26.9952C46.8792 27.0405 46.4209 27.2565 45.996 27.0872C45.4835 27.1005 45.2985 26.405 45.2443 26.0015C45.2643 25.9512 45.2697 25.9022 45.2969 25.8296C45.3026 25.7859 45.3107 25.7745 45.3191 25.7698C45.3476 25.7714 45.3702 25.6588 45.3953 25.6123C45.4136 25.6104 45.4316 25.5976 45.4501 25.6043C45.4936 25.615 45.5335 25.5106 45.5758 25.5213C45.6047 25.5205 45.6336 25.5033 45.6622 25.4967C45.6791 25.4905 45.6909 25.4284 45.7082 25.4364C45.7241 25.4405 45.7322 25.4303 45.7445 25.4053C45.7681 25.4226 45.7896 25.3655 45.8117 25.3332C45.8249 25.3139 45.8386 25.3284 45.852 25.3238C45.8829 25.3214 45.9116 25.2884 45.9414 25.2759C46.2944 25.233 46.6747 25.2171 47.0344 25.2106C47.2342 25.2033 47.4442 25.1297 47.6513 25.2289C47.9575 25.3005 48.2794 25.3407 48.5866 25.3675C48.6063 25.3355 48.6215 25.4071 48.6367 25.4328C48.6528 25.4386 48.6686 25.4374 48.6846 25.4557C48.7526 25.4633 48.8142 25.494 48.8671 25.5504C48.8964 25.578 48.9274 25.5329 48.955 25.5206C48.9609 25.517 48.967 25.5196 48.9716 25.5575C48.9805 25.6047 48.9967 25.6033 49.0273 25.6124C49.1122 25.5566 49.1652 25.7991 49.1249 25.8437ZM45.9005 38.4067C45.8795 38.3828 45.8693 38.3783 45.8861 38.3344C45.9019 38.2996 45.8985 38.2946 45.8922 38.2951C45.8668 38.2943 45.8173 38.3173 45.8105 38.2812C45.8009 38.1896 45.7392 38.139 45.6955 38.0762C45.69 38.0447 45.729 37.9818 45.6908 37.9974C45.6693 38.0036 45.6692 37.9793 45.6584 37.9699C45.5069 37.864 45.3693 37.7443 45.227 37.6313C45.0828 37.5024 44.9714 37.3184 44.7872 37.239C44.6555 37.2254 44.5739 37.142 44.4604 37.0797C44.2036 36.9867 43.9835 36.8115 43.7314 36.7283C43.7021 36.7254 43.6645 36.7415 43.6394 36.7295C43.6268 36.7274 43.6239 36.7087 43.6041 36.7194C43.5641 36.7465 43.5292 36.767 43.5116 36.7534C43.4873 36.7767 43.4821 36.7658 43.4731 36.7616C43.4656 36.748 43.4221 36.7944 43.4075 36.793C43.3466 36.7889 43.3145 36.7505 43.2474 36.7874C43.2234 36.7982 43.202 36.8038 43.1919 36.7903C43.1356 36.7263 43.0421 36.8959 43.0086 36.874C42.9605 36.9039 42.8698 37.0108 42.8342 37.0399C42.6894 37.3765 42.4415 38.077 42.8527 38.3132C43.0871 38.6489 43.5477 38.6712 43.8928 38.8235C44.1665 38.8666 44.421 39.0586 44.7108 39.1153C44.7335 39.1164 44.7396 39.1467 44.7745 39.1266C44.7789 39.1241 44.7818 39.1247 44.781 39.1308C44.7966 39.1615 45.0734 39.2304 45.1208 39.1894C45.333 39.1004 45.5282 39.0007 45.7219 38.8687C45.7397 38.8507 45.7524 38.8187 45.7625 38.7774C45.7836 38.7431 45.8209 38.7035 45.8275 38.6675C45.8987 38.6604 46.0009 38.4057 45.9005 38.4067ZM22.6151 2.52467C22.6772 2.87382 22.6405 3.26199 22.6846 3.62595C22.6631 3.74286 22.6657 3.87538 22.7461 3.97391C22.7563 3.99283 22.7342 4.01465 22.7567 4.03409C22.7998 4.05975 22.8359 4.08183 22.8324 4.10815C22.8648 4.11926 22.8579 4.1309 22.8587 4.14241C22.8506 4.15947 22.9125 4.17402 22.9186 4.19068C22.9453 4.25324 22.9273 4.30878 22.9939 4.35692C23.0152 4.37491 23.0308 4.39356 23.0241 4.41168C22.9925 4.50055 23.1875 4.50293 23.1883 4.54909C23.2367 4.58255 23.3755 4.60821 23.4191 4.62924C23.8328 4.57858 24.5248 4.38311 24.5127 3.86229C24.6865 3.42281 24.4752 2.94748 24.4345 2.50417C24.3337 2.19284 24.3746 1.83006 24.2783 1.50035C24.2679 1.47655 24.291 1.45261 24.2562 1.42893C24.2519 1.42602 24.2511 1.42272 24.2566 1.41981C24.2499 1.31295 24.2298 1.13718 24.1375 1.03971C23.9575 0.878754 23.7724 0.737241 23.5591 0.616492C23.534 0.608425 23.5005 0.61517 23.4597 0.628792C23.4192 0.627469 23.3662 0.612789 23.3319 0.627205C23.2843 0.554994 23.0196 0.60816 23.0698 0.705896C23.0604 0.735918 23.062 0.75655 23.0144 0.763031C22.9764 0.767528 22.9738 0.773743 22.9773 0.779959C23.0502 0.852832 22.9806 0.888012 22.9472 0.949642C22.9013 1.00347 22.9243 1.086 22.8661 1.11906C22.8102 1.13189 22.8087 1.14564 22.8203 1.1598C22.8178 1.2976 22.7788 1.453 22.7664 1.59584C22.7629 1.911 22.5933 2.20699 22.6151 2.52467ZM10.4218 4.49817C10.4328 4.50664 10.45 4.51206 10.4402 4.53216C10.4158 4.60265 10.4177 4.66984 10.443 4.73041C10.4347 4.75276 10.443 4.76533 10.4455 4.78146C10.4344 4.81307 10.3712 4.84852 10.4121 4.85526C10.473 4.96569 10.5111 5.10998 10.566 5.22981C10.7254 5.49352 10.6817 5.86714 10.9105 6.08814C11.0274 6.21854 11.0645 6.41124 11.2049 6.53715C11.3605 6.74254 11.4296 7.02556 11.653 7.14935C11.6595 7.2053 11.7785 7.15663 11.7743 7.19868C11.7995 7.19313 11.8163 7.20186 11.8182 7.2135C11.8186 7.23029 11.8798 7.21231 11.8923 7.22209C11.9116 7.24272 11.9399 7.2582 11.9542 7.28174C11.9646 7.32208 12.0742 7.30396 12.0853 7.34549C12.088 7.36413 12.1077 7.37286 12.1179 7.38701C12.2308 7.35276 12.2657 7.38582 12.3532 7.36202C12.4292 7.34893 12.4762 7.33081 12.5275 7.32128C12.84 7.08693 13.3754 6.59124 13.1216 6.16313C13.0705 5.72748 12.6674 5.45146 12.4287 5.11951C12.2001 4.9243 12.0659 4.61165 11.8314 4.39739C11.8113 4.38364 11.8204 4.35296 11.7793 4.35163C11.7743 4.3515 11.7719 4.34925 11.7755 4.3441C11.7268 4.26659 11.6135 4.12667 11.4973 4.10061C11.2652 4.062 11.0407 4.04203 10.8017 4.05234C10.7767 4.05842 10.7502 4.08038 10.7213 4.11186C10.6857 4.13103 10.6331 4.14571 10.6099 4.17441C10.5267 4.14902 10.4233 4.26025 10.3945 4.32598C10.3876 4.37147 10.4365 4.36063 10.4222 4.41287C10.3941 4.46471 10.3294 4.45916 10.4218 4.49817ZM1.29454 15.8557C1.31584 15.8796 1.32668 15.8844 1.30975 15.9286C1.29415 15.9633 1.29758 15.9684 1.30393 15.968C1.32985 15.969 1.37985 15.9463 1.38712 15.9827C1.39783 16.0754 1.46105 16.1263 1.50575 16.1898C1.51131 16.2215 1.47322 16.2845 1.51144 16.269C1.53313 16.2629 1.53353 16.2875 1.54464 16.297C1.69937 16.4049 1.84036 16.5265 1.9861 16.6414C2.13383 16.7725 2.24889 16.9586 2.43656 17.0398C2.57054 17.0546 2.65452 17.1395 2.77011 17.2031C3.03197 17.299 3.25681 17.477 3.51404 17.5631C3.5438 17.5663 3.58202 17.5504 3.60768 17.5628C3.62038 17.5651 3.62368 17.5839 3.64365 17.5733C3.68399 17.5464 3.71943 17.5259 3.73729 17.54C3.76176 17.5168 3.76718 17.5278 3.7763 17.532C3.78411 17.5458 3.82788 17.4995 3.8427 17.5012C3.90446 17.5057 3.93739 17.5448 4.0055 17.5083C4.0297 17.4976 4.05139 17.4923 4.06184 17.506C4.11884 17.5709 4.21301 17.4016 4.24726 17.4236C4.2958 17.3941 4.38692 17.2875 4.42303 17.2585C4.57023 16.9131 4.81054 16.2199 4.39248 15.9782C4.15085 15.6383 3.68333 15.6119 3.331 15.4556C3.05155 15.4095 2.79233 15.2144 2.49727 15.1546C2.47412 15.1533 2.46764 15.1229 2.43246 15.1427C2.4281 15.1452 2.42519 15.1444 2.42585 15.1383C2.3826 15.1024 2.15169 15.0368 2.08014 15.0763C1.86575 15.1636 1.66816 15.2621 1.47243 15.3932C1.45431 15.411 1.44187 15.4432 1.43196 15.4846C1.41053 15.5194 1.37337 15.5582 1.36689 15.5945C1.29362 15.6008 1.19284 15.8566 1.29454 15.8557ZM34.1585 6.16432C34.185 6.20571 34.2064 6.23878 34.1921 6.25743C34.2153 6.28189 34.2043 6.28718 34.2002 6.29618C34.1859 6.3053 34.2333 6.34643 34.2312 6.36217C34.2239 6.38756 34.2255 6.41851 34.213 6.441C34.1845 6.46811 34.2563 6.55143 34.2273 6.57986C34.1629 6.63607 34.3319 6.7309 34.3102 6.76449C34.3391 6.81488 34.4471 6.90243 34.4756 6.93973C34.8192 7.086 35.5116 7.32962 35.7533 6.91381C36.0916 6.67495 36.1163 6.21008 36.2711 5.86053C36.316 5.58319 36.5099 5.32582 36.5685 5.03288C36.5697 5.00987 36.6001 5.00352 36.5801 4.96847C36.5776 4.96411 36.5784 4.9612 36.5845 4.96186C36.6182 4.93157 36.6854 4.67777 36.6452 4.61839C36.5573 4.40493 36.4582 4.20827 36.3269 4.01319C36.309 3.99521 36.2769 3.98264 36.2355 3.97259C36.2011 3.95143 36.1615 3.914 36.1256 3.90752C36.1204 3.83438 35.8625 3.73493 35.8646 3.83518C35.8414 3.85528 35.8355 3.86785 35.792 3.85012C35.7572 3.83452 35.7522 3.83782 35.7526 3.84417C35.7514 3.87023 35.7747 3.91943 35.7383 3.92683C35.6672 3.93847 35.6119 3.96929 35.5735 4.01888C35.5505 4.02192 35.5443 4.03475 35.532 4.04401C35.5015 4.04745 35.4367 4.01266 35.4529 4.0493C35.341 4.20338 35.2052 4.36658 35.083 4.51986C34.9527 4.66627 34.7674 4.77987 34.687 4.96609C34.6747 5.0014 34.6821 5.04967 34.6528 5.07758C34.6267 5.09887 34.6544 5.15098 34.6106 5.16236C34.5045 5.28178 34.4723 5.45266 34.3896 5.58954C34.3235 5.74692 34.2029 5.87018 34.1686 6.03524C34.1654 6.06513 34.1816 6.10256 34.1693 6.12821C34.1667 6.14117 34.148 6.14435 34.1585 6.16432ZM42.7265 15.4274C42.9712 15.6049 43.2927 15.8505 43.5855 15.6578C44.0382 15.604 44.3158 15.1629 44.6649 14.9348C44.8368 14.7059 45.1469 14.6002 45.3387 14.3722C45.3525 14.3522 45.383 14.3613 45.3845 14.3202C45.3846 14.3152 45.3868 14.3128 45.3919 14.3164C45.4691 14.2677 45.6089 14.1546 45.6347 14.0386C45.673 13.8067 45.6928 13.5822 45.6822 13.3434C45.6768 13.3181 45.6536 13.2921 45.6227 13.263C45.6032 13.227 45.5889 13.175 45.5601 13.1516C45.5942 13.0781 45.4224 12.8739 45.3665 12.9606C45.3349 12.9676 45.3232 12.9758 45.2933 12.9389C45.2709 12.9081 45.2645 12.9087 45.2613 12.9146C45.2461 12.9374 45.2397 12.9926 45.2031 12.9815C45.1325 12.9572 45.0657 12.9589 45.0053 12.9842C44.9831 12.9758 44.9704 12.9842 44.9544 12.9866C44.9238 12.975 44.8867 12.9125 44.8807 12.953C44.613 13.073 44.3256 13.1884 44.0369 13.2687C43.8163 13.2791 43.6782 13.4414 43.5165 13.5408C43.2569 13.6625 43.0305 13.8805 42.7724 14.0033C42.7025 14.048 42.6293 14.0888 42.6053 14.1813C42.5957 14.1985 42.5666 14.1899 42.5627 14.2181C42.5649 14.2668 42.5636 14.3087 42.5417 14.3177C42.5491 14.3508 42.5362 14.3502 42.5276 14.3563C42.5111 14.3566 42.5286 14.4181 42.519 14.4304C42.4821 14.4828 42.429 14.4931 42.4245 14.5719C42.4208 14.5987 42.4138 14.6207 42.396 14.6232C42.3081 14.6401 42.4062 14.8077 42.3688 14.8285C42.3689 14.8857 42.4139 15.0185 42.4205 15.0652C42.5071 15.1508 42.6152 15.3338 42.7265 15.4274ZM39.7578 27.2627C40.1617 40.1541 31.6957 38.238 32.2333 53.3301C32.2379 54.1753 31.417 54.5983 30.6644 54.4971C30.3819 54.5136 29.5931 54.4871 29.299 54.4991C25.1796 54.5094 21.0611 54.5753 16.9408 54.5785C15.9157 54.6561 14.8902 54.4741 14.9091 53.1902C14.9061 50.9908 14.8739 48.727 14.8802 46.533C13.4645 46.5612 12.0494 46.5887 10.6339 46.6172C9.99942 46.6268 9.36077 46.673 8.74208 46.4592C6.49798 45.7105 6.12594 43.6334 6.27288 41.5459C6.28121 40.7357 6.25952 37.8273 6.26309 37.0626C5.46983 37.0573 2.97841 37.0822 2.21557 37.0671C1.17234 37.0334 0.534739 35.7274 1.16321 34.8877C1.26994 34.7373 1.64079 34.2008 1.75492 34.0373C3.15087 31.9741 4.59602 29.9186 5.88498 27.7884C6.91683 26.0002 7.32153 23.9855 7.82687 21.9768C9.43893 14.5068 17.502 8.32126 25.1615 10.4138C17.9106 10.3411 11.1309 14.9454 9.58335 22.2127C9.16595 24.06 8.80411 25.9445 8.0197 27.6951C6.66277 30.3931 4.917 32.6612 3.29027 35.1588C3.59789 35.1669 5.59481 35.151 5.95282 35.1568C6.43106 35.1853 7.00967 35.0656 7.44585 35.3068C8.14124 35.6304 8.21134 36.4437 8.16386 37.1178C8.16505 38.8047 8.16624 40.4912 8.1673 42.1784C8.03941 43.5167 8.4658 44.8039 10.0411 44.7374C11.3783 44.7272 14.3976 44.6879 15.7593 44.6786C16.5905 44.6689 16.7967 45.4978 16.7132 46.1791C16.7107 48.3832 16.7033 50.5695 16.7139 52.767C21.1691 52.7215 26.0761 52.7507 30.5432 52.7925C30.5202 48.5273 31.1332 44.0816 33.4329 40.399C34.5369 38.5497 35.9634 36.9634 36.8858 35.0442C37.3052 34.1583 37.658 33.2057 37.8662 32.2466C39.0286 26.0878 38.1327 18.792 33.4506 14.2517C32.5103 13.3447 31.3145 12.7457 30.2085 12.0884C28.6238 11.3025 26.8348 11.0271 25.145 10.5831C25.563 10.5658 26.0298 10.6254 26.458 10.675C26.0462 10.5672 26.3304 10.6118 26.5317 10.5578C26.4074 10.4928 26.1316 10.4617 25.9677 10.411C34.9783 10.9403 39.7287 18.8109 39.7578 27.2627ZM2.30947 35.1596H2.31119C2.30986 35.1595 2.30656 35.1596 2.30523 35.1596H2.30947ZM2.73546 35.9654C2.73599 35.9648 2.73638 35.964 2.73678 35.9632C2.73546 35.965 2.73149 35.9709 2.73017 35.9728L2.73546 35.9654ZM16.7143 53.3194L16.7139 53.3088C16.7139 53.3142 16.714 53.3269 16.714 53.3322L16.7143 53.3194ZM30.5401 53.3235L30.5402 53.3125C30.539 53.3171 30.5399 53.3357 30.5401 53.3407V53.3235ZM31.0286 52.7966C31.0281 52.7966 31.0274 52.7967 31.0269 52.7967C31.0314 52.7967 31.0356 52.7967 31.0286 52.7966ZM29.6256 24.6621C30.4784 28.18 28.0128 29.8546 26.9003 32.7102C26.9676 33.3326 26.9235 34.1554 26.946 34.7864C27.0018 35.6322 27.2382 36.736 26.3223 37.2188C26.0702 37.3821 25.7631 37.4272 25.4661 37.4131C24.4912 37.4669 23.5164 37.5201 22.5396 37.5283C21.6599 37.5459 20.4409 37.5353 20.1775 36.4833C19.9609 35.3691 20.2223 34.1493 20.7516 33.1668C20.1137 32.3799 19.7142 31.3857 19.1497 30.5142C18.3058 29.3585 17.445 28.1609 17.3322 26.6641C16.9111 18.9573 27.6652 17.0644 29.6256 24.6621ZM21.9222 35.9627C21.9217 35.9133 21.9073 35.8631 21.883 35.8205C21.8955 35.8857 21.903 35.9506 21.9168 36.0152C21.9218 35.9978 21.9213 35.9808 21.9222 35.9627ZM25.6509 35.6012C25.6322 35.599 25.6138 35.6005 25.5948 35.6005C25.611 35.6019 25.6342 35.6017 25.6509 35.6012ZM28.2646 26.0565C27.9344 21.0541 21.3702 19.9086 19.5014 24.5923C19.1649 25.4894 19.0964 26.4759 19.359 27.4014C19.9753 29.1823 21.4553 31.0761 20.9409 33.0292C20.9885 33.0462 21.0099 33.0169 21.0471 33.0266C21.1135 33.0421 21.1132 33.0425 21.1428 33.0187C21.2595 33.3719 21.4582 33.7331 21.5023 34.1207C21.6053 34.6373 21.7062 35.135 21.8608 35.6286C22.9342 35.6176 24.1217 35.5868 25.1917 35.5864C25.1836 34.9616 25.2595 34.3378 25.2749 33.7129C24.7841 33.6831 24.2517 33.6352 23.7615 33.6032C23.4996 33.5289 23.1889 33.4809 22.8988 33.4441C22.7432 33.428 22.5557 33.3555 22.3942 33.3669C22.2695 33.3883 22.1641 33.3751 22.0526 33.3154C21.7878 33.2889 21.5113 33.285 21.2632 33.139C21.2656 33.0943 21.336 33.1038 21.3686 33.0845C21.3474 33.0725 21.2987 33.0683 21.3083 33.0336C21.2911 32.9638 21.222 32.9748 21.175 32.9507C21.1613 32.8302 21.5818 32.809 21.6902 32.7318C22.5462 32.3734 23.518 32.2638 24.4368 32.2517C25.0754 32.2058 25.743 32.132 26.3835 32.17C26.5948 30.9817 26.9988 29.8135 27.5585 28.7458C27.9834 27.9069 28.3243 27.0064 28.2646 26.0565ZM11.8185 26.5272C11.8282 26.5759 11.8364 26.7495 11.8995 26.7063C11.9419 26.6986 11.9344 26.7975 11.9503 26.7989C11.9675 26.7879 11.9941 26.7416 12.013 26.77C12.0478 26.824 12.09 26.8572 12.142 26.8667C12.1532 26.8851 12.1646 26.8842 12.1758 26.8901C12.1782 26.8914 12.1808 26.8972 12.183 26.9102C12.1917 26.9662 12.2012 26.9676 12.2109 26.956C12.4272 26.9852 12.6607 27.0307 12.8742 27.1045C12.9741 27.1481 13.0896 27.1977 13.1919 27.1406C13.207 27.1358 13.2221 27.1278 13.2372 27.1349C13.2622 27.1468 13.2871 27.0968 13.3123 27.1291C13.5223 27.1537 13.7541 27.0779 13.966 27.1005C14.0308 27.0979 14.0947 27.0942 14.1405 27.0299C14.1546 27.0197 14.1692 27.0417 14.1817 27.0195C14.1988 26.9746 14.2144 26.9419 14.2325 26.9438C14.2498 26.8881 14.264 26.9458 14.2769 26.8803C14.2884 26.847 14.3227 26.8418 14.3507 26.8339C14.3801 26.845 14.4096 26.7417 14.4407 26.7522C14.4538 26.7592 14.4666 26.7465 14.4796 26.7448C14.5252 26.5973 14.5691 26.4857 14.5897 26.3571C14.5604 26.1996 14.5633 25.9408 14.4895 25.776C14.3749 25.4871 14.3326 25.2861 14.0062 25.2355C13.7286 25.1195 13.4503 25.291 13.1831 25.3312C13.15 25.3205 13.1185 25.3688 13.0901 25.3476C13.0706 25.3451 13.0499 25.3803 13.0303 25.3839C12.8294 25.4373 12.5812 25.4145 12.3956 25.5202C12.3803 25.5238 12.3861 25.4861 12.3644 25.5186C12.281 25.5563 12.1828 25.5455 12.1287 25.639C11.9901 25.8901 11.7962 26.1429 11.8458 26.4444C11.8318 26.4808 11.8252 26.4698 11.8185 26.5272ZM14.9964 18.6773C15.0874 18.7953 15.1817 18.9421 15.2694 19.0707C15.3491 19.2053 15.3817 19.385 15.5134 19.4841C15.6455 19.5242 15.6917 19.6522 15.8065 19.7342C15.9992 19.8108 16.0954 20.0946 16.3088 20.0941C16.3511 20.1501 16.4033 20.0662 16.4348 20.0982C16.463 20.0807 16.4638 20.0911 16.4701 20.0962C16.4725 20.1085 16.524 20.0745 16.5359 20.0773C16.5548 20.0874 16.5814 20.0897 16.5962 20.104C16.6093 20.1325 16.703 20.0804 16.7176 20.1098C16.7545 20.1745 16.8814 20.0323 16.9002 20.0603C16.9003 20.0765 16.9998 19.9883 17.001 20.002C17.2758 19.811 17.4586 19.4656 17.5665 19.1425C17.6501 18.9659 17.5379 18.8244 17.4563 18.6963C17.3446 18.4192 16.996 18.3595 16.79 18.1877C16.7566 18.1924 16.764 18.1586 16.7431 18.1549C16.6897 18.1609 16.6782 18.1202 16.6267 18.1174C16.4837 17.9872 16.3221 17.8508 16.1427 17.7926C16.1289 17.7837 16.1605 17.7621 16.1218 17.7694C16.0362 17.7371 15.9743 17.6599 15.8701 17.6878C15.5945 17.7673 15.2788 17.809 15.1005 18.0573C15.0418 18.0538 14.8681 18.2597 14.9533 18.2808C14.9875 18.3078 14.9135 18.3699 14.9237 18.3822C14.9446 18.387 14.9944 18.3722 14.9883 18.406C14.9755 18.469 14.9805 18.5217 15.0112 18.5655C15.0062 18.5865 15.0149 18.5938 15.0186 18.6059C15.0194 18.6086 15.0172 18.6145 15.0095 18.6252C14.9758 18.671 14.9813 18.6787 14.9964 18.6773ZM22.7348 15.2645C22.6784 15.4461 22.564 15.631 22.641 15.8197C22.6626 15.9242 22.6119 16.0587 22.6656 16.1738C22.6946 16.3651 22.622 16.5937 22.7475 16.7356C22.7293 16.7786 22.8539 16.7864 22.8279 16.8127C22.8537 16.818 22.8613 16.8303 22.8586 16.8386C22.8554 16.8555 22.9294 16.8588 22.924 16.8869C22.9494 16.9293 22.9328 16.9572 22.9936 16.9858C23.0149 16.9982 23.0305 17.0109 23.0237 17.0234C23.004 17.0952 23.1945 17.0845 23.1879 17.1175C23.1981 17.1317 23.3096 17.1416 23.3174 17.1547C23.6275 17.1938 24.511 17.0513 24.5123 16.6467C24.6601 16.3956 24.5272 16.0804 24.45 15.8287C24.4566 15.774 24.4204 15.7159 24.4282 15.6728C24.4308 15.6533 24.3955 15.6326 24.3919 15.613C24.3385 15.4121 24.3612 15.1639 24.2556 14.9783C24.252 14.9619 24.2898 14.9698 24.2572 14.9471C24.2196 14.8638 24.2303 14.7654 24.1368 14.7114C23.8857 14.5728 23.633 14.3789 23.3314 14.4285C23.2926 14.3841 23.0237 14.4075 23.0692 14.4825C23.0583 14.5071 23.0589 14.5169 23.0138 14.5216C22.9128 14.524 23.0503 14.5634 23.0056 14.5958C22.9701 14.6137 22.9658 14.6317 22.9465 14.6495C22.9015 14.687 22.919 14.7485 22.8654 14.7656C22.7911 14.7794 22.8194 14.781 22.8251 14.8073C22.7824 14.9528 22.7715 15.1163 22.7348 15.2645ZM29.6436 19.3327C29.7154 19.4688 29.7637 19.5793 29.8398 19.6846C30.0228 19.8282 30.2734 20.0449 30.5151 20.1054C30.7527 20.2075 30.8399 20.196 31.0455 20.0651C31.3238 19.951 31.3992 19.6326 31.5599 19.4153C31.5911 19.3997 31.5788 19.3429 31.6141 19.338C31.6296 19.3259 31.6195 19.2865 31.6308 19.27C31.6761 19.172 31.7651 19.0884 31.8405 19.0032C31.9334 18.8302 32.0041 18.7117 32.0888 18.545C32.0864 18.3024 31.9721 18.0683 31.8842 17.8381C31.8703 17.8178 31.8442 17.7955 31.808 17.7738C31.7803 17.7448 31.7499 17.7002 31.7184 17.6827C31.7237 17.623 31.5145 17.4509 31.4949 17.5355C31.4669 17.5701 31.4074 17.4958 31.3936 17.5058C31.4054 17.6037 31.345 17.555 31.2899 17.5668C31.2317 17.5616 31.2005 17.6173 31.1504 17.5917C31.1046 17.5583 31.097 17.5639 31.0983 17.5791C31.0332 17.6417 30.9256 17.6927 30.8489 17.7524C30.6904 17.9052 30.435 17.9234 30.2917 18.096C30.2761 18.1211 30.2765 18.1643 30.2462 18.1782C30.2201 18.1876 30.2379 18.2405 30.1972 18.2355C30.0875 18.2999 30.0348 18.4336 29.9428 18.5213C29.8613 18.6328 29.7373 18.6969 29.686 18.8228C29.6788 18.8469 29.6893 18.8801 29.674 18.9011C29.6705 18.911 29.6533 18.9075 29.66 18.9277C29.6792 18.9708 29.692 19.0061 29.6776 19.0171C29.6951 19.0453 29.6846 19.0462 29.6796 19.0524C29.6653 19.0619 29.7156 19.1171 29.6918 19.1328C29.6797 19.1807 29.6483 19.1889 29.6711 19.252C29.6891 19.3008 29.6543 19.2971 29.6436 19.3327ZM35.3748 25.8311C35.365 25.7825 35.3568 25.6088 35.2936 25.6521C35.2512 25.6597 35.2588 25.5608 35.2428 25.5595C35.2257 25.5705 35.199 25.6168 35.1802 25.5885C35.1454 25.5345 35.1032 25.5013 35.0513 25.4918C35.04 25.4734 35.0287 25.4743 35.0174 25.4684C35.015 25.467 35.0122 25.4612 35.0103 25.4483C35.0015 25.3923 34.992 25.3909 34.9824 25.4025C34.766 25.3733 34.5326 25.3278 34.319 25.254C34.2191 25.2103 34.1037 25.1609 34.0013 25.2179C33.9862 25.2226 33.9711 25.2308 33.9561 25.2236C33.9311 25.2117 33.9061 25.2618 33.8809 25.2294C33.6709 25.2048 33.4391 25.2806 33.2272 25.2579C33.1624 25.2606 33.0985 25.2643 33.0528 25.3286C33.0386 25.3388 33.0241 25.3168 33.0115 25.339C32.9944 25.3837 32.9788 25.4165 32.9607 25.4147C32.9434 25.4704 32.9292 25.4127 32.9163 25.4782C32.9048 25.5116 32.8705 25.5166 32.8425 25.5246C32.8131 25.5135 32.7836 25.6168 32.7525 25.6063C32.7395 25.5993 32.7266 25.612 32.7137 25.6137C32.668 25.7612 32.6241 25.8728 32.6035 26.0014C32.6329 26.1589 32.6299 26.4177 32.7037 26.5825C32.8183 26.8713 32.8607 27.0722 33.187 27.123C33.4646 27.239 33.7429 27.0675 34.0102 27.0273C34.0432 27.038 34.0747 26.9897 34.1031 27.0109C34.1226 27.0134 34.1433 26.9782 34.1629 26.9746C34.3638 26.9212 34.612 26.9439 34.7977 26.8383C34.8129 26.8347 34.8073 26.8724 34.8289 26.8398C34.9124 26.8022 35.0107 26.813 35.0646 26.7195C35.2032 26.4683 35.3971 26.2157 35.3475 25.9141C35.3614 25.8774 35.3679 25.8884 35.3748 25.8311ZM32.1968 33.681C32.1057 33.563 32.0115 33.4162 31.9238 33.2877C31.8441 33.153 31.8116 32.9733 31.68 32.8742C31.5477 32.8342 31.5017 32.7061 31.3869 32.6241C31.1942 32.5476 31.0979 32.2638 30.8847 32.2643C30.8424 32.2082 30.7901 32.2922 30.7587 32.2602C30.7304 32.2776 30.7297 32.2672 30.7235 32.2622C30.7137 32.2479 30.659 32.298 30.6431 32.2743C30.5952 32.2623 30.5871 32.2308 30.5239 32.2537C30.5001 32.26 30.4801 32.262 30.476 32.2485C30.4391 32.1839 30.3122 32.326 30.2934 32.298C30.2933 32.282 30.1938 32.3701 30.1926 32.3563C29.9178 32.5473 29.735 32.8928 29.6271 33.2159C29.5436 33.3924 29.6558 33.5339 29.7373 33.6621C29.849 33.9392 30.1976 33.9988 30.4036 34.1706C30.4369 34.166 30.4296 34.1997 30.4505 34.2034C30.5039 34.1974 30.5155 34.2382 30.5669 34.241C30.7099 34.371 30.8715 34.5076 31.051 34.5658C31.0647 34.5746 31.0331 34.5962 31.0718 34.5889C31.1574 34.6213 31.2193 34.6984 31.3235 34.6705C31.5992 34.591 31.9148 34.5494 32.0931 34.301C32.1518 34.3046 32.3255 34.0987 32.2403 34.0775C32.2061 34.0504 32.2801 33.9885 32.2699 33.9762C32.2491 33.9713 32.1992 33.9861 32.2053 33.9524C32.2181 33.8893 32.2131 33.8367 32.1824 33.7929C32.1874 33.7719 32.1787 33.7646 32.175 33.7524C32.1742 33.7498 32.1764 33.7438 32.1841 33.7331C32.2174 33.6873 32.2119 33.6797 32.1968 33.681ZM17.5496 33.0257C17.4776 32.8895 17.4295 32.779 17.3535 32.6736C17.1704 32.53 16.9198 32.3135 16.6782 32.2528C16.4406 32.1508 16.3533 32.1622 16.1477 32.2932C15.8693 32.4074 15.794 32.7257 15.6333 32.943C15.6021 32.9586 15.6144 33.0155 15.5791 33.0204C15.5636 33.0324 15.5737 33.0718 15.5625 33.0884C15.5171 33.1864 15.4281 33.2699 15.3526 33.3551C15.2597 33.5281 15.189 33.6466 15.1043 33.8134C15.1067 34.0559 15.221 34.29 15.3089 34.5203C15.3491 34.5602 15.4286 34.6324 15.4746 34.6757C15.4694 34.7355 15.6786 34.9074 15.6982 34.8229C15.7262 34.7882 15.7857 34.8626 15.7995 34.8524C15.7877 34.7545 15.8481 34.8032 15.903 34.7914C15.9612 34.7967 15.9926 34.7409 16.0425 34.7665C16.0883 34.7999 16.096 34.7943 16.0947 34.7791C16.1599 34.7165 16.2674 34.6655 16.3442 34.6059C16.5027 34.453 16.758 34.4348 16.9014 34.2623C16.917 34.2371 16.9166 34.1939 16.9469 34.18C16.973 34.1706 16.9552 34.1177 16.9958 34.1227C17.1056 34.0583 17.1584 33.9247 17.2503 33.8369C17.3318 33.7254 17.4558 33.6613 17.5071 33.5354C17.5143 33.5113 17.504 33.4781 17.519 33.457C17.5226 33.447 17.5398 33.4506 17.5331 33.4304C17.5139 33.3873 17.5012 33.3521 17.5155 33.341C17.498 33.3127 17.5085 33.3119 17.5135 33.3057C17.5279 33.2963 17.4775 33.241 17.5013 33.2252C17.5134 33.1774 17.5448 33.1693 17.5219 33.1061C17.5041 33.0574 17.5389 33.0611 17.5496 33.0257Z" fill="#FF91B2"/>
</svg>
