<svg width="69" height="61" viewBox="0 0 69 61" fill="none" xmlns="http://www.w3.org/2000/svg">
<path d="M32.6372 13.4591L29.086 19.339M48.2555 22.892L44.7042 28.7719M17.3418 16.5906C16.6834 17.6807 16.8005 19.1519 16.7279 20.3081C16.6308 21.8554 16.483 23.9481 16.8567 25.3642C18.28 30.7581 20.5095 36.4338 24.9886 39.3092C26.9875 40.5925 28.8393 42.4498 31.1374 43.2537C32.6496 43.7826 34.2405 43.9115 35.8052 44.2925C37.3198 44.6613 39.0639 44.0759 40.633 44.1587C43.0086 44.2839 45.9898 43.1772 48.4114 42.4604C50.0561 41.9736 52.5791 40.6617 54.1636 40.9067M12.8154 48.0417L8.12058 45.2062C6.27581 44.092 5.79346 41.2343 4.68955 39.394C2.54909 35.8258 2.49578 27.4053 1.74942 23.4448C1.23831 20.7327 2.76691 16.4557 4.13073 14.1976L7.0862 9.30413C8.32625 7.25095 11.7436 6.47847 13.8052 5.64485C18.9707 3.55612 24.5614 2.46713 30.0282 1.81899C36.1186 1.09692 43.4859 4.17318 49.0259 6.1692C54.0414 7.97627 59.5315 11.9452 62.7054 16.034C65.0981 19.1164 66.2997 23.8959 66.7494 27.7075C67.1942 31.4785 66.0396 34.6432 65.1522 38.2595C64.3861 41.3818 62.7617 45.5195 60.5786 47.9932C55.8306 53.3733 49.2591 60.0917 41.8503 58.5134C39.0129 57.9089 35.939 58.5295 33.0713 58.0197C30.5653 57.5741 26.4591 57.3505 24.2753 56.0316L12.8154 48.0417Z" stroke="#ACE2FF" stroke-width="3" stroke-linecap="round"/>
</svg>
